<?xml version="1.0" encoding="UTF-8" standalone="no"?>
<!-- Created with Inkscape (http://www.inkscape.org/) -->
<svg
   xmlns:dc="http://purl.org/dc/elements/1.1/"
   xmlns:cc="http://creativecommons.org/ns#"
   xmlns:rdf="http://www.w3.org/1999/02/22-rdf-syntax-ns#"
   xmlns:svg="http://www.w3.org/2000/svg"
   xmlns="http://www.w3.org/2000/svg"
   xmlns:xlink="http://www.w3.org/1999/xlink"
   xmlns:sodipodi="http://sodipodi.sourceforge.net/DTD/sodipodi-0.dtd"
   xmlns:inkscape="http://www.inkscape.org/namespaces/inkscape"
   width="48px"
   height="48px"
   id="svg8069"
   sodipodi:version="0.32"
   inkscape:version="0.46"
   sodipodi:docname="arch.svg"
   inkscape:output_extension="org.inkscape.output.svg.inkscape">
  <defs
     id="defs8071">
    <linearGradient
       gradientUnits="userSpaceOnUse"
       id="path1082_2_"
       y2="129.3468"
       x2="112.49853"
       y1="6.1372099"
       x1="112.49854"
       gradientTransform="translate(287,-83)">
      <stop
         id="stop193"
         offset="0"
         style="stop-color:#ffffff;stop-opacity:0" />
      <stop
         id="stop195"
         offset="1"
         style="stop-color:#ffffff;stop-opacity:0.27218935" />
      <midPointStop
         id="midPointStop197"
         style="stop-color:#FFFFFF"
         offset="0" />
      <midPointStop
         id="midPointStop199"
         style="stop-color:#FFFFFF"
         offset="0.5" />
      <midPointStop
         id="midPointStop201"
         style="stop-color:#000000"
         offset="1" />
    </linearGradient>
    <linearGradient
       inkscape:collect="always"
       xlink:href="#path1082_2_"
       id="linearGradient8067"
       gradientUnits="userSpaceOnUse"
       gradientTransform="matrix(-0.12802,0,0,0.1305599,601.39425,199.74876)"
       x1="541.33502"
       y1="104.50665"
       x2="606.91248"
       y2="303.14029" />
    <linearGradient
       id="linearGradient5398">
      <stop
         style="stop-color:#35a6c2;stop-opacity:1;"
         offset="0"
         id="stop5400" />
      <stop
         style="stop-color:#c1e5ee;stop-opacity:1;"
         offset="1"
         id="stop5402" />
    </linearGradient>
    <linearGradient
       inkscape:collect="always"
       xlink:href="#linearGradient5398"
       id="linearGradient8065"
       gradientUnits="userSpaceOnUse"
       gradientTransform="matrix(0.2458837,0,0,0.2460905,471.43005,143.9083)"
       x1="200.96021"
       y1="508.02786"
       x2="301.53638"
       y2="296.88278" />
    <inkscape:perspective
       sodipodi:type="inkscape:persp3d"
       inkscape:vp_x="0 : 24 : 1"
       inkscape:vp_y="0 : 1000 : 0"
       inkscape:vp_z="48 : 24 : 1"
       inkscape:persp3d-origin="24 : 16 : 1"
       id="perspective8077" />
  </defs>
  <sodipodi:namedview
     id="base"
     pagecolor="#ffffff"
     bordercolor="#666666"
     borderopacity="1.0"
     inkscape:pageopacity="0.0"
     inkscape:pageshadow="2"
     inkscape:zoom="13.9167"
     inkscape:cx="11.336739"
     inkscape:cy="20.524981"
     inkscape:current-layer="layer1"
     showgrid="true"
     inkscape:grid-bbox="true"
     inkscape:document-units="px">
    <inkscape:grid
       type="xygrid"
       id="grid8095" />
  </sodipodi:namedview>
  <metadata
     id="metadata8074">
    <rdf:RDF>
      <cc:Work
         rdf:about="">
        <dc:format>image/svg+xml</dc:format>
        <dc:type
           rdf:resource="http://purl.org/dc/dcmitype/StillImage" />
      </cc:Work>
    </rdf:RDF>
  </metadata>
  <g
     id="layer1"
     inkscape:label="Layer 1"
     inkscape:groupmode="layer">
    <g
       id="g8059"
       transform="matrix(0.625,0,0,0.625,-308.28905,-124.39457)">
      <path
         style="fill:url(#linearGradient8065);fill-opacity:1;fill-rule:evenodd;stroke:#0088aa;stroke-width:1.60000002;stroke-linecap:butt;stroke-linejoin:round;stroke-miterlimit:10;stroke-dasharray:none;stroke-opacity:1"
         d="M 531.65934,205.93132 C 528.85514,212.80646 527.15804,217.30953 524.03594,223.98029 C 525.95018,226.00939 529.73608,228.26016 532.1185,231.03131 C 528.01613,229.34321 525.2214,227.65429 523.13018,225.89558 C 519.13449,234.2332 512.86625,246.10524 500.16248,268.93132 C 510.10061,263.19387 517.81684,259.64004 525.00143,258.26988 C 524.69627,256.94792 524.53043,255.51475 524.54228,254.02417 L 524.54856,253.70968 C 524.70639,247.33158 528.02163,242.42587 531.94867,242.7589 C 535.87571,243.09192 538.93423,248.53926 538.7764,254.91735 C 538.74721,256.09689 538.6092,257.22428 538.38014,258.27932 C 545.55178,259.65739 553.25337,263.21061 563.16248,268.93132 C 561.22033,265.35568 559.4778,262.13217 557.82233,259.06241 C 555.21469,257.04132 552.49823,254.41243 546.95018,251.56481 C 550.76359,252.55569 553.49574,253.70241 555.62399,254.98025 C 538.79237,223.64271 537.43127,219.47641 531.65934,205.93132 z"
         id="path8274"
         sodipodi:nodetypes="ccccccccsscccccc" />
      <path
         style="fill:none;fill-opacity:1;fill-rule:evenodd;stroke:#d7f3f8;stroke-width:1.27999997;stroke-linecap:round;stroke-linejoin:round;stroke-miterlimit:10;stroke-dasharray:none;stroke-opacity:1"
         d="M 531.65957,208.2722 C 529.06376,214.63642 528.70586,217.50495 525.81577,223.67998 C 527.58776,225.55829 533.39778,229.55663 535.10175,232.7753 C 531.30425,232.0084 525.47154,229.18439 523.53572,227.55637 C 519.83696,235.27441 514.26307,245.46065 502.50336,266.59045 C 511.70295,261.27935 517.28181,258.65148 523.93249,257.38313 C 523.65001,256.15941 523.49648,254.83275 523.50744,253.45295 L 523.51327,252.90951 C 523.65938,247.00541 528.2922,241.39287 531.9274,241.70115 C 535.56261,242.00942 540.02468,248.27323 539.87857,254.17734 C 539.85155,255.26922 539.72379,256.31285 539.51176,257.28948 C 546.15045,258.56514 551.64888,261.29485 560.8216,266.59045 C 559.02378,263.28052 557.67081,261.65178 556.13837,258.81014 C 553.53612,256.97691 549.10262,254.15246 544.91673,250.65824 C 546.78437,249.46447 551.49954,252.15599 553.66377,253.26122 C 538.08297,224.25249 537.00257,220.81071 531.65957,208.2722 z"
         id="path8276"
         sodipodi:nodetypes="ccccccccsscccccc" />
      <path
         style="fill:#ffffff;fill-opacity:0.45562128;fill-rule:evenodd;stroke:none;stroke-width:36.09999847;stroke-linecap:butt;stroke-linejoin:round;stroke-miterlimit:10;stroke-opacity:1"
         d="M 549.29158,244.19409 C 535.63668,225.66047 532.47163,210.72293 531.66993,207.15668 C 538.95384,223.95731 538.90409,224.16335 549.29158,244.19409 z"
         id="path8280"
         sodipodi:nodetypes="ccc" />
      <path
         id="path8278"
         d="M 532.0734,206.18132 C 531.72687,207.05017 531.38217,207.87982 531.06227,208.68132 C 530.71078,209.56194 530.38334,210.41961 530.05114,211.24382 C 529.71896,212.06805 529.39705,212.85616 529.07065,213.65007 C 528.74424,214.44402 528.42426,215.2353 528.09016,216.02507 C 527.75609,216.81482 527.40364,217.61965 527.04839,218.43132 C 526.69313,219.24301 526.33524,220.0716 525.94533,220.93132 C 525.5554,221.79103 525.1271,222.68499 524.68908,223.61882 C 524.62917,223.74655 524.5662,223.89568 524.50524,224.02507 C 526.39091,226.04625 530.08617,228.26775 532.41045,231.02507 C 528.38811,229.33697 525.63645,227.65878 523.58603,225.90007 C 523.47828,226.12443 523.39068,226.32651 523.27962,226.55632 C 522.87511,227.41115 522.4483,228.27534 521.99273,229.21257 C 521.88597,229.42903 521.79602,229.61612 521.68633,229.83757 C 521.20205,230.8287 520.70429,231.8319 520.15431,232.93132 C 520.04387,233.15056 519.93045,233.33233 519.81726,233.55632 C 518.4029,236.37345 516.73512,239.66174 514.79225,243.36882 C 522.63411,238.86675 531.07605,232.33483 546.44373,237.93132 C 545.67417,236.44479 544.96334,235.05449 544.29891,233.74382 C 543.63448,232.43311 543.03369,231.21702 542.46048,230.05632 C 541.88733,228.89566 541.33231,227.78036 540.83655,226.74382 C 540.34081,225.7073 539.88989,224.74461 539.45773,223.80632 C 539.02556,222.86804 538.61453,221.95347 538.23212,221.08757 C 537.84968,220.22169 537.50626,219.40693 537.1597,218.58757 C 536.81311,217.76818 536.47309,216.94875 536.14857,216.15007 C 535.82404,215.35135 535.51502,214.579 535.19872,213.77507 C 535.11495,213.5622 535.0374,213.3332 534.9536,213.11882 C 534.04356,210.94386 533.15538,208.77352 532.0734,206.18132 z"
         style="fill:url(#linearGradient8067);fill-opacity:1;fill-rule:evenodd;stroke:none;stroke-width:0.71416688;stroke-linecap:round;stroke-linejoin:round;stroke-miterlimit:10;stroke-dasharray:none;stroke-opacity:1" />
    </g>
  </g>
</svg>
