<?xml version="1.0" encoding="UTF-8" standalone="no"?>
<!-- Created with Inkscape (http://www.inkscape.org/) -->
<svg
   xmlns:dc="http://purl.org/dc/elements/1.1/"
   xmlns:cc="http://creativecommons.org/ns#"
   xmlns:rdf="http://www.w3.org/1999/02/22-rdf-syntax-ns#"
   xmlns:svg="http://www.w3.org/2000/svg"
   xmlns="http://www.w3.org/2000/svg"
   xmlns:xlink="http://www.w3.org/1999/xlink"
   xmlns:sodipodi="http://sodipodi.sourceforge.net/DTD/sodipodi-0.dtd"
   xmlns:inkscape="http://www.inkscape.org/namespaces/inkscape"
   width="48px"
   height="48px"
   id="svg3150"
   sodipodi:version="0.32"
   inkscape:version="0.46"
   sodipodi:docname="f1spirit.svg"
   inkscape:output_extension="org.inkscape.output.svg.inkscape">
  <defs
     id="defs3152">
    <linearGradient
       id="linearGradient6371">
      <stop
         style="stop-color:#ffffff;stop-opacity:1;"
         offset="0"
         id="stop6373" />
      <stop
         id="stop6381"
         offset="0.53643739"
         style="stop-color:#ffffff;stop-opacity:0" />
      <stop
         style="stop-color:#ffffff;stop-opacity:1"
         offset="1"
         id="stop6375" />
    </linearGradient>
    <linearGradient
       y2="11.564228"
       x2="29.10754"
       y1="11.564228"
       x1="5.0937495"
       gradientUnits="userSpaceOnUse"
       id="linearGradient10465"
       xlink:href="#linearGradient6371"
       inkscape:collect="always" />
    <filter
       inkscape:collect="always"
       id="filter6361"
       x="-0.19250745"
       width="1.3850149"
       y="-0.20393866"
       height="1.4078773">
      <feGaussianBlur
         inkscape:collect="always"
         stdDeviation="3.3299361"
         id="feGaussianBlur6363" />
    </filter>
    <linearGradient
       inkscape:collect="always"
       id="linearGradient5541">
      <stop
         style="stop-color:#ffffff;stop-opacity:1;"
         offset="0"
         id="stop5543" />
      <stop
         style="stop-color:#ffffff;stop-opacity:0;"
         offset="1"
         id="stop5545" />
    </linearGradient>
    <radialGradient
       inkscape:collect="always"
       xlink:href="#linearGradient5541"
       id="radialGradient5547"
       cx="147.50723"
       cy="154.79147"
       fx="147.50723"
       fy="154.79147"
       r="20.75724"
       gradientTransform="matrix(1,0,0,0.9439477,0,7.9786907)"
       gradientUnits="userSpaceOnUse" />
    <filter
       inkscape:collect="always"
       id="filter5535"
       x="-0.11724138"
       width="1.2344828"
       y="-0.11724138"
       height="1.2344828">
      <feGaussianBlur
         inkscape:collect="always"
         stdDeviation="0.21372126"
         id="feGaussianBlur5537" />
    </filter>
    <linearGradient
       inkscape:collect="always"
       id="linearGradient5455">
      <stop
         style="stop-color:#000000;stop-opacity:1;"
         offset="0"
         id="stop5457" />
      <stop
         style="stop-color:#000000;stop-opacity:0;"
         offset="1"
         id="stop5459-0" />
    </linearGradient>
    <radialGradient
       inkscape:collect="always"
       xlink:href="#linearGradient5455"
       id="radialGradient5461"
       cx="43.125"
       cy="156.625"
       fx="43.125"
       fy="156.625"
       r="4.1875"
       gradientUnits="userSpaceOnUse"
       gradientTransform="matrix(1.149961,0,0,1.149961,-6.4670705,-23.487654)" />
    <filter
       inkscape:collect="always"
       id="filter6333"
       x="-0.22125673"
       width="1.4425135"
       y="-0.14440835"
       height="1.2888167">
      <feGaussianBlur
         inkscape:collect="always"
         stdDeviation="2.9961849"
         id="feGaussianBlur6335" />
    </filter>
    <linearGradient
       inkscape:collect="always"
       id="linearGradient5415">
      <stop
         style="stop-color:#000000;stop-opacity:1;"
         offset="0"
         id="stop5417" />
      <stop
         style="stop-color:#000000;stop-opacity:0;"
         offset="1"
         id="stop5419" />
    </linearGradient>
    <linearGradient
       inkscape:collect="always"
       xlink:href="#linearGradient5415"
       id="linearGradient5421"
       x1="161.5"
       y1="152.89761"
       x2="182"
       y2="143.39761"
       gradientUnits="userSpaceOnUse" />
    <linearGradient
       inkscape:collect="always"
       id="linearGradient5377">
      <stop
         style="stop-color:#ffffff;stop-opacity:1;"
         offset="0"
         id="stop5379" />
      <stop
         style="stop-color:#ffffff;stop-opacity:0;"
         offset="1"
         id="stop5381" />
    </linearGradient>
    <linearGradient
       inkscape:collect="always"
       xlink:href="#linearGradient5377"
       id="linearGradient5383"
       x1="126.69344"
       y1="47.049946"
       x2="111.13708"
       y2="50.939034"
       gradientUnits="userSpaceOnUse"
       gradientTransform="matrix(0.1033696,0.1034387,-0.1033696,0.1034387,23.206947,-1.8347189)" />
    <linearGradient
       inkscape:collect="always"
       id="linearGradient5347">
      <stop
         style="stop-color:#000000;stop-opacity:1;"
         offset="0"
         id="stop5349" />
      <stop
         style="stop-color:#000000;stop-opacity:0;"
         offset="1"
         id="stop5351" />
    </linearGradient>
    <linearGradient
       inkscape:collect="always"
       xlink:href="#linearGradient5347"
       id="linearGradient5353"
       x1="122.80435"
       y1="58.893986"
       x2="141.30003"
       y2="58.893986"
       gradientUnits="userSpaceOnUse"
       gradientTransform="matrix(0.1033696,0.1034387,-0.1033696,0.1034387,23.206947,-1.8347189)" />
    <filter
       inkscape:collect="always"
       id="filter5598"
       x="-0.18836206"
       width="1.3767241"
       y="-0.13699061"
       height="1.2739812">
      <feGaussianBlur
         inkscape:collect="always"
         stdDeviation="2.4418551"
         id="feGaussianBlur5600" />
    </filter>
    <linearGradient
       inkscape:collect="always"
       id="linearGradient5514">
      <stop
         style="stop-color:#000000;stop-opacity:1;"
         offset="0"
         id="stop5516" />
      <stop
         style="stop-color:#000000;stop-opacity:0;"
         offset="1"
         id="stop5518" />
    </linearGradient>
    <linearGradient
       inkscape:collect="always"
       xlink:href="#linearGradient5514"
       id="linearGradient5520"
       x1="233.69879"
       y1="160.3638"
       x2="215.31401"
       y2="146.22166"
       gradientUnits="userSpaceOnUse"
       gradientTransform="translate(-1.7677669,-2.1213203)" />
    <filter
       inkscape:collect="always"
       id="filter6269"
       x="-0.13623703"
       width="1.2724741"
       y="-0.10176544"
       height="1.2035309">
      <feGaussianBlur
         inkscape:collect="always"
         stdDeviation="5.6925043"
         id="feGaussianBlur6271" />
    </filter>
    <linearGradient
       inkscape:collect="always"
       xlink:href="#linearGradient5659"
       id="linearGradient5502"
       gradientUnits="userSpaceOnUse"
       x1="96.800377"
       y1="140.30589"
       x2="122.56693"
       y2="111.73708"
       gradientTransform="translate(7,-5)" />
    <filter
       inkscape:collect="always"
       id="filter6298"
       x="-0.31117725"
       width="1.6223545"
       y="-0.082990617"
       height="1.1659812">
      <feGaussianBlur
         inkscape:collect="always"
         stdDeviation="2.5934567"
         id="feGaussianBlur6300" />
    </filter>
    <linearGradient
       inkscape:collect="always"
       id="linearGradient6274">
      <stop
         style="stop-color:#204a87;stop-opacity:1;"
         offset="0"
         id="stop6276" />
      <stop
         style="stop-color:#204a87;stop-opacity:0;"
         offset="1"
         id="stop6278" />
    </linearGradient>
    <radialGradient
       inkscape:collect="always"
       xlink:href="#linearGradient6274"
       id="radialGradient6280"
       cx="62.18766"
       cy="92.187012"
       fx="62.18766"
       fy="92.187012"
       r="10.001207"
       gradientTransform="matrix(2.5748099,0.1499819,-0.2180404,3.7432024,-84.019706,-269.15168)"
       gradientUnits="userSpaceOnUse" />
    <filter
       inkscape:collect="always"
       id="filter6268"
       x="-0.47836992"
       width="1.9567398"
       y="-0.05369458"
       height="1.1073892">
      <feGaussianBlur
         inkscape:collect="always"
         stdDeviation="1.0962644"
         id="feGaussianBlur6270" />
    </filter>
    <linearGradient
       inkscape:collect="always"
       id="linearGradient6252-26">
      <stop
         style="stop-color:#000000;stop-opacity:1;"
         offset="0"
         id="stop6254-9" />
      <stop
         style="stop-color:#000000;stop-opacity:0;"
         offset="1"
         id="stop6256-97" />
    </linearGradient>
    <linearGradient
       inkscape:collect="always"
       xlink:href="#linearGradient6252-26"
       id="linearGradient6258"
       x1="36.5"
       y1="43"
       x2="29.75"
       y2="43"
       gradientUnits="userSpaceOnUse" />
    <filter
       inkscape:collect="always"
       id="filter6205"
       x="-0.22513618"
       width="1.4502724"
       y="-0.12085624"
       height="1.2417125">
      <feGaussianBlur
         inkscape:collect="always"
         stdDeviation="7.6930819"
         id="feGaussianBlur6207" />
    </filter>
    <linearGradient
       inkscape:collect="always"
       id="linearGradient6138">
      <stop
         style="stop-color:#ffffff;stop-opacity:1;"
         offset="0"
         id="stop6140" />
      <stop
         style="stop-color:#ffffff;stop-opacity:0;"
         offset="1"
         id="stop6142" />
    </linearGradient>
    <radialGradient
       inkscape:collect="always"
       xlink:href="#linearGradient6138"
       id="radialGradient6144"
       cx="127.61979"
       cy="98.91613"
       fx="127.61979"
       fy="98.91613"
       r="37.369789"
       gradientTransform="matrix(1,0,0,1.769766,-36,-78.944184)"
       gradientUnits="userSpaceOnUse" />
    <filter
       inkscape:collect="always"
       id="filter6132">
      <feGaussianBlur
         inkscape:collect="always"
         stdDeviation="0.43954647"
         id="feGaussianBlur6134" />
    </filter>
    <linearGradient
       inkscape:collect="always"
       id="linearGradient6104">
      <stop
         style="stop-color:#ffffff;stop-opacity:1;"
         offset="0"
         id="stop6106" />
      <stop
         style="stop-color:#ffffff;stop-opacity:0;"
         offset="1"
         id="stop6108" />
    </linearGradient>
    <radialGradient
       inkscape:collect="always"
       xlink:href="#linearGradient6104"
       id="radialGradient6110"
       cx="51.962173"
       cy="93.392845"
       fx="51.962173"
       fy="93.392845"
       r="6.9810858"
       gradientTransform="matrix(4.5094827,0.1432442,-0.3160772,9.9504525,-154.591,-857.74433)"
       gradientUnits="userSpaceOnUse" />
    <filter
       inkscape:collect="always"
       id="filter5982"
       x="-0.1724138"
       width="1.3448277"
       y="-0.1724138"
       height="1.3448277">
      <feGaussianBlur
         inkscape:collect="always"
         stdDeviation="0.79022989"
         id="feGaussianBlur5984" />
    </filter>
    <linearGradient
       inkscape:collect="always"
       id="linearGradient5934">
      <stop
         style="stop-color:#ffffff;stop-opacity:1;"
         offset="0"
         id="stop5936" />
      <stop
         style="stop-color:#ffffff;stop-opacity:0;"
         offset="1"
         id="stop5938" />
    </linearGradient>
    <radialGradient
       inkscape:collect="always"
       xlink:href="#linearGradient5934"
       id="radialGradient5940"
       cx="22.5"
       cy="22"
       fx="22.5"
       fy="22"
       r="5.5"
       gradientUnits="userSpaceOnUse" />
    <filter
       inkscape:collect="always"
       id="filter6169"
       x="-0.21083462"
       width="1.4216692"
       y="-0.086161204"
       height="1.1723224">
      <feGaussianBlur
         inkscape:collect="always"
         stdDeviation="3.8908714"
         id="feGaussianBlur6171" />
    </filter>
    <linearGradient
       inkscape:collect="always"
       id="linearGradient5504">
      <stop
         style="stop-color:#ffffff;stop-opacity:1;"
         offset="0"
         id="stop5506" />
      <stop
         style="stop-color:#ffffff;stop-opacity:0;"
         offset="1"
         id="stop5508" />
    </linearGradient>
    <radialGradient
       inkscape:collect="always"
       xlink:href="#linearGradient5504"
       id="radialGradient5510"
       cx="220.40942"
       cy="68.161156"
       fx="220.40942"
       fy="68.161156"
       r="22.145536"
       gradientTransform="matrix(3.1417338,0,0,4.0924685,-459.67668,-213.87841)"
       gradientUnits="userSpaceOnUse" />
    <filter
       inkscape:collect="always"
       id="filter5703"
       x="-0.22176725"
       width="1.4435345"
       y="-0.10752351"
       height="1.215047">
      <feGaussianBlur
         inkscape:collect="always"
         stdDeviation="3.6961207"
         id="feGaussianBlur5705" />
    </filter>
    <linearGradient
       inkscape:collect="always"
       id="linearGradient5659">
      <stop
         style="stop-color:#000000;stop-opacity:1;"
         offset="0"
         id="stop5661" />
      <stop
         style="stop-color:#000000;stop-opacity:0;"
         offset="1"
         id="stop5663" />
    </linearGradient>
    <linearGradient
       inkscape:collect="always"
       xlink:href="#linearGradient5659"
       id="linearGradient5665"
       x1="84.5"
       y1="143.75"
       x2="157.5"
       y2="141.75"
       gradientUnits="userSpaceOnUse" />
    <filter
       inkscape:collect="always"
       id="filter6026"
       x="-0.7444436"
       width="2.4888873"
       y="-0.024946809"
       height="1.0498936">
      <feGaussianBlur
         inkscape:collect="always"
         stdDeviation="2.0472199"
         id="feGaussianBlur6028" />
    </filter>
    <linearGradient
       inkscape:collect="always"
       id="linearGradient6173">
      <stop
         style="stop-color:white;stop-opacity:1;"
         offset="0"
         id="stop6175" />
      <stop
         style="stop-color:white;stop-opacity:0;"
         offset="1"
         id="stop6177" />
    </linearGradient>
    <linearGradient
       inkscape:collect="always"
       xlink:href="#linearGradient6173"
       id="linearGradient6179"
       x1="5.5"
       y1="30.855261"
       x2="5.5"
       y2="48.727997"
       gradientUnits="userSpaceOnUse"
       gradientTransform="matrix(5.7844399,0,0,5.7749968,-6.601397,-21.037492)" />
    <linearGradient
       id="linearGradient6034">
      <stop
         id="stop6036"
         offset="0"
         style="stop-color:#888a85;stop-opacity:1" />
      <stop
         id="stop6038"
         offset="1"
         style="stop-color:#4a4d45;stop-opacity:1;" />
    </linearGradient>
    <linearGradient
       inkscape:collect="always"
       xlink:href="#linearGradient6034"
       id="linearGradient6032"
       gradientUnits="userSpaceOnUse"
       gradientTransform="matrix(1.2296253,0,0,0.9991263,11.274996,-23.152495)"
       x1="4.9627333"
       y1="29.567289"
       x2="7.5042644"
       y2="29.567289" />
    <linearGradient
       inkscape:collect="always"
       id="linearGradient9399">
      <stop
         style="stop-color:#505050;stop-opacity:1;"
         offset="0"
         id="stop9401" />
      <stop
         id="stop9407"
         offset="0.29035687"
         style="stop-color:#505050;stop-opacity:0.5" />
      <stop
         style="stop-color:#505050;stop-opacity:1"
         offset="0.48969084"
         id="stop9409" />
      <stop
         style="stop-color:#505050;stop-opacity:0.5"
         offset="1"
         id="stop9403" />
    </linearGradient>
    <linearGradient
       inkscape:collect="always"
       xlink:href="#linearGradient9399"
       id="linearGradient9405"
       x1="19.875"
       y1="13.0625"
       x2="38"
       y2="31.3125"
       gradientUnits="userSpaceOnUse" />
    <linearGradient
       id="linearGradient5239">
      <stop
         style="stop-color:#afafaf;stop-opacity:1"
         offset="0"
         id="stop5241" />
      <stop
         id="stop5247"
         offset="0.1986732"
         style="stop-color:#ffffff;stop-opacity:1" />
      <stop
         style="stop-color:#7d7d7d;stop-opacity:1"
         offset="0.47319216"
         id="stop5249" />
      <stop
         id="stop5251"
         offset="0.69892961"
         style="stop-color:#d0d0d0;stop-opacity:1" />
      <stop
         style="stop-color:#f1f1f1;stop-opacity:1"
         offset="1"
         id="stop5243" />
    </linearGradient>
    <linearGradient
       inkscape:collect="always"
       xlink:href="#linearGradient5239"
       id="linearGradient5579"
       gradientUnits="userSpaceOnUse"
       gradientTransform="matrix(0.5979356,0.598335,-0.5980101,0.5984096,25.303948,-4.1021542)"
       x1="9.0877619"
       y1="21.214285"
       x2="35.799229"
       y2="19.976284" />
    <inkscape:perspective
       sodipodi:type="inkscape:persp3d"
       inkscape:vp_x="0 : 24 : 1"
       inkscape:vp_y="0 : 1000 : 0"
       inkscape:vp_z="48 : 24 : 1"
       inkscape:persp3d-origin="24 : 16 : 1"
       id="perspective3158" />
  </defs>
  <sodipodi:namedview
     id="base"
     pagecolor="#ffffff"
     bordercolor="#666666"
     borderopacity="1.0"
     inkscape:pageopacity="0.0"
     inkscape:pageshadow="2"
     inkscape:zoom="7"
     inkscape:cx="24"
     inkscape:cy="24"
     inkscape:current-layer="layer1"
     showgrid="true"
     inkscape:grid-bbox="true"
     inkscape:document-units="px"
     inkscape:window-width="641"
     inkscape:window-height="714"
     inkscape:window-x="2"
     inkscape:window-y="309" />
  <metadata
     id="metadata3155">
    <rdf:RDF>
      <cc:Work
         rdf:about="">
        <dc:format>image/svg+xml</dc:format>
        <dc:type
           rdf:resource="http://purl.org/dc/dcmitype/StillImage" />
      </cc:Work>
    </rdf:RDF>
  </metadata>
  <g
     id="layer1"
     inkscape:label="Layer 1"
     inkscape:groupmode="layer">
    <g
       style="display:inline;enable-background:new"
       transform="translate(2.3400413,3.1810564)"
       id="g10299">
      <path
         sodipodi:nodetypes="ccscsscscscscsccsssccsssc"
         id="path4319"
         d="M 32.712421,10.181638 C 30.433478,7.879531 24.53955,4.4409982 24.53955,4.4409982 C 24.53955,4.4409982 21.938633,9.435672 18.283966,13.09278 C 14.629299,16.749887 9.778581,19.211825 9.778581,19.211825 C 9.778581,19.211825 11.673652,19.733142 14.100725,21.914162 C 15.339363,23.027229 15.577009,24.764358 16.429564,25.712509 C 17.282119,26.66066 20.556775,29.91536 23.100345,31.585681 C 23.100345,31.585681 22.797782,32.912076 24.185727,33.99063 C 25.391018,34.927246 30.798155,38.861947 30.798155,38.861947 C 30.798155,38.861947 34.16198,37.169274 37.207075,32.965942 C 40.203758,28.82943 45.731842,24.435481 45.731842,24.435481 C 45.731842,24.435481 40.727677,21.236935 37.814372,18.523312 C 34.901065,15.809688 34.20618,15.025438 33.456694,13.690784 C 33.792587,12.821603 35.04051,12.677269 32.919159,10.401445 C 32.852869,10.330325 32.785935,10.255899 32.712421,10.181638 L 32.712421,10.181638 z M 24.823817,5.0551651 C 24.870187,5.1015581 24.870187,5.1768605 24.823817,5.2232528 C 24.777447,5.2696458 24.702202,5.2696448 24.655841,5.2232528 C 24.609471,5.1768598 24.609471,5.1015573 24.655841,5.0551651 C 24.702201,5.0087721 24.777455,5.0087721 24.823817,5.0551651 z M 11.48095,18.969391 C 11.54548,19.033961 11.54548,19.137562 11.48095,19.202128 C 11.41642,19.266698 11.309662,19.269938 11.245138,19.205328 C 11.180608,19.140758 11.183848,19.033927 11.248338,18.969359 C 11.312868,18.904789 11.416394,18.904789 11.480919,18.969359 L 11.48095,18.969391 z"
         style="fill:url(#linearGradient5579);fill-opacity:1;fill-rule:evenodd;stroke:none" />
      <path
         d="M 33.375,28.25 L 36.25,24.625 L 41,28 L 37.625,31.875 L 33.375,28.25 z M 29.875,31.875 L 27.375,35.625 L 30.75,38.5 L 34.5,34.75 L 29.875,31.875 z M 29.5,26 L 33.25,28.25 L 29.75,31.875 L 27.125,29.25 L 29.5,26 z M 32.25,22.25 L 36.375,18.125 L 39.75,20.875 L 35.875,24.875 L 32.25,22.25 z M 24.75,26.875 L 27.25,29.375 L 23.875,33 L 21.5,30.25 L 24.75,26.875 z M 30,20.75 L 27.5,23.5 L 29.375,26.125 L 32.25,22.25 L 30,20.75 z M 28.625,16.75 L 29.5,20.125 L 33.875,14.75 L 33.25,13.5 L 28.625,16.75 z M 24.875,22 L 22.625,24.625 L 24.75,26.75 L 27.5,23.5 L 24.875,22 z M 21.125,23.375 L 22.5,24.5 L 19,28.125 L 17.625,27 L 21.125,23.375 z M 27.875,14.75 L 24.375,19.375 L 24.5,21.75 L 28.5,16.5 L 27.875,14.75 z M 25.875,11.375 L 27.875,13.75 L 31.25,9.4999999 L 28.625,7.1249999 L 25.875,11.375 z M 22.75,15.625 L 19.125,19.375 L 20.75,23.125 L 24,19.5 L 22.75,15.625 z M 19.75,12.375 L 22.875,15.625 L 25.875,11.375 L 22.375,8.6249999 L 19.75,12.375 z M 15.625,16.125 L 10.625,19 L 14.875,22.375 L 19.25,19.375 L 15.625,16.125 z"
         style="fill:url(#linearGradient9405);fill-opacity:1;fill-rule:nonzero;stroke:#555753;stroke-width:3;stroke-linecap:square;stroke-linejoin:round;marker:none;stroke-miterlimit:4;stroke-dasharray:none;stroke-dashoffset:0;stroke-opacity:0;visibility:visible;display:inline;overflow:visible;enable-background:accumulate"
         id="path9396" />
      <rect
         transform="matrix(0.7068707,0.7073428,-0.7068707,0.7073428,0,0)"
         style="fill:url(#linearGradient6032);fill-opacity:1;stroke:none"
         id="rect6030"
         width="3.6888738"
         height="38.965958"
         x="16.808311"
         y="-15.659045"
         rx="1.6021831"
         ry="1.1124539" />
      <path
         transform="matrix(0.1033696,0.1034387,-0.1382719,0.1383643,24.072772,-3.4136312)"
         sodipodi:nodetypes="cc"
         id="path5255"
         d="M 25.213025,28.107138 L 25.213025,218.45929"
         style="opacity:0.43069308;fill:none;stroke:url(#linearGradient6179);stroke-width:5.73313808;stroke-linecap:round;stroke-linejoin:miter;stroke-miterlimit:4;stroke-dasharray:none;stroke-opacity:1;filter:url(#filter6026)" />
      <path
         transform="matrix(0.1033696,0.1034387,-0.1033696,0.1034387,23.206946,-1.8347189)"
         sodipodi:nodetypes="cccc"
         id="path5657"
         d="M 140.75,57 C 135.5,89.25 78.75,157.75 78.75,157.75 L 108.25,160.25 C 108.25,160.25 141.8729,126.17929 140.75,57 z"
         style="opacity:0.07228914;fill:url(#linearGradient5665);fill-opacity:1;fill-rule:nonzero;stroke:none;stroke-width:5;marker:none;visibility:visible;display:inline;overflow:visible;filter:url(#filter5703);enable-background:accumulate" />
      <path
         transform="matrix(0.1427486,0.1428439,-0.1427486,0.1428439,14.103033,-11.811629)"
         sodipodi:nodetypes="cccc"
         id="path5707"
         d="M 232.63793,18.12069 L 194.06897,25.844828 C 219.37036,71.88056 195.83267,92.93963 188.5,126.5 C 206.08264,97.860518 235.15394,99.191431 232.63793,18.12069 z"
         style="opacity:0.44059406;fill:url(#radialGradient5510);fill-opacity:1;fill-rule:nonzero;stroke:none;stroke-width:5;marker:none;visibility:visible;display:inline;overflow:visible;filter:url(#filter6169);enable-background:accumulate" />
      <path
         transform="matrix(0.1033696,0.1034387,-5.403415e-2,5.407024e-2,22.461398,-1.217082)"
         d="M 28,22 A 5.5,5.5 0 1 1 17,22 A 5.5,5.5 0 1 1 28,22 z"
         sodipodi:ry="5.5"
         sodipodi:rx="5.5"
         sodipodi:cy="22"
         sodipodi:cx="22.5"
         id="path5932"
         style="fill:url(#radialGradient5940);fill-opacity:1;fill-rule:nonzero;stroke:none;stroke-width:5;marker:none;visibility:visible;display:inline;overflow:visible;filter:url(#filter5982);enable-background:accumulate"
         sodipodi:type="arc" />
      <path
         transform="matrix(0.1033696,0.1034387,-0.1033696,0.1034387,23.206946,-1.8347189)"
         sodipodi:nodetypes="ccc"
         id="path6102"
         d="M 36.25,25.5 C 52.583333,70.5 52.916667,116.83333 37.25,164.5 C 52.378506,119.1642 56.933006,72.968796 36.25,25.5 z"
         style="opacity:0.51204816;fill:url(#radialGradient6110);fill-opacity:1;fill-rule:nonzero;stroke:none;stroke-width:6.5999999;marker:none;visibility:visible;display:inline;overflow:visible;filter:url(#filter6132);enable-background:accumulate" />
      <path
         transform="matrix(0.1033696,0.1034387,-0.1033696,0.1034387,23.206946,-1.8347189)"
         sodipodi:nodetypes="cscszc"
         id="path6136"
         d="M 26,15.75 C 52.00979,42.02727 104.38283,55.900988 107.75,77.25 C 112.90206,109.91585 39.75,168.5 39.75,168.5 C 39.75,168.5 75.25,115.9375 82,89 C 88.75,62.0625 55.45504,47.475446 47.25,40.75 C 39.04496,34.024554 26.25,15 26,15.75 z"
         style="fill:url(#radialGradient6144);fill-opacity:1;fill-rule:nonzero;stroke:none;stroke-width:6.5999999;marker:none;visibility:visible;display:inline;overflow:visible;filter:url(#filter6205);enable-background:accumulate" />
      <path
         transform="matrix(0.1033696,0.1034387,-0.1033696,0.1034387,23.206946,-1.8347189)"
         id="path6250"
         d="M 36.5,25 L 31,39.5 L 36.25,74 L 36.5,25 z"
         style="opacity:0.40361448;fill:url(#linearGradient6258);fill-opacity:1;fill-rule:nonzero;stroke:none;stroke-width:1;marker:none;visibility:visible;display:inline;overflow:visible;filter:url(#filter6268);enable-background:accumulate" />
      <path
         transform="matrix(0.1343768,0.1344666,-0.1033696,0.1034387,21.780617,-3.2620005)"
         sodipodi:nodetypes="ccsc"
         id="path6272"
         d="M 47,57 C 56.181345,85.171559 50.315208,108.32729 46,132 C 46,132 65.75,101.75 66,83 C 66.25,64.25 47,57 47,57 z"
         style="opacity:0.24698797;fill:url(#radialGradient6280);fill-opacity:1;fill-rule:nonzero;stroke:none;stroke-width:1;marker:none;visibility:visible;display:inline;overflow:visible;filter:url(#filter6298);enable-background:accumulate" />
      <path
         transform="matrix(0.1033696,0.1034387,-0.1033696,0.1034387,23.206946,-1.8347189)"
         style="opacity:0.21782179;fill:url(#linearGradient5502);fill-opacity:1;fill-rule:nonzero;stroke:none;stroke-width:5;marker:none;visibility:visible;display:inline;overflow:visible;filter:url(#filter6269);enable-background:accumulate"
         d="M 159.75,32 C 154.5,64.25 85.75,152.75 85.75,152.75 L 176.25,166.25 C 176.25,166.25 206.8729,93.17929 159.75,32 z"
         id="path5480"
         sodipodi:nodetypes="cccc" />
      <path
         transform="matrix(0.1033696,0.1034387,-0.1033696,0.1034387,23.206946,-1.8347189)"
         id="path5512"
         d="M 202.93965,165.49033 L 230.51682,156.6515 L 234.05235,122.71037 L 202.93965,165.49033 z"
         style="opacity:0.16265061;fill:url(#linearGradient5520);fill-opacity:1;fill-rule:nonzero;stroke:none;stroke-width:4;marker:none;visibility:visible;display:inline;overflow:visible;filter:url(#filter5598);enable-background:accumulate" />
      <path
         id="path4768"
         d="M 33.327553,13.857111 L 27.991738,21.756469 L 34.423955,15.758808 L 33.327553,13.857111 L 33.327553,13.857111 z"
         style="opacity:0.42168675;fill:url(#linearGradient5353);fill-opacity:1;fill-rule:nonzero;stroke:#babdb6;stroke-width:0.5081144;stroke-linecap:round;stroke-linejoin:miter;marker:none;stroke-miterlimit:4;stroke-dasharray:none;stroke-dashoffset:0;stroke-opacity:0;visibility:visible;display:inline;overflow:visible;enable-background:accumulate" />
      <path
         id="path5375"
         d="M 31.646406,10.419428 L 33.437193,12.357696 L 27.516629,20.915333 L 31.646406,10.419428 L 31.646406,10.419428 z"
         style="opacity:0.42168675;fill:url(#linearGradient5383);fill-opacity:1;fill-rule:nonzero;stroke:#babdb6;stroke-width:0.5081144;stroke-linecap:round;stroke-linejoin:miter;marker:none;stroke-miterlimit:4;stroke-dasharray:none;stroke-dashoffset:0;stroke-opacity:0;visibility:visible;display:inline;overflow:visible;enable-background:accumulate" />
      <path
         transform="matrix(0.1033696,0.1034387,-0.1033696,0.1034387,23.206946,-1.8347189)"
         sodipodi:nodetypes="cccc"
         id="path5413"
         d="M 161.5,158.5 C 161,156.5 151.5,120.5 151.5,120.5 L 180,166 C 175.0203,167.06089 169.13987,165.41962 161.5,158.5 z"
         style="opacity:0.42168675;fill:url(#linearGradient5421);fill-opacity:1;fill-rule:nonzero;stroke:#babdb6;stroke-width:3.4746294;stroke-linecap:round;stroke-linejoin:miter;marker:none;stroke-miterlimit:4;stroke-dasharray:none;stroke-dashoffset:0;stroke-opacity:0;visibility:visible;display:inline;overflow:visible;filter:url(#filter6333);enable-background:accumulate" />
      <path
         transform="matrix(0.1033696,0.1034387,-0.1033696,0.1034387,23.206946,-1.8347189)"
         id="path5450"
         d="M 43.625,155.5 C 42.4175,155.5 41.4375,156.48 41.4375,157.6875 C 41.4375,158.84137 42.335613,159.79323 43.46875,159.875 C 42.874807,159.69872 42.4375,159.15091 42.4375,158.5 C 42.437501,157.70701 43.082015,157.0625 43.875,157.0625 C 44.667984,157.0625 45.3125,157.70701 45.3125,158.5 C 45.3125,158.78746 45.208101,159.0566 45.0625,159.28125 C 45.505587,158.88084 45.8125,158.33128 45.8125,157.6875 C 45.8125,156.48 44.8325,155.5 43.625,155.5 z"
         style="opacity:0.1566265;fill:url(#radialGradient5461);fill-opacity:1;fill-rule:nonzero;stroke:none;stroke-width:4;marker:none;visibility:visible;display:inline;overflow:visible;filter:url(#filter5535);enable-background:accumulate" />
      <path
         transform="matrix(0.1033696,0.1034387,-0.1033696,0.1034387,23.206946,-1.8347189)"
         sodipodi:nodetypes="cscc"
         id="path5539"
         d="M 145.5,122.75 C 145.5,122.75 158.125,146.5 149.5,156 C 140.875,165.5 111,160.75 111,160.75 C 134.11405,156.62308 145.04972,143.54146 145.5,122.75 z"
         style="opacity:0.83663366;fill:url(#radialGradient5547);fill-opacity:1;fill-rule:nonzero;stroke:none;stroke-width:4;marker:none;visibility:visible;display:inline;overflow:visible;filter:url(#filter6361);enable-background:accumulate" />
      <path
         sodipodi:nodetypes="ccscsscscscscsccsssccsssc"
         style="fill:none;stroke:#555753;stroke-width:1.00000143px;stroke-linecap:butt;stroke-linejoin:miter;stroke-opacity:1"
         d="M 32.856274,10.03769 C 30.577332,7.735582 24.971107,4.009153 24.971107,4.009153 C 24.971107,4.009153 21.938633,9.435671 18.283967,13.09278 C 14.6293,16.749887 9.778581,19.211825 9.778581,19.211825 C 9.778581,19.211825 11.5298,19.877089 13.956874,22.05811 C 15.195511,23.171178 15.289304,25.052255 16.14186,26.000407 C 16.994414,26.948557 20.556775,29.915359 23.100346,31.585681 C 23.100346,31.585681 22.797783,32.912076 24.185728,33.990629 C 25.391019,34.927246 30.798156,38.861947 30.798156,38.861947 C 30.798156,38.861947 33.586574,36.737429 37.207076,32.965941 C 40.742619,29.280013 45.731843,24.43548 45.731843,24.43548 C 45.731843,24.43548 40.727678,21.236934 37.814373,18.523311 C 34.901066,15.809688 34.637737,15.025438 33.888251,13.690784 C 34.224145,12.821602 35.184363,12.53332 33.063013,10.257496 C 32.996723,10.186376 32.929788,10.111951 32.856274,10.03769 z M 25.255374,4.62332 C 25.301744,4.66971 25.301744,4.745016 25.255374,4.791408 C 25.209004,4.837798 25.133759,4.837798 25.087398,4.791408 C 25.041028,4.745018 25.041028,4.669712 25.087398,4.62332 C 25.133748,4.57693 25.209012,4.57693 25.255374,4.62332 z M 11.48095,18.969391 C 11.54548,19.033961 11.54548,19.137561 11.48095,19.202127 C 11.41642,19.266697 11.309663,19.269937 11.245139,19.205327 C 11.180609,19.140757 11.183849,19.033926 11.248339,18.969358 C 11.312869,18.904788 11.416395,18.904788 11.48092,18.969358 L 11.48095,18.969391 z"
         id="path6367" />
      <path
         d="M 25.5625,5.625 C 25.427098,5.685035 25.312048,5.8124999 25.15625,5.8125 C 25.120818,5.8125 25.097346,5.7848817 25.0625,5.78125 C 24.167441,7.3022346 22.05448,10.724728 19,13.78125 C 16.575873,16.206996 14.151462,17.78769 12.375,18.84375 C 12.430533,19.117078 12.389972,19.31765 12.28125,19.5625 C 12.990562,20.02695 13.694007,20.47589 14.625,21.3125 C 15.441414,22.046149 15.827919,22.962485 16.125,23.71875 C 16.422081,24.475015 16.685587,25.098345 16.90625,25.34375 C 17.220585,25.693331 18.334531,26.694727 19.625,27.75 C 20.915469,28.805273 22.402665,29.947312 23.625,30.75 C 23.981372,30.975572 24.156711,31.401394 24.0625,31.8125 C 24.0625,31.8125 24.034932,31.91282 24.09375,32.1875 C 24.152568,32.46218 24.301519,32.821674 24.8125,33.21875 C 25.832301,34.011227 29.864211,36.949072 30.75,37.59375 C 31.161775,37.271886 33.2308,35.686785 36.5,32.28125 C 39.692028,28.953447 43.303411,25.428245 44.15625,24.59375 C 42.869621,23.752228 39.624331,21.578023 37.125,19.25 C 34.163583,16.491563 33.717683,15.46552 33,14.1875 C 32.854611,13.929575 32.8317,13.620282 32.9375,13.34375 C 33.072901,12.993377 33.234921,12.761448 33.3125,12.625 C 33.390079,12.488552 33.40582,12.478744 33.40625,12.46875 C 33.40711,12.448761 33.338233,12.0044 32.34375,10.9375 C 32.31339,10.904927 32.218552,10.813253 32.125,10.71875 C 30.429575,9.0060904 27.01253,6.622051 25.5625,5.625 z"
         inkscape:href="#path6367"
         id="path6369"
         style="opacity:0.51980196;fill:none;stroke:url(#linearGradient10465);stroke-width:1.00000143px;stroke-linecap:butt;stroke-linejoin:miter;stroke-opacity:1"
         xlink:href="#path6367"
         inkscape:original="M 24.96875 4 C 24.96875 4.0000001 21.935916 9.436641 18.28125 13.09375 C 14.626584 16.750857 9.78125 19.21875 9.78125 19.21875 C 9.7812503 19.218751 11.541676 19.881479 13.96875 22.0625 C 15.207387 23.175569 15.303694 25.051848 16.15625 26 C 17.008805 26.948151 20.550179 29.923428 23.09375 31.59375 C 23.09375 31.593749 22.799555 32.921447 24.1875 34 C 25.392791 34.936619 30.8125 38.875 30.8125 38.875 C 30.812499 38.875001 33.598248 36.740238 37.21875 32.96875 C 40.754292 29.282821 45.71875 24.4375 45.71875 24.4375 C 45.718751 24.4375 40.725805 21.244873 37.8125 18.53125 C 34.899193 15.817626 34.624486 15.022154 33.875 13.6875 C 34.210893 12.818318 35.18385 12.525824 33.0625 10.25 C 32.996212 10.17888 32.917264 10.105511 32.84375 10.03125 C 30.564808 7.7291418 24.96875 4 24.96875 4 z M 25.09375 4.625 C 25.140099 4.5786099 25.203638 4.57861 25.25 4.625 C 25.296369 4.6713899 25.29637 4.734858 25.25 4.78125 C 25.203629 4.8276399 25.140111 4.82764 25.09375 4.78125 C 25.047379 4.7348599 25.04738 4.671392 25.09375 4.625 z M 11.25 18.96875 C 11.31453 18.90418 11.404225 18.90418 11.46875 18.96875 C 11.53328 19.03332 11.53328 19.122934 11.46875 19.1875 C 11.40422 19.25207 11.314524 19.28336 11.25 19.21875 C 11.18547 19.154181 11.18551 19.033318 11.25 18.96875 z "
         inkscape:radius="-0.99444115"
         sodipodi:type="inkscape:offset" />
    </g>
  </g>
</svg>
