<?xml version="1.0" encoding="UTF-8" standalone="no"?>
<!-- Created with Inkscape (http://www.inkscape.org/) -->
<svg
   xmlns:dc="http://purl.org/dc/elements/1.1/"
   xmlns:cc="http://web.resource.org/cc/"
   xmlns:rdf="http://www.w3.org/1999/02/22-rdf-syntax-ns#"
   xmlns:svg="http://www.w3.org/2000/svg"
   xmlns="http://www.w3.org/2000/svg"
   xmlns:xlink="http://www.w3.org/1999/xlink"
   xmlns:sodipodi="http://sodipodi.sourceforge.net/DTD/sodipodi-0.dtd"
   xmlns:inkscape="http://www.inkscape.org/namespaces/inkscape"
   width="48"
   height="48"
   id="svg22930"
   sodipodi:version="0.32"
   inkscape:version="0.45"
   sodipodi:modified="true"
   version="1.0">
  <defs
     id="defs22932">
    <linearGradient
       inkscape:collect="always"
       id="linearGradient13855">
      <stop
         style="stop-color:#ffffff;stop-opacity:1;"
         offset="0"
         id="stop13857" />
      <stop
         style="stop-color:#ffffff;stop-opacity:0;"
         offset="1"
         id="stop13859" />
    </linearGradient>
    <linearGradient
       inkscape:collect="always"
       xlink:href="#linearGradient13855"
       id="linearGradient13861"
       x1="29.504684"
       y1="37.890079"
       x2="22.640625"
       y2="2.5"
       gradientUnits="userSpaceOnUse"
       gradientTransform="matrix(0.9539472,0,0,0.9539472,1.2488235,1.1457719)" />
    <linearGradient
       id="linearGradient12874">
      <stop
         id="stop12876"
         offset="0"
         style="stop-color:#fec04d;stop-opacity:1;" />
      <stop
         id="stop12878"
         offset="1"
         style="stop-color:#ffe9bf;stop-opacity:1;" />
    </linearGradient>
    <linearGradient
       inkscape:collect="always"
       xlink:href="#linearGradient12874"
       id="linearGradient11903"
       gradientUnits="userSpaceOnUse"
       x1="35.27615"
       y1="46.405087"
       x2="17.2183"
       y2="3.0784085" />
    <linearGradient
       id="linearGradient11893">
      <stop
         style="stop-color:#b87802;stop-opacity:1;"
         offset="0"
         id="stop11895" />
      <stop
         style="stop-color:#ec9a02;stop-opacity:1;"
         offset="1"
         id="stop11897" />
    </linearGradient>
    <linearGradient
       inkscape:collect="always"
       xlink:href="#linearGradient11893"
       id="linearGradient11899"
       x1="35.27615"
       y1="46.405087"
       x2="17.2183"
       y2="3.0784085"
       gradientUnits="userSpaceOnUse" />
    <linearGradient
       id="linearGradient14832">
      <stop
         style="stop-color:#fca504;stop-opacity:1;"
         offset="0"
         id="stop14834" />
      <stop
         style="stop-color:#ffc555;stop-opacity:1;"
         offset="1"
         id="stop14836" />
    </linearGradient>
    <linearGradient
       inkscape:collect="always"
       xlink:href="#linearGradient14832"
       id="linearGradient14838"
       x1="33.107975"
       y1="37.128735"
       x2="26.274549"
       y2="7.7308927"
       gradientUnits="userSpaceOnUse" />
    <linearGradient
       id="linearGradient6058">
      <stop
         style="stop-color:#1b1e1f;stop-opacity:1;"
         offset="0"
         id="stop6060" />
      <stop
         style="stop-color:#444d50;stop-opacity:1"
         offset="1"
         id="stop6062" />
    </linearGradient>
    <linearGradient
       inkscape:collect="always"
       xlink:href="#linearGradient6058"
       id="linearGradient6064"
       x1="25.323479"
       y1="47.65414"
       x2="25.323479"
       y2="2.0228651"
       gradientUnits="userSpaceOnUse" />
    <linearGradient
       inkscape:collect="always"
       id="linearGradient20697">
      <stop
         style="stop-color:#000000;stop-opacity:1;"
         offset="0"
         id="stop20699" />
      <stop
         style="stop-color:#000000;stop-opacity:0;"
         offset="1"
         id="stop20701" />
    </linearGradient>
    <radialGradient
       inkscape:collect="always"
       xlink:href="#linearGradient20697"
       id="radialGradient20703"
       cx="24.159191"
       cy="25.350758"
       fx="24.159191"
       fy="25.350758"
       r="22.817015"
       gradientUnits="userSpaceOnUse" />
    <linearGradient
       inkscape:collect="always"
       xlink:href="#linearGradient14832"
       id="linearGradient22971"
       gradientUnits="userSpaceOnUse"
       x1="33.107975"
       y1="37.128735"
       x2="26.274549"
       y2="7.7308927" />
  </defs>
  <sodipodi:namedview
     id="base"
     pagecolor="#ffffff"
     bordercolor="#666666"
     borderopacity="1.0"
     inkscape:pageopacity="0.0"
     inkscape:pageshadow="2"
     inkscape:zoom="5.0931703"
     inkscape:cx="-8.786276"
     inkscape:cy="30.138399"
     inkscape:document-units="px"
     inkscape:current-layer="layer1"
     width="48px"
     height="48px"
     inkscape:window-width="1024"
     inkscape:window-height="689"
     inkscape:window-x="0"
     inkscape:window-y="26" />
  <metadata
     id="metadata22935">
    <rdf:RDF>
      <cc:Work
         rdf:about="">
        <dc:format>image/svg+xml</dc:format>
        <dc:type
           rdf:resource="http://purl.org/dc/dcmitype/StillImage" />
        <dc:title></dc:title>
        <dc:date></dc:date>
        <dc:creator>
          <cc:Agent>
            <dc:title></dc:title>
          </cc:Agent>
        </dc:creator>
        <cc:license
           rdf:resource="http://creativecommons.org/licenses/GPL/2.0/" />
      </cc:Work>
      <cc:License
         rdf:about="http://creativecommons.org/licenses/GPL/2.0/">
        <cc:permits
           rdf:resource="http://web.resource.org/cc/Reproduction" />
        <cc:permits
           rdf:resource="http://web.resource.org/cc/Distribution" />
        <cc:requires
           rdf:resource="http://web.resource.org/cc/Notice" />
        <cc:permits
           rdf:resource="http://web.resource.org/cc/DerivativeWorks" />
        <cc:requires
           rdf:resource="http://web.resource.org/cc/ShareAlike" />
        <cc:requires
           rdf:resource="http://web.resource.org/cc/SourceCode" />
      </cc:License>
    </rdf:RDF>
  </metadata>
  <g
     inkscape:label="Camada 1"
     inkscape:groupmode="layer"
     id="layer1">
    <g
       id="g20709">
      <path
         transform="matrix(0.9641927,0,0,0.2629616,1.2058832,35.333723)"
         d="M 46.976206 25.350758 A 22.817015 22.817015 0 1 1  1.3421764,25.350758 A 22.817015 22.817015 0 1 1  46.976206 25.350758 z"
         sodipodi:ry="22.817015"
         sodipodi:rx="22.817015"
         sodipodi:cy="25.350758"
         sodipodi:cx="24.159191"
         id="path19726"
         style="opacity:1;fill:url(#radialGradient20703);fill-opacity:1;fill-rule:nonzero;stroke:none;stroke-width:1.03713703;stroke-linecap:round;stroke-linejoin:round;stroke-miterlimit:4;stroke-dasharray:none;stroke-dashoffset:0;stroke-opacity:1"
         sodipodi:type="arc" />
      <path
         transform="matrix(0.9203658,0,0,0.9203658,2.2647066,0.1680297)"
         d="M 46.976206 25.350758 A 22.817015 22.817015 0 1 1  1.3421764,25.350758 A 22.817015 22.817015 0 1 1  46.976206 25.350758 z"
         sodipodi:ry="22.817015"
         sodipodi:rx="22.817015"
         sodipodi:cy="25.350758"
         sodipodi:cx="24.159191"
         id="path4118"
         style="opacity:1;fill:url(#linearGradient6064);fill-opacity:1;fill-rule:nonzero;stroke:#fcaf21;stroke-width:3.25957346;stroke-linecap:round;stroke-linejoin:round;stroke-miterlimit:4;stroke-dasharray:none;stroke-dashoffset:0;stroke-opacity:1"
         sodipodi:type="arc" />
      <path
         id="path3143"
         d="M 30.240865,7.7459698 C 29.768952,7.8212317 29.457514,8.2809368 29.434759,8.7132959 L 29.085447,12.609471 C 29.011725,13.376035 28.50694,13.730322 27.849419,13.97985 C 27.042669,14.128052 26.237854,14.108305 25.431103,13.92611 C 24.508625,13.693494 23.504432,13.079909 22.744086,12.34077 C 21.598122,11.127198 20.508245,9.9742088 19.250964,8.686426 C 18.796522,8.2491167 17.694875,7.9437601 16.698297,8.3908535 C 12.929784,10.337483 10.436166,13.375555 8.9865579,17.338622 C 8.793147,18.008771 9.3727364,18.826491 10.034494,18.843352 L 20.21829,18.789612 C 21.240318,18.795408 22.168884,19.047264 22.717216,19.622586 L 27.392626,24.297997 C 28.163452,25.106688 28.342506,26.08804 28.333082,26.985015 L 27.849419,37.786824 C 27.823801,38.43123 28.752098,38.727234 29.461629,38.56606 C 33.215305,37.38147 36.13482,35.097019 38.275047,31.794775 C 38.734272,30.870113 39.134452,29.582907 38.597488,29.027148 L 33.922078,23.948685 C 33.600052,23.523585 33.41886,23.032754 33.411545,22.443955 L 33.438415,19.837548 C 33.412825,19.187179 34.170452,18.953906 34.620703,18.923962 L 39.269243,18.897092 C 39.992639,18.904953 40.131798,17.931324 39.940997,17.338622 C 38.166415,12.705425 34.839016,9.8181713 30.751398,7.7997101 C 30.561589,7.719912 30.398169,7.7208824 30.240865,7.7459698 z M 27.553847,16.075723 C 28.341001,16.125368 29.303536,16.589385 30.106514,17.392362 C 31.391278,18.677126 31.812161,20.335255 31.046969,21.100447 C 30.28178,21.865637 28.62365,21.444755 27.338886,20.15999 C 26.054122,18.875227 25.633239,17.217097 26.398429,16.451907 C 26.685376,16.16496 27.081555,16.045937 27.553847,16.075723 z "
         style="opacity:1;fill:url(#linearGradient22971);fill-opacity:1;fill-rule:evenodd;stroke:none;stroke-width:1px;stroke-linecap:butt;stroke-linejoin:miter;stroke-opacity:1" />
      <path
         sodipodi:type="arc"
         style="opacity:1;fill:none;fill-opacity:1;fill-rule:nonzero;stroke:url(#linearGradient11899);stroke-width:1.03713703;stroke-linecap:round;stroke-linejoin:round;stroke-miterlimit:4;stroke-dasharray:none;stroke-dashoffset:0;stroke-opacity:1"
         id="path9953"
         sodipodi:cx="24.159191"
         sodipodi:cy="25.350758"
         sodipodi:rx="22.817015"
         sodipodi:ry="22.817015"
         d="M 46.976206 25.350758 A 22.817015 22.817015 0 1 1  1.3421764,25.350758 A 22.817015 22.817015 0 1 1  46.976206 25.350758 z"
         transform="matrix(0.9641927,0,0,0.9641927,1.2058832,-0.9430166)" />
      <path
         transform="matrix(0.8765389,0,0,0.8765389,3.3235301,1.2790758)"
         d="M 46.976206 25.350758 A 22.817015 22.817015 0 1 1  1.3421764,25.350758 A 22.817015 22.817015 0 1 1  46.976206 25.350758 z"
         sodipodi:ry="22.817015"
         sodipodi:rx="22.817015"
         sodipodi:cy="25.350758"
         sodipodi:cx="24.159191"
         id="path11901"
         style="opacity:1;fill:none;fill-opacity:1;fill-rule:nonzero;stroke:url(#linearGradient11903);stroke-width:1.14085066;stroke-linecap:round;stroke-linejoin:round;stroke-miterlimit:4;stroke-dasharray:none;stroke-dashoffset:0;stroke-opacity:1"
         sodipodi:type="arc" />
      <path
         id="path12881"
         d="M 24.620528,3.5306398 C 13.562373,3.5306398 4.5876385,12.505375 4.5876386,23.56353 C 4.5876386,26.583781 5.267153,29.430988 6.4657221,32 C 19.00843,30.684205 35.702929,23.614752 41.105928,12.175786 C 37.489944,6.9470757 31.454412,3.5306398 24.620528,3.5306398 z "
         style="opacity:0.21724135;fill:url(#linearGradient13861);fill-opacity:1;fill-rule:evenodd;stroke:none;stroke-width:1px;stroke-linecap:butt;stroke-linejoin:miter;stroke-opacity:1" />
      <path
         style="opacity:1;fill:url(#linearGradient14838);fill-opacity:1;fill-rule:evenodd;stroke:none;stroke-width:1px;stroke-linecap:butt;stroke-linejoin:miter;stroke-opacity:1"
         d="M 30.240865,7.7459698 C 29.768952,7.8212317 29.457514,8.2809368 29.434759,8.7132959 L 29.085447,12.609471 C 29.011725,13.376035 28.50694,13.730322 27.849419,13.97985 C 27.042669,14.128052 26.237854,14.108305 25.431103,13.92611 C 24.508625,13.693494 23.504432,13.079909 22.744086,12.34077 C 21.598122,11.127198 20.508245,9.9742088 19.250964,8.686426 C 18.796522,8.2491167 17.694875,7.9437601 16.698297,8.3908535 C 12.929784,10.337483 10.436166,13.375555 8.9865579,17.338622 C 8.793147,18.008771 9.3727364,18.826491 10.034494,18.843352 L 20.21829,18.789612 C 21.240318,18.795408 22.168884,19.047264 22.717216,19.622586 L 27.392626,24.297997 C 28.163452,25.106688 28.342506,26.08804 28.333082,26.985015 L 27.849419,37.786824 C 27.823801,38.43123 28.752098,38.727234 29.461629,38.56606 C 33.215305,37.38147 36.13482,35.097019 38.275047,31.794775 C 38.734272,30.870113 39.134452,29.582907 38.597488,29.027148 L 33.922078,23.948685 C 33.600052,23.523585 33.41886,23.032754 33.411545,22.443955 L 33.438415,19.837548 C 33.412825,19.187179 34.170452,18.953906 34.620703,18.923962 L 39.269243,18.897092 C 39.992639,18.904953 40.131798,17.931324 39.940997,17.338622 C 38.166415,12.705425 34.839016,9.8181713 30.751398,7.7997101 C 30.561589,7.719912 30.398169,7.7208824 30.240865,7.7459698 z M 27.553847,16.075723 C 28.341001,16.125368 29.303536,16.589385 30.106514,17.392362 C 31.391278,18.677126 31.812161,20.335255 31.046969,21.100447 C 30.28178,21.865637 28.62365,21.444755 27.338886,20.15999 C 26.054122,18.875227 25.633239,17.217097 26.398429,16.451907 C 26.685376,16.16496 27.081555,16.045937 27.553847,16.075723 z "
         id="path16782" />
    </g>
  </g>
</svg>
