<?xml version="1.0" encoding="UTF-8" standalone="no"?>
<!-- Created with Inkscape (http://www.inkscape.org/) -->
<svg
   xmlns:dc="http://purl.org/dc/elements/1.1/"
   xmlns:cc="http://creativecommons.org/ns#"
   xmlns:rdf="http://www.w3.org/1999/02/22-rdf-syntax-ns#"
   xmlns:svg="http://www.w3.org/2000/svg"
   xmlns="http://www.w3.org/2000/svg"
   xmlns:xlink="http://www.w3.org/1999/xlink"
   xmlns:sodipodi="http://sodipodi.sourceforge.net/DTD/sodipodi-0.dtd"
   xmlns:inkscape="http://www.inkscape.org/namespaces/inkscape"
   id="svg2"
   sodipodi:version="0.32"
   inkscape:version="0.46+devel r20735"
   width="48"
   height="48"
   version="1.0"
   sodipodi:docname="teeworlds.svg"
   inkscape:output_extension="org.inkscape.output.svg.inkscape">
  <title
     id="title3801">Teeworlds Tango! icon</title>
  <metadata
     id="metadata8">
    <rdf:RDF>
      <cc:Work
         rdf:about="">
        <dc:format>image/svg+xml</dc:format>
        <dc:type
           rdf:resource="http://purl.org/dc/dcmitype/StillImage" />
        <dc:title>Teeworlds Tango! icon</dc:title>
        <dc:date>2009-03-13</dc:date>
        <dc:creator>
          <cc:Agent>
            <dc:title>J치nos Horv치th</dc:title>
          </cc:Agent>
        </dc:creator>
        <dc:rights>
          <cc:Agent>
            <dc:title>GPL</dc:title>
          </cc:Agent>
        </dc:rights>
        <dc:subject>
          <rdf:Bag>
            <rdf:li>Teeworlds</rdf:li>
          </rdf:Bag>
        </dc:subject>
        <dc:coverage>Hungary/18:16</dc:coverage>
        <dc:description>Tango! icon for Teeworlds a free online multiplayer game...</dc:description>
        <dc:contributor>
          <cc:Agent>
            <dc:title>J치nos Horv치th</dc:title>
          </cc:Agent>
        </dc:contributor>
        <cc:license
           rdf:resource="http://www.gnu.org/copyleft/gpl.html" />
      </cc:Work>
    </rdf:RDF>
  </metadata>
  <defs
     id="defs6">
    <linearGradient
       id="linearGradient3769">
      <stop
         style="stop-color:#000000;stop-opacity:1;"
         offset="0"
         id="stop3771" />
      <stop
         style="stop-color:#000000;stop-opacity:0;"
         offset="1"
         id="stop3773" />
    </linearGradient>
    <linearGradient
       id="linearGradient3751">
      <stop
         id="stop3753"
         offset="0"
         style="stop-color:#2e3436;stop-opacity:0" />
      <stop
         id="stop3755"
         offset="1"
         style="stop-color:#000000;stop-opacity:0.24324325;" />
    </linearGradient>
    <linearGradient
       inkscape:collect="always"
       id="linearGradient3685">
      <stop
         style="stop-color:#ffffff;stop-opacity:1;"
         offset="0"
         id="stop3687" />
      <stop
         style="stop-color:#ffffff;stop-opacity:0;"
         offset="1"
         id="stop3689" />
    </linearGradient>
    <linearGradient
       inkscape:collect="always"
       id="linearGradient3677">
      <stop
         style="stop-color:#ffffff;stop-opacity:1;"
         offset="0"
         id="stop3679" />
      <stop
         style="stop-color:#ffffff;stop-opacity:0;"
         offset="1"
         id="stop3681" />
    </linearGradient>
    <linearGradient
       id="linearGradient3657">
      <stop
         style="stop-color:#000000;stop-opacity:1;"
         offset="0"
         id="stop3659" />
      <stop
         style="stop-color:#000000;stop-opacity:0.24324325;"
         offset="1"
         id="stop3661" />
    </linearGradient>
    <linearGradient
       inkscape:collect="always"
       id="linearGradient3631">
      <stop
         style="stop-color:#e9b96e;stop-opacity:1;"
         offset="0"
         id="stop3633" />
      <stop
         style="stop-color:#e9b96e;stop-opacity:0;"
         offset="1"
         id="stop3635" />
    </linearGradient>
    <linearGradient
       id="linearGradient3619">
      <stop
         style="stop-color:#ffffff;stop-opacity:0.81756759;"
         offset="0"
         id="stop3621" />
      <stop
         style="stop-color:#ffdb90;stop-opacity:1;"
         offset="1"
         id="stop3623" />
    </linearGradient>
    <inkscape:perspective
       sodipodi:type="inkscape:persp3d"
       inkscape:vp_x="0 : 0.5 : 1"
       inkscape:vp_y="0 : 1000 : 0"
       inkscape:vp_z="1 : 0.5 : 1"
       inkscape:persp3d-origin="0.5 : 0.33333333 : 1"
       id="perspective10" />
    <filter
       inkscape:collect="always"
       id="filter3673"
       x="-0.0147"
       width="1.0294"
       y="-0.147"
       height="1.294">
      <feGaussianBlur
         inkscape:collect="always"
         stdDeviation="0.245"
         id="feGaussianBlur3675" />
    </filter>
    <radialGradient
       inkscape:collect="always"
       xlink:href="#linearGradient3657"
       id="radialGradient3721"
       gradientUnits="userSpaceOnUse"
       gradientTransform="matrix(1.325,-2.4348086e-5,-1.3368839e-5,0.17777783,-7.5963636,36.71301)"
       cx="23.374971"
       cy="35.367519"
       fx="23.374971"
       fy="35.367519"
       r="20" />
    <radialGradient
       inkscape:collect="always"
       xlink:href="#linearGradient3631"
       id="radialGradient3723"
       gradientUnits="userSpaceOnUse"
       gradientTransform="matrix(-0.09028499,0.71417389,-3.5501194,-0.45189085,180.17662,2.4331124)"
       cx="63.618336"
       cy="30.820789"
       fx="63.618336"
       fy="30.820789"
       r="10.450658" />
    <radialGradient
       inkscape:collect="always"
       xlink:href="#linearGradient3685"
       id="radialGradient3725"
       gradientUnits="userSpaceOnUse"
       gradientTransform="matrix(5.1124162,-1.378538,0.46518099,1.721776,-263.44985,44.477532)"
       cx="55.358353"
       cy="53.130959"
       fx="55.358353"
       fy="53.130959"
       r="10.512128" />
    <radialGradient
       inkscape:collect="always"
       xlink:href="#linearGradient3677"
       id="radialGradient3729"
       gradientUnits="userSpaceOnUse"
       gradientTransform="matrix(1.9744072,-0.25221435,0.19255384,1.504447,-27.06644,9.9273036)"
       cx="1.53567"
       cy="1.6653033"
       fx="1.53567"
       fy="1.6653033"
       r="16.538086" />
    <radialGradient
       inkscape:collect="always"
       xlink:href="#linearGradient3631"
       id="radialGradient3731"
       gradientUnits="userSpaceOnUse"
       gradientTransform="matrix(-0.09028499,0.71417389,-3.5501194,-0.45189085,180.17662,2.4331124)"
       cx="63.618336"
       cy="30.820789"
       fx="63.618336"
       fy="30.820789"
       r="10.450658" />
    <radialGradient
       inkscape:collect="always"
       xlink:href="#linearGradient3685"
       id="radialGradient3733"
       gradientUnits="userSpaceOnUse"
       gradientTransform="matrix(4.7314533,-1.2833928,0.46775684,1.7210793,-242.07211,39.563128)"
       cx="54.106487"
       cy="45.621574"
       fx="54.106487"
       fy="45.621574"
       r="10.512128" />
    <radialGradient
       inkscape:collect="always"
       xlink:href="#linearGradient3619"
       id="radialGradient3742"
       gradientUnits="userSpaceOnUse"
       gradientTransform="matrix(0.57702883,0.57702488,-0.63153015,0.63153015,-4.794763,-39.529533)"
       cx="76.533958"
       cy="16.416534"
       fx="76.533958"
       fy="16.416534"
       r="19.96875" />
    <radialGradient
       inkscape:collect="always"
       xlink:href="#linearGradient3769"
       id="radialGradient3775"
       cx="23.999994"
       cy="51.585472"
       fx="23.999994"
       fy="51.585472"
       r="20"
       gradientTransform="matrix(0.97500047,9.8027865e-7,-1.0243764e-6,0.07222222,0.60004165,40.760471)"
       gradientUnits="userSpaceOnUse" />
  </defs>
  <sodipodi:namedview
     pagecolor="#ffffff"
     bordercolor="#666666"
     borderopacity="1"
     objecttolerance="10"
     gridtolerance="10"
     guidetolerance="10"
     inkscape:pageopacity="0"
     inkscape:pageshadow="2"
     inkscape:window-width="1436"
     inkscape:window-height="823"
     id="namedview4"
     showgrid="true"
     showguides="true"
     inkscape:guide-bbox="true"
     inkscape:zoom="4"
     inkscape:cx="43.413293"
     inkscape:cy="-108.75"
     inkscape:window-x="0"
     inkscape:window-y="25"
     inkscape:current-layer="svg2">
    <inkscape:grid
       type="xygrid"
       id="grid2763"
       empspacing="5"
       visible="true"
       enabled="true" />
  </sodipodi:namedview>
  <g
     id="g3785">
    <path
       transform="matrix(1.2,0,0,3,-4.7999991,-90)"
       d="M 44,44 A 20,2 0 1 1 4,44 20,2 0 1 1 44,44 z"
       sodipodi:ry="2"
       sodipodi:rx="20"
       sodipodi:cy="44"
       sodipodi:cx="24"
       id="path3548"
       style="fill:url(#radialGradient3775);fill-opacity:1;fill-rule:nonzero;stroke:none"
       sodipodi:type="arc" />
    <path
       sodipodi:type="inkscape:offset"
       inkscape:radius="-0.42438632"
       inkscape:original="M 63.96875 33 C 63.848477 33.003 63.744784 33.02541 63.625 33.03125 C 63.356773 33.04531 63.073548 33.06827 62.8125 33.09375 C 62.564411 33.11942 62.306575 33.11792 62.0625 33.15625 C 57.33415 33.492654 54.358313 37.20306 54.03125 40.5 C 53.80581 42.772544 54.886784 44.942286 57.9375 46 L 65.96875 46 L 71.96875 46 C 74.761697 44.75121 77.360092 42.628056 76.96875 39.65625 C 76.96615 39.63573 76.97165 39.61436 76.96875 39.59375 C 76.96615 39.56191 76.97215 39.53196 76.96875 39.5 C 76.610048 36.173616 71.350096 33.444102 65.875 33.0625 C 65.649771 33.0468 65.415757 33.03882 65.1875 33.03125 C 65.09872 33.02835 64.995433 33.00169 64.90625 33 C 64.786286 32.9957 64.682256 33.0016 64.5625 33 C 64.362906 32.9974 64.167368 32.995 63.96875 33 z "
       style="fill:#d08605;fill-opacity:1;fill-rule:nonzero;stroke:#271d04;stroke-width:1.00888455;stroke-miterlimit:4;stroke-opacity:1;stroke-dasharray:none"
       id="path3586"
       d="m 63.96875,33.4375 c -0.07368,0.0018 -0.151871,0.02342 -0.3125,0.03125 -0.259704,0.01361 -0.556457,0.03751 -0.8125,0.0625 -0.279715,0.02894 -0.521603,2.9e-4 -0.71875,0.03125 a 0.42442876,0.42442876 0 0 1 -0.03125,0.03125 c -4.520583,0.321622 -7.319813,3.861079 -7.625,6.9375 -0.207857,2.095303 0.679943,4.015148 3.53125,5.03125 l 7.96875,0 5.9375,0 c 1.313437,-0.601743 2.573809,-1.412588 3.4375,-2.375 0.891319,-0.993199 1.39684,-2.116355 1.21875,-3.46875 -0.0166,-0.131014 -0.01306,-0.155285 0,-0.0625 A 0.42442876,0.42442876 0 0 1 76.53125,39.625 c -0.0087,-0.106142 -0.0051,-0.141749 0,-0.09375 C 76.37428,38.075601 75.102465,36.670961 73.125,35.5625 71.147535,34.454039 68.520689,33.686577 65.84375,33.5 c -0.214838,-0.01498 -0.428264,-0.02369 -0.65625,-0.03125 -0.16287,-0.0053 -0.270392,-0.03104 -0.28125,-0.03125 -0.0973,-0.0035 -0.206776,0.0018 -0.34375,0 -0.199385,-0.0026 -0.405553,-0.0047 -0.59375,0 z"
       transform="matrix(0.99286598,0,0,0.98946416,-32.551517,0.4175542)" />
    <path
       sodipodi:type="inkscape:offset"
       inkscape:radius="-0.62220329"
       inkscape:original="M 63.96875 33.4375 C 63.895065 33.439338 63.816879 33.460919 63.65625 33.46875 C 63.396546 33.482363 63.099793 33.506259 62.84375 33.53125 C 62.564035 33.560192 62.322147 33.53154 62.125 33.5625 A 0.42442876 0.42442876 0 0 1 62.09375 33.59375 C 57.573167 33.915372 54.773937 37.454829 54.46875 40.53125 C 54.260893 42.626553 55.148693 44.546398 58 45.5625 L 65.96875 45.5625 L 71.90625 45.5625 C 73.219687 44.960757 74.480059 44.149912 75.34375 43.1875 C 76.235069 42.194301 76.74059 41.071145 76.5625 39.71875 C 76.5459 39.587736 76.549444 39.563465 76.5625 39.65625 A 0.42442876 0.42442876 0 0 1 76.53125 39.625 C 76.522583 39.518858 76.526144 39.483251 76.53125 39.53125 C 76.37428 38.075601 75.102465 36.670961 73.125 35.5625 C 71.147535 34.454039 68.520689 33.686577 65.84375 33.5 C 65.628912 33.485024 65.415486 33.476311 65.1875 33.46875 C 65.02463 33.46343 64.917108 33.437706 64.90625 33.4375 C 64.808951 33.434012 64.699474 33.43933 64.5625 33.4375 C 64.363115 33.434903 64.156947 33.432762 63.96875 33.4375 z "
       style="fill:url(#radialGradient3723);fill-opacity:1;fill-rule:nonzero;stroke:none"
       id="path3639"
       d="m 63.96875,34.0625 c 0.03672,-9.16e-4 -0.0749,0.02119 -0.28125,0.03125 -0.246436,0.01292 -0.533302,0.0383 -0.78125,0.0625 -0.358058,0.03705 -0.62553,0.02152 -0.6875,0.03125 a 0.62226551,0.62226551 0 0 1 -0.09375,0 l 0,0.03125 c -4.216394,0.29998 -6.758331,3.623851 -7.03125,6.375 -0.09349,0.942478 0.06426,1.796684 0.53125,2.53125 0.458008,0.720439 1.248424,1.341632 2.53125,1.8125 l 7.8125,0 5.8125,0 c 1.210616,-0.570032 2.341607,-1.318136 3.09375,-2.15625 0.81369,-0.906697 1.21487,-1.811669 1.0625,-2.96875 -0.0036,-0.0284 0.0024,-0.07088 0,-0.09375 a 0.62226551,0.62226551 0 0 1 0,-0.03125 l -0.03125,0 c -0.0027,-0.03279 0.0013,-0.06807 0,-0.09375 -0.123135,-1.141884 -1.212595,-2.445525 -3.09375,-3.5 -1.879307,-1.053439 -4.412957,-1.788439 -7,-1.96875 -0.203022,-0.01415 -0.431234,-0.02379 -0.65625,-0.03125 -0.109675,-0.0036 -0.183666,-0.02153 -0.25,-0.03125 -0.01106,-0.0016 -0.02168,0.0015 -0.03125,0 -0.05797,-0.0021 -0.154998,0.0021 -0.3125,0 -0.198253,-0.0026 -0.390447,-0.0043 -0.5625,0 a 0.62226551,0.62226551 0 0 1 -0.03125,0 z"
       transform="matrix(1.0047215,0,0,1.0112494,-33.328022,-0.44301991)" />
    <path
       sodipodi:type="inkscape:offset"
       inkscape:radius="-0.43435249"
       inkscape:original="M 63.96875 34.0625 C 64.005471 34.061584 63.893853 34.08369 63.6875 34.09375 C 63.441064 34.106668 63.154198 34.132049 62.90625 34.15625 C 62.548192 34.193298 62.28072 34.177768 62.21875 34.1875 A 0.62226551 0.62226551 0 0 1 62.125 34.1875 L 62.125 34.21875 C 57.908606 34.51873 55.366669 37.842601 55.09375 40.59375 C 55.000255 41.536228 55.158011 42.390434 55.625 43.125 C 56.083008 43.845439 56.873424 44.466632 58.15625 44.9375 L 65.96875 44.9375 L 71.78125 44.9375 C 72.991866 44.367468 74.122857 43.619364 74.875 42.78125 C 75.68869 41.874553 76.08987 40.969581 75.9375 39.8125 C 75.933901 39.784098 75.939871 39.741624 75.9375 39.71875 A 0.62226551 0.62226551 0 0 1 75.9375 39.6875 L 75.90625 39.6875 C 75.903572 39.654707 75.907583 39.619427 75.90625 39.59375 C 75.783115 38.451866 74.693655 37.148225 72.8125 36.09375 C 70.933193 35.040311 68.399543 34.305311 65.8125 34.125 C 65.609478 34.110848 65.381266 34.101213 65.15625 34.09375 C 65.046575 34.090168 64.972584 34.072221 64.90625 34.0625 C 64.895194 34.06088 64.884573 34.064035 64.875 34.0625 C 64.817028 34.060422 64.720002 34.064604 64.5625 34.0625 C 64.364247 34.059918 64.172053 34.058168 64 34.0625 A 0.62226551 0.62226551 0 0 1 63.96875 34.0625 z "
       style="fill:none;stroke:url(#radialGradient3725);stroke-width:1.00063348;stroke-linejoin:round;stroke-miterlimit:4;stroke-opacity:1;stroke-dasharray:none"
       id="path3693"
       d="m 63.96875,34.5 c -0.06491,0.0088 -0.135173,0.02565 -0.25,0.03125 -0.234332,0.01228 -0.536317,0.03859 -0.78125,0.0625 -0.196223,0.0203 -0.342576,0.02917 -0.46875,0.03125 -0.126174,0.0021 -0.286113,0.01549 -0.1875,0 a 0.43439592,0.43439592 0 0 1 -0.125,0.03125 c -4.00217,0.284739 -6.374843,3.447048 -6.625,5.96875 -0.08621,0.86906 0.05979,1.637966 0.46875,2.28125 0.388855,0.611662 1.076535,1.150262 2.25,1.59375 l 7.71875,0 5.6875,0 c 1.147856,-0.548246 2.225568,-1.241516 2.90625,-2 0.765134,-0.852591 1.073158,-1.594826 0.9375,-2.625 -0.0022,-0.01768 8.16e-4,-0.01802 0,-0.03125 a 0.43439592,0.43439592 0 0 1 0,-0.03125 0.43439592,0.43439592 0 0 1 -0.03125,-0.09375 c -0.0076,-0.09305 -0.0021,-0.133696 0,-0.09375 -0.09763,-0.905396 -1.064644,-2.141461 -2.875,-3.15625 -1.809228,-1.014156 -4.287507,-1.730264 -6.8125,-1.90625 -0.19414,-0.01353 -0.402638,-0.02387 -0.625,-0.03125 -0.135701,-0.0044 -0.235386,-0.02324 -0.28125,-0.03125 -0.005,-8.8e-4 -0.02766,5.27e-4 -0.03125,0 -0.0038,-2e-6 -0.02562,-4.8e-5 -0.03125,0 -0.04503,3.81e-4 -0.115943,0.0018 -0.25,0 -0.175247,-0.0023 -0.351808,-0.0025 -0.5,0 -0.0303,0.0075 -0.0443,-0.0026 -0.0625,0 -0.0091,0.0013 -0.02043,-0.0015 -0.03125,0 z"
       transform="matrix(0.99882245,0,0,0.99982349,-32.942097,0.00819328)" />
    <path
       transform="matrix(1.2151503,0,0,1.2151503,48.404692,15.549618)"
       d="m -3.2133884,4.4853554 a 16.870293,16.870293 0 1 1 -33.7405856,0 16.870293,16.870293 0 1 1 33.7405856,0 z"
       sodipodi:ry="16.870293"
       sodipodi:rx="16.870293"
       sodipodi:cy="4.4853554"
       sodipodi:cx="-20.083681"
       id="path2761"
       style="fill:#ffa900;fill-opacity:1;fill-rule:nonzero;stroke:#271d04;stroke-width:0.8230415;stroke-miterlimit:4;stroke-opacity:1;stroke-dasharray:none"
       sodipodi:type="arc" />
    <path
       sodipodi:nodetypes="cccsssssscscsc"
       id="path3588"
       d="m 24,1 c -3.30111,0 -6.411016,0.8004722 -9.15625,2.21875 -0.414303,0.3726152 -0.705132,0.6252101 -1,1 C 11.427653,7.5245051 10,11.594798 10,16 c 0,2.694534 0.533749,5.265163 1.501217,7.611855 1.29038,3.129945 3.35232,5.861521 5.948478,7.957385 C 20.882146,34.340239 25.248422,36 30,36 c 3.290986,0 6.385957,-0.808601 9.125,-2.21875 0.0084,-0.0043 0.02283,0.0044 0.03125,0 0.182586,-0.249818 0.328894,-0.522885 0.5,-0.78125 0.156753,-0.07568 0.314233,-0.1392 0.46875,-0.21875 0.0084,-0.0043 0.02283,0.0044 0.03125,0 C 42.572347,29.475495 44,25.405202 44,21 44,9.9599999 35.04,1 24,1 z"
       style="opacity:0.86829277;fill:url(#radialGradient3742);fill-opacity:1;fill-rule:nonzero;stroke:none" />
    <path
       transform="matrix(1.2093152,0,0,1.2104881,48.299678,15.571717)"
       d="m -20.09375,-11.625 c -8.904779,0 -16.125,7.2202225 -16.125,16.125 0,8.904792 7.218515,16.09375 16.125,16.09375 8.906485,0 16.125,-7.188958 16.125,-16.09375 0,-8.9047775 -7.220221,-16.125 -16.125,-16.125 z"
       id="path3655"
       style="fill:none;stroke:url(#radialGradient3729);stroke-width:0.82617182;stroke-linejoin:round;stroke-miterlimit:4;stroke-opacity:1;stroke-dasharray:none"
       inkscape:original="M -20.09375 -11.53125 C -28.942675 -11.53125 -36.125 -4.3489238 -36.125 4.5 C -36.125 13.348954 -28.944637 20.5 -20.09375 20.5 C -11.242863 20.5 -4.0625 13.348954 -4.0625 4.5 C -4.0625 -4.3489238 -11.244825 -11.53125 -20.09375 -11.53125 z "
       inkscape:radius="0.10322113"
       sodipodi:type="inkscape:offset" />
    <path
       transform="matrix(0.99286598,0,0,0.98946416,-49.551517,0.4175542)"
       d="m 63.96875,33.4375 c -0.07368,0.0018 -0.151871,0.02342 -0.3125,0.03125 -0.259704,0.01361 -0.556457,0.03751 -0.8125,0.0625 -0.279715,0.02894 -0.521603,2.9e-4 -0.71875,0.03125 a 0.42442876,0.42442876 0 0 1 -0.03125,0.03125 c -4.520583,0.321622 -7.319813,3.861079 -7.625,6.9375 -0.207857,2.095303 0.679943,4.015148 3.53125,5.03125 l 7.96875,0 5.9375,0 c 1.313437,-0.601743 2.573809,-1.412588 3.4375,-2.375 0.891319,-0.993199 1.39684,-2.116355 1.21875,-3.46875 -0.0166,-0.131014 -0.01306,-0.155285 0,-0.0625 A 0.42442876,0.42442876 0 0 1 76.53125,39.625 c -0.0087,-0.106142 -0.0051,-0.141749 0,-0.09375 C 76.37428,38.075601 75.102465,36.670961 73.125,35.5625 71.147535,34.454039 68.520689,33.686577 65.84375,33.5 c -0.214838,-0.01498 -0.428264,-0.02369 -0.65625,-0.03125 -0.16287,-0.0053 -0.270392,-0.03104 -0.28125,-0.03125 -0.0973,-0.0035 -0.206776,0.0018 -0.34375,0 -0.199385,-0.0026 -0.405553,-0.0047 -0.59375,0 z"
       id="path3584"
       style="fill:#d08605;fill-opacity:1;fill-rule:nonzero;stroke:#271d04;stroke-width:1.00888455;stroke-miterlimit:4;stroke-opacity:1;stroke-dasharray:none"
       inkscape:original="M 63.96875 33 C 63.848477 33.003 63.744784 33.02541 63.625 33.03125 C 63.356773 33.04531 63.073548 33.06827 62.8125 33.09375 C 62.564411 33.11942 62.306575 33.11792 62.0625 33.15625 C 57.33415 33.492654 54.358313 37.20306 54.03125 40.5 C 53.80581 42.772544 54.886784 44.942286 57.9375 46 L 65.96875 46 L 71.96875 46 C 74.761697 44.75121 77.360092 42.628056 76.96875 39.65625 C 76.96615 39.63573 76.97165 39.61436 76.96875 39.59375 C 76.96615 39.56191 76.97215 39.53196 76.96875 39.5 C 76.610048 36.173616 71.350096 33.444102 65.875 33.0625 C 65.649771 33.0468 65.415757 33.03882 65.1875 33.03125 C 65.09872 33.02835 64.995433 33.00169 64.90625 33 C 64.786286 32.9957 64.682256 33.0016 64.5625 33 C 64.362906 32.9974 64.167368 32.995 63.96875 33 z "
       inkscape:radius="-0.42438632"
       sodipodi:type="inkscape:offset" />
    <path
       transform="matrix(1,0,0,1.2857144,0,-4.7142874)"
       d="m 24,16.5 a 2.5,3.5 0 1 1 -5,0 2.5,3.5 0 1 1 5,0 z"
       sodipodi:ry="3.5"
       sodipodi:rx="2.5"
       sodipodi:cy="16.5"
       sodipodi:cx="21.5"
       id="path3550"
       style="fill:#000000;fill-opacity:1;fill-rule:nonzero;stroke:none"
       sodipodi:type="arc" />
    <path
       sodipodi:type="arc"
       style="fill:#000000;fill-opacity:1;fill-rule:nonzero;stroke:none"
       id="path3552"
       sodipodi:cx="21.5"
       sodipodi:cy="16.5"
       sodipodi:rx="2.5"
       sodipodi:ry="3.5"
       d="m 24,16.5 a 2.5,3.5 0 1 1 -5,0 2.5,3.5 0 1 1 5,0 z"
       transform="matrix(1,0,0,1.2857144,8,-4.7142874)" />
    <path
       transform="matrix(1.0047215,0,0,1.0112494,-50.328022,-0.44301991)"
       d="m 63.96875,34.0625 c 0.03672,-9.16e-4 -0.0749,0.02119 -0.28125,0.03125 -0.246436,0.01292 -0.533302,0.0383 -0.78125,0.0625 -0.358058,0.03705 -0.62553,0.02152 -0.6875,0.03125 a 0.62226551,0.62226551 0 0 1 -0.09375,0 l 0,0.03125 c -4.216394,0.29998 -6.758331,3.623851 -7.03125,6.375 -0.09349,0.942478 0.06426,1.796684 0.53125,2.53125 0.458008,0.720439 1.248424,1.341632 2.53125,1.8125 l 7.8125,0 5.8125,0 c 1.210616,-0.570032 2.341607,-1.318136 3.09375,-2.15625 0.81369,-0.906697 1.21487,-1.811669 1.0625,-2.96875 -0.0036,-0.0284 0.0024,-0.07088 0,-0.09375 a 0.62226551,0.62226551 0 0 1 0,-0.03125 l -0.03125,0 c -0.0027,-0.03279 0.0013,-0.06807 0,-0.09375 -0.123135,-1.141884 -1.212595,-2.445525 -3.09375,-3.5 -1.879307,-1.053439 -4.412957,-1.788439 -7,-1.96875 -0.203022,-0.01415 -0.431234,-0.02379 -0.65625,-0.03125 -0.109675,-0.0036 -0.183666,-0.02153 -0.25,-0.03125 -0.01106,-0.0016 -0.02168,0.0015 -0.03125,0 -0.05797,-0.0021 -0.154998,0.0021 -0.3125,0 -0.198253,-0.0026 -0.390447,-0.0043 -0.5625,0 a 0.62226551,0.62226551 0 0 1 -0.03125,0 z"
       id="path3629"
       style="fill:url(#radialGradient3731);fill-opacity:1;fill-rule:nonzero;stroke:none"
       inkscape:original="M 63.96875 33.4375 C 63.895065 33.439338 63.816879 33.460919 63.65625 33.46875 C 63.396546 33.482363 63.099793 33.506259 62.84375 33.53125 C 62.564035 33.560192 62.322147 33.53154 62.125 33.5625 A 0.42442876 0.42442876 0 0 1 62.09375 33.59375 C 57.573167 33.915372 54.773937 37.454829 54.46875 40.53125 C 54.260893 42.626553 55.148693 44.546398 58 45.5625 L 65.96875 45.5625 L 71.90625 45.5625 C 73.219687 44.960757 74.480059 44.149912 75.34375 43.1875 C 76.235069 42.194301 76.74059 41.071145 76.5625 39.71875 C 76.5459 39.587736 76.549444 39.563465 76.5625 39.65625 A 0.42442876 0.42442876 0 0 1 76.53125 39.625 C 76.522583 39.518858 76.526144 39.483251 76.53125 39.53125 C 76.37428 38.075601 75.102465 36.670961 73.125 35.5625 C 71.147535 34.454039 68.520689 33.686577 65.84375 33.5 C 65.628912 33.485024 65.415486 33.476311 65.1875 33.46875 C 65.02463 33.46343 64.917108 33.437706 64.90625 33.4375 C 64.808951 33.434012 64.699474 33.43933 64.5625 33.4375 C 64.363115 33.434903 64.156947 33.432762 63.96875 33.4375 z "
       inkscape:radius="-0.62220329"
       sodipodi:type="inkscape:offset" />
    <path
       transform="matrix(0.99882245,0,0,0.99982349,-49.942414,0.00819328)"
       d="m 63.96875,34.5 c -0.06491,0.0088 -0.135173,0.02565 -0.25,0.03125 -0.234332,0.01228 -0.536317,0.03859 -0.78125,0.0625 -0.196223,0.0203 -0.342576,0.02917 -0.46875,0.03125 -0.126174,0.0021 -0.286113,0.01549 -0.1875,0 a 0.43439592,0.43439592 0 0 1 -0.125,0.03125 c -4.00217,0.284739 -6.374843,3.447048 -6.625,5.96875 -0.08621,0.86906 0.05979,1.637966 0.46875,2.28125 0.388855,0.611662 1.076535,1.150262 2.25,1.59375 l 7.71875,0 5.6875,0 c 1.147856,-0.548246 2.225568,-1.241516 2.90625,-2 0.765134,-0.852591 1.073158,-1.594826 0.9375,-2.625 -0.0022,-0.01768 8.16e-4,-0.01802 0,-0.03125 a 0.43439592,0.43439592 0 0 1 0,-0.03125 0.43439592,0.43439592 0 0 1 -0.03125,-0.09375 c -0.0076,-0.09305 -0.0021,-0.133696 0,-0.09375 -0.09763,-0.905396 -1.064644,-2.141461 -2.875,-3.15625 -1.809228,-1.014156 -4.287507,-1.730264 -6.8125,-1.90625 -0.19414,-0.01353 -0.402638,-0.02387 -0.625,-0.03125 -0.135701,-0.0044 -0.235386,-0.02324 -0.28125,-0.03125 -0.005,-8.8e-4 -0.02766,5.27e-4 -0.03125,0 -0.0038,-2e-6 -0.02562,-4.8e-5 -0.03125,0 -0.04503,3.81e-4 -0.115943,0.0018 -0.25,0 -0.175247,-0.0023 -0.351808,-0.0025 -0.5,0 -0.0303,0.0075 -0.0443,-0.0026 -0.0625,0 -0.0091,0.0013 -0.02043,-0.0015 -0.03125,0 z"
       id="path3651"
       style="fill:none;stroke:url(#radialGradient3733);stroke-width:1.00063348;stroke-linejoin:round;stroke-miterlimit:4;stroke-opacity:1;stroke-dasharray:none"
       inkscape:original="M 63.96875 34.0625 C 64.005471 34.061584 63.893853 34.08369 63.6875 34.09375 C 63.441064 34.106668 63.154198 34.132049 62.90625 34.15625 C 62.548192 34.193298 62.28072 34.177768 62.21875 34.1875 A 0.62226551 0.62226551 0 0 1 62.125 34.1875 L 62.125 34.21875 C 57.908606 34.51873 55.366669 37.842601 55.09375 40.59375 C 55.000255 41.536228 55.158011 42.390434 55.625 43.125 C 56.083008 43.845439 56.873424 44.466632 58.15625 44.9375 L 65.96875 44.9375 L 71.78125 44.9375 C 72.991866 44.367468 74.122857 43.619364 74.875 42.78125 C 75.68869 41.874553 76.08987 40.969581 75.9375 39.8125 C 75.933901 39.784098 75.939871 39.741624 75.9375 39.71875 A 0.62226551 0.62226551 0 0 1 75.9375 39.6875 L 75.90625 39.6875 C 75.903572 39.654707 75.907583 39.619427 75.90625 39.59375 C 75.783115 38.451866 74.693655 37.148225 72.8125 36.09375 C 70.933193 35.040311 68.399543 34.305311 65.8125 34.125 C 65.609478 34.110848 65.381266 34.101213 65.15625 34.09375 C 65.046575 34.090168 64.972584 34.072221 64.90625 34.0625 C 64.895194 34.06088 64.884573 34.064035 64.875 34.0625 C 64.817028 34.060422 64.720002 34.064604 64.5625 34.0625 C 64.364247 34.059918 64.172053 34.058168 64 34.0625 A 0.62226551 0.62226551 0 0 1 63.96875 34.0625 z "
       inkscape:radius="-0.43435249"
       sodipodi:type="inkscape:offset" />
  </g>
</svg>
