<?xml version="1.0" encoding="UTF-8" standalone="no"?>
<!-- Created with Inkscape (http://www.inkscape.org/) -->
<svg
   xmlns:dc="http://purl.org/dc/elements/1.1/"
   xmlns:cc="http://creativecommons.org/ns#"
   xmlns:rdf="http://www.w3.org/1999/02/22-rdf-syntax-ns#"
   xmlns:svg="http://www.w3.org/2000/svg"
   xmlns="http://www.w3.org/2000/svg"
   xmlns:xlink="http://www.w3.org/1999/xlink"
   xmlns:sodipodi="http://sodipodi.sourceforge.net/DTD/sodipodi-0.dtd"
   xmlns:inkscape="http://www.inkscape.org/namespaces/inkscape"
   width="48"
   height="48"
   id="svg2"
   sodipodi:version="0.32"
   inkscape:version="0.46"
   version="1.0"
   sodipodi:docbase="/usr/share/icons/UbuntuStudio/scalable/actions"
   sodipodi:docname="folder-move.svg"
   inkscape:output_extension="org.inkscape.output.svg.inkscape"
   inkscape:export-filename="/usr/share/icons/UbuntuStudio/32x32/actions/document-open.png"
   inkscape:export-xdpi="60"
   inkscape:export-ydpi="60"
   sodipodi:modified="TRUE">
  <defs
     id="defs4">
    <linearGradient
       inkscape:collect="always"
       id="linearGradient3816">
      <stop
         style="stop-color:#ffffff;stop-opacity:1;"
         offset="0"
         id="stop3818" />
      <stop
         style="stop-color:#ffffff;stop-opacity:0;"
         offset="1"
         id="stop3820" />
    </linearGradient>
    <linearGradient
       inkscape:collect="always"
       xlink:href="#linearGradient3816"
       id="linearGradient8045"
       gradientUnits="userSpaceOnUse"
       gradientTransform="matrix(0.6569648,0,0,0.6813595,7.3075287,8.3433484)"
       x1="30.25"
       y1="16"
       x2="30.25"
       y2="47.573372" />
    <linearGradient
       inkscape:collect="always"
       xlink:href="#linearGradient3801"
       id="linearGradient8059"
       gradientUnits="userSpaceOnUse"
       gradientTransform="matrix(0.6069065,0,0,0.6161189,5.7669917,-36.519609)"
       x1="7.25"
       y1="35"
       x2="7.5472875"
       y2="9.7363586" />
    <radialGradient
       inkscape:collect="always"
       xlink:href="#linearGradient3802"
       id="radialGradient8064"
       gradientUnits="userSpaceOnUse"
       gradientTransform="matrix(0.6803669,0,0,0.7297032,7.471265,6.3047419)"
       cx="32.560867"
       cy="22.177084"
       fx="32.560867"
       fy="22.177084"
       r="19.209332" />
    <radialGradient
       inkscape:collect="always"
       xlink:href="#linearGradient4014"
       id="radialGradient8036"
       gradientUnits="userSpaceOnUse"
       gradientTransform="matrix(1,0,0,0.2673797,0,30.770053)"
       cx="24.125"
       cy="42"
       fx="24.125"
       fy="42"
       r="23.375" />
    <inkscape:perspective
       sodipodi:type="inkscape:persp3d"
       inkscape:vp_x="0 : 24 : 1"
       inkscape:vp_y="0 : 1000 : 0"
       inkscape:vp_z="48 : 24 : 1"
       inkscape:persp3d-origin="24 : 16 : 1"
       id="perspective51" />
    <linearGradient
       inkscape:collect="always"
       id="linearGradient4014">
      <stop
         style="stop-color:#000000;stop-opacity:1;"
         offset="0"
         id="stop4016" />
      <stop
         style="stop-color:#000000;stop-opacity:0;"
         offset="1"
         id="stop4018" />
    </linearGradient>
    <linearGradient
       inkscape:collect="always"
       id="linearGradient3802">
      <stop
         style="stop-color:#ffffff;stop-opacity:1"
         offset="0"
         id="stop3804" />
      <stop
         style="stop-color:#dedede;stop-opacity:1"
         offset="1"
         id="stop3806" />
    </linearGradient>
    <linearGradient
       id="linearGradient3801">
      <stop
         style="stop-color:#729fcf;stop-opacity:1;"
         offset="0"
         id="stop3803" />
      <stop
         style="stop-color:#204a87;stop-opacity:1;"
         offset="1"
         id="stop3805" />
    </linearGradient>
    <radialGradient
       inkscape:collect="always"
       xlink:href="#linearGradient4014"
       id="radialGradient8703"
       gradientUnits="userSpaceOnUse"
       gradientTransform="matrix(1,0,0,0.2673797,0,30.770053)"
       cx="24.125"
       cy="42"
       fx="24.125"
       fy="42"
       r="23.375" />
    <radialGradient
       inkscape:collect="always"
       xlink:href="#linearGradient3802"
       id="radialGradient8705"
       gradientUnits="userSpaceOnUse"
       gradientTransform="matrix(0.66667,0,0,0.7139715,7.3635857,6.3314573)"
       cx="32.560867"
       cy="22.177084"
       fx="32.560867"
       fy="22.177084"
       r="19.209332" />
  </defs>
  <sodipodi:namedview
     id="base"
     pagecolor="#ffffff"
     bordercolor="#666666"
     borderopacity="1.0"
     gridtolerance="10000"
     guidetolerance="10"
     objecttolerance="10"
     inkscape:pageopacity="0.0"
     inkscape:pageshadow="2"
     inkscape:zoom="11.313708"
     inkscape:cx="6.6941571"
     inkscape:cy="27.05571"
     inkscape:document-units="px"
     inkscape:current-layer="layer1"
     width="48px"
     height="48px"
     inkscape:showpageshadow="false"
     inkscape:window-width="1280"
     inkscape:window-height="950"
     inkscape:window-x="1"
     inkscape:window-y="50"
     showgrid="true"
     inkscape:snap-global="false">
    <inkscape:grid
       type="xygrid"
       id="grid8855" />
  </sodipodi:namedview>
  <metadata
     id="metadata7">
    <rdf:RDF>
      <cc:Work
         rdf:about="">
        <dc:format>image/svg+xml</dc:format>
        <dc:type
           rdf:resource="http://purl.org/dc/dcmitype/StillImage" />
      </cc:Work>
    </rdf:RDF>
  </metadata>
  <g
     inkscape:label="Layer 1"
     inkscape:groupmode="layer"
     id="layer1">
    <g
       id="g8697"
       transform="translate(-7.0277276,-4)">
      <path
         transform="matrix(0.66667,0,0,0.66667,7.1969189,7.4638011)"
         d="M 47.5,42 A 23.375,6.25 0 1 1 0.75,42 A 23.375,6.25 0 1 1 47.5,42 z"
         sodipodi:ry="6.25"
         sodipodi:rx="23.375"
         sodipodi:cy="42"
         sodipodi:cx="24.125"
         id="path2335"
         style="opacity:0.82539685;fill:url(#radialGradient8703);fill-opacity:1;fill-rule:evenodd;stroke:none;stroke-width:1.54239237;stroke-linecap:butt;stroke-linejoin:miter;marker:none;marker-start:none;marker-mid:none;marker-end:none;stroke-miterlimit:4;stroke-dasharray:none;stroke-dashoffset:0;stroke-opacity:1;visibility:visible;display:inline;overflow:visible;enable-background:accumulate"
         sodipodi:type="arc" />
      <path
         sodipodi:nodetypes="cccccccccccccccsccccc"
         id="path2338"
         d="M 13.621378,8.4463544 C 13.030878,8.4463555 12.558874,8.9391927 12.558873,9.5296932 L 12.558873,34.467933 C 12.558873,34.541746 12.56573,34.606932 12.579706,34.676268 L 12.579706,34.738768 C 12.579706,35.331123 12.922015,35.906005 13.350543,36.009608 L 25.812513,39.030456 C 26.241042,39.134057 26.583351,38.726973 26.583351,38.134618 L 26.583351,35.530439 L 35.519665,35.530439 C 36.110165,35.530437 36.582169,35.058434 36.582171,34.467933 L 36.582171,21.821421 L 37.405399,21.821421 C 37.995901,21.82142 38.467904,21.349416 38.467904,20.758916 L 38.467904,12.988044 C 38.467905,12.877325 38.45187,12.770839 38.426237,12.654709 C 38.315163,12.151476 37.968516,11.654701 37.488732,11.654704 L 36.603004,11.592204 L 36.582171,9.5296932 C 36.582167,8.9391903 36.110168,8.446358 35.519665,8.4463544 L 13.621378,8.4463544 z"
         style="fill:url(#radialGradient8705);fill-opacity:1;fill-rule:evenodd;stroke:#888a85;stroke-width:1;stroke-linecap:butt;stroke-linejoin:miter;marker:none;marker-start:none;marker-mid:none;marker-end:none;stroke-miterlimit:4;stroke-dasharray:none;stroke-dashoffset:0;stroke-opacity:1;visibility:visible;display:inline;overflow:visible;enable-background:accumulate" />
      <path
         style="fill:none;fill-opacity:1;fill-rule:evenodd;stroke:#ffffff;stroke-width:1;stroke-linecap:butt;stroke-linejoin:miter;marker:none;marker-start:none;marker-mid:none;marker-end:none;stroke-miterlimit:4;stroke-dasharray:none;stroke-dashoffset:0;stroke-opacity:1;visibility:visible;display:inline;overflow:visible;enable-background:accumulate"
         d="M 37.530063,13.91045 C 37.501311,13.702345 37.663646,12.624539 37.107767,12.624539 L 35.541999,12.652914 L 35.599624,10.433848 C 35.599624,9.8852456 35.560699,9.5735601 35.00482,9.5735601 L 14.520258,9.4316877 C 13.964378,9.431687 13.522934,9.8852429 13.522936,10.433846 L 13.522936,34.247507 C 13.522937,34.796109 14.022004,35.174136 14.520257,35.231772 C 14.520257,35.231772 24.08977,37.535784 25.129903,37.873692 C 25.593778,37.981058 25.884001,37.966648 25.880901,37.249008 C 25.817079,36.390991 25.888166,34.561623 25.888166,34.561623 L 34.602306,34.561623 C 35.158181,34.561621 35.599625,34.125962 35.599625,33.57736 L 35.541997,21.157514 L 36.648115,21.157514 C 37.203994,21.157516 37.558814,21.232598 37.55881,20.683999 L 37.530063,13.91045 z"
         id="path2340"
         sodipodi:nodetypes="cccccccccccccccccc" />
      <g
         transform="matrix(0.6248704,0,0,0.6248704,8.1907665,8.7065591)"
         style="fill:#cacaca;fill-opacity:1;stroke-width:1.06689322;stroke-miterlimit:4;stroke-dasharray:none"
         id="g3383" />
    </g>
    <g
       id="g8871"
       transform="translate(5.8299933,5.0413955)">
      <path
         transform="matrix(0.6813595,0,0,0.6813595,7.4636273,7.3768653)"
         d="M 47.5,42 A 23.375,6.25 0 1 1 0.75,42 A 23.375,6.25 0 1 1 47.5,42 z"
         sodipodi:ry="6.25"
         sodipodi:rx="23.375"
         sodipodi:cy="42"
         sodipodi:cx="24.125"
         id="path4012"
         style="opacity:0.82539685;fill:url(#radialGradient8036);fill-opacity:1;fill-rule:evenodd;stroke:none;stroke-width:1;stroke-linecap:butt;stroke-linejoin:miter;marker:none;marker-start:none;marker-mid:none;marker-end:none;stroke-miterlimit:4;stroke-dasharray:none;stroke-dashoffset:0;stroke-opacity:1;visibility:visible;display:inline;overflow:visible;enable-background:accumulate"
         sodipodi:type="arc" />
      <path
         sodipodi:nodetypes="ccccccccccccccc"
         id="rect2448"
         d="M 38.544138,13.116442 C 38.544138,12.512929 38.065566,12.013972 37.462933,12.013972 L 36.564899,12.013972 L 36.564899,9.5727908 C 36.564899,8.969278 36.086328,8.4703211 35.483695,8.4703211 L 13.787679,8.4703211 C 13.185045,8.4703211 12.706474,8.969278 12.706474,9.5727908 L 12.706474,35.42176 C 12.706474,36.025274 13.185045,36.504543 13.787679,36.504543 L 35.483695,36.504543 C 36.086328,36.504543 36.564899,36.025274 36.564899,35.42176 L 36.564899,22.172441 L 37.462933,22.172441 C 38.065566,22.172441 38.544138,21.693171 38.544138,21.089658 L 38.544138,13.116442 z"
         style="fill:url(#radialGradient8064);fill-opacity:1;fill-rule:evenodd;stroke:#949494;stroke-width:0.99999994;stroke-linecap:butt;stroke-linejoin:miter;marker:none;marker-start:none;marker-mid:none;marker-end:none;stroke-miterlimit:4;stroke-dasharray:none;stroke-dashoffset:0;stroke-opacity:1;visibility:visible;display:inline;overflow:visible;enable-background:accumulate" />
      <path
         style="fill:none;fill-opacity:1;fill-rule:evenodd;stroke:#ffffff;stroke-width:1.00000012;stroke-linecap:butt;stroke-linejoin:miter;marker:none;marker-start:none;marker-mid:none;marker-end:none;stroke-miterlimit:4;stroke-dasharray:none;stroke-dashoffset:0;stroke-opacity:1;visibility:visible;display:inline;overflow:visible;enable-background:accumulate"
         d="M 37.755018,13.827953 C 37.755018,13.269118 37.307143,12.807099 36.743163,12.807099 L 35.620925,12.807099 L 35.620925,10.546635 C 35.620925,9.9878001 35.173051,9.5257806 34.609072,9.5257806 L 14.304688,9.5257806 C 13.740708,9.5257806 13.292833,9.9878001 13.292833,10.546635 L 13.292833,34.482029 C 13.292833,35.040867 13.740709,35.484655 14.304688,35.484655 L 34.609072,35.484655 C 35.17305,35.484655 35.620925,35.040867 35.620925,34.482029 L 35.620925,21.46881 L 36.743163,21.46881 C 37.307143,21.46881 37.755018,21.025019 37.755018,20.466186 L 37.755018,13.827953 z"
         id="path3194"
         sodipodi:nodetypes="ccccccccccccccc" />
      <path
         sodipodi:nodetypes="cccccc"
         id="rect3196"
         d="M 34.970281,11.531301 L 34.970281,36.709561 L 32.240854,39.502602 L 16.277036,9.2938949 L 33.880908,10.2514 C 34.48442,10.356952 34.970281,10.927788 34.970281,11.531301 z"
         inkscape:transform-center-y="-14.537892"
         inkscape:transform-center-x="-2.5426398"
         style="opacity:0.11560693;fill:#000000;fill-opacity:1;fill-rule:evenodd;stroke:none;stroke-width:1;stroke-linecap:butt;stroke-linejoin:miter;marker:none;marker-start:none;marker-mid:none;marker-end:none;stroke-miterlimit:4;stroke-dasharray:none;stroke-dashoffset:0;stroke-opacity:1;visibility:visible;display:inline;overflow:visible;enable-background:accumulate" />
      <rect
         inkscape:transform-center-x="-2.5426398"
         transform="matrix(0,1,-0.9850476,-0.1722822,0,0)"
         inkscape:transform-center-y="-14.537892"
         style="fill:url(#linearGradient8059);fill-opacity:1;fill-rule:evenodd;stroke:#204a87;stroke-width:1.00756109;stroke-linecap:butt;stroke-linejoin:miter;marker:none;marker-start:none;marker-mid:none;marker-end:none;stroke-miterlimit:4;stroke-dasharray:none;stroke-dashoffset:0;stroke-opacity:1;visibility:visible;display:inline;overflow:visible;enable-background:accumulate"
         id="rect3152"
         width="28.030544"
         height="20.111778"
         x="6.2669907"
         y="-32.951725"
         rx="1.089373"
         ry="1.105909" />
      <rect
         inkscape:transform-center-x="-2.3041113"
         transform="matrix(0,1,-0.9833641,-0.1816453,0,0)"
         inkscape:transform-center-y="-13.496906"
         style="opacity:0.43915345;fill:none;fill-opacity:1;fill-rule:evenodd;stroke:#eeeeec;stroke-width:1.00842297;stroke-linecap:butt;stroke-linejoin:miter;marker:none;marker-start:none;marker-mid:none;marker-end:none;stroke-miterlimit:4;stroke-dasharray:none;stroke-dashoffset:0;stroke-opacity:1;visibility:visible;display:inline;overflow:visible;enable-background:accumulate"
         id="rect4411"
         width="26.047279"
         height="18.256294"
         x="7.1042118"
         y="-32.035748"
         rx="1.0122957"
         ry="1.0038794" />
      <g
         transform="matrix(0.6813595,0,0,0.6813595,-59.201185,9.842209)"
         inkscape:label="Layer 1"
         id="g3802">
        <g
           id="g3845"
           transform="matrix(0.5313788,0.5313788,-0.5313788,0.5313788,51.879092,-8.9820531)" />
      </g>
      <path
         id="path3770"
         d="M 13.569227,9.6847748 C 15.647379,22.463265 21.838199,33.486528 30.424481,40.750509 C 30.976197,40.816335 31.409928,40.437328 31.409927,39.856224 L 31.409927,14.007148 C 31.409927,13.403636 30.944793,12.835152 30.362889,12.729599 L 13.569227,9.6847748 z"
         style="opacity:0.25396824;fill:url(#linearGradient8045);fill-opacity:1;fill-rule:evenodd;stroke:none;stroke-width:1;stroke-linecap:butt;stroke-linejoin:miter;marker:none;marker-start:none;marker-mid:none;marker-end:none;stroke-miterlimit:4;stroke-dasharray:none;stroke-dashoffset:0;stroke-opacity:1;visibility:visible;display:inline;overflow:visible;enable-background:accumulate" />
    </g>
  </g>
</svg>
