<?xml version="1.0" encoding="UTF-8" standalone="no"?>
<!-- Created with Inkscape (http://www.inkscape.org/) -->
<svg
   xmlns:dc="http://purl.org/dc/elements/1.1/"
   xmlns:cc="http://creativecommons.org/ns#"
   xmlns:rdf="http://www.w3.org/1999/02/22-rdf-syntax-ns#"
   xmlns:svg="http://www.w3.org/2000/svg"
   xmlns="http://www.w3.org/2000/svg"
   xmlns:xlink="http://www.w3.org/1999/xlink"
   xmlns:sodipodi="http://sodipodi.sourceforge.net/DTD/sodipodi-0.dtd"
   xmlns:inkscape="http://www.inkscape.org/namespaces/inkscape"
   width="48px"
   height="48px"
   id="svg9960"
   sodipodi:version="0.32"
   inkscape:version="0.46"
   sodipodi:docname="battery.svg"
   inkscape:output_extension="org.inkscape.output.svg.inkscape">
  <defs
     id="defs9962">
    <filter
       inkscape:collect="always"
       id="filter10204"
       x="-0.0288"
       width="1.0576"
       y="-0.14399999"
       height="1.288">
      <feGaussianBlur
         inkscape:collect="always"
         stdDeviation="0.3"
         id="feGaussianBlur10206" />
    </filter>
    <linearGradient
       id="linearGradient10208">
      <stop
         style="stop-color:#ffffff;stop-opacity:1;"
         offset="0"
         id="stop10210" />
      <stop
         id="stop10216"
         offset="0.56999999"
         style="stop-color:#ffffff;stop-opacity:1;" />
      <stop
         style="stop-color:#ffffff;stop-opacity:0;"
         offset="1"
         id="stop10212" />
    </linearGradient>
    <radialGradient
       inkscape:collect="always"
       xlink:href="#linearGradient10208"
       id="radialGradient9095"
       gradientUnits="userSpaceOnUse"
       gradientTransform="matrix(1,0,0,0.44,0,25.48)"
       cx="150.375"
       cy="70.5"
       fx="150.375"
       fy="70.5"
       r="12.5" />
    <filter
       inkscape:collect="always"
       id="filter8764"
       x="-0.085186221"
       width="1.1703724"
       y="-0.22538856"
       height="1.4507771">
      <feGaussianBlur
         inkscape:collect="always"
         stdDeviation="2.2538855"
         id="feGaussianBlur8766" />
    </filter>
    <linearGradient
       id="linearGradient10232"
       inkscape:collect="always">
      <stop
         id="stop10234"
         offset="0"
         style="stop-color:#888a85;stop-opacity:1;" />
      <stop
         id="stop10236"
         offset="1"
         style="stop-color:#ffffff;stop-opacity:1" />
    </linearGradient>
    <linearGradient
       inkscape:collect="always"
       xlink:href="#linearGradient10232"
       id="linearGradient9091"
       gradientUnits="userSpaceOnUse"
       x1="-96.27787"
       y1="44.305157"
       x2="-145.78146"
       y2="58.799995" />
    <linearGradient
       id="linearGradient10220">
      <stop
         style="stop-color:#d3d7cf;stop-opacity:1"
         offset="0"
         id="stop10222" />
      <stop
         id="stop10224"
         offset="0.234375"
         style="stop-color:#babdb6;stop-opacity:1" />
      <stop
         style="stop-color:#ffffff;stop-opacity:1"
         offset="0.65625"
         id="stop10226" />
      <stop
         id="stop10228"
         offset="0.90625"
         style="stop-color:#888a85;stop-opacity:1" />
      <stop
         style="stop-color:#babdb6;stop-opacity:1"
         offset="1"
         id="stop10230" />
    </linearGradient>
    <linearGradient
       inkscape:collect="always"
       xlink:href="#linearGradient10220"
       id="linearGradient9089"
       gradientUnits="userSpaceOnUse"
       x1="136"
       y1="57.5"
       x2="160"
       y2="57.5" />
    <clipPath
       clipPathUnits="userSpaceOnUse"
       id="clipPath10121">
      <path
         style="fill:#000000;fill-opacity:1;stroke:none;stroke-width:1;stroke-linecap:round;stroke-linejoin:round;stroke-miterlimit:4;stroke-dasharray:none;stroke-opacity:1;display:inline;enable-background:new"
         d="M 148,50 C 141.37599,50 136.00001,51.791999 136,54 L 136,61 C 136,63.208002 141.376,64.999999 148,65 C 154.62401,65 160,63.208004 160,61 L 160,54 C 160,51.791998 154.62401,50.000001 148,50 z"
         id="path10123"
         sodipodi:nodetypes="cccsccc" />
    </clipPath>
    <linearGradient
       inkscape:collect="always"
       id="linearGradient3461">
      <stop
         style="stop-color:#555753;stop-opacity:1;"
         offset="0"
         id="stop3463" />
      <stop
         style="stop-color:#555753;stop-opacity:0;"
         offset="1"
         id="stop3465" />
    </linearGradient>
    <linearGradient
       inkscape:collect="always"
       xlink:href="#linearGradient3461"
       id="linearGradient3467"
       x1="133.44987"
       y1="57.5"
       x2="133.44987"
       y2="62.989326"
       gradientUnits="userSpaceOnUse" />
    <linearGradient
       inkscape:collect="always"
       id="linearGradient10003">
      <stop
         style="stop-color:#000000;stop-opacity:1;"
         offset="0"
         id="stop10005" />
      <stop
         style="stop-color:#000000;stop-opacity:0;"
         offset="1"
         id="stop10007" />
    </linearGradient>
    <radialGradient
       inkscape:collect="always"
       xlink:href="#linearGradient10003"
       id="radialGradient9087"
       gradientUnits="userSpaceOnUse"
       gradientTransform="matrix(2.3577576,0,0,0.3294684,-200.94813,41.471706)"
       cx="145.72029"
       cy="45.234367"
       fx="145.72029"
       fy="45.234367"
       r="22.5" />
    <linearGradient
       inkscape:collect="always"
       id="linearGradient10070">
      <stop
         style="stop-color:#ffffff;stop-opacity:1;"
         offset="0"
         id="stop10072" />
      <stop
         style="stop-color:#ffffff;stop-opacity:0;"
         offset="1"
         id="stop10074" />
    </linearGradient>
    <radialGradient
       inkscape:collect="always"
       xlink:href="#linearGradient10070"
       id="radialGradient3469"
       gradientUnits="userSpaceOnUse"
       gradientTransform="matrix(2.1898728,3.2492379,-0.8655477,0.6307923,217.35307,464.89796)"
       cx="-135.75"
       cy="64.5"
       fx="-135.75"
       fy="64.5"
       r="31.75" />
    <linearGradient
       id="linearGradient10046">
      <stop
         id="stop10048"
         offset="0"
         style="stop-color:#ffffff;stop-opacity:1" />
      <stop
         style="stop-color:#646662;stop-opacity:1"
         offset="0.48955241"
         id="stop10052" />
      <stop
         id="stop10050"
         offset="1"
         style="stop-color:#888a85;stop-opacity:1" />
    </linearGradient>
    <radialGradient
       inkscape:collect="always"
       xlink:href="#linearGradient10046"
       id="radialGradient9083"
       gradientUnits="userSpaceOnUse"
       gradientTransform="matrix(3.0690681,3.4161504,-1.5731131,2.0179088,365.94499,414.4111)"
       cx="-137.21773"
       cy="54.817501"
       fx="-137.21773"
       fy="54.817501"
       r="31.75" />
    <linearGradient
       inkscape:collect="always"
       id="linearGradient8983">
      <stop
         style="stop-color:#ffffff;stop-opacity:1;"
         offset="0"
         id="stop8985" />
      <stop
         style="stop-color:#ffffff;stop-opacity:0;"
         offset="1"
         id="stop8987" />
    </linearGradient>
    <linearGradient
       inkscape:collect="always"
       xlink:href="#linearGradient8983"
       id="linearGradient8989"
       x1="313.90625"
       y1="60.15625"
       x2="341.46811"
       y2="60.15625"
       gradientUnits="userSpaceOnUse" />
    <linearGradient
       inkscape:collect="always"
       id="linearGradient8975">
      <stop
         style="stop-color:#ffffff;stop-opacity:1;"
         offset="0"
         id="stop8977" />
      <stop
         style="stop-color:#ffffff;stop-opacity:0;"
         offset="1"
         id="stop8979" />
    </linearGradient>
    <linearGradient
       inkscape:collect="always"
       xlink:href="#linearGradient8975"
       id="linearGradient8981"
       x1="313.90625"
       y1="82.28125"
       x2="337.40225"
       y2="82.28125"
       gradientUnits="userSpaceOnUse" />
    <linearGradient
       id="linearGradient9063">
      <stop
         style="stop-color:#000000;stop-opacity:1;"
         offset="0"
         id="stop9065" />
      <stop
         style="stop-color:#b09000;stop-opacity:1"
         offset="1"
         id="stop9067" />
    </linearGradient>
    <linearGradient
       inkscape:collect="always"
       xlink:href="#linearGradient9063"
       id="linearGradient9069"
       x1="313"
       y1="68.857391"
       x2="313"
       y2="66.808365"
       gradientUnits="userSpaceOnUse" />
    <filter
       inkscape:collect="always"
       id="filter8755"
       x="-0.97537816"
       width="2.9507563"
       y="-0.043235119"
       height="1.0864702">
      <feGaussianBlur
         inkscape:collect="always"
         stdDeviation="3.6068672"
         id="feGaussianBlur8757" />
    </filter>
    <filter
       inkscape:collect="always"
       id="filter8747"
       x="-0.2863639"
       width="1.5727278"
       y="-0.8499977"
       height="2.6999955">
      <feGaussianBlur
         inkscape:collect="always"
         stdDeviation="0.79606628"
         id="feGaussianBlur8749" />
    </filter>
    <filter
       inkscape:collect="always"
       id="filter8751"
       x="-0.14446919"
       width="1.2889384"
       y="-0.7299363"
       height="2.4598725">
      <feGaussianBlur
         inkscape:collect="always"
         stdDeviation="0.57041894"
         id="feGaussianBlur8753" />
    </filter>
    <filter
       inkscape:collect="always"
       id="filter8839"
       x="-0.04259311"
       width="1.0851862"
       y="-0.11269427"
       height="1.2253885">
      <feGaussianBlur
         inkscape:collect="always"
         stdDeviation="1.1269427"
         id="feGaussianBlur8841" />
    </filter>
    <linearGradient
       inkscape:collect="always"
       xlink:href="#linearGradient8843"
       id="linearGradient8272"
       gradientUnits="userSpaceOnUse"
       x1="-133.49458"
       y1="84.034538"
       x2="-155.15279"
       y2="41.5" />
    <filter
       inkscape:collect="always"
       id="filter8756"
       x="-0.97537816"
       width="2.9507563"
       y="-0.043235119"
       height="1.0864702">
      <feGaussianBlur
         inkscape:collect="always"
         stdDeviation="3.6068672"
         id="feGaussianBlur8758" />
    </filter>
    <filter
       inkscape:collect="always"
       id="filter8765"
       x="-1.7639467"
       width="4.5278931"
       y="-0.029174689"
       height="1.0583494">
      <feGaussianBlur
         inkscape:collect="always"
         stdDeviation="2.3886777"
         id="feGaussianBlur8767" />
    </filter>
    <linearGradient
       id="linearGradient8801">
      <stop
         id="stop8803"
         offset="0"
         style="stop-color:#fce94f;stop-opacity:1" />
      <stop
         style="stop-color:#c4a000;stop-opacity:1"
         offset="0.10763889"
         id="stop8805" />
      <stop
         style="stop-color:#edd400;stop-opacity:1"
         offset="0.17013888"
         id="stop8807" />
      <stop
         id="stop8809"
         offset="0.7638889"
         style="stop-color:#c4a000;stop-opacity:1" />
      <stop
         id="stop8811"
         offset="1"
         style="stop-color:#edd400;stop-opacity:1" />
    </linearGradient>
    <linearGradient
       inkscape:collect="always"
       xlink:href="#linearGradient8801"
       id="linearGradient8270"
       gradientUnits="userSpaceOnUse"
       x1="110.2"
       y1="102.00043"
       x2="185.79999"
       y2="102.00043" />
    <linearGradient
       id="linearGradient8698">
      <stop
         style="stop-color:#888a85;stop-opacity:1"
         offset="0"
         id="stop8700" />
      <stop
         id="stop8773"
         offset="0.10763889"
         style="stop-color:#000000;stop-opacity:1" />
      <stop
         id="stop8706"
         offset="0.17013888"
         style="stop-color:#2e3436;stop-opacity:1" />
      <stop
         style="stop-color:#000000;stop-opacity:1"
         offset="0.7638889"
         id="stop8708" />
      <stop
         style="stop-color:#555753;stop-opacity:1"
         offset="1"
         id="stop8702" />
    </linearGradient>
    <linearGradient
       inkscape:collect="always"
       xlink:href="#linearGradient8698"
       id="linearGradient8268"
       gradientUnits="userSpaceOnUse"
       x1="108.39545"
       y1="168"
       x2="187.60452"
       y2="168" />
    <linearGradient
       inkscape:collect="always"
       id="linearGradient8843">
      <stop
         style="stop-color:#edd400;stop-opacity:1;"
         offset="0"
         id="stop8845" />
      <stop
         style="stop-color:#c4a000;stop-opacity:1"
         offset="1"
         id="stop8847" />
    </linearGradient>
    <linearGradient
       inkscape:collect="always"
       xlink:href="#linearGradient8843"
       id="linearGradient8266"
       gradientUnits="userSpaceOnUse"
       x1="-133.49458"
       y1="84.034538"
       x2="-155.15279"
       y2="41.5" />
    <clipPath
       clipPathUnits="userSpaceOnUse"
       id="clipPath8277">
      <path
         sodipodi:nodetypes="cccsccc"
         style="fill:#000000;fill-opacity:1;stroke:none;stroke-width:1;stroke-linecap:round;stroke-linejoin:round;stroke-miterlimit:4;stroke-dasharray:none;stroke-opacity:1;display:inline;enable-background:new"
         d="M 148.00001,51.999998 C 128.12798,51.999998 111.99999,57.375998 111.99999,64.000001 L 111.99999,250.5532 C 111.99999,257.17718 128.12798,262.5532 148.00001,262.55318 C 167.87199,262.55318 184.00003,257.17719 183.99998,250.5532 L 183.99998,64.000001 C 183.99998,57.375998 167.87199,51.999998 148.00001,51.999998 z"
         id="path8279" />
    </clipPath>
    <linearGradient
       id="linearGradient9116">
      <stop
         style="stop-color:#000000;stop-opacity:1;"
         offset="0"
         id="stop9118" />
      <stop
         id="stop9124"
         offset="0.7857551"
         style="stop-color:#000000;stop-opacity:0.49803922;" />
      <stop
         style="stop-color:#000000;stop-opacity:0;"
         offset="1"
         id="stop9120" />
    </linearGradient>
    <radialGradient
       inkscape:collect="always"
       xlink:href="#linearGradient9116"
       id="radialGradient9122"
       cx="-135.75"
       cy="64.5"
       fx="-135.75"
       fy="64.5"
       r="31.75"
       gradientTransform="matrix(1,0,0,0.3779528,0,40.122047)"
       gradientUnits="userSpaceOnUse" />
    <inkscape:perspective
       sodipodi:type="inkscape:persp3d"
       inkscape:vp_x="0 : 24 : 1"
       inkscape:vp_y="0 : 1000 : 0"
       inkscape:vp_z="48 : 24 : 1"
       inkscape:persp3d-origin="24 : 16 : 1"
       id="perspective9968" />
  </defs>
  <sodipodi:namedview
     id="base"
     pagecolor="#ffffff"
     bordercolor="#666666"
     borderopacity="1.0"
     inkscape:pageopacity="0.0"
     inkscape:pageshadow="2"
     inkscape:zoom="14"
     inkscape:cx="17.545444"
     inkscape:cy="24.2193"
     inkscape:current-layer="layer1"
     showgrid="true"
     inkscape:grid-bbox="true"
     inkscape:document-units="px">
    <inkscape:grid
       type="xygrid"
       id="grid10090" />
  </sodipodi:namedview>
  <metadata
     id="metadata9965">
    <rdf:RDF>
      <cc:Work
         rdf:about="">
        <dc:format>image/svg+xml</dc:format>
        <dc:type
           rdf:resource="http://purl.org/dc/dcmitype/StillImage" />
      </cc:Work>
    </rdf:RDF>
  </metadata>
  <g
     id="layer1"
     inkscape:label="Layer 1"
     inkscape:groupmode="layer">
    <g
       style="display:inline;enable-background:new"
       id="g9928"
       transform="translate(-298.01672,-49.972168)">
      <path
         sodipodi:type="arc"
         style="opacity:0.7;fill:url(#radialGradient9122);fill-opacity:1;stroke:none;stroke-width:1;stroke-linecap:round;stroke-linejoin:round;stroke-miterlimit:4;stroke-dasharray:none;stroke-opacity:1;display:inline;enable-background:new"
         id="path7981"
         sodipodi:cx="-135.75"
         sodipodi:cy="64.5"
         sodipodi:rx="31.75"
         sodipodi:ry="12"
         d="M -104,64.5 A 31.75,12 0 1 1 -167.5,64.5 A 31.75,12 0 1 1 -104,64.5 z"
         transform="matrix(0.331235,0,0,0.2921309,366.48186,75.596315)" />
      <g
         transform="matrix(0.2083335,0,0,0.2117117,290.66667,40.414422)"
         clip-path="url(#clipPath8277)"
         id="g7983"
         style="display:inline;enable-background:new">
        <path
           sodipodi:type="arc"
           style="fill:url(#linearGradient8266);fill-opacity:1;stroke:none;stroke-width:1;stroke-linecap:round;stroke-linejoin:round;stroke-miterlimit:4;stroke-dasharray:none;stroke-opacity:1;display:inline;enable-background:new"
           id="path7985"
           sodipodi:cx="-135.75"
           sodipodi:cy="64.5"
           sodipodi:rx="31.75"
           sodipodi:ry="12"
           d="M -104,64.5 A 31.75,12 0 1 1 -167.5,64.5 A 31.75,12 0 1 1 -104,64.5 z"
           transform="matrix(1.1338582,0,0,1.0000001,301.92126,-0.5000053)" />
        <path
           style="fill:url(#linearGradient8268);fill-opacity:1;stroke:none;stroke-width:1;stroke-linecap:round;stroke-linejoin:round;stroke-miterlimit:4;stroke-dasharray:none;stroke-opacity:1;display:inline;enable-background:new"
           d="M 112,64 L 112,255.2766 C 112,261.9006 128.128,267.27661 148,267.2766 C 167.872,267.2766 184.00001,261.90061 184,255.2766 L 184,64 L 112,64 z"
           id="path7987"
           sodipodi:nodetypes="ccsccc" />
        <path
           style="fill:url(#linearGradient8270);fill-opacity:1;stroke:none;stroke-width:1;stroke-linecap:round;stroke-linejoin:round;stroke-miterlimit:4;stroke-dasharray:none;stroke-opacity:1;display:inline;enable-background:new"
           d="M 112,64.000855 L 112,128 C 112,134.624 128.128,140.00001 148,140 C 167.872,140 184.00001,134.62401 184,128 L 184,64.000855 L 112,64.000855 z"
           id="path7989"
           sodipodi:nodetypes="ccsccc" />
        <path
           id="path7991"
           d="M 130.625,74.53125 L 130.625,265.80785 C 131.67384,266.00105 132.76558,266.14963 133.875,266.30785 L 133.875,75.03125 C 132.76558,74.873031 131.67384,74.724453 130.625,74.53125 z"
           style="opacity:0.2;fill:#ffffff;fill-opacity:1;stroke:none;stroke-width:1;stroke-linecap:round;stroke-linejoin:round;stroke-miterlimit:4;stroke-dasharray:none;stroke-opacity:1;display:inline;filter:url(#filter8765);enable-background:new"
           transform="matrix(0.6923077,0,0,1,40.692308,0)"
           sodipodi:nodetypes="ccccc" />
        <path
           sodipodi:nodetypes="ccccc"
           style="opacity:0.2;fill:#ffffff;fill-opacity:1;stroke:none;stroke-width:1;stroke-linecap:round;stroke-linejoin:round;stroke-miterlimit:4;stroke-dasharray:none;stroke-opacity:1;display:inline;filter:url(#filter8756);enable-background:new"
           d="M 165.84375,71.40625 C 163.09413,71.931392 160.11138,72.355314 156.96875,72.625 L 156.96875,266.9016 C 160.11138,266.63191 163.09413,266.20799 165.84375,265.68285 L 165.84375,71.40625 z"
           id="path7993" />
        <path
           sodipodi:type="arc"
           style="fill:url(#linearGradient8272);fill-opacity:1;stroke:none;stroke-width:1;stroke-linecap:round;stroke-linejoin:round;stroke-miterlimit:4;stroke-dasharray:none;stroke-opacity:1;filter:url(#filter8839)"
           id="path7995"
           sodipodi:cx="-135.75"
           sodipodi:cy="64.5"
           sodipodi:rx="31.75"
           sodipodi:ry="12"
           d="M -104,64.5 A 31.75,12 0 1 1 -167.5,64.5 A 31.75,12 0 1 1 -104,64.5 z"
           transform="matrix(1.1338582,0,0,1.0000001,301.92126,-0.5000053)" />
        <path
           transform="matrix(0.9973947,-7.2137037e-2,7.2137037e-2,0.9973947,-5.035264,11.829121)"
           d="M 166,75.625 A 4.75,0.875 0 1 1 156.5,75.625 A 4.75,0.875 0 1 1 166,75.625 z"
           sodipodi:ry="0.875"
           sodipodi:rx="4.75"
           sodipodi:cy="75.625"
           sodipodi:cx="161.25"
           id="path7999"
           style="opacity:0.5;fill:#ffffff;fill-opacity:1;stroke:none;stroke-width:1;stroke-linecap:round;stroke-linejoin:round;stroke-miterlimit:4;stroke-dasharray:none;stroke-opacity:1;display:inline;filter:url(#filter8751);enable-background:new"
           sodipodi:type="arc" />
        <path
           transform="matrix(0.9872699,0.1590538,-0.1590538,0.9872699,13.608474,-19.465448)"
           d="M 135.75,75.75 A 3.375,1 0 1 1 129,75.75 A 3.375,1 0 1 1 135.75,75.75 z"
           sodipodi:ry="1"
           sodipodi:rx="3.375"
           sodipodi:cy="75.75"
           sodipodi:cx="132.375"
           id="path8001"
           style="opacity:0.7;fill:#ffffff;fill-opacity:1;stroke:none;stroke-width:1;stroke-linecap:round;stroke-linejoin:round;stroke-miterlimit:4;stroke-dasharray:none;stroke-opacity:1;display:inline;filter:url(#filter8747);enable-background:new"
           sodipodi:type="arc" />
      </g>
      <text
         inkscape:transform-center-y="-35.012361"
         inkscape:transform-center-x="-31.883226"
         transform="matrix(0,0.9978492,-1.0021554,0,0,0)"
         id="text8021"
         y="-319.36383"
         x="71.93763"
         style="font-size:4.26873779px;font-style:normal;font-variant:normal;font-weight:bold;font-stretch:normal;opacity:0.9;fill:#ffffff;fill-opacity:1;stroke:none;stroke-width:1px;stroke-linecap:butt;stroke-linejoin:miter;stroke-opacity:1;display:inline;enable-background:new;font-family:Arial Black;-inkscape-font-specification:'Arial Black, Bold'"
         xml:space="preserve"><tspan
           y="-319.36383"
           x="71.93763"
           id="tspan8023"
           sodipodi:role="line">POWER </tspan></text>
      <path
         sodipodi:nodetypes="ccccc"
         id="path8029"
         d="M 130.625,74.53125 L 130.625,136.53125 C 131.67384,136.72445 132.76558,136.87303 133.875,137.03125 L 133.875,75.03125 C 132.76558,74.873031 131.67384,74.724453 130.625,74.53125 z"
         style="opacity:0.3;fill:#ffffff;fill-opacity:1;stroke:none;stroke-width:1;stroke-linecap:round;stroke-linejoin:round;stroke-miterlimit:4;stroke-dasharray:none;stroke-opacity:1;display:inline;filter:url(#filter8765);enable-background:new"
         transform="matrix(0.1442309,0,0,0.2117117,299.14424,40.414422)" />
      <path
         sodipodi:nodetypes="ccccc"
         style="opacity:0.2;fill:#ffffff;fill-opacity:1;stroke:none;stroke-width:1;stroke-linecap:round;stroke-linejoin:round;stroke-miterlimit:4;stroke-dasharray:none;stroke-opacity:1;display:inline;filter:url(#filter8755);enable-background:new"
         d="M 165.84375,71.40625 C 163.09413,71.931392 160.11138,72.355314 156.96875,72.625 L 156.96875,137.625 C 160.11138,137.35531 163.09413,136.93139 165.84375,136.40625 L 165.84375,71.40625 z"
         id="path8031"
         transform="matrix(0.2083335,0,0,0.2117117,290.66667,40.414422)" />
      <path
         d="M 321.5,50.9375 C 319.38503,50.937499 317.46105,51.236867 316.03125,51.71875 C 315.31635,51.959692 314.72974,52.235796 314.28125,52.59375 C 313.83276,52.951704 313.5,53.420601 313.5,53.96875 L 313.5,93.46875 C 313.5,94.0169 313.83276,94.485796 314.28125,94.84375 C 314.72974,95.201704 315.31635,95.477808 316.03125,95.71875 C 317.46105,96.200634 319.38503,96.500002 321.5,96.5 C 323.61497,96.500002 325.53895,96.200634 326.96875,95.71875 C 327.68365,95.477808 328.27026,95.201704 328.71875,94.84375 C 329.16724,94.485796 329.5,94.016901 329.5,93.46875 L 329.5,53.96875 C 329.5,53.4206 329.16724,52.951703 328.71875,52.59375 C 328.27026,52.235797 327.68365,51.959692 326.96875,51.71875 C 325.53895,51.236867 323.61497,50.9375 321.5,50.9375 z"
         id="path9051"
         style="fill:none;fill-opacity:1;stroke:url(#linearGradient9069);stroke-width:1;stroke-linecap:round;stroke-linejoin:round;stroke-miterlimit:4;stroke-dasharray:none;stroke-opacity:1;display:inline;enable-background:new"
         inkscape:original="M 321.5 51.4375 C 317.35999 51.437499 314 52.566371 314 53.96875 L 314 93.46875 C 313.99999 94.871126 317.35999 96.000004 321.5 96 C 325.64 96.000003 329.00001 94.871128 329 93.46875 L 329 53.96875 C 329 52.566372 325.64 51.4375 321.5 51.4375 z "
         inkscape:radius="0.49472654"
         sodipodi:type="inkscape:offset" />
      <path
         sodipodi:nodetypes="ccssssscc"
         id="path9053"
         d="M 314.40625,68.96875 L 314.40625,93.46875 C 314.40625,93.653333 314.52188,93.868103 314.84375,94.125 C 315.16562,94.381897 315.69538,94.656481 316.34375,94.875 C 317.64049,95.312039 319.46778,95.593752 321.5,95.59375 C 323.53221,95.593751 325.35951,95.312039 326.65625,94.875 C 327.30462,94.656481 327.83438,94.381897 328.15625,94.125 C 328.47812,93.868103 328.59375,93.653333 328.59375,93.46875 L 328.59375,68.96875"
         style="opacity:0.25;fill:none;fill-opacity:1;stroke:url(#linearGradient8981);stroke-width:1;stroke-linecap:round;stroke-linejoin:round;stroke-miterlimit:4;stroke-opacity:1;display:inline;enable-background:new" />
      <path
         sodipodi:nodetypes="ccsscsscc"
         id="path9098"
         d="M 328.59375,68.46875 L 328.59375,53.96875 C 328.59375,53.784166 328.47812,53.569397 328.15625,53.3125 C 327.83438,53.055603 327.30462,52.781019 326.65625,52.5625 C 325.35951,52.125462 323.53221,51.84375 321.5,51.84375 C 319.46778,51.84375 317.64049,52.125462 316.34375,52.5625 C 315.69538,52.781019 315.16562,53.055603 314.84375,53.3125 C 314.52188,53.569397 314.40625,53.784165 314.40625,53.96875 L 314.40625,68.46875"
         style="opacity:0.4;fill:none;fill-opacity:1;stroke:url(#linearGradient8989);stroke-width:1;stroke-linecap:round;stroke-linejoin:round;stroke-miterlimit:4;stroke-opacity:1;display:inline;enable-background:new" />
      <g
         transform="matrix(0.2083335,0,0,0.1996138,290.66667,41.067704)"
         id="g8003"
         style="display:inline;enable-background:new">
        <path
           transform="matrix(0.8818896,0,0,0.7291666,267.7165,15.718754)"
           d="M -104,64.5 A 31.75,12 0 1 1 -167.5,64.5 A 31.75,12 0 1 1 -104,64.5 z"
           sodipodi:ry="12"
           sodipodi:rx="31.75"
           sodipodi:cy="64.5"
           sodipodi:cx="-135.75"
           id="path8005"
           style="fill:url(#radialGradient9083);fill-opacity:1;stroke:none;stroke-width:1;stroke-linecap:round;stroke-linejoin:round;stroke-miterlimit:4;stroke-dasharray:none;stroke-opacity:1;display:inline;enable-background:new"
           sodipodi:type="arc" />
        <path
           sodipodi:type="arc"
           style="fill:url(#radialGradient3469);fill-opacity:1;stroke:none;stroke-width:1;stroke-linecap:round;stroke-linejoin:round;stroke-miterlimit:4;stroke-dasharray:none;stroke-opacity:1;display:inline;enable-background:new"
           id="path8007"
           sodipodi:cx="-135.75"
           sodipodi:cy="64.5"
           sodipodi:rx="31.75"
           sodipodi:ry="12"
           d="M -104,64.5 A 31.75,12 0 1 1 -167.5,64.5 A 31.75,12 0 1 1 -104,64.5 z"
           transform="matrix(0.8818896,0,0,0.7291666,267.7165,15.718754)" />
        <path
           style="opacity:0.55102036;fill:url(#radialGradient9087);fill-opacity:1;stroke:none;stroke-width:1;stroke-linecap:round;stroke-linejoin:round;stroke-miterlimit:4;stroke-dasharray:none;stroke-opacity:1;display:inline;enable-background:new"
           d="M 148,55 C 135.58,55 125.5,58.36 125.5,62.5 C 125.5,62.66935 125.5293,62.833436 125.5625,63 C 126.34101,59.094694 136.08805,56 148,56 C 159.91195,55.999999 169.65899,59.094693 170.4375,63 C 170.4707,62.833436 170.5,62.66935 170.5,62.5 C 170.5,58.359999 160.42,54.999999 148,55 z"
           id="path8009"
           transform="matrix(1.244444,0,0,1.1666664,-36.177728,-10.16665)" />
      </g>
      <path
         sodipodi:nodetypes="cccsccc"
         id="path8017"
         d="M 148,50 C 141.37599,50 136.00001,51.791999 136,54 L 136,61 C 136,63.208002 141.376,64.999999 148,65 C 154.62401,65 160,63.208004 160,61 L 160,54 C 160,51.791998 154.62401,50.000001 148,50 z"
         style="opacity:1;fill:none;fill-opacity:1;stroke:url(#linearGradient3467);stroke-width:9.52309704;stroke-linecap:round;stroke-linejoin:round;stroke-miterlimit:4;stroke-dasharray:none;stroke-opacity:1;display:inline;enable-background:new"
         transform="matrix(0.2083335,0,0,0.2117117,290.66667,40.414422)" />
      <g
         transform="matrix(0.2083335,0,0,0.2117117,290.66667,40.414422)"
         clip-path="url(#clipPath10121)"
         id="g8011"
         style="display:inline;enable-background:new">
        <path
           style="fill:url(#linearGradient9089);fill-opacity:1;stroke:none;stroke-width:1;stroke-linecap:round;stroke-linejoin:round;stroke-miterlimit:4;stroke-dasharray:none;stroke-opacity:1;display:inline;enable-background:new"
           d="M 148,50 C 141.37599,50 136.00001,51.791999 136,54 L 136,61 C 136,63.208002 141.376,64.999999 148,65 C 154.62401,65 160,63.208004 160,61 L 160,54 C 160,51.791998 154.62401,50.000001 148,50 z"
           id="path8013"
           sodipodi:nodetypes="cccsccc" />
        <path
           transform="matrix(0.4724413,0,0,0.416667,212.13392,26.124982)"
           d="M -104,64.5 A 31.75,12 0 1 1 -167.5,64.5 A 31.75,12 0 1 1 -104,64.5 z"
           sodipodi:ry="12"
           sodipodi:rx="31.75"
           sodipodi:cy="64.5"
           sodipodi:cx="-135.75"
           id="path8015"
           style="fill:url(#linearGradient9091);fill-opacity:1;stroke:none;stroke-width:1;stroke-linecap:round;stroke-linejoin:round;stroke-miterlimit:4;stroke-dasharray:none;stroke-opacity:1;display:inline;filter:url(#filter8764);enable-background:new"
           sodipodi:type="arc" />
      </g>
      <path
         transform="matrix(0.2083335,0,0,0.2117117,290.66667,42.108115)"
         style="fill:none;fill-opacity:1;stroke:url(#radialGradient9095);stroke-width:4.76154852;stroke-linecap:round;stroke-linejoin:round;stroke-miterlimit:4;stroke-dasharray:none;stroke-opacity:1;display:inline;filter:url(#filter10204);enable-background:new"
         d="M 136,53 C 136,55.208002 141.376,56.999999 148,57 C 154.62401,57 160,55.208004 160,53"
         id="path8019"
         sodipodi:nodetypes="csc" />
      <path
         transform="matrix(0.2083335,0,0,0.2117117,290.58854,42.134579)"
         d="M 153.625,50.6875 A 1.5625,1.5625 0 1 1 150.5,50.6875 A 1.5625,1.5625 0 1 1 153.625,50.6875 z"
         sodipodi:ry="1.5625"
         sodipodi:rx="1.5625"
         sodipodi:cy="50.6875"
         sodipodi:cx="152.0625"
         id="path8033"
         style="fill:#ffffff;fill-opacity:1;stroke:none;stroke-width:1;stroke-linecap:round;stroke-linejoin:round;stroke-miterlimit:4;stroke-dasharray:none;stroke-opacity:1;display:inline;enable-background:new"
         sodipodi:type="arc" />
      <rect
         y="92"
         x="321"
         height="2"
         width="1"
         id="rect8029"
         style="opacity:1;fill:#ffffff;fill-opacity:1;stroke:none;stroke-width:2;stroke-linecap:round;stroke-linejoin:round;stroke-miterlimit:4;stroke-dasharray:none;stroke-opacity:1" />
      <rect
         y="58"
         x="321"
         height="3"
         width="1"
         id="rect8801"
         style="opacity:1;fill:#000000;fill-opacity:1;stroke:none;stroke-width:2;stroke-linecap:round;stroke-linejoin:round;stroke-miterlimit:4;stroke-dasharray:none;stroke-opacity:1;display:inline;enable-background:new" />
      <rect
         transform="matrix(0,1,-1,0,0,0)"
         y="-323"
         x="59"
         height="3"
         width="1"
         id="rect8803"
         style="opacity:1;fill:#000000;fill-opacity:1;stroke:none;stroke-width:2;stroke-linecap:round;stroke-linejoin:round;stroke-miterlimit:4;stroke-dasharray:none;stroke-opacity:1;display:inline;enable-background:new" />
    </g>
  </g>
</svg>
