<?xml version="1.0" encoding="UTF-8" standalone="no"?>
<!-- Created with Inkscape (http://www.inkscape.org/) -->
<svg
   xmlns:dc="http://purl.org/dc/elements/1.1/"
   xmlns:cc="http://creativecommons.org/ns#"
   xmlns:rdf="http://www.w3.org/1999/02/22-rdf-syntax-ns#"
   xmlns:svg="http://www.w3.org/2000/svg"
   xmlns="http://www.w3.org/2000/svg"
   xmlns:xlink="http://www.w3.org/1999/xlink"
   xmlns:sodipodi="http://sodipodi.sourceforge.net/DTD/sodipodi-0.dtd"
   xmlns:inkscape="http://www.inkscape.org/namespaces/inkscape"
   inkscape:export-ydpi="90.000000"
   inkscape:export-xdpi="90.000000"
   inkscape:export-filename="/home/jonieno/Desktop/icon.png"
   width="48"
   height="48"
   id="svg11300"
   sodipodi:version="0.32"
   inkscape:version="0.46"
   sodipodi:docname="input-mouse.svg"
   inkscape:output_extension="org.inkscape.output.svg.inkscape"
   version="1.0"
   style="display:inline;enable-background:new">
  <title
     id="title4119">Human-Palette Icon Theme</title>
  <defs
     id="defs3">
    <linearGradient
       id="linearGradient8533">
      <stop
         style="stop-color:#ffffff;stop-opacity:1;"
         offset="0"
         id="stop8535" />
      <stop
         style="stop-color:#ffffff;stop-opacity:0;"
         offset="1"
         id="stop8537" />
    </linearGradient>
    <linearGradient
       id="linearGradient8507">
      <stop
         style="stop-color:#646464;stop-opacity:1;"
         offset="0"
         id="stop8509" />
      <stop
         style="stop-color:#969696;stop-opacity:1;"
         offset="1"
         id="stop8511" />
    </linearGradient>
    <linearGradient
       id="linearGradient8477">
      <stop
         style="stop-color:#ffffff;stop-opacity:1;"
         offset="0"
         id="stop8479" />
      <stop
         style="stop-color:#ffffff;stop-opacity:0;"
         offset="1"
         id="stop8481" />
    </linearGradient>
    <linearGradient
       id="linearGradient8435">
      <stop
         style="stop-color:#a0a0a0;stop-opacity:1;"
         offset="0"
         id="stop8437" />
      <stop
         style="stop-color:#6e6e6e;stop-opacity:1;"
         offset="1"
         id="stop8439" />
    </linearGradient>
    <radialGradient
       r="18.375"
       fy="40.625"
       fx="24"
       cy="40.625"
       cx="24"
       gradientTransform="matrix(1,0,0,0.414966,0,23.767007)"
       gradientUnits="userSpaceOnUse"
       id="radialGradient6062"
       xlink:href="#linearGradient7148"
       inkscape:collect="always" />
    <linearGradient
       id="linearGradient2303">
      <stop
         id="stop2305"
         offset="0"
         style="stop-color:#ffffff" />
      <stop
         style="stop-color:#dedede;stop-opacity:1;"
         offset="0.67346936"
         id="stop4891" />
      <stop
         id="stop2307"
         offset="1"
         style="stop-color:#bababa;stop-opacity:1;" />
    </linearGradient>
    <linearGradient
       id="linearGradient7148"
       inkscape:collect="always">
      <stop
         id="stop7150"
         offset="0"
         style="stop-color:#000000;stop-opacity:1;" />
      <stop
         id="stop7152"
         offset="1"
         style="stop-color:#000000;stop-opacity:0;" />
    </linearGradient>
    <radialGradient
       inkscape:collect="always"
       xlink:href="#linearGradient2303"
       id="radialGradient6811"
       gradientUnits="userSpaceOnUse"
       gradientTransform="matrix(1.5002062,0,0,1.0591901,-7.7186965,-3.0000648)"
       cx="24.809053"
       cy="21.7887"
       fx="24.809053"
       fy="21.7887"
       r="16.803993" />
    <radialGradient
       inkscape:collect="always"
       xlink:href="#linearGradient8435"
       id="radialGradient8441"
       cx="43.494537"
       cy="31.478458"
       fx="43.494537"
       fy="31.478458"
       r="5.5000062"
       gradientTransform="matrix(3.4427336,-1.4836167e-2,1.1003678e-2,2.5534042,-107.64717,-53.748757)"
       gradientUnits="userSpaceOnUse" />
    <radialGradient
       inkscape:collect="always"
       xlink:href="#linearGradient8435"
       id="radialGradient8449"
       cx="16.316259"
       cy="30.078392"
       fx="16.316259"
       fy="30.078392"
       r="5.5000067"
       gradientTransform="matrix(1.8863621,0,0,2.5658715,-14.403379,-51.839601)"
       gradientUnits="userSpaceOnUse" />
    <linearGradient
       inkscape:collect="always"
       xlink:href="#linearGradient8507"
       id="linearGradient8513"
       x1="44.14249"
       y1="43.75"
       x2="47.07999"
       y2="27.3125"
       gradientUnits="userSpaceOnUse" />
    <linearGradient
       inkscape:collect="always"
       xlink:href="#linearGradient8507"
       id="linearGradient8521"
       x1="15"
       y1="44.25"
       x2="11.972485"
       y2="27.375"
       gradientUnits="userSpaceOnUse" />
    <linearGradient
       inkscape:collect="always"
       xlink:href="#linearGradient8533"
       id="linearGradient8539"
       x1="29.511036"
       y1="16.134254"
       x2="29.511036"
       y2="48.103828"
       gradientUnits="userSpaceOnUse" />
    <linearGradient
       inkscape:collect="always"
       xlink:href="#linearGradient8477"
       id="linearGradient8549"
       x1="29.828125"
       y1="23.895544"
       x2="29.828125"
       y2="14.734607"
       gradientUnits="userSpaceOnUse" />
    <linearGradient
       inkscape:collect="always"
       xlink:href="#linearGradient2303"
       id="linearGradient8577"
       x1="29.5"
       y1="13"
       x2="29.5"
       y2="18.615736"
       gradientUnits="userSpaceOnUse" />
    <linearGradient
       inkscape:collect="always"
       xlink:href="#linearGradient8477"
       id="linearGradient8588"
       x1="41.301136"
       y1="35.6875"
       x2="47.59375"
       y2="35.64584"
       gradientUnits="userSpaceOnUse" />
    <linearGradient
       inkscape:collect="always"
       xlink:href="#linearGradient8477"
       id="linearGradient8592"
       gradientUnits="userSpaceOnUse"
       x1="41.301136"
       y1="35.6875"
       x2="47.59375"
       y2="35.64584"
       gradientTransform="matrix(-1,0,0,1,59.031246,-2.0840925e-2)" />
  </defs>
  <sodipodi:namedview
     stroke="#ef2929"
     fill="#f57900"
     id="base"
     pagecolor="#ffffff"
     bordercolor="#666666"
     borderopacity="0.25490196"
     inkscape:pageopacity="0.0"
     inkscape:pageshadow="2"
     inkscape:zoom="1"
     inkscape:cx="336.9644"
     inkscape:cy="7.9225162"
     inkscape:current-layer="svg11300"
     showgrid="false"
     inkscape:grid-bbox="true"
     inkscape:document-units="px"
     inkscape:showpageshadow="false"
     inkscape:window-width="1280"
     inkscape:window-height="949"
     inkscape:window-x="0"
     inkscape:window-y="24"
     width="400px"
     height="300px"
     inkscape:snap-nodes="false"
     inkscape:snap-bbox="true"
     objecttolerance="7"
     gridtolerance="12"
     guidetolerance="13"
     showguides="false"
     inkscape:guide-bbox="true">
    <inkscape:grid
       type="xygrid"
       id="grid5883"
       spacingx="1px"
       spacingy="1px"
       enabled="true"
       visible="true"
       empspacing="5" />
  </sodipodi:namedview>
  <metadata
     id="metadata4">
    <rdf:RDF>
      <cc:Work
         rdf:about="">
        <dc:format>image/svg+xml</dc:format>
        <dc:type
           rdf:resource="http://purl.org/dc/dcmitype/StillImage" />
        <dc:creator>
          <cc:Agent>
            <dc:title>Jonian Guveli</dc:title>
          </cc:Agent>
        </dc:creator>
        <dc:source />
        <cc:license
           rdf:resource="http://creativecommons.org/licenses/by-nc/3.0/" />
        <dc:title />
        <dc:subject>
          <rdf:Bag />
        </dc:subject>
        <dc:date />
        <dc:rights>
          <cc:Agent>
            <dc:title />
          </cc:Agent>
        </dc:rights>
        <dc:publisher>
          <cc:Agent>
            <dc:title>Jonian Guveli</dc:title>
          </cc:Agent>
        </dc:publisher>
        <dc:identifier />
        <dc:relation />
        <dc:language />
        <dc:coverage />
        <dc:description />
        <dc:contributor>
          <cc:Agent>
            <dc:title>Olibia Tsati</dc:title>
          </cc:Agent>
        </dc:contributor>
      </cc:Work>
      <cc:License
         rdf:about="http://creativecommons.org/licenses/by-nc/3.0/">
        <cc:permits
           rdf:resource="http://creativecommons.org/ns#Reproduction" />
        <cc:permits
           rdf:resource="http://creativecommons.org/ns#Distribution" />
        <cc:requires
           rdf:resource="http://creativecommons.org/ns#Notice" />
        <cc:requires
           rdf:resource="http://creativecommons.org/ns#Attribution" />
        <cc:prohibits
           rdf:resource="http://creativecommons.org/ns#CommercialUse" />
        <cc:permits
           rdf:resource="http://creativecommons.org/ns#DerivativeWorks" />
      </cc:License>
    </rdf:RDF>
  </metadata>
  <g
     id="g8595"
     transform="translate(-5,-5)">
    <path
       transform="matrix(1.1156463,0,0,1.2459015,2.7244896,-9.1147492)"
       d="M 42.375,40.625 A 18.375,7.625 0 1 1 5.625,40.625 A 18.375,7.625 0 1 1 42.375,40.625 z"
       sodipodi:ry="7.625"
       sodipodi:rx="18.375"
       sodipodi:cy="40.625"
       sodipodi:cx="24"
       id="path7146"
       style="fill:url(#radialGradient6062);fill-opacity:1;fill-rule:evenodd;stroke:none;stroke-width:1.10000002;stroke-linecap:round;stroke-linejoin:round;stroke-miterlimit:4;stroke-dasharray:none;stroke-opacity:1"
       sodipodi:type="arc" />
    <path
       sodipodi:nodetypes="cccccsccccccc"
       id="path6806"
       d="M 29.843751,14.541661 C 27.499712,14.524574 25.047538,14.82891 23.999978,15.510115 C 21.313019,16.282367 16.848771,16.344154 15.906196,17.134619 C 14.472769,18.134316 12.191856,20.196185 11.7,21.195881 C 11.830694,31.202687 11.78819,31.390911 10.499925,38.003255 C 10.512394,45.580044 17.243462,48.483626 24.593731,48.500054 C 24.614661,48.500101 24.635291,48.500054 24.656231,48.500054 L 34.406269,48.500054 C 41.780924,48.500054 48.48757,45.601618 48.500075,38.003255 C 47.401964,32.432555 47.161569,31.221791 47.3,21.195881 C 46.808144,20.196185 44.527232,18.134315 43.093804,17.134619 C 42.151229,16.344154 37.68698,16.282368 35.000022,15.510115 C 34.423695,14.897254 32.187791,14.558747 29.843751,14.541661 z"
       style="fill:url(#radialGradient6811);fill-opacity:1;fill-rule:nonzero;stroke:#828282;stroke-width:0.99984949999999995;stroke-linecap:round;stroke-linejoin:round;marker:none;marker-start:none;marker-mid:none;marker-end:none;stroke-miterlimit:4;stroke-dasharray:none;stroke-dashoffset:0;stroke-opacity:1;visibility:visible;display:inline;overflow:visible" />
    <path
       sodipodi:nodetypes="ccccc"
       id="path6819"
       d="M 24.031228,15.510115 C 25.070764,14.090385 33.89775,14.121264 35.000022,15.510115 L 32.5,23.907 C 29.745726,24.694837 29.004409,24.617885 26.5,23.907 L 24.031228,15.510115 z"
       style="fill:#6f706c;fill-opacity:1;fill-rule:evenodd;stroke:#464844;stroke-width:0.9998495;stroke-linecap:butt;stroke-linejoin:miter;stroke-miterlimit:4;stroke-dasharray:none;stroke-opacity:1" />
    <path
       sodipodi:nodetypes="ccccc"
       id="path8541"
       d="M 25.25,15.96875 L 27.34375,23.09375 C 28.691749,23.43517 30.068712,23.564698 31.6875,23.0625 L 33.78125,16 C 30.793763,14.939663 27.904329,15.030143 25.25,15.96875 z"
       style="opacity:0.5;fill:none;fill-rule:evenodd;stroke:url(#linearGradient8549);stroke-width:1px;stroke-linecap:butt;stroke-linejoin:miter;stroke-opacity:1" />
    <rect
       ry="1"
       rx="1"
       y="13.489944"
       x="27.489944"
       height="6.020112"
       width="4.0201106"
       id="rect6763"
       style="opacity:1;fill:url(#linearGradient8577);fill-opacity:1;fill-rule:evenodd;stroke:#5a5a5a;stroke-width:0.97988874000000004;stroke-linecap:square;stroke-linejoin:miter;stroke-miterlimit:4;stroke-dasharray:none;stroke-dashoffset:0;stroke-opacity:1" />
    <path
       sodipodi:nodetypes="cccccc"
       id="path8451"
       d="M 47.38131,23.49298 C 47.289789,28.542757 47.951896,35.50192 48.50702,38.066 C 48.072792,40.628915 47.471778,43.752917 43.571214,45.50702 L 41.49298,45.50702 L 41.666168,33.491389 L 47.38131,23.49298 z"
       style="fill:url(#linearGradient8513);fill-opacity:1;fill-rule:evenodd;stroke:#5a5a5a;stroke-width:0.98596059999999996px;stroke-linecap:butt;stroke-linejoin:miter;stroke-opacity:1" />
    <path
       id="path8455"
       d="M 46.5,31 C 46.224,31 46,31.224 46,31.5 C 46,31.776 46.224001,31.999999 46.5,32 C 46.776,32 47.000002,31.775999 47,31.5 C 47,31.224 46.776001,31 46.5,31 z M 46.5,33 C 46.224,33 46,33.224 46,33.5 C 46,33.776 46.224001,33.999999 46.5,34 C 46.776,34 47.000002,33.775999 47,33.5 C 47,33.224 46.776001,33 46.5,33 z M 44.5,34 C 44.224,34 43.999998,34.224 44,34.5 C 44,34.776 44.223999,34.999999 44.5,35 C 44.776,35 45,34.775999 45,34.5 C 45,34.224 44.775999,34 44.5,34 z M 46.5,35 C 46.224,35 46,35.224 46,35.5 C 46,35.776 46.224001,35.999999 46.5,36 C 46.776,36 47.000002,35.775999 47,35.5 C 47,35.224 46.776001,35 46.5,35 z M 44.5,36 C 44.224,36 44,36.224 44,36.5 C 44,36.776 44.224001,36.999999 44.5,37 C 44.776,37 45.000002,36.775999 45,36.5 C 45,36.224 44.776001,36 44.5,36 z M 46.5,37 C 46.224,37 46,37.224 46,37.5 C 46,37.776 46.224001,37.999999 46.5,38 C 46.776,38 47.000002,37.775999 47,37.5 C 47,37.224 46.776001,37 46.5,37 z M 44.5,38 C 44.224,38 44,38.224 44,38.5 C 44,38.776 44.224001,38.999999 44.5,39 C 44.776,39 45.000002,38.775999 45,38.5 C 45,38.224 44.776001,38 44.5,38 z M 46.5,39 C 46.224,39 46,39.224001 46,39.5 C 46,39.776 46.224001,40 46.5,40 C 46.776,40 47.000002,39.776 47,39.5 C 47,39.224 46.776001,39.000001 46.5,39 z M 44.5,40 C 44.224,40 44,40.224 44,40.5 C 44,40.776 44.224001,40.999999 44.5,41 C 44.776,41 45.000002,40.775999 45,40.5 C 45,40.224 44.776001,40 44.5,40 z M 44.5,42 C 44.224,42 44,42.224 44,42.5 C 44,42.776 44.224001,42.999999 44.5,43 C 44.776,43 45.000002,42.775999 45,42.5 C 45,42.224 44.776001,42 44.5,42 z"
       style="opacity:1;fill:#5a5b58;fill-opacity:1;fill-rule:evenodd;stroke:none;stroke-width:1;stroke-linecap:round;stroke-linejoin:round;stroke-miterlimit:4;stroke-dasharray:none;stroke-dashoffset:0;stroke-opacity:1;display:inline;enable-background:new" />
    <path
       sodipodi:nodetypes="cccc"
       id="path8579"
       d="M 46.59375,27 C 46.92995,31.989583 43.034954,30.635417 43.6875,43.4375 C 45.004903,44.06619 47.274126,41.04118 47.53125,37.625 C 46.756987,34.364583 46.778418,30.541667 46.59375,27 z"
       style="opacity:0.5;fill:none;fill-rule:evenodd;stroke:url(#linearGradient8588);stroke-width:1px;stroke-linecap:square;stroke-linejoin:miter;stroke-opacity:1" />
    <path
       sodipodi:nodetypes="cccccc"
       id="path6821"
       d="M 43.18447,17.121611 C 47.08472,26.860766 38.484424,25.044926 38.496611,48.103 C 44.959684,47.069791 48.373451,43.70948 48.503388,37.843088 C 48.357146,42.597574 42.559301,48.393722 42.572726,41.019832 C 42.666576,29.154794 47.763078,29.447773 47.378,21.181 C 46.858241,19.541044 44.858281,17.977818 43.18447,17.121611 z"
       style="fill:url(#radialGradient8441);fill-opacity:1;fill-rule:evenodd;stroke:#464844;stroke-width:0.99322283px;stroke-linecap:round;stroke-linejoin:round;stroke-opacity:1" />
    <path
       sodipodi:nodetypes="cccccc"
       id="path8485"
       d="M 11.653675,23.492979 C 11.712881,28.576179 11.102508,35.595192 10.527965,37.966 C 10.962193,40.528915 11.563207,43.752917 15.463771,45.50702 L 17.542005,45.50702 L 17.368817,33.491389 L 11.653675,23.492979 z"
       style="fill:url(#linearGradient8521);fill-opacity:1;fill-rule:evenodd;stroke:#595959;stroke-width:0.98596059999999996px;stroke-linecap:butt;stroke-linejoin:miter;stroke-opacity:1;display:inline;enable-background:new" />
    <path
       id="path8487"
       d="M 12.53125,31 C 12.25525,30.999999 12.03125,31.224 12.03125,31.5 C 12.03125,31.776 12.25525,32 12.53125,32 C 12.807251,32 13.03125,31.776 13.03125,31.5 C 13.03125,31.224001 12.80725,31 12.53125,31 z M 12.53125,33 C 12.25525,32.999999 12.03125,33.224 12.03125,33.5 C 12.03125,33.775998 12.25525,34 12.53125,34 C 12.807251,34.000002 13.03125,33.776 13.03125,33.5 C 13.03125,33.223999 12.80725,33 12.53125,33 z M 14.53125,34 C 14.255249,33.999999 14.03125,34.224 14.03125,34.5 C 14.03125,34.775998 14.25525,35 14.53125,35 C 14.80725,35.000002 15.03125,34.776 15.03125,34.5 C 15.03125,34.223999 14.80725,34 14.53125,34 z M 12.53125,35 C 12.25525,35 12.03125,35.224 12.03125,35.5 C 12.03125,35.775999 12.25525,36 12.53125,36 C 12.807251,35.999999 13.03125,35.776 13.03125,35.5 C 13.03125,35.224 12.80725,35 12.53125,35 z M 14.53125,36 C 14.25525,36 14.03125,36.224 14.03125,36.5 C 14.03125,36.775999 14.25525,37 14.53125,37 C 14.807251,36.999999 15.03125,36.776 15.03125,36.5 C 15.03125,36.224 14.80725,36 14.53125,36 z M 12.53125,37 C 12.25525,37 12.03125,37.224 12.03125,37.5 C 12.03125,37.775999 12.25525,38 12.53125,38 C 12.807251,37.999999 13.03125,37.776 13.03125,37.5 C 13.03125,37.224 12.80725,37 12.53125,37 z M 14.53125,38 C 14.25525,38 14.03125,38.224 14.03125,38.5 C 14.03125,38.775999 14.25525,39 14.53125,39 C 14.807251,38.999999 15.03125,38.776 15.03125,38.5 C 15.03125,38.224 14.80725,38 14.53125,38 z M 12.53125,39 C 12.25525,39.000001 12.03125,39.224 12.03125,39.5 C 12.03125,39.776 12.25525,40 12.53125,40 C 12.807251,40 13.03125,39.776 13.03125,39.5 C 13.03125,39.224001 12.80725,39 12.53125,39 z M 14.53125,40 C 14.25525,40 14.03125,40.224 14.03125,40.5 C 14.03125,40.775999 14.25525,41 14.53125,41 C 14.807251,40.999999 15.03125,40.776 15.03125,40.5 C 15.03125,40.224 14.80725,40 14.53125,40 z M 14.53125,42 C 14.25525,42 14.03125,42.224 14.03125,42.5 C 14.03125,42.775999 14.25525,43 14.53125,43 C 14.807251,42.999999 15.03125,42.776 15.03125,42.5 C 15.03125,42.224 14.80725,42 14.53125,42 z"
       style="opacity:1;fill:#5a5b58;fill-opacity:1;fill-rule:evenodd;stroke:none;stroke-width:1;stroke-linecap:round;stroke-linejoin:round;stroke-miterlimit:4;stroke-dasharray:none;stroke-dashoffset:0;stroke-opacity:1;display:inline;enable-background:new" />
    <path
       sodipodi:nodetypes="cccc"
       id="path8590"
       d="M 12.4375,26.979159 C 12.1013,31.968742 15.996296,30.614576 15.34375,43.416659 C 14.026347,44.045349 11.757124,41.020339 11.5,37.604159 C 12.359719,34.414345 12.242939,30.524256 12.4375,26.979159 z"
       style="opacity:0.5;fill:none;fill-rule:evenodd;stroke:url(#linearGradient8592);stroke-width:1px;stroke-linecap:square;stroke-linejoin:miter;stroke-opacity:1;display:inline;enable-background:new" />
    <path
       sodipodi:nodetypes="cccccc"
       id="path6823"
       d="M 15.815517,17.221999 C 11.915267,26.961155 20.515563,25.145315 20.503376,48.203389 C 14.040303,47.17018 10.626535,43.809869 10.496598,37.943477 C 10.64284,42.697963 16.440686,48.494111 16.427261,41.120221 C 16.333411,29.255183 11.236922,29.547773 11.622,21.281 C 12.293411,19.600391 14.056389,18.224702 15.815517,17.221999 z"
       style="fill:url(#radialGradient8449);fill-opacity:1;fill-rule:evenodd;stroke:#464844;stroke-width:0.99322283px;stroke-linecap:round;stroke-linejoin:round;stroke-opacity:1;display:inline;enable-background:new" />
    <path
       sodipodi:nodetypes="ccccccccc"
       id="path8523"
       d="M 16.705398,17.87169 C 17.661566,17.398913 22.32733,17.100199 23.378718,16.634254 L 25.721009,24.61 C 28.225346,25.701587 30.729682,25.756241 33.234019,24.61 L 35.664698,16.678447 C 38.169651,17.207546 41.740954,17.415904 42.249631,17.87169 C 46.032455,25.528612 37.519444,25.805107 37.520854,47.339 C 35.090174,47.697136 26.825864,47.687034 21.478369,47.339 C 21.429242,25.628331 13.108053,25.92636 16.705398,17.87169 z"
       style="opacity:0.8;fill:none;fill-opacity:1;fill-rule:evenodd;stroke:url(#linearGradient8539);stroke-width:1px;stroke-linecap:butt;stroke-linejoin:miter;stroke-opacity:1" />
  </g>
</svg>
