<?xml version="1.0" encoding="UTF-8" standalone="no"?>
<!-- Created with Inkscape (http://www.inkscape.org/) -->
<svg
   xmlns:dc="http://purl.org/dc/elements/1.1/"
   xmlns:cc="http://creativecommons.org/ns#"
   xmlns:rdf="http://www.w3.org/1999/02/22-rdf-syntax-ns#"
   xmlns:svg="http://www.w3.org/2000/svg"
   xmlns="http://www.w3.org/2000/svg"
   xmlns:xlink="http://www.w3.org/1999/xlink"
   xmlns:sodipodi="http://sodipodi.sourceforge.net/DTD/sodipodi-0.dtd"
   xmlns:inkscape="http://www.inkscape.org/namespaces/inkscape"
   inkscape:export-ydpi="90.000000"
   inkscape:export-xdpi="90.000000"
   inkscape:export-filename="/home/jonieno/Desktop/icon.png"
   width="48"
   height="48"
   id="svg11300"
   sodipodi:version="0.32"
   inkscape:version="0.46"
   sodipodi:docname="emblem-web.svg"
   inkscape:output_extension="org.inkscape.output.svg.inkscape"
   version="1.0"
   style="display:inline;enable-background:new">
  <title
     id="title4119">Human-Palette Icon Theme</title>
  <defs
     id="defs3">
    <linearGradient
       id="linearGradient4299">
      <stop
         id="stop4301"
         offset="0"
         style="stop-color:#ffffff;stop-opacity:1;" />
      <stop
         id="stop4303"
         offset="1"
         style="stop-color:#b4b4b4;stop-opacity:1;" />
    </linearGradient>
    <linearGradient
       inkscape:collect="always"
       xlink:href="#linearGradient4299"
       id="linearGradient6117"
       gradientUnits="userSpaceOnUse"
       x1="106.28699"
       y1="31.517946"
       x2="106.28699"
       y2="52.662243" />
    <linearGradient
       inkscape:collect="always"
       xlink:href="#linearGradient4299"
       id="linearGradient8192"
       x1="-33.578125"
       y1="2.9062493"
       x2="-33.578125"
       y2="42.718754"
       gradientUnits="userSpaceOnUse"
       gradientTransform="matrix(0.8043991,0,0,0.8037676,51.010212,5.664051)" />
    <filter
       inkscape:collect="always"
       id="filter8218">
      <feGaussianBlur
         inkscape:collect="always"
         stdDeviation="0.64"
         id="feGaussianBlur8220" />
    </filter>
  </defs>
  <sodipodi:namedview
     stroke="#ef2929"
     fill="#f57900"
     id="base"
     pagecolor="#ffffff"
     bordercolor="#666666"
     borderopacity="0.25490196"
     inkscape:pageopacity="0.0"
     inkscape:pageshadow="2"
     inkscape:zoom="1"
     inkscape:cx="141.8329"
     inkscape:cy="19.711851"
     inkscape:current-layer="svg11300"
     showgrid="false"
     inkscape:grid-bbox="true"
     inkscape:document-units="px"
     inkscape:showpageshadow="false"
     inkscape:window-width="1280"
     inkscape:window-height="950"
     inkscape:window-x="0"
     inkscape:window-y="24"
     width="400px"
     height="300px"
     inkscape:snap-nodes="false"
     inkscape:snap-bbox="true"
     objecttolerance="7"
     gridtolerance="12"
     guidetolerance="13"
     showguides="true"
     inkscape:guide-bbox="true">
    <inkscape:grid
       type="xygrid"
       id="grid5883"
       spacingx="1px"
       spacingy="1px"
       enabled="true"
       visible="true"
       empspacing="5" />
  </sodipodi:namedview>
  <metadata
     id="metadata4">
    <rdf:RDF>
      <cc:Work
         rdf:about="">
        <dc:format>image/svg+xml</dc:format>
        <dc:type
           rdf:resource="http://purl.org/dc/dcmitype/StillImage" />
        <dc:creator>
          <cc:Agent>
            <dc:title>Jonian Guveli</dc:title>
          </cc:Agent>
        </dc:creator>
        <dc:source />
        <cc:license
           rdf:resource="http://creativecommons.org/licenses/by-nc/3.0/" />
        <dc:title>Folder</dc:title>
        <dc:subject>
          <rdf:Bag />
        </dc:subject>
        <dc:date />
        <dc:rights>
          <cc:Agent>
            <dc:title />
          </cc:Agent>
        </dc:rights>
        <dc:publisher>
          <cc:Agent>
            <dc:title>Jonian Guveli</dc:title>
          </cc:Agent>
        </dc:publisher>
        <dc:identifier />
        <dc:relation />
        <dc:language />
        <dc:coverage />
        <dc:description />
        <dc:contributor>
          <cc:Agent>
            <dc:title>Olibia Tsati</dc:title>
          </cc:Agent>
        </dc:contributor>
      </cc:Work>
      <cc:License
         rdf:about="http://creativecommons.org/licenses/by-nc/3.0/">
        <cc:permits
           rdf:resource="http://creativecommons.org/ns#Reproduction" />
        <cc:permits
           rdf:resource="http://creativecommons.org/ns#Distribution" />
        <cc:requires
           rdf:resource="http://creativecommons.org/ns#Notice" />
        <cc:requires
           rdf:resource="http://creativecommons.org/ns#Attribution" />
        <cc:prohibits
           rdf:resource="http://creativecommons.org/ns#CommercialUse" />
        <cc:permits
           rdf:resource="http://creativecommons.org/ns#DerivativeWorks" />
      </cc:License>
    </rdf:RDF>
  </metadata>
  <g
     id="g8336">
    <path
       transform="matrix(2.3019215,0,0,2.3528485,-220.6643,-75.031615)"
       d="M 116.49584,42.090096 A 10.208854,9.9878836 0 1 1 96.078134,42.090096 A 10.208854,9.9878836 0 1 1 116.49584,42.090096 z"
       sodipodi:ry="9.9878836"
       sodipodi:rx="10.208854"
       sodipodi:cy="42.090096"
       sodipodi:cx="106.28699"
       id="path6267"
       style="opacity:0.8;fill:#464646;fill-opacity:1;stroke:#333333;stroke-width:0.42970949;stroke-linecap:round;stroke-linejoin:miter;stroke-miterlimit:4;stroke-dasharray:none;stroke-dashoffset:0;stroke-opacity:1"
       sodipodi:type="arc" />
    <path
       transform="matrix(2.2037686,0,0,2.2525242,-210.23193,-70.808959)"
       d="M 116.49584,42.090096 A 10.208854,9.9878836 0 1 1 96.078134,42.090096 A 10.208854,9.9878836 0 1 1 116.49584,42.090096 z"
       sodipodi:ry="9.9878836"
       sodipodi:rx="10.208854"
       sodipodi:cy="42.090096"
       sodipodi:cx="106.28699"
       id="path10234"
       style="opacity:0.4;fill:none;fill-opacity:1;stroke:url(#linearGradient6117);stroke-width:0.4488304;stroke-linecap:round;stroke-linejoin:miter;stroke-miterlimit:4;stroke-dasharray:none;stroke-dashoffset:0;stroke-opacity:1;display:inline;enable-background:new"
       sodipodi:type="arc" />
    <path
       id="path8194"
       d="M 23.987431,8 C 15.147662,8 7.999998,15.167169 8,24 C 8,32.833154 15.147665,40.000002 23.987431,40 C 32.82639,40 40,32.833235 40,24 C 40,15.16717 32.826391,8 23.987431,8 z M 24.062844,9.934067 L 25.596229,10.536892 L 24.89238,12.345369 C 24.857591,12.361447 24.826537,12.379772 24.791831,12.395605 L 24.942655,12.445838 L 25.420266,12.169544 L 25.772192,12.571428 L 25.068343,13.048666 L 24.641005,12.772371 L 24.716418,12.420723 C 23.913282,12.78368 23.126277,13.088046 22.278083,13.350078 L 21.699922,14.279434 L 21.222309,14.530613 L 20.518461,13.149134 L 21.046346,12.596546 L 21.046346,12.069074 L 19.688924,11.139717 L 20.065986,10.788069 C 19.921863,10.84454 19.781418,10.89451 19.638649,10.963894 L 19.03535,11.089481 L 18.758838,11.365778 L 18.281225,11.265306 L 18.306363,11.390894 L 19.412412,11.516483 L 19.71406,12.119308 L 20.367636,12.395605 L 19.764337,12.923076 C 19.37122,12.65683 19.000805,12.385961 18.608012,12.119308 L 18.004713,11.918367 C 17.745798,12.091274 17.504802,12.266208 17.250589,12.445838 L 17.175176,12.646782 L 17.627651,12.295133 L 18.23095,12.571428 L 18.23095,13.048666 L 17.753339,13.048666 L 17.175176,12.646782 L 16.948939,13.124019 L 16.34564,13.124019 L 16.64729,12.395605 L 17.124901,11.993721 L 17.074627,11.315542 L 17.175176,11.064363 L 17.476827,11.66719 L 17.703064,11.189953 L 18.054987,11.114599 L 18.130401,11.014126 L 18.406913,10.88854 L 18.934801,10.637363 L 19.512961,10.56201 L 19.864887,10.210361 L 20.644148,10.084772 L 20.870386,10.486656 C 20.699543,10.541868 20.532512,10.604814 20.367636,10.662478 L 22.278083,10.135008 L 24.062844,9.934067 z M 18.054987,11.114599 L 17.979576,11.215071 L 18.281225,11.265306 L 18.23095,11.064363 L 18.054987,11.114599 z M 20.065986,10.788069 C 20.125686,10.764677 20.181787,10.734648 20.241948,10.712715 L 20.11626,10.737833 L 20.065986,10.788069 z M 24.716418,12.420723 C 24.740873,12.40967 24.767338,12.406778 24.791831,12.395605 L 24.716418,12.370487 L 24.716418,12.420723 z M 30.498037,12.320251 L 31.201885,12.571428 L 32.509033,12.797486 L 32.182246,13.174253 L 31.478398,13.174253 L 32.182246,13.902668 L 32.73527,13.299843 L 32.886097,13.023548 C 32.886094,13.023548 34.968127,14.884046 36.153966,16.916797 C 37.339807,18.950217 37.888452,21.35313 37.888452,21.839874 L 37.486252,22.291994 C 37.23759,21.999189 36.965359,21.745398 36.681854,21.488226 L 36.053416,21.588697 L 35.475256,20.960754 L 35.475256,21.739403 L 35.978005,22.116169 L 36.304792,22.467817 L 36.732129,21.990581 C 36.841197,22.194712 36.950591,22.389276 37.058916,22.593407 L 37.058916,23.22135 L 36.556166,23.773941 L 35.676355,24.376766 L 35.047917,25.004709 C 35.355905,24.981923 35.663064,24.968996 35.978005,24.929355 L 35.978005,25.356357 L 35.324429,26.938776 L 34.72113,27.616955 L 34.243519,28.6719 C 34.243518,29.242931 34.243519,29.808951 34.243519,30.379906 L 34.394343,31.058084 L 34.14297,31.359497 L 33.539671,31.711145 L 32.911233,32.238619 L 33.439121,32.816326 L 32.73527,33.444269 L 32.860958,33.846153 L 31.805184,35.026688 L 31.101336,35.026688 L 30.498037,35.403454 L 30.120973,35.403454 L 30.120973,34.901098 L 29.970149,33.921507 C 29.760722,33.306884 29.538363,32.698146 29.316575,32.087912 C 29.316575,31.63747 29.3399,31.181921 29.36685,30.731554 L 29.643362,30.128729 L 29.2663,29.400314 L 29.291437,28.395605 L 28.763551,27.792778 L 29.040063,26.963894 L 28.612726,26.486656 L 27.883739,26.486656 L 27.632364,26.210361 L 26.903379,26.662478 L 26.601728,26.335949 L 25.923016,26.913658 C 25.463511,26.39314 25.025768,25.876505 24.565593,25.356357 L 24.012569,24.075354 L 24.49018,23.346939 L 24.238807,23.020409 L 24.816967,21.613815 C 25.305581,21.006482 25.834116,20.440364 26.350354,19.855574 L 27.255302,19.604395 L 28.285939,19.478807 L 28.989788,19.65463 L 29.995287,20.684458 L 30.347211,20.282574 L 30.824824,20.207222 L 31.75491,20.508634 L 32.458758,20.508634 L 32.936372,20.081632 L 33.162609,19.78022 L 32.659859,19.478807 L 31.855459,19.428572 C 31.6301,19.116201 31.419183,18.776769 31.151611,18.499214 L 30.875098,18.624803 L 30.774549,19.428572 L 30.296936,18.87598 L 30.17125,18.248037 L 29.643362,17.821035 L 29.417125,17.821035 L 29.970149,18.44898 L 29.743911,19.00157 L 29.316575,19.102041 L 29.593087,18.574568 L 29.090338,18.323391 L 28.663001,17.821035 L 27.858601,18.021978 L 27.758052,18.248037 L 27.255302,18.574568 L 26.97879,19.227629 L 26.325216,19.579277 L 26.023565,19.227629 L 25.696778,19.227629 L 25.696778,18.12245 L 26.400629,17.770798 L 26.928515,17.770798 L 26.827966,17.343799 L 26.400629,16.916797 L 27.129614,16.76609 L 27.531814,16.288854 L 27.858601,15.736263 L 28.4619,15.736263 L 28.285939,15.309261 L 28.663001,15.083202 L 28.663001,15.56044 L 29.467399,15.736263 L 30.296936,15.083202 L 30.347211,14.756672 L 31.051061,14.279434 C 30.796589,14.311051 30.545599,14.337401 30.296936,14.405023 L 30.296936,13.852434 L 30.573448,13.249607 L 30.296936,13.249607 L 29.693637,13.77708 L 29.542812,14.103611 L 29.693637,14.530613 L 29.417125,15.259027 L 28.989788,15.007849 L 28.612726,14.580846 L 28.009427,15.007849 L 27.808326,14.028257 L 28.838964,13.350078 L 28.838964,12.99843 L 29.467399,12.571428 L 30.498037,12.320251 z M 15.415554,12.646782 L 15.84289,12.697017 L 16.169677,12.872841 L 16.094266,13.525902 L 15.541242,14.053375 L 14.208955,14.832025 L 14.384918,15.384615 L 15.365279,15.786499 L 15.541242,16.489796 L 15.893165,15.736263 L 16.471328,15.485086 L 16.421053,15.133438 L 16.999214,14.128729 L 17.7282,14.530613 L 17.627651,15.007849 L 18.256088,14.78179 L 18.532601,15.309261 L 18.406913,15.660909 L 18.783974,15.786499 L 19.110761,16.087911 L 18.985075,16.43956 L 18.105262,16.740972 L 17.476827,16.740972 L 16.571877,17.142856 C 17.044617,17.142856 17.531972,17.142856 18.004713,17.142856 L 17.527101,17.871271 L 16.571877,18.047096 L 16.169677,18.649921 L 15.415554,18.926216 L 15.063628,19.830456 L 14.058131,20.65934 L 13.95758,21.839874 L 13.379419,21.136577 L 12.600157,20.960754 L 12.474469,21.312403 L 11.846034,21.312403 L 11.066772,21.915228 L 10.966221,22.618524 L 11.016497,23.271585 L 11.544383,23.572998 L 11.896309,23.397175 L 12.27337,22.919937 L 12.650432,22.919937 C 12.597471,23.335849 12.527069,23.759839 12.474469,24.175822 L 13.102907,24.100471 L 13.102907,24.753532 L 13.329144,25.356357 C 13.583902,25.512875 13.922841,25.525018 14.208955,25.607534 L 14.208955,25.481947 L 15.16418,24.627943 L 16.043991,25.281004 L 17.099765,25.180534 L 17.527101,26.31083 L 18.306363,26.486656 L 18.7337,27.315542 C 19.589515,27.755423 20.435476,28.194418 21.297722,28.621664 L 21.197173,29.500786 L 20.568735,30.405024 L 20.669285,31.585558 L 20.267085,32.540031 L 19.462687,32.715854 L 19.110761,33.243328 L 19.261588,33.620094 L 18.7337,34.926216 L 18.054987,35.152277 L 17.904163,35.579277 L 17.476827,35.981161 L 17.577376,36.282574 C 17.577376,36.282574 17.480318,36.3543 17.376277,36.433281 C 17.271873,36.510818 15.632122,35.590498 15.591516,35.45369 C 15.551271,35.316953 15.591516,35.328101 15.591516,35.3281 L 15.893165,33.971743 L 15.591516,33.243328 L 15.641791,32.012558 L 15.214455,31.409733 L 14.25923,30.580846 L 13.329144,28.847723 L 13.580518,27.968603 L 13.479969,27.717426 L 13.806755,27.265306 L 14.208955,26.135008 L 14.208955,26.034536 L 13.907305,25.883831 L 13.479969,25.934067 L 12.750982,25.406593 L 12.27337,24.828886 L 11.167322,24.52747 L 10.061273,23.87441 C 10.061273,23.87441 9.610465,23.145882 9.58366,23.020409 C 10.260654,17.608634 13.168948,14.728259 14.611156,13.400314 C 14.724084,13.372447 15.16418,13.299843 15.16418,13.299843 L 15.415554,12.646782 z M 26.199528,13.827316 L 26.551453,13.827316 C 26.724901,14.180989 26.865347,14.538634 27.003928,14.907379 L 27.431265,15.309261 L 26.953653,15.761381 L 26.300078,15.912088 L 26.425765,15.10832 L 26.425765,14.505495 L 26.199528,14.229198 L 26.199528,13.827316 z M 25.646504,14.631082 L 25.872741,15.233909 L 25.344855,15.510204 L 25.244306,14.78179 L 25.646504,14.631082 z M 32.986646,21.262167 L 32.83582,21.43799 L 33.087196,22.317112 L 33.539671,22.844583 C 33.802106,23.601594 34.049716,24.331337 34.394343,25.054945 C 34.586168,25.054945 34.785907,25.04228 34.972506,25.029827 L 34.570306,24.552589 L 34.771405,24 L 34.344069,23.522762 L 33.615082,21.965464 L 32.986646,21.262167 z"
       style="fill:#000000;fill-opacity:1;fill-rule:nonzero;stroke:none;stroke-width:1;stroke-miterlimit:4;stroke-dasharray:none;display:inline;filter:url(#filter8218);enable-background:new" />
    <path
       id="path6495"
       d="M 23.987431,8 C 15.147662,8 7.999998,15.167169 8,24 C 8,32.833154 15.147665,40.000002 23.987431,40 C 32.82639,40 40,32.833235 40,24 C 40,15.16717 32.826391,8 23.987431,8 z M 24.062844,9.934067 L 25.596229,10.536892 L 24.89238,12.345369 C 24.857591,12.361447 24.826537,12.379772 24.791831,12.395605 L 24.942655,12.445838 L 25.420266,12.169544 L 25.772192,12.571428 L 25.068343,13.048666 L 24.641005,12.772371 L 24.716418,12.420723 C 23.913282,12.78368 23.126277,13.088046 22.278083,13.350078 L 21.699922,14.279434 L 21.222309,14.530613 L 20.518461,13.149134 L 21.046346,12.596546 L 21.046346,12.069074 L 19.688924,11.139717 L 20.065986,10.788069 C 19.921863,10.84454 19.781418,10.89451 19.638649,10.963894 L 19.03535,11.089481 L 18.758838,11.365778 L 18.281225,11.265306 L 18.306363,11.390894 L 19.412412,11.516483 L 19.71406,12.119308 L 20.367636,12.395605 L 19.764337,12.923076 C 19.37122,12.65683 19.000805,12.385961 18.608012,12.119308 L 18.004713,11.918367 C 17.745798,12.091274 17.504802,12.266208 17.250589,12.445838 L 17.175176,12.646782 L 17.627651,12.295133 L 18.23095,12.571428 L 18.23095,13.048666 L 17.753339,13.048666 L 17.175176,12.646782 L 16.948939,13.124019 L 16.34564,13.124019 L 16.64729,12.395605 L 17.124901,11.993721 L 17.074627,11.315542 L 17.175176,11.064363 L 17.476827,11.66719 L 17.703064,11.189953 L 18.054987,11.114599 L 18.130401,11.014126 L 18.406913,10.88854 L 18.934801,10.637363 L 19.512961,10.56201 L 19.864887,10.210361 L 20.644148,10.084772 L 20.870386,10.486656 C 20.699543,10.541868 20.532512,10.604814 20.367636,10.662478 L 22.278083,10.135008 L 24.062844,9.934067 z M 18.054987,11.114599 L 17.979576,11.215071 L 18.281225,11.265306 L 18.23095,11.064363 L 18.054987,11.114599 z M 20.065986,10.788069 C 20.125686,10.764677 20.181787,10.734648 20.241948,10.712715 L 20.11626,10.737833 L 20.065986,10.788069 z M 24.716418,12.420723 C 24.740873,12.40967 24.767338,12.406778 24.791831,12.395605 L 24.716418,12.370487 L 24.716418,12.420723 z M 30.498037,12.320251 L 31.201885,12.571428 L 32.509033,12.797486 L 32.182246,13.174253 L 31.478398,13.174253 L 32.182246,13.902668 L 32.73527,13.299843 L 32.886097,13.023548 C 32.886094,13.023548 34.968127,14.884046 36.153966,16.916797 C 37.339807,18.950217 37.888452,21.35313 37.888452,21.839874 L 37.486252,22.291994 C 37.23759,21.999189 36.965359,21.745398 36.681854,21.488226 L 36.053416,21.588697 L 35.475256,20.960754 L 35.475256,21.739403 L 35.978005,22.116169 L 36.304792,22.467817 L 36.732129,21.990581 C 36.841197,22.194712 36.950591,22.389276 37.058916,22.593407 L 37.058916,23.22135 L 36.556166,23.773941 L 35.676355,24.376766 L 35.047917,25.004709 C 35.355905,24.981923 35.663064,24.968996 35.978005,24.929355 L 35.978005,25.356357 L 35.324429,26.938776 L 34.72113,27.616955 L 34.243519,28.6719 C 34.243518,29.242931 34.243519,29.808951 34.243519,30.379906 L 34.394343,31.058084 L 34.14297,31.359497 L 33.539671,31.711145 L 32.911233,32.238619 L 33.439121,32.816326 L 32.73527,33.444269 L 32.860958,33.846153 L 31.805184,35.026688 L 31.101336,35.026688 L 30.498037,35.403454 L 30.120973,35.403454 L 30.120973,34.901098 L 29.970149,33.921507 C 29.760722,33.306884 29.538363,32.698146 29.316575,32.087912 C 29.316575,31.63747 29.3399,31.181921 29.36685,30.731554 L 29.643362,30.128729 L 29.2663,29.400314 L 29.291437,28.395605 L 28.763551,27.792778 L 29.040063,26.963894 L 28.612726,26.486656 L 27.883739,26.486656 L 27.632364,26.210361 L 26.903379,26.662478 L 26.601728,26.335949 L 25.923016,26.913658 C 25.463511,26.39314 25.025768,25.876505 24.565593,25.356357 L 24.012569,24.075354 L 24.49018,23.346939 L 24.238807,23.020409 L 24.816967,21.613815 C 25.305581,21.006482 25.834116,20.440364 26.350354,19.855574 L 27.255302,19.604395 L 28.285939,19.478807 L 28.989788,19.65463 L 29.995287,20.684458 L 30.347211,20.282574 L 30.824824,20.207222 L 31.75491,20.508634 L 32.458758,20.508634 L 32.936372,20.081632 L 33.162609,19.78022 L 32.659859,19.478807 L 31.855459,19.428572 C 31.6301,19.116201 31.419183,18.776769 31.151611,18.499214 L 30.875098,18.624803 L 30.774549,19.428572 L 30.296936,18.87598 L 30.17125,18.248037 L 29.643362,17.821035 L 29.417125,17.821035 L 29.970149,18.44898 L 29.743911,19.00157 L 29.316575,19.102041 L 29.593087,18.574568 L 29.090338,18.323391 L 28.663001,17.821035 L 27.858601,18.021978 L 27.758052,18.248037 L 27.255302,18.574568 L 26.97879,19.227629 L 26.325216,19.579277 L 26.023565,19.227629 L 25.696778,19.227629 L 25.696778,18.12245 L 26.400629,17.770798 L 26.928515,17.770798 L 26.827966,17.343799 L 26.400629,16.916797 L 27.129614,16.76609 L 27.531814,16.288854 L 27.858601,15.736263 L 28.4619,15.736263 L 28.285939,15.309261 L 28.663001,15.083202 L 28.663001,15.56044 L 29.467399,15.736263 L 30.296936,15.083202 L 30.347211,14.756672 L 31.051061,14.279434 C 30.796589,14.311051 30.545599,14.337401 30.296936,14.405023 L 30.296936,13.852434 L 30.573448,13.249607 L 30.296936,13.249607 L 29.693637,13.77708 L 29.542812,14.103611 L 29.693637,14.530613 L 29.417125,15.259027 L 28.989788,15.007849 L 28.612726,14.580846 L 28.009427,15.007849 L 27.808326,14.028257 L 28.838964,13.350078 L 28.838964,12.99843 L 29.467399,12.571428 L 30.498037,12.320251 z M 15.415554,12.646782 L 15.84289,12.697017 L 16.169677,12.872841 L 16.094266,13.525902 L 15.541242,14.053375 L 14.208955,14.832025 L 14.384918,15.384615 L 15.365279,15.786499 L 15.541242,16.489796 L 15.893165,15.736263 L 16.471328,15.485086 L 16.421053,15.133438 L 16.999214,14.128729 L 17.7282,14.530613 L 17.627651,15.007849 L 18.256088,14.78179 L 18.532601,15.309261 L 18.406913,15.660909 L 18.783974,15.786499 L 19.110761,16.087911 L 18.985075,16.43956 L 18.105262,16.740972 L 17.476827,16.740972 L 16.571877,17.142856 C 17.044617,17.142856 17.531972,17.142856 18.004713,17.142856 L 17.527101,17.871271 L 16.571877,18.047096 L 16.169677,18.649921 L 15.415554,18.926216 L 15.063628,19.830456 L 14.058131,20.65934 L 13.95758,21.839874 L 13.379419,21.136577 L 12.600157,20.960754 L 12.474469,21.312403 L 11.846034,21.312403 L 11.066772,21.915228 L 10.966221,22.618524 L 11.016497,23.271585 L 11.544383,23.572998 L 11.896309,23.397175 L 12.27337,22.919937 L 12.650432,22.919937 C 12.597471,23.335849 12.527069,23.759839 12.474469,24.175822 L 13.102907,24.100471 L 13.102907,24.753532 L 13.329144,25.356357 C 13.583902,25.512875 13.922841,25.525018 14.208955,25.607534 L 14.208955,25.481947 L 15.16418,24.627943 L 16.043991,25.281004 L 17.099765,25.180534 L 17.527101,26.31083 L 18.306363,26.486656 L 18.7337,27.315542 C 19.589515,27.755423 20.435476,28.194418 21.297722,28.621664 L 21.197173,29.500786 L 20.568735,30.405024 L 20.669285,31.585558 L 20.267085,32.540031 L 19.462687,32.715854 L 19.110761,33.243328 L 19.261588,33.620094 L 18.7337,34.926216 L 18.054987,35.152277 L 17.904163,35.579277 L 17.476827,35.981161 L 17.577376,36.282574 C 17.577376,36.282574 17.480318,36.3543 17.376277,36.433281 C 17.271873,36.510818 15.632122,35.590498 15.591516,35.45369 C 15.551271,35.316953 15.591516,35.328101 15.591516,35.3281 L 15.893165,33.971743 L 15.591516,33.243328 L 15.641791,32.012558 L 15.214455,31.409733 L 14.25923,30.580846 L 13.329144,28.847723 L 13.580518,27.968603 L 13.479969,27.717426 L 13.806755,27.265306 L 14.208955,26.135008 L 14.208955,26.034536 L 13.907305,25.883831 L 13.479969,25.934067 L 12.750982,25.406593 L 12.27337,24.828886 L 11.167322,24.52747 L 10.061273,23.87441 C 10.061273,23.87441 9.610465,23.145882 9.58366,23.020409 C 10.260654,17.608634 13.168948,14.728259 14.611156,13.400314 C 14.724084,13.372447 15.16418,13.299843 15.16418,13.299843 L 15.415554,12.646782 z M 26.199528,13.827316 L 26.551453,13.827316 C 26.724901,14.180989 26.865347,14.538634 27.003928,14.907379 L 27.431265,15.309261 L 26.953653,15.761381 L 26.300078,15.912088 L 26.425765,15.10832 L 26.425765,14.505495 L 26.199528,14.229198 L 26.199528,13.827316 z M 25.646504,14.631082 L 25.872741,15.233909 L 25.344855,15.510204 L 25.244306,14.78179 L 25.646504,14.631082 z M 32.986646,21.262167 L 32.83582,21.43799 L 33.087196,22.317112 L 33.539671,22.844583 C 33.802106,23.601594 34.049716,24.331337 34.394343,25.054945 C 34.586168,25.054945 34.785907,25.04228 34.972506,25.029827 L 34.570306,24.552589 L 34.771405,24 L 34.344069,23.522762 L 33.615082,21.965464 L 32.986646,21.262167 z"
       style="fill:url(#linearGradient8192);fill-opacity:1;fill-rule:nonzero;stroke:none;stroke-width:1;stroke-miterlimit:4;stroke-dasharray:none" />
  </g>
</svg>
