<?xml version="1.0" encoding="UTF-8" standalone="no"?>
<!-- Created with Inkscape (http://www.inkscape.org/) -->
<svg
   xmlns:dc="http://purl.org/dc/elements/1.1/"
   xmlns:cc="http://creativecommons.org/ns#"
   xmlns:rdf="http://www.w3.org/1999/02/22-rdf-syntax-ns#"
   xmlns:svg="http://www.w3.org/2000/svg"
   xmlns="http://www.w3.org/2000/svg"
   xmlns:xlink="http://www.w3.org/1999/xlink"
   xmlns:sodipodi="http://sodipodi.sourceforge.net/DTD/sodipodi-0.dtd"
   xmlns:inkscape="http://www.inkscape.org/namespaces/inkscape"
   inkscape:export-ydpi="90.000000"
   inkscape:export-xdpi="90.000000"
   inkscape:export-filename="/home/jonieno/Desktop/icon.png"
   width="48"
   height="48"
   id="svg11300"
   sodipodi:version="0.32"
   inkscape:version="0.46"
   sodipodi:docname="emblem-multimedia.svg"
   inkscape:output_extension="org.inkscape.output.svg.inkscape"
   version="1.0"
   style="display:inline;enable-background:new">
  <title
     id="title4119">Human-Palette Icon Theme</title>
  <defs
     id="defs3">
    <linearGradient
       id="linearGradient4299">
      <stop
         id="stop4301"
         offset="0"
         style="stop-color:#ffffff;stop-opacity:1;" />
      <stop
         id="stop4303"
         offset="1"
         style="stop-color:#b4b4b4;stop-opacity:1;" />
    </linearGradient>
    <filter
       inkscape:collect="always"
       id="filter6954">
      <feGaussianBlur
         inkscape:collect="always"
         stdDeviation="0.55"
         id="feGaussianBlur6956" />
    </filter>
    <filter
       inkscape:collect="always"
       id="filter6958"
       x="-0.11"
       width="1.22"
       y="-0.10153846"
       height="1.203077">
      <feGaussianBlur
         inkscape:collect="always"
         stdDeviation="0.55"
         id="feGaussianBlur6960" />
    </filter>
    <linearGradient
       inkscape:collect="always"
       xlink:href="#linearGradient4299"
       id="linearGradient7303"
       gradientUnits="userSpaceOnUse"
       x1="106.28699"
       y1="31.517946"
       x2="106.28699"
       y2="52.662243" />
    <linearGradient
       inkscape:collect="always"
       xlink:href="#linearGradient4299"
       id="linearGradient7305"
       gradientUnits="userSpaceOnUse"
       gradientTransform="matrix(0.966965,0,0,0.9657834,0.9580136,1.0093918)"
       x1="30.021711"
       y1="15.521709"
       x2="30.040791"
       y2="43.478291" />
    <linearGradient
       inkscape:collect="always"
       xlink:href="#linearGradient4299"
       id="linearGradient7307"
       gradientUnits="userSpaceOnUse"
       gradientTransform="translate(-1,0)"
       x1="29.9375"
       y1="16.125"
       x2="30.0625"
       y2="43" />
  </defs>
  <sodipodi:namedview
     stroke="#ef2929"
     fill="#f57900"
     id="base"
     pagecolor="#ffffff"
     bordercolor="#666666"
     borderopacity="0.25490196"
     inkscape:pageopacity="0.0"
     inkscape:pageshadow="2"
     inkscape:zoom="1"
     inkscape:cx="137.59672"
     inkscape:cy="12.344282"
     inkscape:current-layer="svg11300"
     showgrid="false"
     inkscape:grid-bbox="true"
     inkscape:document-units="px"
     inkscape:showpageshadow="false"
     inkscape:window-width="1280"
     inkscape:window-height="949"
     inkscape:window-x="0"
     inkscape:window-y="24"
     width="400px"
     height="300px"
     inkscape:snap-nodes="false"
     inkscape:snap-bbox="true"
     objecttolerance="7"
     gridtolerance="12"
     guidetolerance="13"
     showguides="true"
     inkscape:guide-bbox="true">
    <inkscape:grid
       type="xygrid"
       id="grid5883"
       spacingx="1px"
       spacingy="1px"
       enabled="true"
       visible="true"
       empspacing="5" />
  </sodipodi:namedview>
  <metadata
     id="metadata4">
    <rdf:RDF>
      <cc:Work
         rdf:about="">
        <dc:format>image/svg+xml</dc:format>
        <dc:type
           rdf:resource="http://purl.org/dc/dcmitype/StillImage" />
        <dc:creator>
          <cc:Agent>
            <dc:title>Jonian Guveli</dc:title>
          </cc:Agent>
        </dc:creator>
        <dc:source />
        <cc:license
           rdf:resource="http://creativecommons.org/licenses/by-nc/3.0/" />
        <dc:title>Folder</dc:title>
        <dc:subject>
          <rdf:Bag />
        </dc:subject>
        <dc:date />
        <dc:rights>
          <cc:Agent>
            <dc:title />
          </cc:Agent>
        </dc:rights>
        <dc:publisher>
          <cc:Agent>
            <dc:title>Jonian Guveli</dc:title>
          </cc:Agent>
        </dc:publisher>
        <dc:identifier />
        <dc:relation />
        <dc:language />
        <dc:coverage />
        <dc:description />
        <dc:contributor>
          <cc:Agent>
            <dc:title>Olibia Tsati</dc:title>
          </cc:Agent>
        </dc:contributor>
      </cc:Work>
      <cc:License
         rdf:about="http://creativecommons.org/licenses/by-nc/3.0/">
        <cc:permits
           rdf:resource="http://creativecommons.org/ns#Reproduction" />
        <cc:permits
           rdf:resource="http://creativecommons.org/ns#Distribution" />
        <cc:requires
           rdf:resource="http://creativecommons.org/ns#Notice" />
        <cc:requires
           rdf:resource="http://creativecommons.org/ns#Attribution" />
        <cc:prohibits
           rdf:resource="http://creativecommons.org/ns#CommercialUse" />
        <cc:permits
           rdf:resource="http://creativecommons.org/ns#DerivativeWorks" />
      </cc:License>
    </rdf:RDF>
  </metadata>
  <g
     id="g7270"
     transform="translate(-5,-5)">
    <path
       transform="matrix(2.3019215,0,0,2.3528485,-215.6643,-70.031615)"
       d="M 116.49584,42.090096 A 10.208854,9.9878836 0 1 1 96.078134,42.090096 A 10.208854,9.9878836 0 1 1 116.49584,42.090096 z"
       sodipodi:ry="9.9878836"
       sodipodi:rx="10.208854"
       sodipodi:cy="42.090096"
       sodipodi:cx="106.28699"
       id="path6267"
       style="opacity:0.8;fill:#464646;fill-opacity:1;stroke:#333333;stroke-width:0.42970949;stroke-linecap:round;stroke-linejoin:miter;stroke-miterlimit:4;stroke-dasharray:none;stroke-dashoffset:0;stroke-opacity:1"
       sodipodi:type="arc" />
    <path
       transform="matrix(2.2037686,0,0,2.2525242,-205.23193,-65.808959)"
       d="M 116.49584,42.090096 A 10.208854,9.9878836 0 1 1 96.078134,42.090096 A 10.208854,9.9878836 0 1 1 116.49584,42.090096 z"
       sodipodi:ry="9.9878836"
       sodipodi:rx="10.208854"
       sodipodi:cy="42.090096"
       sodipodi:cx="106.28699"
       id="path10234"
       style="opacity:0.4;fill:none;fill-opacity:1;stroke:url(#linearGradient7303);stroke-width:0.4488304;stroke-linecap:round;stroke-linejoin:miter;stroke-miterlimit:4;stroke-dasharray:none;stroke-dashoffset:0;stroke-opacity:1;display:inline;enable-background:new"
       sodipodi:type="arc" />
    <path
       id="path6922"
       d="M 16,16 C 15.448462,16 15,16.465463 15,17.03125 L 15,41.96875 C 15,42.534537 15.448462,43 16,43 L 42,43 C 42.551538,43 43,42.534539 43,41.96875 L 43,17.03125 C 43,16.465463 42.551538,16 42,16 L 16,16 z M 16,17 L 18,17 L 18,20 L 16,20 L 16,17 z M 20,17 L 22,17 L 22,20 L 20,20 L 20,17 z M 24,17 L 26,17 L 26,20 L 24,20 L 24,17 z M 28,17 L 30,17 L 30,20 L 28,20 L 28,17 z M 32,17 L 34,17 L 34,20 L 32,20 L 32,17 z M 36,17 L 38,17 L 38,20 L 36,20 L 36,17 z M 40,17 L 42,17 L 42,20 L 40,20 L 40,17 z M 16,21 L 42,21 L 42,38 L 16,38 L 16,21 z M 16,39 L 18,39 L 18,42 L 16,42 L 16,39 z M 20,39 L 22,39 L 22,42 L 20,42 L 20,39 z M 24,39 L 26,39 L 26,42 L 24,42 L 24,39 z M 28,39 L 30,39 L 30,42 L 28,42 L 28,39 z M 32,39 L 34,39 L 34,42 L 32,42 L 32,39 z M 36,39 L 38,39 L 38,42 L 36,42 L 36,39 z M 40,39 L 42,39 L 42,42 L 40,42 L 40,39 z"
       style="opacity:1;fill:#000000;fill-opacity:1;stroke:none;stroke-width:1.0434202;stroke-linecap:round;stroke-linejoin:miter;stroke-miterlimit:4;stroke-dasharray:none;stroke-dashoffset:0;stroke-opacity:1;display:inline;filter:url(#filter6954);enable-background:new" />
    <path
       id="rect6099"
       d="M 16,16 C 15.448462,16 15,16.465463 15,17.03125 L 15,41.96875 C 15,42.534537 15.448462,43 16,43 L 42,43 C 42.551538,43 43,42.534539 43,41.96875 L 43,17.03125 C 43,16.465463 42.551538,16 42,16 L 16,16 z M 16,17 L 18,17 L 18,20 L 16,20 L 16,17 z M 20,17 L 22,17 L 22,20 L 20,20 L 20,17 z M 24,17 L 26,17 L 26,20 L 24,20 L 24,17 z M 28,17 L 30,17 L 30,20 L 28,20 L 28,17 z M 32,17 L 34,17 L 34,20 L 32,20 L 32,17 z M 36,17 L 38,17 L 38,20 L 36,20 L 36,17 z M 40,17 L 42,17 L 42,20 L 40,20 L 40,17 z M 16,21 L 42,21 L 42,38 L 16,38 L 16,21 z M 16,39 L 18,39 L 18,42 L 16,42 L 16,39 z M 20,39 L 22,39 L 22,42 L 20,42 L 20,39 z M 24,39 L 26,39 L 26,42 L 24,42 L 24,39 z M 28,39 L 30,39 L 30,42 L 28,42 L 28,39 z M 32,39 L 34,39 L 34,42 L 32,42 L 32,39 z M 36,39 L 38,39 L 38,42 L 36,42 L 36,39 z M 40,39 L 42,39 L 42,42 L 40,42 L 40,39 z"
       style="opacity:1;fill:url(#linearGradient7305);fill-opacity:1;stroke:none;stroke-width:1.0434202;stroke-linecap:round;stroke-linejoin:miter;stroke-miterlimit:4;stroke-dasharray:none;stroke-dashoffset:0;stroke-opacity:1" />
    <path
       id="path6924"
       d="M 34,23 L 25,25 L 25,28 L 25,31.0625 C 24.837305,31.02918 24.6725,31 24.5,31 C 23.12,31 22,32.12 22,33.5 C 22,34.88 23.12,36 24.5,36 C 25.88,36 27,34.88 27,33.5 L 27,27.5625 L 32,26.4375 L 32,30.0625 C 31.837305,30.02918 31.6725,30 31.5,30 C 30.12,30 29,31.12 29,32.5 C 29,33.88 30.12,35 31.5,35 C 32.88,35 34,33.88 34,32.5 L 34,26 L 34,23 z"
       style="opacity:1;fill:#000000;fill-opacity:1;stroke:none;stroke-width:1;stroke-linecap:round;stroke-linejoin:miter;stroke-miterlimit:4;stroke-dasharray:none;stroke-dashoffset:0;stroke-opacity:1;display:inline;filter:url(#filter6958);enable-background:new" />
    <path
       id="path6903"
       d="M 34,23 L 25,25 L 25,28 L 25,31.0625 C 24.837305,31.02918 24.6725,31 24.5,31 C 23.12,31 22,32.12 22,33.5 C 22,34.88 23.12,36 24.5,36 C 25.88,36 27,34.88 27,33.5 L 27,27.5625 L 32,26.4375 L 32,30.0625 C 31.837305,30.02918 31.6725,30 31.5,30 C 30.12,30 29,31.12 29,32.5 C 29,33.88 30.12,35 31.5,35 C 32.88,35 34,33.88 34,32.5 L 34,26 L 34,23 z"
       style="opacity:1;fill:url(#linearGradient7307);fill-opacity:1;stroke:none;stroke-width:1;stroke-linecap:round;stroke-linejoin:miter;stroke-miterlimit:4;stroke-dasharray:none;stroke-dashoffset:0;stroke-opacity:1" />
  </g>
</svg>
