<?xml version="1.0" encoding="UTF-8" standalone="no"?>
<!-- Created with Inkscape (http://www.inkscape.org/) -->
<svg
   xmlns:dc="http://purl.org/dc/elements/1.1/"
   xmlns:cc="http://creativecommons.org/ns#"
   xmlns:rdf="http://www.w3.org/1999/02/22-rdf-syntax-ns#"
   xmlns:svg="http://www.w3.org/2000/svg"
   xmlns="http://www.w3.org/2000/svg"
   xmlns:xlink="http://www.w3.org/1999/xlink"
   xmlns:sodipodi="http://sodipodi.sourceforge.net/DTD/sodipodi-0.dtd"
   xmlns:inkscape="http://www.inkscape.org/namespaces/inkscape"
   inkscape:export-ydpi="90.000000"
   inkscape:export-xdpi="90.000000"
   inkscape:export-filename="/home/jonieno/Desktop/icon.png"
   width="48"
   height="48"
   id="svg11300"
   sodipodi:version="0.32"
   inkscape:version="0.46"
   sodipodi:docname="emblem-certified.svg"
   inkscape:output_extension="org.inkscape.output.svg.inkscape"
   version="1.0"
   style="display:inline;enable-background:new">
  <title
     id="title4119">Human-Palette Icon Theme</title>
  <defs
     id="defs3">
    <linearGradient
       id="linearGradient4299">
      <stop
         id="stop4301"
         offset="0"
         style="stop-color:#ffffff;stop-opacity:1;" />
      <stop
         id="stop4303"
         offset="1"
         style="stop-color:#b4b4b4;stop-opacity:1;" />
    </linearGradient>
    <linearGradient
       inkscape:collect="always"
       xlink:href="#linearGradient4299"
       id="linearGradient6117"
       gradientUnits="userSpaceOnUse"
       x1="106.28699"
       y1="31.517946"
       x2="106.28699"
       y2="52.662243" />
    <linearGradient
       inkscape:collect="always"
       xlink:href="#linearGradient4299"
       id="linearGradient6910"
       x1="30.110544"
       y1="12.996138"
       x2="30.12303"
       y2="47"
       gradientUnits="userSpaceOnUse"
       gradientTransform="translate(-0.9961374,0)" />
    <filter
       inkscape:collect="always"
       id="filter6916">
      <feGaussianBlur
         inkscape:collect="always"
         stdDeviation="0.64068386"
         id="feGaussianBlur6918" />
    </filter>
  </defs>
  <sodipodi:namedview
     stroke="#ef2929"
     fill="#f57900"
     id="base"
     pagecolor="#ffffff"
     bordercolor="#666666"
     borderopacity="0.25490196"
     inkscape:pageopacity="0.0"
     inkscape:pageshadow="2"
     inkscape:zoom="1"
     inkscape:cx="311.40484"
     inkscape:cy="13.474198"
     inkscape:current-layer="svg11300"
     showgrid="false"
     inkscape:grid-bbox="true"
     inkscape:document-units="px"
     inkscape:showpageshadow="false"
     inkscape:window-width="1280"
     inkscape:window-height="947"
     inkscape:window-x="0"
     inkscape:window-y="25"
     width="400px"
     height="300px"
     inkscape:snap-nodes="false"
     inkscape:snap-bbox="true"
     objecttolerance="7"
     gridtolerance="12"
     guidetolerance="13"
     showguides="true"
     inkscape:guide-bbox="true">
    <inkscape:grid
       type="xygrid"
       id="grid5883"
       spacingx="1px"
       spacingy="1px"
       enabled="true"
       visible="true"
       empspacing="5" />
  </sodipodi:namedview>
  <metadata
     id="metadata4">
    <rdf:RDF>
      <cc:Work
         rdf:about="">
        <dc:format>image/svg+xml</dc:format>
        <dc:type
           rdf:resource="http://purl.org/dc/dcmitype/StillImage" />
        <dc:creator>
          <cc:Agent>
            <dc:title>Jonian Guveli</dc:title>
          </cc:Agent>
        </dc:creator>
        <dc:source />
        <cc:license
           rdf:resource="http://creativecommons.org/licenses/by-nc/3.0/" />
        <dc:title>Folder</dc:title>
        <dc:subject>
          <rdf:Bag />
        </dc:subject>
        <dc:date />
        <dc:rights>
          <cc:Agent>
            <dc:title />
          </cc:Agent>
        </dc:rights>
        <dc:publisher>
          <cc:Agent>
            <dc:title>Jonian Guveli</dc:title>
          </cc:Agent>
        </dc:publisher>
        <dc:identifier />
        <dc:relation />
        <dc:language />
        <dc:coverage />
        <dc:description />
        <dc:contributor>
          <cc:Agent>
            <dc:title>Olibia Tsati</dc:title>
          </cc:Agent>
        </dc:contributor>
      </cc:Work>
      <cc:License
         rdf:about="http://creativecommons.org/licenses/by-nc/3.0/">
        <cc:permits
           rdf:resource="http://creativecommons.org/ns#Reproduction" />
        <cc:permits
           rdf:resource="http://creativecommons.org/ns#Distribution" />
        <cc:requires
           rdf:resource="http://creativecommons.org/ns#Notice" />
        <cc:requires
           rdf:resource="http://creativecommons.org/ns#Attribution" />
        <cc:prohibits
           rdf:resource="http://creativecommons.org/ns#CommercialUse" />
        <cc:permits
           rdf:resource="http://creativecommons.org/ns#DerivativeWorks" />
      </cc:License>
    </rdf:RDF>
  </metadata>
  <g
     id="g6924"
     transform="translate(-5,-5)">
    <path
       transform="matrix(2.3019215,0,0,2.3528485,-215.6643,-70.031615)"
       d="M 116.49584,42.090096 A 10.208854,9.9878836 0 1 1 96.078134,42.090096 A 10.208854,9.9878836 0 1 1 116.49584,42.090096 z"
       sodipodi:ry="9.9878836"
       sodipodi:rx="10.208854"
       sodipodi:cy="42.090096"
       sodipodi:cx="106.28699"
       id="path6267"
       style="opacity:0.8;fill:#464646;fill-opacity:1;stroke:#333333;stroke-width:0.42970949;stroke-linecap:round;stroke-linejoin:miter;stroke-miterlimit:4;stroke-dasharray:none;stroke-dashoffset:0;stroke-opacity:1"
       sodipodi:type="arc" />
    <path
       transform="matrix(2.2037686,0,0,2.2525242,-205.23193,-65.808959)"
       d="M 116.49584,42.090096 A 10.208854,9.9878836 0 1 1 96.078134,42.090096 A 10.208854,9.9878836 0 1 1 116.49584,42.090096 z"
       sodipodi:ry="9.9878836"
       sodipodi:rx="10.208854"
       sodipodi:cy="42.090096"
       sodipodi:cx="106.28699"
       id="path10234"
       style="opacity:0.4;fill:none;fill-opacity:1;stroke:url(#linearGradient6117);stroke-width:0.4488304;stroke-linecap:round;stroke-linejoin:miter;stroke-miterlimit:4;stroke-dasharray:none;stroke-dashoffset:0;stroke-opacity:1;display:inline;enable-background:new"
       sodipodi:type="arc" />
    <g
       id="g6920">
      <path
         style="opacity:1;fill:#000000;fill-opacity:1;fill-rule:evenodd;stroke:none;stroke-width:2;stroke-linecap:round;stroke-linejoin:round;stroke-miterlimit:4;stroke-dasharray:none;stroke-dashoffset:0;stroke-opacity:1;display:inline;filter:url(#filter6916);enable-background:new"
         d="M 27.785113,13.003863 C 27.08968,12.904158 25.483027,14.767085 24.785113,14.847613 C 24.103823,14.926223 22.171695,13.467469 21.535113,13.722613 C 20.882998,13.983983 20.443011,16.397667 19.878863,16.816363 C 19.328154,17.225086 16.927587,16.93336 16.503863,17.472613 C 16.069799,18.025024 16.876831,20.327937 16.597613,20.972613 C 16.325046,21.601932 14.101192,22.543744 14.003863,23.222613 C 13.904158,23.918046 15.767084,25.524698 15.847613,26.222613 C 15.926223,26.903903 14.467469,28.83603 14.722613,29.472613 C 14.983983,30.124728 17.397667,30.564716 17.816363,31.128863 C 18.225086,31.679572 17.93336,34.080139 18.472613,34.503863 C 19.025024,34.937927 21.327938,34.130895 21.972613,34.410113 C 22.601932,34.68268 23.543744,36.906534 24.222613,37.003863 C 24.918046,37.103568 26.524699,35.240641 27.222613,35.160113 C 27.523018,35.125451 28.062144,35.408574 28.628863,35.691363 C 30.291013,44.815337 32.023576,44.3688 33.393108,46.65031 C 32.850872,42.851564 33.94267,40.739426 35.109256,39.032511 C 38.388973,40.810249 41.933854,40.448698 44.418077,39.589649 C 41.039887,38.847202 37.635955,36.56525 35.597613,32.347613 C 35.816982,31.590673 35.154643,29.624957 35.410113,29.035113 C 35.68268,28.405794 37.906534,27.463981 38.003863,26.785113 C 38.103568,26.08968 36.240641,24.483027 36.160113,23.785113 C 36.081503,23.103823 37.540259,21.171695 37.285113,20.535113 C 37.023743,19.882998 34.61006,19.44301 34.191363,18.878863 C 33.78264,18.328154 34.074365,15.927587 33.535113,15.503863 C 32.982702,15.069799 30.679788,15.87683 30.035113,15.597613 C 29.405794,15.325046 28.463982,13.101193 27.785113,13.003863 z M 26.003863,16.972613 C 30.339846,16.972611 33.972614,20.545186 33.972613,25.035113 C 33.972615,29.52504 30.339846,33.003864 26.003863,33.003863 C 21.66788,33.003864 18.097614,29.52504 18.097613,25.035113 C 18.097612,20.545184 21.66788,16.972613 26.003863,16.972613 z M 26.003863,18.066363 C 22.076473,18.066363 18.972611,21.261667 18.972613,25.035113 C 18.972613,28.808558 22.076473,31.910114 26.003863,31.910113 C 29.931253,31.910113 33.003864,28.808558 33.003863,25.035113 C 33.003863,21.261667 29.931253,18.066363 26.003863,18.066363 z"
         id="path6912"
         sodipodi:nodetypes="cssssssssssssscccccsssssssccsssccsssc" />
      <path
         style="opacity:1;fill:url(#linearGradient6910);fill-opacity:1;fill-rule:evenodd;stroke:none;stroke-width:2;stroke-linecap:round;stroke-linejoin:round;stroke-miterlimit:4;stroke-dasharray:none;stroke-dashoffset:0;stroke-opacity:1"
         d="M 27.785113,13 C 27.08968,12.900295 25.483027,14.763222 24.785113,14.84375 C 24.103823,14.92236 22.171695,13.463606 21.535113,13.71875 C 20.882998,13.98012 20.443011,16.393804 19.878863,16.8125 C 19.328154,17.221223 16.927587,16.929497 16.503863,17.46875 C 16.069799,18.021161 16.876831,20.324074 16.597613,20.96875 C 16.325046,21.598069 14.101192,22.539881 14.003863,23.21875 C 13.904158,23.914183 15.767084,25.520835 15.847613,26.21875 C 15.926223,26.90004 14.467469,28.832167 14.722613,29.46875 C 14.983983,30.120865 17.397667,30.560853 17.816363,31.125 C 18.225086,31.675709 17.93336,34.076276 18.472613,34.5 C 19.025024,34.934064 21.327938,34.127032 21.972613,34.40625 C 22.601932,34.678817 23.543744,36.902671 24.222613,37 C 24.918046,37.099705 26.524699,35.236778 27.222613,35.15625 C 27.523018,35.121588 28.062144,35.404711 28.628863,35.6875 C 30.291013,44.811474 32.023576,44.364937 33.393108,46.646447 C 32.850872,42.847701 33.94267,40.735563 35.109256,39.028648 C 38.388973,40.806386 41.933854,40.444835 44.418077,39.585786 C 41.039887,38.843339 37.635955,36.561387 35.597613,32.34375 C 35.816982,31.58681 35.154643,29.621094 35.410113,29.03125 C 35.68268,28.401931 37.906534,27.460118 38.003863,26.78125 C 38.103568,26.085817 36.240641,24.479164 36.160113,23.78125 C 36.081503,23.09996 37.540259,21.167832 37.285113,20.53125 C 37.023743,19.879135 34.61006,19.439147 34.191363,18.875 C 33.78264,18.324291 34.074365,15.923724 33.535113,15.5 C 32.982702,15.065936 30.679788,15.872967 30.035113,15.59375 C 29.405794,15.321183 28.463982,13.09733 27.785113,13 z M 26.003863,16.96875 C 30.339846,16.968748 33.972614,20.541323 33.972613,25.03125 C 33.972615,29.521177 30.339846,33.000001 26.003863,33 C 21.66788,33.000001 18.097614,29.521177 18.097613,25.03125 C 18.097612,20.541321 21.66788,16.96875 26.003863,16.96875 z M 26.003863,18.0625 C 22.076473,18.0625 18.972611,21.257804 18.972613,25.03125 C 18.972613,28.804695 22.076473,31.906251 26.003863,31.90625 C 29.931253,31.90625 33.003864,28.804695 33.003863,25.03125 C 33.003863,21.257804 29.931253,18.0625 26.003863,18.0625 z"
         id="path6890"
         sodipodi:nodetypes="cssssssssssssscccccsssssssccsssccsssc" />
    </g>
  </g>
</svg>
