<?xml version="1.0" encoding="UTF-8" standalone="no"?>
<!-- Created with Inkscape (http://www.inkscape.org/) -->
<svg
   xmlns:dc="http://purl.org/dc/elements/1.1/"
   xmlns:cc="http://creativecommons.org/ns#"
   xmlns:rdf="http://www.w3.org/1999/02/22-rdf-syntax-ns#"
   xmlns:svg="http://www.w3.org/2000/svg"
   xmlns="http://www.w3.org/2000/svg"
   xmlns:xlink="http://www.w3.org/1999/xlink"
   xmlns:sodipodi="http://sodipodi.sourceforge.net/DTD/sodipodi-0.dtd"
   xmlns:inkscape="http://www.inkscape.org/namespaces/inkscape"
   inkscape:export-ydpi="90.000000"
   inkscape:export-xdpi="90.000000"
   inkscape:export-filename="/home/jonieno/Desktop/icon.png"
   width="48"
   height="48"
   id="svg11300"
   sodipodi:version="0.32"
   inkscape:version="0.46"
   sodipodi:docname="emblem-special.svg"
   inkscape:output_extension="org.inkscape.output.svg.inkscape"
   version="1.0"
   style="display:inline;enable-background:new">
  <title
     id="title4119">Human-Palette Icon Theme</title>
  <defs
     id="defs3">
    <linearGradient
       id="linearGradient4299">
      <stop
         id="stop4301"
         offset="0"
         style="stop-color:#ffffff;stop-opacity:1;" />
      <stop
         id="stop4303"
         offset="1"
         style="stop-color:#b4b4b4;stop-opacity:1;" />
    </linearGradient>
    <linearGradient
       inkscape:collect="always"
       xlink:href="#linearGradient4299"
       id="linearGradient6117"
       gradientUnits="userSpaceOnUse"
       x1="106.28699"
       y1="31.517946"
       x2="106.28699"
       y2="52.662243" />
    <linearGradient
       inkscape:collect="always"
       xlink:href="#linearGradient4299"
       id="linearGradient6054"
       gradientUnits="userSpaceOnUse"
       gradientTransform="matrix(1.5238469,0,0,1.5187506,-89.526991,-31.487517)"
       x1="74.516495"
       y1="26"
       x2="74.516487"
       y2="47.06995" />
    <filter
       inkscape:collect="always"
       id="filter6833">
      <feGaussianBlur
         inkscape:collect="always"
         stdDeviation="0.63950533"
         id="feGaussianBlur6835" />
    </filter>
  </defs>
  <sodipodi:namedview
     stroke="#ef2929"
     fill="#f57900"
     id="base"
     pagecolor="#ffffff"
     bordercolor="#666666"
     borderopacity="0.25490196"
     inkscape:pageopacity="0.0"
     inkscape:pageshadow="2"
     inkscape:zoom="8"
     inkscape:cx="42.545509"
     inkscape:cy="27.059759"
     inkscape:current-layer="svg11300"
     showgrid="false"
     inkscape:grid-bbox="true"
     inkscape:document-units="px"
     inkscape:showpageshadow="false"
     inkscape:window-width="1280"
     inkscape:window-height="950"
     inkscape:window-x="0"
     inkscape:window-y="24"
     width="400px"
     height="300px"
     inkscape:snap-nodes="false"
     inkscape:snap-bbox="true"
     objecttolerance="7"
     gridtolerance="12"
     guidetolerance="13"
     showguides="true"
     inkscape:guide-bbox="true">
    <inkscape:grid
       type="xygrid"
       id="grid5883"
       spacingx="1px"
       spacingy="1px"
       enabled="true"
       visible="true"
       empspacing="5" />
  </sodipodi:namedview>
  <metadata
     id="metadata4">
    <rdf:RDF>
      <cc:Work
         rdf:about="">
        <dc:format>image/svg+xml</dc:format>
        <dc:type
           rdf:resource="http://purl.org/dc/dcmitype/StillImage" />
        <dc:creator>
          <cc:Agent>
            <dc:title>Jonian Guveli</dc:title>
          </cc:Agent>
        </dc:creator>
        <dc:source />
        <cc:license
           rdf:resource="http://creativecommons.org/licenses/by-nc/3.0/" />
        <dc:title>Folder</dc:title>
        <dc:subject>
          <rdf:Bag />
        </dc:subject>
        <dc:date />
        <dc:rights>
          <cc:Agent>
            <dc:title />
          </cc:Agent>
        </dc:rights>
        <dc:publisher>
          <cc:Agent>
            <dc:title>Jonian Guveli</dc:title>
          </cc:Agent>
        </dc:publisher>
        <dc:identifier />
        <dc:relation />
        <dc:language />
        <dc:coverage />
        <dc:description />
        <dc:contributor>
          <cc:Agent>
            <dc:title>Olibia Tsati</dc:title>
          </cc:Agent>
        </dc:contributor>
      </cc:Work>
      <cc:License
         rdf:about="http://creativecommons.org/licenses/by-nc/3.0/">
        <cc:permits
           rdf:resource="http://creativecommons.org/ns#Reproduction" />
        <cc:permits
           rdf:resource="http://creativecommons.org/ns#Distribution" />
        <cc:requires
           rdf:resource="http://creativecommons.org/ns#Notice" />
        <cc:requires
           rdf:resource="http://creativecommons.org/ns#Attribution" />
        <cc:prohibits
           rdf:resource="http://creativecommons.org/ns#CommercialUse" />
        <cc:permits
           rdf:resource="http://creativecommons.org/ns#DerivativeWorks" />
      </cc:License>
    </rdf:RDF>
  </metadata>
  <g
     id="g6837">
    <path
       transform="matrix(2.3019215,0,0,2.3528485,-220.6643,-75.031615)"
       d="M 116.49584,42.090096 A 10.208854,9.9878836 0 1 1 96.078134,42.090096 A 10.208854,9.9878836 0 1 1 116.49584,42.090096 z"
       sodipodi:ry="9.9878836"
       sodipodi:rx="10.208854"
       sodipodi:cy="42.090096"
       sodipodi:cx="106.28699"
       id="path6267"
       style="opacity:0.8;fill:#464646;fill-opacity:1;stroke:#333333;stroke-width:0.42970949;stroke-linecap:round;stroke-linejoin:miter;stroke-miterlimit:4;stroke-dasharray:none;stroke-dashoffset:0;stroke-opacity:1"
       sodipodi:type="arc" />
    <path
       transform="matrix(2.2037686,0,0,2.2525242,-210.23193,-70.808959)"
       d="M 116.49584,42.090096 A 10.208854,9.9878836 0 1 1 96.078134,42.090096 A 10.208854,9.9878836 0 1 1 116.49584,42.090096 z"
       sodipodi:ry="9.9878836"
       sodipodi:rx="10.208854"
       sodipodi:cy="42.090096"
       sodipodi:cx="106.28699"
       id="path10234"
       style="opacity:0.4;fill:none;fill-opacity:1;stroke:url(#linearGradient6117);stroke-width:0.4488304;stroke-linecap:round;stroke-linejoin:miter;stroke-miterlimit:4;stroke-dasharray:none;stroke-dashoffset:0;stroke-opacity:1;display:inline;enable-background:new"
       sodipodi:type="arc" />
    <path
       sodipodi:nodetypes="cccccccccccccccccccccc"
       id="path10831"
       d="M 24.024028,8 C 25.070469,8.671794 25.471032,10.071971 26.09832,11.133684 C 27.189375,13.268029 28.051394,15.535074 29.286257,17.5856 C 30.35524,18.410632 31.860876,18.266065 33.129606,18.574084 C 35.343437,18.965714 37.639274,19.088681 39.756965,19.914556 C 40.659711,20.813047 38.790605,21.963798 38.328266,22.74775 C 36.595098,24.680618 34.621292,26.375244 32.992227,28.408093 C 32.572962,29.727244 33.16958,31.18148 33.281782,32.539721 C 33.610071,34.86468 34.207799,37.188253 34.111838,39.551688 C 33.57446,40.72805 31.951337,39.222898 31.096191,39.004882 C 28.804468,37.876746 26.654843,36.435433 24.304451,35.441833 C 22.976348,35.432086 21.839441,36.475418 20.640056,37.006839 C 18.629117,38.052113 16.702697,39.36519 14.525701,40 C 13.290834,39.82854 13.969967,37.93376 14.090625,36.828862 C 14.407432,34.198769 15.052694,31.613358 15.229139,28.966432 C 14.827591,27.641252 13.528327,26.831836 12.674863,25.802028 C 11.103745,24.123086 9.315425,22.611038 8.065927,20.639939 C 7.840118,19.357609 9.998433,19.57664 10.812681,19.226874 C 13.300203,18.729521 15.848624,18.572963 18.308063,17.930674 C 19.387996,17.121417 19.721915,15.577836 20.393831,14.40996 C 21.433765,12.327042 22.254941,10.079466 23.659706,8.22645 C 23.761626,8.128236 23.875067,8.007927 24.024028,8 z"
       style="fill:#000000;fill-opacity:1;fill-rule:nonzero;stroke:none;stroke-width:0.99999994000000003;stroke-linecap:butt;stroke-linejoin:round;marker:none;marker-start:none;marker-mid:none;marker-end:none;stroke-miterlimit:4;stroke-dasharray:none;stroke-dashoffset:0;stroke-opacity:1;visibility:visible;display:inline;overflow:visible;filter:url(#filter6833);enable-background:new" />
    <path
       sodipodi:nodetypes="cccccccccccccccccccccc"
       id="path10827"
       d="M 24.024028,8 C 25.070469,8.671794 25.471032,10.071971 26.09832,11.133684 C 27.189375,13.268029 28.051394,15.535074 29.286257,17.5856 C 30.35524,18.410632 31.860876,18.266065 33.129606,18.574084 C 35.343437,18.965714 37.639274,19.088681 39.756965,19.914556 C 40.659711,20.813047 38.790605,21.963798 38.328266,22.74775 C 36.595098,24.680618 34.621292,26.375244 32.992227,28.408093 C 32.572962,29.727244 33.16958,31.18148 33.281782,32.539721 C 33.610071,34.86468 34.207799,37.188253 34.111838,39.551688 C 33.57446,40.72805 31.951337,39.222898 31.096191,39.004882 C 28.804468,37.876746 26.654843,36.435433 24.304451,35.441833 C 22.976348,35.432086 21.839441,36.475418 20.640056,37.006839 C 18.629117,38.052113 16.702697,39.36519 14.525701,40 C 13.290834,39.82854 13.969967,37.93376 14.090625,36.828862 C 14.407432,34.198769 15.052694,31.613358 15.229139,28.966432 C 14.827591,27.641252 13.528327,26.831836 12.674863,25.802028 C 11.103745,24.123086 9.315425,22.611038 8.065927,20.639939 C 7.840118,19.357609 9.998433,19.57664 10.812681,19.226874 C 13.300203,18.729521 15.848624,18.572963 18.308063,17.930674 C 19.387996,17.121417 19.721915,15.577836 20.393831,14.40996 C 21.433765,12.327042 22.254941,10.079466 23.659706,8.22645 C 23.761626,8.128236 23.875067,8.007927 24.024028,8 z"
       style="fill:url(#linearGradient6054);fill-opacity:1;fill-rule:nonzero;stroke:none;stroke-width:0.99999994000000003;stroke-linecap:butt;stroke-linejoin:round;marker:none;marker-start:none;marker-mid:none;marker-end:none;stroke-miterlimit:4;stroke-dasharray:none;stroke-dashoffset:0;stroke-opacity:1;visibility:visible;display:inline;overflow:visible;enable-background:new" />
  </g>
</svg>
