<?xml version="1.0" encoding="UTF-8" standalone="no"?>
<!-- Created with Inkscape (http://www.inkscape.org/) -->
<svg
   xmlns:dc="http://purl.org/dc/elements/1.1/"
   xmlns:cc="http://creativecommons.org/ns#"
   xmlns:rdf="http://www.w3.org/1999/02/22-rdf-syntax-ns#"
   xmlns:svg="http://www.w3.org/2000/svg"
   xmlns="http://www.w3.org/2000/svg"
   xmlns:xlink="http://www.w3.org/1999/xlink"
   xmlns:sodipodi="http://sodipodi.sourceforge.net/DTD/sodipodi-0.dtd"
   xmlns:inkscape="http://www.inkscape.org/namespaces/inkscape"
   inkscape:export-ydpi="90.000000"
   inkscape:export-xdpi="90.000000"
   inkscape:export-filename="/home/jonieno/Desktop/icon.png"
   width="48"
   height="48"
   id="svg11300"
   sodipodi:version="0.32"
   inkscape:version="0.46"
   sodipodi:docname="emblem-money.svg"
   inkscape:output_extension="org.inkscape.output.svg.inkscape"
   version="1.0"
   style="display:inline;enable-background:new">
  <title
     id="title4119">Human-Palette Icon Theme</title>
  <defs
     id="defs3">
    <linearGradient
       id="linearGradient4299">
      <stop
         id="stop4301"
         offset="0"
         style="stop-color:#ffffff;stop-opacity:1;" />
      <stop
         id="stop4303"
         offset="1"
         style="stop-color:#b4b4b4;stop-opacity:1;" />
    </linearGradient>
    <linearGradient
       inkscape:collect="always"
       xlink:href="#linearGradient4299"
       id="linearGradient6117"
       gradientUnits="userSpaceOnUse"
       x1="106.28699"
       y1="31.517946"
       x2="106.28699"
       y2="52.662243" />
    <linearGradient
       inkscape:collect="always"
       xlink:href="#linearGradient4299"
       id="linearGradient6927"
       gradientUnits="userSpaceOnUse"
       x1="29"
       y1="14"
       x2="29"
       y2="44" />
    <filter
       inkscape:collect="always"
       id="filter6938">
      <feGaussianBlur
         inkscape:collect="always"
         stdDeviation="0.6"
         id="feGaussianBlur6940" />
    </filter>
  </defs>
  <sodipodi:namedview
     stroke="#ef2929"
     fill="#f57900"
     id="base"
     pagecolor="#ffffff"
     bordercolor="#666666"
     borderopacity="0.25490196"
     inkscape:pageopacity="0.0"
     inkscape:pageshadow="2"
     inkscape:zoom="1"
     inkscape:cx="333.39731"
     inkscape:cy="8.5937895"
     inkscape:current-layer="svg11300"
     showgrid="false"
     inkscape:grid-bbox="true"
     inkscape:document-units="px"
     inkscape:showpageshadow="false"
     inkscape:window-width="1280"
     inkscape:window-height="947"
     inkscape:window-x="0"
     inkscape:window-y="25"
     width="400px"
     height="300px"
     inkscape:snap-nodes="false"
     inkscape:snap-bbox="true"
     objecttolerance="7"
     gridtolerance="12"
     guidetolerance="13"
     showguides="false"
     inkscape:guide-bbox="true">
    <inkscape:grid
       type="xygrid"
       id="grid5883"
       spacingx="1px"
       spacingy="1px"
       enabled="true"
       visible="true"
       empspacing="5" />
  </sodipodi:namedview>
  <metadata
     id="metadata4">
    <rdf:RDF>
      <cc:Work
         rdf:about="">
        <dc:format>image/svg+xml</dc:format>
        <dc:type
           rdf:resource="http://purl.org/dc/dcmitype/StillImage" />
        <dc:creator>
          <cc:Agent>
            <dc:title>Jonian Guveli</dc:title>
          </cc:Agent>
        </dc:creator>
        <dc:source />
        <cc:license
           rdf:resource="http://creativecommons.org/licenses/by-nc/3.0/" />
        <dc:title>Folder</dc:title>
        <dc:subject>
          <rdf:Bag />
        </dc:subject>
        <dc:date />
        <dc:rights>
          <cc:Agent>
            <dc:title />
          </cc:Agent>
        </dc:rights>
        <dc:publisher>
          <cc:Agent>
            <dc:title>Jonian Guveli</dc:title>
          </cc:Agent>
        </dc:publisher>
        <dc:identifier />
        <dc:relation />
        <dc:language />
        <dc:coverage />
        <dc:description />
        <dc:contributor>
          <cc:Agent>
            <dc:title>Olibia Tsati</dc:title>
          </cc:Agent>
        </dc:contributor>
      </cc:Work>
      <cc:License
         rdf:about="http://creativecommons.org/licenses/by-nc/3.0/">
        <cc:permits
           rdf:resource="http://creativecommons.org/ns#Reproduction" />
        <cc:permits
           rdf:resource="http://creativecommons.org/ns#Distribution" />
        <cc:requires
           rdf:resource="http://creativecommons.org/ns#Notice" />
        <cc:requires
           rdf:resource="http://creativecommons.org/ns#Attribution" />
        <cc:prohibits
           rdf:resource="http://creativecommons.org/ns#CommercialUse" />
        <cc:permits
           rdf:resource="http://creativecommons.org/ns#DerivativeWorks" />
      </cc:License>
    </rdf:RDF>
  </metadata>
  <g
     id="g6942"
     transform="translate(-5,-5)">
    <path
       transform="matrix(2.3019215,0,0,2.3528485,-215.6643,-70.031615)"
       d="M 116.49584,42.090096 A 10.208854,9.9878836 0 1 1 96.078134,42.090096 A 10.208854,9.9878836 0 1 1 116.49584,42.090096 z"
       sodipodi:ry="9.9878836"
       sodipodi:rx="10.208854"
       sodipodi:cy="42.090096"
       sodipodi:cx="106.28699"
       id="path6267"
       style="opacity:0.8;fill:#464646;fill-opacity:1;stroke:#333333;stroke-width:0.42970949;stroke-linecap:round;stroke-linejoin:miter;stroke-miterlimit:4;stroke-dasharray:none;stroke-dashoffset:0;stroke-opacity:1"
       sodipodi:type="arc" />
    <path
       transform="matrix(2.2037686,0,0,2.2525242,-205.23193,-65.808959)"
       d="M 116.49584,42.090096 A 10.208854,9.9878836 0 1 1 96.078134,42.090096 A 10.208854,9.9878836 0 1 1 116.49584,42.090096 z"
       sodipodi:ry="9.9878836"
       sodipodi:rx="10.208854"
       sodipodi:cy="42.090096"
       sodipodi:cx="106.28699"
       id="path10234"
       style="opacity:0.4;fill:none;fill-opacity:1;stroke:url(#linearGradient6117);stroke-width:0.4488304;stroke-linecap:round;stroke-linejoin:miter;stroke-miterlimit:4;stroke-dasharray:none;stroke-dashoffset:0;stroke-opacity:1;display:inline;enable-background:new"
       sodipodi:type="arc" />
    <path
       id="path6930"
       d="M 29,14 C 20.72,14 14,20.720001 14,29 C 14,37.28 20.719999,44.000001 29,44 C 37.28,44 44,37.280001 44,29 C 44,20.72 37.28,14 29,14 z M 30.15625,19 C 32.44951,19 34.73167,19.748723 36.625,21.3125 L 37.40625,21.96875 L 36.15625,23.5625 L 35.375,22.9375 C 32.294274,20.393004 27.924478,20.393006 24.84375,22.9375 C 23.795994,23.802883 23.046308,24.850282 22.5625,26 L 34,26 L 32.9375,28 L 22.03125,28 C 21.988563,28.326376 21.938326,28.670792 21.9375,29 L 33,29 L 31.9375,31 L 22.21875,31 C 22.513657,32.10829 23.038684,33.180607 23.84375,34.125 C 26.731372,37.512363 31.921721,37.977199 35.375,35.125 L 36.15625,34.46875 L 37.40625,36.09375 L 36.625,36.6875 C 32.352467,40.216354 26.001354,39.686034 22.40625,35.46875 C 21.275651,34.142486 20.536464,32.602799 20.21875,31 L 17,31 L 18.0625,29 L 20.03125,29 C 20.032759,28.656951 20.05745,28.341047 20.09375,28 L 18,28 L 19.0625,26 L 20.53125,26 C 21.09453,24.229481 22.126149,22.576272 23.65625,21.3125 C 25.549581,19.748723 27.862989,19 30.15625,19 z"
       style="fill:#000000;fill-opacity:1;stroke:none;stroke-width:0.46570092;stroke-linecap:round;stroke-linejoin:miter;stroke-miterlimit:4;stroke-dasharray:none;stroke-dashoffset:0;stroke-opacity:1;display:inline;filter:url(#filter6938);enable-background:new" />
    <path
       id="path2484"
       d="M 29,14 C 20.72,14 14,20.720001 14,29 C 14,37.28 20.719999,44.000001 29,44 C 37.28,44 44,37.280001 44,29 C 44,20.72 37.28,14 29,14 z M 30.15625,19 C 32.44951,19 34.73167,19.748723 36.625,21.3125 L 37.40625,21.96875 L 36.15625,23.5625 L 35.375,22.9375 C 32.294274,20.393004 27.924478,20.393006 24.84375,22.9375 C 23.795994,23.802883 23.046308,24.850282 22.5625,26 L 34,26 L 32.9375,28 L 22.03125,28 C 21.988563,28.326376 21.938326,28.670792 21.9375,29 L 33,29 L 31.9375,31 L 22.21875,31 C 22.513657,32.10829 23.038684,33.180607 23.84375,34.125 C 26.731372,37.512363 31.921721,37.977199 35.375,35.125 L 36.15625,34.46875 L 37.40625,36.09375 L 36.625,36.6875 C 32.352467,40.216354 26.001354,39.686034 22.40625,35.46875 C 21.275651,34.142486 20.536464,32.602799 20.21875,31 L 17,31 L 18.0625,29 L 20.03125,29 C 20.032759,28.656951 20.05745,28.341047 20.09375,28 L 18,28 L 19.0625,26 L 20.53125,26 C 21.09453,24.229481 22.126149,22.576272 23.65625,21.3125 C 25.549581,19.748723 27.862989,19 30.15625,19 z"
       style="fill:url(#linearGradient6927);fill-opacity:1;stroke:none;stroke-width:0.46570092;stroke-linecap:round;stroke-linejoin:miter;stroke-miterlimit:4;stroke-dasharray:none;stroke-dashoffset:0;stroke-opacity:1;display:inline" />
  </g>
</svg>
