<?xml version="1.0" encoding="UTF-8" standalone="no"?>
<!-- Created with Inkscape (http://www.inkscape.org/) -->
<svg
   xmlns:dc="http://purl.org/dc/elements/1.1/"
   xmlns:cc="http://creativecommons.org/ns#"
   xmlns:rdf="http://www.w3.org/1999/02/22-rdf-syntax-ns#"
   xmlns:svg="http://www.w3.org/2000/svg"
   xmlns="http://www.w3.org/2000/svg"
   xmlns:xlink="http://www.w3.org/1999/xlink"
   xmlns:sodipodi="http://sodipodi.sourceforge.net/DTD/sodipodi-0.dtd"
   xmlns:inkscape="http://www.inkscape.org/namespaces/inkscape"
   inkscape:export-ydpi="90.000000"
   inkscape:export-xdpi="90.000000"
   inkscape:export-filename="/home/jonieno/Desktop/icon.png"
   width="48"
   height="48"
   id="svg11300"
   sodipodi:version="0.32"
   inkscape:version="0.46"
   sodipodi:docname="emblem-development.svg"
   inkscape:output_extension="org.inkscape.output.svg.inkscape"
   version="1.0"
   style="display:inline;enable-background:new">
  <title
     id="title4119">Human-Palette Icon Theme</title>
  <defs
     id="defs3">
    <linearGradient
       id="linearGradient4299">
      <stop
         id="stop4301"
         offset="0"
         style="stop-color:#ffffff;stop-opacity:1;" />
      <stop
         id="stop4303"
         offset="1"
         style="stop-color:#b4b4b4;stop-opacity:1;" />
    </linearGradient>
    <linearGradient
       inkscape:collect="always"
       xlink:href="#linearGradient4299"
       id="linearGradient6117"
       gradientUnits="userSpaceOnUse"
       x1="106.28699"
       y1="31.517946"
       x2="106.28699"
       y2="52.662243" />
    <linearGradient
       inkscape:collect="always"
       xlink:href="#linearGradient4299"
       id="linearGradient7982"
       x1="29.909903"
       y1="13"
       x2="30.034641"
       y2="44"
       gradientUnits="userSpaceOnUse"
       gradientTransform="matrix(0.9333334,0,0,0.9677419,1.9333335,1.4193553)" />
    <filter
       inkscape:collect="always"
       id="filter7988">
      <feGaussianBlur
         inkscape:collect="always"
         stdDeviation="0.58"
         id="feGaussianBlur7990" />
    </filter>
  </defs>
  <sodipodi:namedview
     stroke="#ef2929"
     fill="#f57900"
     id="base"
     pagecolor="#ffffff"
     bordercolor="#666666"
     borderopacity="0.25490196"
     inkscape:pageopacity="0.0"
     inkscape:pageshadow="2"
     inkscape:zoom="1"
     inkscape:cx="51.161526"
     inkscape:cy="31.27315"
     inkscape:current-layer="svg11300"
     showgrid="false"
     inkscape:grid-bbox="true"
     inkscape:document-units="px"
     inkscape:showpageshadow="false"
     inkscape:window-width="1280"
     inkscape:window-height="949"
     inkscape:window-x="0"
     inkscape:window-y="24"
     width="400px"
     height="300px"
     inkscape:snap-nodes="false"
     inkscape:snap-bbox="true"
     objecttolerance="7"
     gridtolerance="12"
     guidetolerance="13"
     showguides="false"
     inkscape:guide-bbox="true">
    <inkscape:grid
       type="xygrid"
       id="grid5883"
       spacingx="1px"
       spacingy="1px"
       enabled="true"
       visible="true"
       empspacing="5" />
  </sodipodi:namedview>
  <metadata
     id="metadata4">
    <rdf:RDF>
      <cc:Work
         rdf:about="">
        <dc:format>image/svg+xml</dc:format>
        <dc:type
           rdf:resource="http://purl.org/dc/dcmitype/StillImage" />
        <dc:creator>
          <cc:Agent>
            <dc:title>Jonian Guveli</dc:title>
          </cc:Agent>
        </dc:creator>
        <dc:source />
        <cc:license
           rdf:resource="http://creativecommons.org/licenses/by-nc/3.0/" />
        <dc:title>Folder</dc:title>
        <dc:subject>
          <rdf:Bag />
        </dc:subject>
        <dc:date />
        <dc:rights>
          <cc:Agent>
            <dc:title />
          </cc:Agent>
        </dc:rights>
        <dc:publisher>
          <cc:Agent>
            <dc:title>Jonian Guveli</dc:title>
          </cc:Agent>
        </dc:publisher>
        <dc:identifier />
        <dc:relation />
        <dc:language />
        <dc:coverage />
        <dc:description />
        <dc:contributor>
          <cc:Agent>
            <dc:title>Olibia Tsati</dc:title>
          </cc:Agent>
        </dc:contributor>
      </cc:Work>
      <cc:License
         rdf:about="http://creativecommons.org/licenses/by-nc/3.0/">
        <cc:permits
           rdf:resource="http://creativecommons.org/ns#Reproduction" />
        <cc:permits
           rdf:resource="http://creativecommons.org/ns#Distribution" />
        <cc:requires
           rdf:resource="http://creativecommons.org/ns#Notice" />
        <cc:requires
           rdf:resource="http://creativecommons.org/ns#Attribution" />
        <cc:prohibits
           rdf:resource="http://creativecommons.org/ns#CommercialUse" />
        <cc:permits
           rdf:resource="http://creativecommons.org/ns#DerivativeWorks" />
      </cc:License>
    </rdf:RDF>
  </metadata>
  <g
     id="g7992"
     transform="translate(-5,-5)">
    <path
       transform="matrix(2.3019215,0,0,2.3528485,-215.6643,-70.031615)"
       d="M 116.49584,42.090096 A 10.208854,9.9878836 0 1 1 96.078134,42.090096 A 10.208854,9.9878836 0 1 1 116.49584,42.090096 z"
       sodipodi:ry="9.9878836"
       sodipodi:rx="10.208854"
       sodipodi:cy="42.090096"
       sodipodi:cx="106.28699"
       id="path6267"
       style="opacity:0.8;fill:#464646;fill-opacity:1;stroke:#333333;stroke-width:0.42970949;stroke-linecap:round;stroke-linejoin:miter;stroke-miterlimit:4;stroke-dasharray:none;stroke-dashoffset:0;stroke-opacity:1"
       sodipodi:type="arc" />
    <path
       transform="matrix(2.2037686,0,0,2.2525242,-205.23193,-65.808959)"
       d="M 116.49584,42.090096 A 10.208854,9.9878836 0 1 1 96.078134,42.090096 A 10.208854,9.9878836 0 1 1 116.49584,42.090096 z"
       sodipodi:ry="9.9878836"
       sodipodi:rx="10.208854"
       sodipodi:cy="42.090096"
       sodipodi:cx="106.28699"
       id="path10234"
       style="opacity:0.4;fill:none;fill-opacity:1;stroke:url(#linearGradient6117);stroke-width:0.4488304;stroke-linecap:round;stroke-linejoin:miter;stroke-miterlimit:4;stroke-dasharray:none;stroke-dashoffset:0;stroke-opacity:1;display:inline;enable-background:new"
       sodipodi:type="arc" />
    <path
       id="path7984"
       d="M 40.937765,14.005002 C 40.54112,14.039474 40.139481,14.237294 39.818996,14.559324 L 32.635325,21.088009 C 32.325862,21.399108 32.164264,21.81574 32.164264,22.258245 C 32.164264,22.382879 32.196824,22.478436 32.223147,22.596998 C 32.116637,22.677323 32.004185,22.76859 31.899293,22.874159 C 30.982935,23.658356 31.310467,25.331599 31.310467,26.846803 C 31.310466,27.540211 29.943008,28.034465 29.396784,28.171017 C 27.803858,28.177696 23.273598,28.435341 21.800934,30.603877 C 20.473868,32.557193 15,42.215672 15,43.753635 C 15,43.890192 15.099774,44 15.23553,44 C 17.537736,44.000001 33.212577,35.471637 33.842417,34.853681 C 34.377576,34.328246 34.58158,33.449564 34.401802,32.328435 C 34.291622,31.639728 34.048653,30.925624 33.783534,30.326715 C 33.770254,30.290352 33.747524,30.275888 33.724651,30.234328 C 33.629474,30.029002 33.530582,29.819161 33.430239,29.649211 C 33.275301,29.290261 33.165267,28.893348 33.165267,28.355792 C 33.165268,25.861948 33.370258,25.262902 33.724651,24.906675 C 33.918897,24.711289 34.080512,24.469932 34.195713,24.22917 C 34.197945,24.224503 34.222958,24.233846 34.225153,24.22917 C 34.922049,24.183673 35.708788,23.861976 36.109396,23.459278 L 42.43927,17.207753 C 43.080242,16.563437 43.227724,15.603984 42.586476,14.959668 L 42.056533,14.436141 C 41.736185,14.114237 41.33441,13.970531 40.937765,14.005002 z"
       style="fill:#000000;fill-opacity:1;display:inline;filter:url(#filter7988);enable-background:new" />
    <path
       id="path5731"
       d="M 40.937765,14.005002 C 40.54112,14.039474 40.139481,14.237294 39.818996,14.559324 L 32.635325,21.088009 C 32.325862,21.399108 32.164264,21.81574 32.164264,22.258245 C 32.164264,22.382879 32.196824,22.478436 32.223147,22.596998 C 32.116637,22.677323 32.004185,22.76859 31.899293,22.874159 C 30.982935,23.658356 31.310467,25.331599 31.310467,26.846803 C 31.310466,27.540211 29.943008,28.034465 29.396784,28.171017 C 27.803858,28.177696 23.273598,28.435341 21.800934,30.603877 C 20.473868,32.557193 15,42.215672 15,43.753635 C 15,43.890192 15.099774,44 15.23553,44 C 17.537736,44.000001 33.212577,35.471637 33.842417,34.853681 C 34.377576,34.328246 34.58158,33.449564 34.401802,32.328435 C 34.291622,31.639728 34.048653,30.925624 33.783534,30.326715 C 33.770254,30.290352 33.747524,30.275888 33.724651,30.234328 C 33.629474,30.029002 33.530582,29.819161 33.430239,29.649211 C 33.275301,29.290261 33.165267,28.893348 33.165267,28.355792 C 33.165268,25.861948 33.370258,25.262902 33.724651,24.906675 C 33.918897,24.711289 34.080512,24.469932 34.195713,24.22917 C 34.197945,24.224503 34.222958,24.233846 34.225153,24.22917 C 34.922049,24.183673 35.708788,23.861976 36.109396,23.459278 L 42.43927,17.207753 C 43.080242,16.563437 43.227724,15.603984 42.586476,14.959668 L 42.056533,14.436141 C 41.736185,14.114237 41.33441,13.970531 40.937765,14.005002 z"
       style="fill:url(#linearGradient7982);fill-opacity:1" />
  </g>
</svg>
