<?xml version="1.0" encoding="UTF-8" standalone="no"?>
<!-- Created with Inkscape (http://www.inkscape.org/) -->
<svg
   xmlns:dc="http://purl.org/dc/elements/1.1/"
   xmlns:cc="http://creativecommons.org/ns#"
   xmlns:rdf="http://www.w3.org/1999/02/22-rdf-syntax-ns#"
   xmlns:svg="http://www.w3.org/2000/svg"
   xmlns="http://www.w3.org/2000/svg"
   xmlns:xlink="http://www.w3.org/1999/xlink"
   xmlns:sodipodi="http://sodipodi.sourceforge.net/DTD/sodipodi-0.dtd"
   xmlns:inkscape="http://www.inkscape.org/namespaces/inkscape"
   inkscape:export-ydpi="90.000000"
   inkscape:export-xdpi="90.000000"
   inkscape:export-filename="/home/jonieno/Desktop/icon.png"
   width="48"
   height="48"
   id="svg11300"
   sodipodi:version="0.32"
   inkscape:version="0.46"
   sodipodi:docname="emblem-videos.svg"
   inkscape:output_extension="org.inkscape.output.svg.inkscape"
   version="1.0"
   style="display:inline;enable-background:new">
  <title
     id="title4119">Human-Palette Icon Theme</title>
  <defs
     id="defs3">
    <linearGradient
       id="linearGradient4299">
      <stop
         id="stop4301"
         offset="0"
         style="stop-color:#ffffff;stop-opacity:1;" />
      <stop
         id="stop4303"
         offset="1"
         style="stop-color:#b4b4b4;stop-opacity:1;" />
    </linearGradient>
    <linearGradient
       inkscape:collect="always"
       xlink:href="#linearGradient4299"
       id="linearGradient7074"
       gradientUnits="userSpaceOnUse"
       x1="106.28699"
       y1="31.517946"
       x2="106.28699"
       y2="52.662243" />
    <linearGradient
       inkscape:collect="always"
       xlink:href="#linearGradient4299"
       id="linearGradient7091"
       gradientUnits="userSpaceOnUse"
       x1="29"
       y1="16"
       x2="29"
       y2="43"
       gradientTransform="translate(-5,-5)" />
    <filter
       inkscape:collect="always"
       id="filter7111">
      <feGaussianBlur
         inkscape:collect="always"
         stdDeviation="0.50999999"
         id="feGaussianBlur7113" />
    </filter>
  </defs>
  <sodipodi:namedview
     stroke="#ef2929"
     fill="#f57900"
     id="base"
     pagecolor="#ffffff"
     bordercolor="#666666"
     borderopacity="0.25490196"
     inkscape:pageopacity="0.0"
     inkscape:pageshadow="2"
     inkscape:zoom="1"
     inkscape:cx="28.094101"
     inkscape:cy="25.313199"
     inkscape:current-layer="svg11300"
     showgrid="false"
     inkscape:grid-bbox="true"
     inkscape:document-units="px"
     inkscape:showpageshadow="false"
     inkscape:window-width="1280"
     inkscape:window-height="950"
     inkscape:window-x="0"
     inkscape:window-y="24"
     width="400px"
     height="300px"
     inkscape:snap-nodes="false"
     inkscape:snap-bbox="true"
     objecttolerance="7"
     gridtolerance="12"
     guidetolerance="13"
     showguides="true"
     inkscape:guide-bbox="true">
    <inkscape:grid
       type="xygrid"
       id="grid5883"
       spacingx="1px"
       spacingy="1px"
       enabled="true"
       visible="true"
       empspacing="5" />
  </sodipodi:namedview>
  <metadata
     id="metadata4">
    <rdf:RDF>
      <cc:Work
         rdf:about="">
        <dc:format>image/svg+xml</dc:format>
        <dc:type
           rdf:resource="http://purl.org/dc/dcmitype/StillImage" />
        <dc:creator>
          <cc:Agent>
            <dc:title>Jonian Guveli</dc:title>
          </cc:Agent>
        </dc:creator>
        <dc:source />
        <cc:license
           rdf:resource="http://creativecommons.org/licenses/by-nc/3.0/" />
        <dc:title>Folder</dc:title>
        <dc:subject>
          <rdf:Bag />
        </dc:subject>
        <dc:date />
        <dc:rights>
          <cc:Agent>
            <dc:title />
          </cc:Agent>
        </dc:rights>
        <dc:publisher>
          <cc:Agent>
            <dc:title>Jonian Guveli</dc:title>
          </cc:Agent>
        </dc:publisher>
        <dc:identifier />
        <dc:relation />
        <dc:language />
        <dc:coverage />
        <dc:description />
        <dc:contributor>
          <cc:Agent>
            <dc:title>Olibia Tsati</dc:title>
          </cc:Agent>
        </dc:contributor>
      </cc:Work>
      <cc:License
         rdf:about="http://creativecommons.org/licenses/by-nc/3.0/">
        <cc:permits
           rdf:resource="http://creativecommons.org/ns#Reproduction" />
        <cc:permits
           rdf:resource="http://creativecommons.org/ns#Distribution" />
        <cc:requires
           rdf:resource="http://creativecommons.org/ns#Notice" />
        <cc:requires
           rdf:resource="http://creativecommons.org/ns#Attribution" />
        <cc:prohibits
           rdf:resource="http://creativecommons.org/ns#CommercialUse" />
        <cc:permits
           rdf:resource="http://creativecommons.org/ns#DerivativeWorks" />
      </cc:License>
    </rdf:RDF>
  </metadata>
  <g
     id="g7115">
    <path
       transform="matrix(2.3019215,0,0,2.3528485,-220.6643,-75.031615)"
       d="M 116.49584,42.090096 A 10.208854,9.9878836 0 1 1 96.078134,42.090096 A 10.208854,9.9878836 0 1 1 116.49584,42.090096 z"
       sodipodi:ry="9.9878836"
       sodipodi:rx="10.208854"
       sodipodi:cy="42.090096"
       sodipodi:cx="106.28699"
       id="path6267"
       style="opacity:0.8;fill:#464646;fill-opacity:1;stroke:#333333;stroke-width:0.42970949;stroke-linecap:round;stroke-linejoin:miter;stroke-miterlimit:4;stroke-dasharray:none;stroke-dashoffset:0;stroke-opacity:1"
       sodipodi:type="arc" />
    <path
       transform="matrix(2.2037686,0,0,2.2525242,-210.23193,-70.808959)"
       d="M 116.49584,42.090096 A 10.208854,9.9878836 0 1 1 96.078134,42.090096 A 10.208854,9.9878836 0 1 1 116.49584,42.090096 z"
       sodipodi:ry="9.9878836"
       sodipodi:rx="10.208854"
       sodipodi:cy="42.090096"
       sodipodi:cx="106.28699"
       id="path10234"
       style="opacity:0.4;fill:none;fill-opacity:1;stroke:url(#linearGradient7074);stroke-width:0.4488304;stroke-linecap:round;stroke-linejoin:miter;stroke-miterlimit:4;stroke-dasharray:none;stroke-dashoffset:0;stroke-opacity:1;display:inline;enable-background:new"
       sodipodi:type="arc" />
    <path
       id="path7095"
       d="M 12,11 L 12,37.999999 L 36,37.999999 L 36,11 L 12,11 z M 13,12 L 16,12 L 16,13 L 13,13 L 13,12 z M 17,12 L 31.03125,12 L 31.03125,23.999999 L 17,23.999999 L 17,12 z M 32,12 L 35,12 L 35,13 L 32,13 L 32,12 z M 13,14.999999 L 16,14.999999 L 16,15.999999 L 13,15.999999 L 13,14.999999 z M 32,14.999999 L 35,14.999999 L 35,15.999999 L 32,15.999999 L 32,14.999999 z M 13,17.999999 L 16,17.999999 L 16,18.999999 L 13,18.999999 L 13,17.999999 z M 32,17.999999 L 35,17.999999 L 35,18.999999 L 32,18.999999 L 32,17.999999 z M 13,20.999999 L 16,20.999999 L 16,21.999999 L 13,21.999999 L 13,20.999999 z M 32,20.999999 L 35,20.999999 L 35,21.999999 L 32,21.999999 L 32,20.999999 z M 13,23.999999 L 16,23.999999 L 16,24.999999 L 13,24.999999 L 13,23.999999 z M 32,23.999999 L 35,23.999999 L 35,24.999999 L 32,24.999999 L 32,23.999999 z M 17,24.999999 L 31,24.999999 L 31,36.999999 L 17,36.999999 L 17,24.999999 z M 13,26.999999 L 16,26.999999 L 16,27.999999 L 13,27.999999 L 13,26.999999 z M 32,26.999999 L 35,26.999999 L 35,27.999999 L 32,27.999999 L 32,26.999999 z M 13,29.999999 L 16,29.999999 L 16,30.999999 L 13,30.999999 L 13,29.999999 z M 32,29.999999 L 35,29.999999 L 35,30.999999 L 32,30.999999 L 32,29.999999 z M 13,32.999999 L 16,32.999999 L 16,33.999999 L 13,33.999999 L 13,32.999999 z M 32,32.999999 L 35,32.999999 L 35,33.999999 L 32,33.999999 L 32,32.999999 z M 13,35.999999 L 16,35.999999 L 16,36.999999 L 13,36.999999 L 13,35.999999 z M 32,35.999999 L 35,35.999999 L 35,36.999999 L 32,36.999999 L 32,35.999999 z"
       style="fill:#000000;fill-opacity:1;stroke:none;stroke-width:1;stroke-linecap:round;stroke-linejoin:miter;stroke-miterlimit:4;stroke-dasharray:none;stroke-dashoffset:0;stroke-opacity:1;display:inline;enable-background:new;filter:url(#filter7111)" />
    <path
       id="rect6119"
       d="M 12,11 L 12,38 L 36,38 L 36,11 L 12,11 z M 13,12 L 16,12 L 16,13 L 13,13 L 13,12 z M 17,12 L 31.03125,12 L 31.03125,24 L 17,24 L 17,12 z M 32,12 L 35,12 L 35,13 L 32,13 L 32,12 z M 13,15 L 16,15 L 16,16 L 13,16 L 13,15 z M 32,15 L 35,15 L 35,16 L 32,16 L 32,15 z M 13,18 L 16,18 L 16,19 L 13,19 L 13,18 z M 32,18 L 35,18 L 35,19 L 32,19 L 32,18 z M 13,21 L 16,21 L 16,22 L 13,22 L 13,21 z M 32,21 L 35,21 L 35,22 L 32,22 L 32,21 z M 13,24 L 16,24 L 16,25 L 13,25 L 13,24 z M 32,24 L 35,24 L 35,25 L 32,25 L 32,24 z M 17,25 L 31,25 L 31,37 L 17,37 L 17,25 z M 13,27 L 16,27 L 16,28 L 13,28 L 13,27 z M 32,27 L 35,27 L 35,28 L 32,28 L 32,27 z M 13,30 L 16,30 L 16,31 L 13,31 L 13,30 z M 32,30 L 35,30 L 35,31 L 32,31 L 32,30 z M 13,33 L 16,33 L 16,34 L 13,34 L 13,33 z M 32,33 L 35,33 L 35,34 L 32,34 L 32,33 z M 13,36 L 16,36 L 16,37 L 13,37 L 13,36 z M 32,36 L 35,36 L 35,37 L 32,37 L 32,36 z"
       style="fill:url(#linearGradient7091);fill-opacity:1;stroke:none;stroke-width:1;stroke-linecap:round;stroke-linejoin:miter;stroke-miterlimit:4;stroke-dasharray:none;stroke-dashoffset:0;stroke-opacity:1" />
  </g>
</svg>
