<?xml version="1.0" encoding="UTF-8" standalone="no"?>
<!-- Created with Inkscape (http://www.inkscape.org/) -->
<svg
   xmlns:dc="http://purl.org/dc/elements/1.1/"
   xmlns:cc="http://creativecommons.org/ns#"
   xmlns:rdf="http://www.w3.org/1999/02/22-rdf-syntax-ns#"
   xmlns:svg="http://www.w3.org/2000/svg"
   xmlns="http://www.w3.org/2000/svg"
   xmlns:xlink="http://www.w3.org/1999/xlink"
   xmlns:sodipodi="http://sodipodi.sourceforge.net/DTD/sodipodi-0.dtd"
   xmlns:inkscape="http://www.inkscape.org/namespaces/inkscape"
   inkscape:export-ydpi="90.000000"
   inkscape:export-xdpi="90.000000"
   inkscape:export-filename="/home/jonieno/Desktop/icon.png"
   width="48"
   height="48"
   id="svg11300"
   sodipodi:version="0.32"
   inkscape:version="0.46"
   sodipodi:docname="emblem-games.svg"
   inkscape:output_extension="org.inkscape.output.svg.inkscape"
   version="1.0"
   style="display:inline;enable-background:new">
  <title
     id="title4119">Human-Palette Icon Theme</title>
  <defs
     id="defs3">
    <linearGradient
       id="linearGradient4299">
      <stop
         id="stop4301"
         offset="0"
         style="stop-color:#ffffff;stop-opacity:1;" />
      <stop
         id="stop4303"
         offset="1"
         style="stop-color:#b4b4b4;stop-opacity:1;" />
    </linearGradient>
    <filter
       inkscape:collect="always"
       id="filter13500">
      <feGaussianBlur
         inkscape:collect="always"
         stdDeviation="0.56873528"
         id="feGaussianBlur13502" />
    </filter>
    <linearGradient
       inkscape:collect="always"
       xlink:href="#linearGradient4299"
       id="linearGradient13789"
       gradientUnits="userSpaceOnUse"
       x1="106.28699"
       y1="31.517946"
       x2="106.28699"
       y2="52.662243" />
    <linearGradient
       inkscape:collect="always"
       xlink:href="#linearGradient4299"
       id="linearGradient13791"
       gradientUnits="userSpaceOnUse"
       gradientTransform="matrix(0.7558035,0,0,0.7558035,10.866299,-6.2509761)"
       x1="23.992613"
       y1="32.244236"
       x2="23.992613"
       y2="62.511784" />
  </defs>
  <sodipodi:namedview
     stroke="#ef2929"
     fill="#f57900"
     id="base"
     pagecolor="#ffffff"
     bordercolor="#666666"
     borderopacity="0.25490196"
     inkscape:pageopacity="0.0"
     inkscape:pageshadow="2"
     inkscape:zoom="1"
     inkscape:cx="65.034633"
     inkscape:cy="16.501294"
     inkscape:current-layer="svg11300"
     showgrid="false"
     inkscape:grid-bbox="true"
     inkscape:document-units="px"
     inkscape:showpageshadow="false"
     inkscape:window-width="1280"
     inkscape:window-height="949"
     inkscape:window-x="0"
     inkscape:window-y="24"
     width="400px"
     height="300px"
     inkscape:snap-nodes="false"
     inkscape:snap-bbox="true"
     objecttolerance="7"
     gridtolerance="12"
     guidetolerance="13"
     showguides="true"
     inkscape:guide-bbox="true">
    <inkscape:grid
       type="xygrid"
       id="grid5883"
       spacingx="1px"
       spacingy="1px"
       enabled="true"
       visible="true"
       empspacing="5" />
  </sodipodi:namedview>
  <metadata
     id="metadata4">
    <rdf:RDF>
      <cc:Work
         rdf:about="">
        <dc:format>image/svg+xml</dc:format>
        <dc:type
           rdf:resource="http://purl.org/dc/dcmitype/StillImage" />
        <dc:creator>
          <cc:Agent>
            <dc:title>Jonian Guveli</dc:title>
          </cc:Agent>
        </dc:creator>
        <dc:source />
        <cc:license
           rdf:resource="http://creativecommons.org/licenses/by-nc/3.0/" />
        <dc:title>Folder</dc:title>
        <dc:subject>
          <rdf:Bag />
        </dc:subject>
        <dc:date />
        <dc:rights>
          <cc:Agent>
            <dc:title />
          </cc:Agent>
        </dc:rights>
        <dc:publisher>
          <cc:Agent>
            <dc:title>Jonian Guveli</dc:title>
          </cc:Agent>
        </dc:publisher>
        <dc:identifier />
        <dc:relation />
        <dc:language />
        <dc:coverage />
        <dc:description />
        <dc:contributor>
          <cc:Agent>
            <dc:title>Olibia Tsati</dc:title>
          </cc:Agent>
        </dc:contributor>
      </cc:Work>
      <cc:License
         rdf:about="http://creativecommons.org/licenses/by-nc/3.0/">
        <cc:permits
           rdf:resource="http://creativecommons.org/ns#Reproduction" />
        <cc:permits
           rdf:resource="http://creativecommons.org/ns#Distribution" />
        <cc:requires
           rdf:resource="http://creativecommons.org/ns#Notice" />
        <cc:requires
           rdf:resource="http://creativecommons.org/ns#Attribution" />
        <cc:prohibits
           rdf:resource="http://creativecommons.org/ns#CommercialUse" />
        <cc:permits
           rdf:resource="http://creativecommons.org/ns#DerivativeWorks" />
      </cc:License>
    </rdf:RDF>
  </metadata>
  <g
     id="g13764"
     transform="translate(-5,-5)">
    <path
       transform="matrix(2.3019215,0,0,2.3528485,-215.6643,-70.031615)"
       d="M 116.49584,42.090096 A 10.208854,9.9878836 0 1 1 96.078134,42.090096 A 10.208854,9.9878836 0 1 1 116.49584,42.090096 z"
       sodipodi:ry="9.9878836"
       sodipodi:rx="10.208854"
       sodipodi:cy="42.090096"
       sodipodi:cx="106.28699"
       id="path6267"
       style="opacity:0.8;fill:#464646;fill-opacity:1;stroke:#333333;stroke-width:0.42970949;stroke-linecap:round;stroke-linejoin:miter;stroke-miterlimit:4;stroke-dasharray:none;stroke-dashoffset:0;stroke-opacity:1"
       sodipodi:type="arc" />
    <path
       transform="matrix(2.2037686,0,0,2.2525242,-205.23193,-65.808959)"
       d="M 116.49584,42.090096 A 10.208854,9.9878836 0 1 1 96.078134,42.090096 A 10.208854,9.9878836 0 1 1 116.49584,42.090096 z"
       sodipodi:ry="9.9878836"
       sodipodi:rx="10.208854"
       sodipodi:cy="42.090096"
       sodipodi:cx="106.28699"
       id="path10234"
       style="opacity:0.4;fill:none;fill-opacity:1;stroke:url(#linearGradient13789);stroke-width:0.4488304;stroke-linecap:round;stroke-linejoin:miter;stroke-miterlimit:4;stroke-dasharray:none;stroke-dashoffset:0;stroke-opacity:1;display:inline;enable-background:new"
       sodipodi:type="arc" />
    <path
       sodipodi:nodetypes="ccccccccccccccccccccccscccscccscccccsssccsssccsssccssscccsccscccsccsc"
       id="path13472"
       d="M 19.938894,18.128037 C 18.616239,18.128036 17.285546,18.312635 16.907644,18.690537 L 15.970144,20.690537 C 14.461653,21.619296 13.501394,23.15352 13.501394,24.878037 L 12.032644,36.940537 C 11.546511,40.963504 17.127237,42.981356 19.282644,38.284287 L 22.751394,31 L 35.282644,31 L 38.720144,38.284287 C 40.875547,42.981357 46.456272,40.963504 45.970144,36.940537 L 44.532644,24.878037 C 44.532642,23.153519 43.541137,21.619295 42.032644,20.690537 L 41.095144,18.690537 C 40.339341,17.934735 35.819697,17.934735 35.063894,18.690537 L 34.470144,21.378037 L 23.532644,21.378037 L 22.970144,18.690537 C 22.592242,18.312635 21.26155,18.128037 19.938894,18.128037 z M 19.001394,22.128037 C 19.555394,22.128037 20.001394,22.574037 20.001394,23.128037 L 20.001394,24.128037 L 21.001394,24.128037 C 21.555394,24.128037 22.001394,24.574037 22.001394,25.128037 C 22.001394,25.682037 21.555394,26.128037 21.001394,26.128037 L 20.001394,26.128037 L 20.001394,27.128037 C 20.001394,27.682037 19.555394,28.128037 19.001394,28.128037 C 18.447394,28.128037 18.001394,27.682037 18.001394,27.128037 L 18.001394,26.128037 L 17.001394,26.128037 C 16.447394,26.128037 16.001394,25.682037 16.001394,25.128037 C 16.001394,24.574037 16.447394,24.128037 17.001394,24.128037 L 18.001394,24.128037 L 18.001394,23.128037 C 18.001394,22.574037 18.447394,22.128037 19.001394,22.128037 z M 39.001394,22.128037 C 39.553396,22.128037 40.001394,22.576037 40.001394,23.128037 C 40.001392,23.680037 39.553395,24.128037 39.001394,24.128037 C 38.449394,24.128037 38.001394,23.680037 38.001394,23.128037 C 38.001394,22.576037 38.449393,22.128037 39.001394,22.128037 z M 37.001394,24.128037 C 37.553396,24.128037 38.001394,24.576037 38.001394,25.128037 C 38.001392,25.680037 37.553395,26.128037 37.001394,26.128037 C 36.449394,26.128037 36.001394,25.680037 36.001394,25.128037 C 36.001394,24.576037 36.449393,24.128037 37.001394,24.128037 z M 41.001394,24.128037 C 41.553393,24.128037 42.001394,24.576037 42.001394,25.128037 C 42.001394,25.680037 41.553395,26.128037 41.001394,26.128037 C 40.449392,26.128037 40.001394,25.680037 40.001394,25.128037 C 40.001395,24.576037 40.449393,24.128037 41.001394,24.128037 z M 39.001394,26.128037 C 39.553392,26.128037 40.001394,26.576037 40.001394,27.128037 C 40.001392,27.680037 39.553394,28.128037 39.001394,28.128037 C 38.449392,28.128037 38.001394,27.680037 38.001394,27.128037 C 38.001392,26.576037 38.449394,26.128037 39.001394,26.128037 z M 26.501394,28.128037 L 27.501394,28.128037 C 27.778394,28.128037 28.001394,28.351037 28.001394,28.628037 C 28.001394,28.905037 27.778394,29.128037 27.501394,29.128037 L 26.501394,29.128037 C 26.224394,29.128037 26.001394,28.905037 26.001394,28.628037 C 26.001394,28.351037 26.224394,28.128037 26.501394,28.128037 z M 30.501394,28.128037 L 31.501394,28.128037 C 31.778394,28.128037 32.001394,28.351037 32.001394,28.628037 C 32.001394,28.905037 31.778394,29.128037 31.501394,29.128037 L 30.501394,29.128037 C 30.224394,29.128037 30.001394,28.905037 30.001394,28.628037 C 30.001394,28.351037 30.224394,28.128037 30.501394,28.128037 z"
       style="fill:#000000;fill-opacity:1;fill-rule:nonzero;stroke:none;stroke-width:1.00000012;stroke-linecap:round;stroke-linejoin:round;marker:none;marker-start:none;marker-mid:none;marker-end:none;stroke-miterlimit:4;stroke-dashoffset:0;stroke-opacity:1;visibility:visible;display:inline;overflow:visible;filter:url(#filter13500);enable-background:accumulate" />
    <path
       sodipodi:nodetypes="ccccccccccccccccccccccscccscccscccccsssccsssccsssccssscccsccscccsccsc"
       id="path3717"
       d="M 19.9375,18.123684 C 18.614845,18.123683 17.284152,18.308282 16.90625,18.686184 L 15.96875,20.686184 C 14.460259,21.614943 13.5,23.149167 13.5,24.873684 L 12.03125,36.936184 C 11.545117,40.959151 17.125843,42.977003 19.28125,38.279934 L 22.75,31 L 35.28125,31 L 38.71875,38.279934 C 40.874153,42.977004 46.454878,40.959151 45.96875,36.936184 L 44.53125,24.873684 C 44.531248,23.149166 43.539743,21.614942 42.03125,20.686184 L 41.09375,18.686184 C 40.337947,17.930382 35.818303,17.930382 35.0625,18.686184 L 34.46875,21.373684 L 23.53125,21.373684 L 22.96875,18.686184 C 22.590848,18.308282 21.260156,18.123684 19.9375,18.123684 z M 19,22.123684 C 19.554,22.123684 20,22.569684 20,23.123684 L 20,24.123684 L 21,24.123684 C 21.554,24.123684 22,24.569684 22,25.123684 C 22,25.677684 21.554,26.123684 21,26.123684 L 20,26.123684 L 20,27.123684 C 20,27.677684 19.554,28.123684 19,28.123684 C 18.446,28.123684 18,27.677684 18,27.123684 L 18,26.123684 L 17,26.123684 C 16.446,26.123684 16,25.677684 16,25.123684 C 16,24.569684 16.446,24.123684 17,24.123684 L 18,24.123684 L 18,23.123684 C 18,22.569684 18.446,22.123684 19,22.123684 z M 39,22.123684 C 39.552002,22.123684 40,22.571684 40,23.123684 C 39.999998,23.675684 39.552001,24.123684 39,24.123684 C 38.448,24.123684 38,23.675684 38,23.123684 C 38,22.571684 38.447999,22.123684 39,22.123684 z M 37,24.123684 C 37.552002,24.123684 38,24.571684 38,25.123684 C 37.999998,25.675684 37.552001,26.123684 37,26.123684 C 36.448,26.123684 36,25.675684 36,25.123684 C 36,24.571684 36.447999,24.123684 37,24.123684 z M 41,24.123684 C 41.551999,24.123684 42,24.571684 42,25.123684 C 42,25.675684 41.552001,26.123684 41,26.123684 C 40.447998,26.123684 40,25.675684 40,25.123684 C 40.000001,24.571684 40.447999,24.123684 41,24.123684 z M 39,26.123684 C 39.551998,26.123684 40,26.571684 40,27.123684 C 39.999998,27.675684 39.552,28.123684 39,28.123684 C 38.447998,28.123684 38,27.675684 38,27.123684 C 37.999998,26.571684 38.448,26.123684 39,26.123684 z M 26.5,28.123684 L 27.5,28.123684 C 27.777,28.123684 28,28.346684 28,28.623684 C 28,28.900684 27.777,29.123684 27.5,29.123684 L 26.5,29.123684 C 26.223,29.123684 26,28.900684 26,28.623684 C 26,28.346684 26.223,28.123684 26.5,28.123684 z M 30.5,28.123684 L 31.5,28.123684 C 31.777,28.123684 32,28.346684 32,28.623684 C 32,28.900684 31.777,29.123684 31.5,29.123684 L 30.5,29.123684 C 30.223,29.123684 30,28.900684 30,28.623684 C 30,28.346684 30.223,28.123684 30.5,28.123684 z"
       style="fill:url(#linearGradient13791);fill-opacity:1;fill-rule:nonzero;stroke:none;stroke-width:1.00000012;stroke-linecap:round;stroke-linejoin:round;marker:none;marker-start:none;marker-mid:none;marker-end:none;stroke-miterlimit:4;stroke-dashoffset:0;stroke-opacity:1;visibility:visible;display:inline;overflow:visible;enable-background:accumulate" />
  </g>
</svg>
