<?xml version="1.0" encoding="UTF-8" standalone="no"?>
<!-- Created with Inkscape (http://www.inkscape.org/) -->
<svg
   xmlns:dc="http://purl.org/dc/elements/1.1/"
   xmlns:cc="http://creativecommons.org/ns#"
   xmlns:rdf="http://www.w3.org/1999/02/22-rdf-syntax-ns#"
   xmlns:svg="http://www.w3.org/2000/svg"
   xmlns="http://www.w3.org/2000/svg"
   xmlns:xlink="http://www.w3.org/1999/xlink"
   xmlns:sodipodi="http://sodipodi.sourceforge.net/DTD/sodipodi-0.dtd"
   xmlns:inkscape="http://www.inkscape.org/namespaces/inkscape"
   inkscape:export-ydpi="90.000000"
   inkscape:export-xdpi="90.000000"
   inkscape:export-filename="/home/jonieno/Desktop/icon.png"
   width="48"
   height="48"
   id="svg11300"
   sodipodi:version="0.32"
   inkscape:version="0.46"
   sodipodi:docname="emblem-system.svg"
   inkscape:output_extension="org.inkscape.output.svg.inkscape"
   version="1.0"
   style="display:inline;enable-background:new">
  <title
     id="title4119">Human-Palette Icon Theme</title>
  <defs
     id="defs3">
    <linearGradient
       id="linearGradient4299">
      <stop
         id="stop4301"
         offset="0"
         style="stop-color:#ffffff;stop-opacity:1;" />
      <stop
         id="stop4303"
         offset="1"
         style="stop-color:#b4b4b4;stop-opacity:1;" />
    </linearGradient>
    <linearGradient
       inkscape:collect="always"
       xlink:href="#linearGradient4299"
       id="linearGradient6117"
       gradientUnits="userSpaceOnUse"
       x1="106.28699"
       y1="31.517946"
       x2="106.28699"
       y2="52.662243" />
    <linearGradient
       inkscape:collect="always"
       xlink:href="#linearGradient4299"
       id="linearGradient6055"
       gradientUnits="userSpaceOnUse"
       gradientTransform="matrix(1.0666666,0,0,1.0333333,-6.9333318,-6.4999995)"
       x1="28.997898"
       y1="15"
       x2="28.997898"
       y2="45" />
    <filter
       inkscape:collect="always"
       id="filter6838">
      <feGaussianBlur
         inkscape:collect="always"
         stdDeviation="0.59954473"
         id="feGaussianBlur6840" />
    </filter>
  </defs>
  <sodipodi:namedview
     stroke="#ef2929"
     fill="#f57900"
     id="base"
     pagecolor="#ffffff"
     bordercolor="#666666"
     borderopacity="0.25490196"
     inkscape:pageopacity="0.0"
     inkscape:pageshadow="2"
     inkscape:zoom="1"
     inkscape:cx="29.774987"
     inkscape:cy="29.412695"
     inkscape:current-layer="svg11300"
     showgrid="false"
     inkscape:grid-bbox="true"
     inkscape:document-units="px"
     inkscape:showpageshadow="false"
     inkscape:window-width="1280"
     inkscape:window-height="950"
     inkscape:window-x="0"
     inkscape:window-y="24"
     width="400px"
     height="300px"
     inkscape:snap-nodes="false"
     inkscape:snap-bbox="true"
     objecttolerance="7"
     gridtolerance="12"
     guidetolerance="13"
     showguides="true"
     inkscape:guide-bbox="true">
    <inkscape:grid
       type="xygrid"
       id="grid5883"
       spacingx="1px"
       spacingy="1px"
       enabled="true"
       visible="true"
       empspacing="5" />
  </sodipodi:namedview>
  <metadata
     id="metadata4">
    <rdf:RDF>
      <cc:Work
         rdf:about="">
        <dc:format>image/svg+xml</dc:format>
        <dc:type
           rdf:resource="http://purl.org/dc/dcmitype/StillImage" />
        <dc:creator>
          <cc:Agent>
            <dc:title>Jonian Guveli</dc:title>
          </cc:Agent>
        </dc:creator>
        <dc:source />
        <cc:license
           rdf:resource="http://creativecommons.org/licenses/by-nc/3.0/" />
        <dc:title>Folder</dc:title>
        <dc:subject>
          <rdf:Bag />
        </dc:subject>
        <dc:date />
        <dc:rights>
          <cc:Agent>
            <dc:title />
          </cc:Agent>
        </dc:rights>
        <dc:publisher>
          <cc:Agent>
            <dc:title>Jonian Guveli</dc:title>
          </cc:Agent>
        </dc:publisher>
        <dc:identifier />
        <dc:relation />
        <dc:language />
        <dc:coverage />
        <dc:description />
        <dc:contributor>
          <cc:Agent>
            <dc:title>Olibia Tsati</dc:title>
          </cc:Agent>
        </dc:contributor>
      </cc:Work>
      <cc:License
         rdf:about="http://creativecommons.org/licenses/by-nc/3.0/">
        <cc:permits
           rdf:resource="http://creativecommons.org/ns#Reproduction" />
        <cc:permits
           rdf:resource="http://creativecommons.org/ns#Distribution" />
        <cc:requires
           rdf:resource="http://creativecommons.org/ns#Notice" />
        <cc:requires
           rdf:resource="http://creativecommons.org/ns#Attribution" />
        <cc:prohibits
           rdf:resource="http://creativecommons.org/ns#CommercialUse" />
        <cc:permits
           rdf:resource="http://creativecommons.org/ns#DerivativeWorks" />
      </cc:License>
    </rdf:RDF>
  </metadata>
  <g
     id="g6842">
    <path
       transform="matrix(2.3019215,0,0,2.3528485,-220.6643,-75.031615)"
       d="M 116.49584,42.090096 A 10.208854,9.9878836 0 1 1 96.078134,42.090096 A 10.208854,9.9878836 0 1 1 116.49584,42.090096 z"
       sodipodi:ry="9.9878836"
       sodipodi:rx="10.208854"
       sodipodi:cy="42.090096"
       sodipodi:cx="106.28699"
       id="path6267"
       style="opacity:0.8;fill:#464646;fill-opacity:1;stroke:#333333;stroke-width:0.42970949;stroke-linecap:round;stroke-linejoin:miter;stroke-miterlimit:4;stroke-dasharray:none;stroke-dashoffset:0;stroke-opacity:1"
       sodipodi:type="arc" />
    <path
       transform="matrix(2.2037686,0,0,2.2525242,-210.23193,-70.808959)"
       d="M 116.49584,42.090096 A 10.208854,9.9878836 0 1 1 96.078134,42.090096 A 10.208854,9.9878836 0 1 1 116.49584,42.090096 z"
       sodipodi:ry="9.9878836"
       sodipodi:rx="10.208854"
       sodipodi:cy="42.090096"
       sodipodi:cx="106.28699"
       id="path10234"
       style="opacity:0.4;fill:none;fill-opacity:1;stroke:url(#linearGradient6117);stroke-width:0.4488304;stroke-linecap:round;stroke-linejoin:miter;stroke-miterlimit:4;stroke-dasharray:none;stroke-dashoffset:0;stroke-opacity:1;display:inline;enable-background:new"
       sodipodi:type="arc" />
    <path
       transform="matrix(1.0666666,0,0,1.0333333,-6.9333318,-5.4666662)"
       d="M 42.978396,25.628805 L 41.795008,25.628805 C 41.475619,25.628805 41.106319,25.36342 41.004774,25.06121 C 40.999116,25.045498 40.270348,23.284042 40.270348,23.284042 C 40.120365,22.982814 40.192896,22.53527 40.418608,22.309656 L 41.255316,21.474223 C 41.44759,21.281996 41.553808,21.025696 41.553808,20.752455 C 41.553808,20.479214 41.44759,20.222913 41.255316,20.030933 L 37.960863,16.74149 C 37.768588,16.54951 37.511899,16.443699 37.238239,16.443453 C 36.964588,16.443453 36.70789,16.549264 36.515616,16.74149 L 35.678916,17.576924 C 35.453205,17.802046 35.00473,17.874714 34.719268,17.732325 C 34.70329,17.724959 32.939145,16.997545 32.939145,16.997545 C 32.620494,16.890262 32.35471,16.521523 32.35471,16.202619 L 32.35471,15.020786 C 32.353974,14.457857 31.895419,14 31.331874,14 L 26.67307,14 C 26.109285,14 25.65073,14.457857 25.65073,15.020786 L 25.65073,16.202619 C 25.65073,16.521523 25.38494,16.890262 25.082274,16.991653 C 25.066536,16.997545 23.3024,17.724959 23.3024,17.724959 C 23.000711,17.874714 22.552236,17.802046 22.326525,17.576678 L 21.489816,16.74149 C 21.297303,16.549264 21.040614,16.443453 20.766954,16.443453 C 20.493294,16.443453 20.236605,16.54951 20.044331,16.74149 L 16.749629,20.030933 C 16.351074,20.428886 16.351074,21.076268 16.749629,21.474223 L 17.586336,22.309656 C 17.811809,22.535024 17.88458,22.982814 17.741976,23.26784 C 17.734596,23.283797 17.005829,25.045252 17.005829,25.045252 C 16.898385,25.36342 16.529325,25.628559 16.209936,25.628559 L 15.333156,25.628559 C 14.769611,25.628805 14.004209,26.08666 14.004209,26.64959 L 14.004209,31.301063 C 14.004209,31.863992 14.462764,32.321848 15.026556,32.321848 L 16.210185,32.321848 C 16.529574,32.321848 16.898874,32.586987 17.00018,32.889441 C 17.006076,32.905154 17.734845,34.66661 17.734845,34.66661 C 17.884829,34.967838 17.812049,35.415382 17.586585,35.640997 L 16.749876,36.47643 C 16.351314,36.874384 16.351314,37.521766 16.749876,37.91972 L 20.04458,41.209161 C 20.236854,41.401145 20.493544,41.507202 20.767194,41.507202 C 21.041103,41.507202 21.297791,41.401145 21.490065,41.209161 L 22.326774,40.373732 C 22.552485,40.148611 23.00096,40.075937 23.286414,40.218329 C 23.3024,40.225695 25.066536,40.953355 25.066536,40.953355 C 25.38494,41.060636 25.65073,41.429134 25.65073,41.748037 L 25.65073,42.929625 C 25.65073,43.492553 26.109285,43.950408 26.67307,43.950408 L 31.331634,43.950408 C 31.89517,43.950408 32.353725,43.492553 32.353725,42.929625 L 32.353725,41.748037 C 32.353725,41.429134 32.619516,41.06039 32.92243,40.959 C 32.938169,40.953355 34.702305,40.225695 34.702305,40.225695 C 35.003994,40.075937 35.452708,40.148365 35.678179,40.373732 L 36.514879,41.209161 C 36.707154,41.401145 36.96385,41.507202 37.237503,41.507202 C 37.511163,41.507202 37.76785,41.401145 37.960125,41.209161 L 41.254579,37.91972 C 41.446854,37.727739 41.55307,37.471438 41.55307,37.198197 C 41.55307,36.924957 41.446854,36.668657 41.254579,36.476676 L 40.41787,35.641242 C 40.192159,35.415873 40.119628,34.968082 40.262239,34.683059 C 40.26961,34.667101 40.998379,32.905645 40.998379,32.905645 C 41.105823,32.587724 41.474883,32.322339 41.79427,32.322339 L 42.977659,32.322339 C 43.541444,32.322339 43.999999,31.864483 43.999999,31.301553 L 43.999999,26.64959 C 44.000736,26.08666 43.542183,25.628805 42.978396,25.628805 z M 29.002476,33.318574 C 26.603985,33.318574 24.652485,31.370294 24.652485,28.975449 C 24.652485,26.580605 26.603985,24.632078 29.002476,24.632078 C 31.401209,24.632078 33.352219,26.580605 33.352219,28.975449 C 33.352219,31.370538 31.401209,33.318574 29.002476,33.318574 z"
       id="path6"
       style="fill:#000000;fill-opacity:1;stroke:none;stroke-width:2.66666675000000009;stroke-miterlimit:4;stroke-dasharray:none;filter:url(#filter6838)" />
    <path
       d="M 38.905802,21.036219 L 37.643521,21.036219 C 37.30284,21.036219 36.908913,20.76148 36.800605,20.44869 C 36.79457,20.432453 36.017217,18.609492 36.017217,18.609492 C 35.857236,18.297716 35.934602,17.834492 36.175361,17.601106 L 37.06785,16.736301 C 37.272945,16.537413 37.386241,16.272062 37.386241,15.989205 C 37.386241,15.706604 37.272945,15.441252 37.06785,15.242365 L 33.553766,11.837695 C 33.348673,11.638806 33.074872,11.529215 32.782968,11.529215 C 32.491064,11.529215 32.217265,11.638806 32.01217,11.837695 L 31.119681,12.702242 C 30.878922,12.935376 30.400561,13.010466 30.096065,12.863076 C 30.079014,12.855467 28.197268,12.102538 28.197268,12.102538 C 27.857373,11.991424 27.573862,11.609886 27.573862,11.279846 L 27.573862,10.05659 C 27.573076,9.473878 27.08396,9 26.482845,9 L 21.513455,9 C 20.912084,9 20.422959,9.473878 20.422959,10.05659 L 20.422959,11.279846 C 20.422959,11.609886 20.139448,11.991677 19.816605,12.096448 C 19.799819,12.102538 17.918063,12.855467 17.918063,12.855467 C 17.596271,13.010466 17.117899,12.935376 16.87714,12.702242 L 15.984651,11.837695 C 15.779302,11.638806 15.505492,11.529215 15.213597,11.529215 C 14.921693,11.529215 14.647892,11.639059 14.4428,11.837695 L 10.92845,15.242365 C 10.503316,15.654346 10.503316,16.324575 10.92845,16.736301 L 11.820939,17.601106 C 12.061433,17.834239 12.139065,18.297716 11.986955,18.593003 C 11.979083,18.609492 11.20173,20.432707 11.20173,20.432707 C 11.087124,20.761989 10.69346,21.036472 10.352779,21.036472 L 9.417547,21.036472 C 8.816432,21.036219 8.000002,21.510098 8.000002,22.092806 L 8.000002,26.907445 C 8.000002,27.4899 8.489127,27.96378 9.090498,27.96378 L 10.353044,27.96378 C 10.693725,27.96378 11.087645,28.238264 11.195696,28.551307 C 11.201995,28.567543 11.979348,30.390506 11.979348,30.390506 C 12.13933,30.702281 12.061698,31.165761 11.821195,31.399147 L 10.928715,32.263951 C 10.503581,32.675677 10.503581,33.346159 10.928715,33.757886 L 14.443056,37.162564 C 14.648148,37.361449 14.921958,37.471036 15.213853,37.471036 C 15.506022,37.471036 15.779823,37.361449 15.984916,37.162564 L 16.877405,36.298011 C 17.118164,36.064876 17.596527,35.989529 17.901021,36.137177 C 17.918063,36.144533 19.799819,36.897717 19.799819,36.897717 C 20.139448,37.008829 20.422959,37.390115 20.422959,37.72041 L 20.422959,38.943409 C 20.422959,39.52612 20.912084,40 21.513455,40 L 26.48258,40 C 27.083697,40 27.57282,39.52612 27.57282,38.943409 L 27.57282,37.72041 C 27.57282,37.390115 27.856321,37.008575 28.179441,36.903548 C 28.196216,36.897717 30.077972,36.144533 30.077972,36.144533 C 30.399764,35.989529 30.878401,36.064876 31.118897,36.29776 L 32.011384,37.162307 C 32.216477,37.361197 32.490278,37.470782 32.782182,37.470782 C 33.074086,37.470782 33.347889,37.361197 33.55298,37.162307 L 37.067064,33.757633 C 37.272157,33.558999 37.385457,33.293649 37.385457,33.01079 C 37.385457,32.727936 37.272157,32.462584 37.067064,32.263951 L 36.174577,31.399147 C 35.933816,31.166013 35.856449,30.702281 36.008561,30.407501 C 36.016433,30.390759 36.793784,28.567797 36.793784,28.567797 C 36.90839,28.238264 37.302054,27.96378 37.642737,27.96378 L 38.905016,27.96378 C 39.506388,27.96378 39.995512,27.4899 39.995512,26.907445 L 39.995512,22.092806 C 39.996298,21.510098 39.507174,21.036219 38.905802,21.036219 z M 23.998146,29.34305 C 21.222603,29.34305 18.964765,27.159098 18.964765,24.474631 C 18.964765,21.789909 21.222603,19.605958 23.998146,19.605958 C 26.773432,19.605958 29.03127,21.789909 29.03127,24.474631 C 29.03127,27.159098 26.773432,29.34305 23.998146,29.34305 z"
       id="path8"
       style="fill:url(#linearGradient6055);fill-opacity:1;stroke:none;stroke-width:2.66551136999999994;stroke-linecap:round;stroke-linejoin:round;stroke-miterlimit:4;stroke-dasharray:none;stroke-opacity:1" />
  </g>
</svg>
