<?xml version="1.0" encoding="UTF-8" standalone="no"?>
<!-- Created with Inkscape (http://www.inkscape.org/) -->
<svg
   xmlns:dc="http://purl.org/dc/elements/1.1/"
   xmlns:cc="http://creativecommons.org/ns#"
   xmlns:rdf="http://www.w3.org/1999/02/22-rdf-syntax-ns#"
   xmlns:svg="http://www.w3.org/2000/svg"
   xmlns="http://www.w3.org/2000/svg"
   xmlns:xlink="http://www.w3.org/1999/xlink"
   xmlns:sodipodi="http://sodipodi.sourceforge.net/DTD/sodipodi-0.dtd"
   xmlns:inkscape="http://www.inkscape.org/namespaces/inkscape"
   inkscape:export-ydpi="90.000000"
   inkscape:export-xdpi="90.000000"
   inkscape:export-filename="/home/jonieno/Desktop/icon.png"
   width="48"
   height="48"
   id="svg11300"
   sodipodi:version="0.32"
   inkscape:version="0.46"
   sodipodi:docname="emblem-camera.svg"
   inkscape:output_extension="org.inkscape.output.svg.inkscape"
   version="1.0"
   style="display:inline;enable-background:new">
  <title
     id="title4119">Human-Palette Icon Theme</title>
  <defs
     id="defs3">
    <linearGradient
       id="linearGradient4299">
      <stop
         id="stop4301"
         offset="0"
         style="stop-color:#ffffff;stop-opacity:1;" />
      <stop
         id="stop4303"
         offset="1"
         style="stop-color:#b4b4b4;stop-opacity:1;" />
    </linearGradient>
    <filter
       inkscape:collect="always"
       id="filter7147">
      <feGaussianBlur
         inkscape:collect="always"
         stdDeviation="0.57"
         id="feGaussianBlur7149" />
    </filter>
    <linearGradient
       inkscape:collect="always"
       xlink:href="#linearGradient4299"
       id="linearGradient7248"
       gradientUnits="userSpaceOnUse"
       x1="106.28699"
       y1="31.517946"
       x2="106.28699"
       y2="52.662243" />
    <linearGradient
       inkscape:collect="always"
       xlink:href="#linearGradient4299"
       id="linearGradient7250"
       gradientUnits="userSpaceOnUse"
       x1="30"
       y1="16"
       x2="29.9375"
       y2="41" />
  </defs>
  <sodipodi:namedview
     stroke="#ef2929"
     fill="#f57900"
     id="base"
     pagecolor="#ffffff"
     bordercolor="#666666"
     borderopacity="0.25490196"
     inkscape:pageopacity="0.0"
     inkscape:pageshadow="2"
     inkscape:zoom="1"
     inkscape:cx="139.41242"
     inkscape:cy="16.995292"
     inkscape:current-layer="svg11300"
     showgrid="false"
     inkscape:grid-bbox="true"
     inkscape:document-units="px"
     inkscape:showpageshadow="false"
     inkscape:window-width="1280"
     inkscape:window-height="949"
     inkscape:window-x="0"
     inkscape:window-y="24"
     width="400px"
     height="300px"
     inkscape:snap-nodes="false"
     inkscape:snap-bbox="true"
     objecttolerance="7"
     gridtolerance="12"
     guidetolerance="13"
     showguides="false"
     inkscape:guide-bbox="true">
    <inkscape:grid
       type="xygrid"
       id="grid5883"
       spacingx="1px"
       spacingy="1px"
       enabled="true"
       visible="true"
       empspacing="5" />
  </sodipodi:namedview>
  <metadata
     id="metadata4">
    <rdf:RDF>
      <cc:Work
         rdf:about="">
        <dc:format>image/svg+xml</dc:format>
        <dc:type
           rdf:resource="http://purl.org/dc/dcmitype/StillImage" />
        <dc:creator>
          <cc:Agent>
            <dc:title>Jonian Guveli</dc:title>
          </cc:Agent>
        </dc:creator>
        <dc:source />
        <cc:license
           rdf:resource="http://creativecommons.org/licenses/by-nc/3.0/" />
        <dc:title>Folder</dc:title>
        <dc:subject>
          <rdf:Bag />
        </dc:subject>
        <dc:date />
        <dc:rights>
          <cc:Agent>
            <dc:title />
          </cc:Agent>
        </dc:rights>
        <dc:publisher>
          <cc:Agent>
            <dc:title>Jonian Guveli</dc:title>
          </cc:Agent>
        </dc:publisher>
        <dc:identifier />
        <dc:relation />
        <dc:language />
        <dc:coverage />
        <dc:description />
        <dc:contributor>
          <cc:Agent>
            <dc:title>Olibia Tsati</dc:title>
          </cc:Agent>
        </dc:contributor>
      </cc:Work>
      <cc:License
         rdf:about="http://creativecommons.org/licenses/by-nc/3.0/">
        <cc:permits
           rdf:resource="http://creativecommons.org/ns#Reproduction" />
        <cc:permits
           rdf:resource="http://creativecommons.org/ns#Distribution" />
        <cc:requires
           rdf:resource="http://creativecommons.org/ns#Notice" />
        <cc:requires
           rdf:resource="http://creativecommons.org/ns#Attribution" />
        <cc:prohibits
           rdf:resource="http://creativecommons.org/ns#CommercialUse" />
        <cc:permits
           rdf:resource="http://creativecommons.org/ns#DerivativeWorks" />
      </cc:License>
    </rdf:RDF>
  </metadata>
  <g
     id="g7222"
     transform="translate(-5,-5)">
    <path
       transform="matrix(2.3019215,0,0,2.3528485,-215.6643,-70.031615)"
       d="M 116.49584,42.090096 A 10.208854,9.9878836 0 1 1 96.078134,42.090096 A 10.208854,9.9878836 0 1 1 116.49584,42.090096 z"
       sodipodi:ry="9.9878836"
       sodipodi:rx="10.208854"
       sodipodi:cy="42.090096"
       sodipodi:cx="106.28699"
       id="path6267"
       style="opacity:0.8;fill:#464646;fill-opacity:1;stroke:#333333;stroke-width:0.42970949;stroke-linecap:round;stroke-linejoin:miter;stroke-miterlimit:4;stroke-dasharray:none;stroke-dashoffset:0;stroke-opacity:1"
       sodipodi:type="arc" />
    <path
       transform="matrix(2.2037686,0,0,2.2525242,-205.23193,-65.808959)"
       d="M 116.49584,42.090096 A 10.208854,9.9878836 0 1 1 96.078134,42.090096 A 10.208854,9.9878836 0 1 1 116.49584,42.090096 z"
       sodipodi:ry="9.9878836"
       sodipodi:rx="10.208854"
       sodipodi:cy="42.090096"
       sodipodi:cx="106.28699"
       id="path10234"
       style="opacity:0.4;fill:none;fill-opacity:1;stroke:url(#linearGradient7248);stroke-width:0.4488304;stroke-linecap:round;stroke-linejoin:miter;stroke-miterlimit:4;stroke-dasharray:none;stroke-dashoffset:0;stroke-opacity:1;display:inline;enable-background:new"
       sodipodi:type="arc" />
    <path
       id="path7123"
       d="M 17,16 C 16.446,16 16,16.446 16,17 L 16,19 L 15,19 C 13.892,19 13,19.892 13,21 L 13,39 C 13,40.108 13.892,41 15,41 L 43,41 C 44.108,41 45,40.108 45,39 L 45,21 C 45,19.892 44.108,19 43,19 L 26,19 L 26,17 C 26,16.446 25.554,16 25,16 L 17,16 z M 17,17 L 25,17 L 25,19 L 25,21 L 17,21 L 17,19 L 17,17 z M 29,24 C 32.864,23.999999 36,27.136 36,31 C 36,34.863999 32.864,38 29,38 C 25.136,37.999999 22,34.864 22,31 C 22,27.135999 25.136,24 29,24 z"
       style="fill:#000000;fill-opacity:1;stroke:none;stroke-width:1;stroke-linecap:round;stroke-linejoin:miter;stroke-miterlimit:4;stroke-dasharray:none;stroke-dashoffset:0;stroke-opacity:1;display:inline;filter:url(#filter7147);enable-background:new" />
    <path
       id="rect6079"
       d="M 17,16 C 16.446,16 16,16.446 16,17 L 16,19 L 15,19 C 13.892,19 13,19.892 13,21 L 13,39 C 13,40.108 13.892,41 15,41 L 43,41 C 44.108,41 45,40.108 45,39 L 45,21 C 45,19.892 44.108,19 43,19 L 26,19 L 26,17 C 26,16.446 25.554,16 25,16 L 17,16 z M 17,17 L 25,17 L 25,19 L 25,21 L 17,21 L 17,19 L 17,17 z M 29,24 C 32.864,23.999999 36,27.136 36,31 C 36,34.863999 32.864,38 29,38 C 25.136,37.999999 22,34.864 22,31 C 22,27.135999 25.136,24 29,24 z"
       style="fill:url(#linearGradient7250);fill-opacity:1;stroke:none;stroke-width:1;stroke-linecap:round;stroke-linejoin:miter;stroke-miterlimit:4;stroke-dasharray:none;stroke-dashoffset:0;stroke-opacity:1" />
  </g>
</svg>
