<?xml version="1.0" encoding="UTF-8" standalone="no"?>
<!-- Created with Inkscape (http://www.inkscape.org/) -->
<svg
   xmlns:dc="http://purl.org/dc/elements/1.1/"
   xmlns:cc="http://creativecommons.org/ns#"
   xmlns:rdf="http://www.w3.org/1999/02/22-rdf-syntax-ns#"
   xmlns:svg="http://www.w3.org/2000/svg"
   xmlns="http://www.w3.org/2000/svg"
   xmlns:xlink="http://www.w3.org/1999/xlink"
   xmlns:sodipodi="http://sodipodi.sourceforge.net/DTD/sodipodi-0.dtd"
   xmlns:inkscape="http://www.inkscape.org/namespaces/inkscape"
   inkscape:export-ydpi="90.000000"
   inkscape:export-xdpi="90.000000"
   inkscape:export-filename="/home/jonieno/Desktop/icon.png"
   width="48"
   height="48"
   id="svg11300"
   sodipodi:version="0.32"
   inkscape:version="0.46"
   sodipodi:docname="emblem-cool.svg"
   inkscape:output_extension="org.inkscape.output.svg.inkscape"
   version="1.0"
   style="display:inline;enable-background:new">
  <title
     id="title4119">Human-Palette Icon Theme</title>
  <defs
     id="defs3">
    <linearGradient
       id="linearGradient4299">
      <stop
         id="stop4301"
         offset="0"
         style="stop-color:#ffffff;stop-opacity:1;" />
      <stop
         id="stop4303"
         offset="1"
         style="stop-color:#b4b4b4;stop-opacity:1;" />
    </linearGradient>
    <filter
       inkscape:collect="always"
       id="filter8144">
      <feGaussianBlur
         inkscape:collect="always"
         stdDeviation="0.6"
         id="feGaussianBlur8146" />
    </filter>
    <linearGradient
       inkscape:collect="always"
       xlink:href="#linearGradient4299"
       id="linearGradient8311"
       gradientUnits="userSpaceOnUse"
       x1="106.28699"
       y1="31.517946"
       x2="106.28699"
       y2="52.662243" />
    <linearGradient
       inkscape:collect="always"
       xlink:href="#linearGradient4299"
       id="linearGradient8313"
       gradientUnits="userSpaceOnUse"
       x1="29"
       y1="14"
       x2="29"
       y2="44" />
  </defs>
  <sodipodi:namedview
     stroke="#ef2929"
     fill="#f57900"
     id="base"
     pagecolor="#ffffff"
     bordercolor="#666666"
     borderopacity="0.25490196"
     inkscape:pageopacity="0.0"
     inkscape:pageshadow="2"
     inkscape:zoom="1"
     inkscape:cx="134.35408"
     inkscape:cy="13.529165"
     inkscape:current-layer="svg11300"
     showgrid="false"
     inkscape:grid-bbox="true"
     inkscape:document-units="px"
     inkscape:showpageshadow="false"
     inkscape:window-width="1280"
     inkscape:window-height="949"
     inkscape:window-x="0"
     inkscape:window-y="24"
     width="400px"
     height="300px"
     inkscape:snap-nodes="false"
     inkscape:snap-bbox="true"
     objecttolerance="7"
     gridtolerance="12"
     guidetolerance="13"
     showguides="true"
     inkscape:guide-bbox="true">
    <inkscape:grid
       type="xygrid"
       id="grid5883"
       spacingx="1px"
       spacingy="1px"
       enabled="true"
       visible="true"
       empspacing="5" />
  </sodipodi:namedview>
  <metadata
     id="metadata4">
    <rdf:RDF>
      <cc:Work
         rdf:about="">
        <dc:format>image/svg+xml</dc:format>
        <dc:type
           rdf:resource="http://purl.org/dc/dcmitype/StillImage" />
        <dc:creator>
          <cc:Agent>
            <dc:title>Jonian Guveli</dc:title>
          </cc:Agent>
        </dc:creator>
        <dc:source />
        <cc:license
           rdf:resource="http://creativecommons.org/licenses/by-nc/3.0/" />
        <dc:title>Folder</dc:title>
        <dc:subject>
          <rdf:Bag />
        </dc:subject>
        <dc:date />
        <dc:rights>
          <cc:Agent>
            <dc:title />
          </cc:Agent>
        </dc:rights>
        <dc:publisher>
          <cc:Agent>
            <dc:title>Jonian Guveli</dc:title>
          </cc:Agent>
        </dc:publisher>
        <dc:identifier />
        <dc:relation />
        <dc:language />
        <dc:coverage />
        <dc:description />
        <dc:contributor>
          <cc:Agent>
            <dc:title>Olibia Tsati</dc:title>
          </cc:Agent>
        </dc:contributor>
      </cc:Work>
      <cc:License
         rdf:about="http://creativecommons.org/licenses/by-nc/3.0/">
        <cc:permits
           rdf:resource="http://creativecommons.org/ns#Reproduction" />
        <cc:permits
           rdf:resource="http://creativecommons.org/ns#Distribution" />
        <cc:requires
           rdf:resource="http://creativecommons.org/ns#Notice" />
        <cc:requires
           rdf:resource="http://creativecommons.org/ns#Attribution" />
        <cc:prohibits
           rdf:resource="http://creativecommons.org/ns#CommercialUse" />
        <cc:permits
           rdf:resource="http://creativecommons.org/ns#DerivativeWorks" />
      </cc:License>
    </rdf:RDF>
  </metadata>
  <g
     id="g8274"
     transform="translate(-5,-5)">
    <path
       transform="matrix(2.3019215,0,0,2.3528485,-215.6643,-70.031615)"
       d="M 116.49584,42.090096 A 10.208854,9.9878836 0 1 1 96.078134,42.090096 A 10.208854,9.9878836 0 1 1 116.49584,42.090096 z"
       sodipodi:ry="9.9878836"
       sodipodi:rx="10.208854"
       sodipodi:cy="42.090096"
       sodipodi:cx="106.28699"
       id="path6267"
       style="opacity:0.8;fill:#464646;fill-opacity:1;stroke:#333333;stroke-width:0.42970949;stroke-linecap:round;stroke-linejoin:miter;stroke-miterlimit:4;stroke-dasharray:none;stroke-dashoffset:0;stroke-opacity:1"
       sodipodi:type="arc" />
    <path
       transform="matrix(2.2037686,0,0,2.2525242,-205.23193,-65.808959)"
       d="M 116.49584,42.090096 A 10.208854,9.9878836 0 1 1 96.078134,42.090096 A 10.208854,9.9878836 0 1 1 116.49584,42.090096 z"
       sodipodi:ry="9.9878836"
       sodipodi:rx="10.208854"
       sodipodi:cy="42.090096"
       sodipodi:cx="106.28699"
       id="path10234"
       style="opacity:0.4;fill:none;fill-opacity:1;stroke:url(#linearGradient8311);stroke-width:0.4488304;stroke-linecap:round;stroke-linejoin:miter;stroke-miterlimit:4;stroke-dasharray:none;stroke-dashoffset:0;stroke-opacity:1;display:inline;enable-background:new"
       sodipodi:type="arc" />
    <path
       id="path8116"
       d="M 29,14 C 20.72,14 14,20.720001 14,29 C 14,37.28 20.719999,44.000001 29,44 C 37.28,44 44,37.280001 44,29 C 44,20.72 37.28,14 29,14 z M 17.28125,22 C 18.452206,22 19.859816,22.78125 22.25,22.78125 C 24.373512,22.781249 25.71875,22.78125 25.71875,22.78125 C 26.553194,22.781249 28,23.463791 28,24.3125 L 28,26.4375 C 28,27.854512 25.101002,28.999999 21.5,29 C 17.899001,29 15,27.847223 15,25.125 L 15,24.3125 C 15,22.39236 16.448007,22 17.28125,22 z M 40.71875,22 C 41.551995,22 43,22.39236 43,24.3125 L 43,25.125 C 43,27.847223 40.101,29 36.5,29 C 32.899001,28.999999 30,27.854512 30,26.4375 L 30,24.3125 C 30,23.463791 31.446803,22.781249 32.28125,22.78125 C 32.28125,22.78125 33.626488,22.781249 35.75,22.78125 C 38.140184,22.78125 39.547796,22 40.71875,22 z"
       style="fill:#000000;fill-opacity:1;stroke:none;stroke-width:0.46570092;stroke-linecap:round;stroke-linejoin:miter;stroke-miterlimit:4;stroke-dasharray:none;stroke-dashoffset:0;stroke-opacity:1;display:inline;filter:url(#filter8144);enable-background:new" />
    <path
       id="path2484"
       d="M 29,14 C 20.72,14 14,20.720001 14,29 C 14,37.28 20.719999,44.000001 29,44 C 37.28,44 44,37.280001 44,29 C 44,20.72 37.28,14 29,14 z M 17.28125,22 C 18.452206,22 19.859816,22.78125 22.25,22.78125 C 24.373512,22.781249 25.71875,22.78125 25.71875,22.78125 C 26.553194,22.781249 28,23.463791 28,24.3125 L 28,26.4375 C 28,27.854512 25.101002,28.999999 21.5,29 C 17.899001,29 15,27.847223 15,25.125 L 15,24.3125 C 15,22.39236 16.448007,22 17.28125,22 z M 40.71875,22 C 41.551995,22 43,22.39236 43,24.3125 L 43,25.125 C 43,27.847223 40.101,29 36.5,29 C 32.899001,28.999999 30,27.854512 30,26.4375 L 30,24.3125 C 30,23.463791 31.446803,22.781249 32.28125,22.78125 C 32.28125,22.78125 33.626488,22.781249 35.75,22.78125 C 38.140184,22.78125 39.547796,22 40.71875,22 z"
       style="fill:url(#linearGradient8313);fill-opacity:1;stroke:none;stroke-width:0.46570092;stroke-linecap:round;stroke-linejoin:miter;stroke-miterlimit:4;stroke-dasharray:none;stroke-dashoffset:0;stroke-opacity:1;display:inline" />
    <path
       inkscape:export-ydpi="90"
       inkscape:export-xdpi="90"
       inkscape:export-filename="/home/lapo/Desktop/something-along-the-lines.png"
       sodipodi:nodetypes="czc"
       id="path6456"
       d="M 19.502528,31.502528 C 19.502528,33.381355 20.233108,34.508652 28.999999,34.508652 C 37.766909,34.508652 38.497471,33.381355 38.497471,31.502528"
       style="fill:none;fill-rule:evenodd;stroke:#464646;stroke-width:1;stroke-linecap:round;stroke-linejoin:miter;stroke-miterlimit:4;stroke-dasharray:none;stroke-opacity:1;display:inline" />
    <path
       sodipodi:nodetypes="cc"
       id="path7259"
       d="M 26.5,23.5 C 28.480497,21.925003 30.07118,22.429015 31.555556,23.5"
       style="fill:none;fill-rule:evenodd;stroke:#464646;stroke-width:1;stroke-linecap:round;stroke-linejoin:miter;stroke-miterlimit:4;stroke-dasharray:none;stroke-opacity:1" />
  </g>
  <g
     id="g7610"
     transform="translate(-112,49.99955)" />
  <g
     id="g8034"
     transform="translate(-187.29465,22.345647)" />
</svg>
