<?xml version="1.0" encoding="UTF-8" standalone="no"?>
<!-- Created with Inkscape (http://www.inkscape.org/) -->
<svg
   xmlns:dc="http://purl.org/dc/elements/1.1/"
   xmlns:cc="http://creativecommons.org/ns#"
   xmlns:rdf="http://www.w3.org/1999/02/22-rdf-syntax-ns#"
   xmlns:svg="http://www.w3.org/2000/svg"
   xmlns="http://www.w3.org/2000/svg"
   xmlns:xlink="http://www.w3.org/1999/xlink"
   xmlns:sodipodi="http://sodipodi.sourceforge.net/DTD/sodipodi-0.dtd"
   xmlns:inkscape="http://www.inkscape.org/namespaces/inkscape"
   width="48px"
   height="48px"
   id="svg10019"
   sodipodi:version="0.32"
   inkscape:version="0.46"
   sodipodi:docname="gpm-battery-100.svg"
   inkscape:output_extension="org.inkscape.output.svg.inkscape">
  <defs
     id="defs10021">
    <linearGradient
       inkscape:collect="always"
       xlink:href="#linearGradient9421"
       id="linearGradient10461"
       gradientUnits="userSpaceOnUse"
       gradientTransform="translate(20,-1)"
       x1="718.5"
       y1="56.875"
       x2="718.5"
       y2="110.92456" />
    <linearGradient
       inkscape:collect="always"
       id="linearGradient9790">
      <stop
         style="stop-color:#ffffff;stop-opacity:1;"
         offset="0"
         id="stop9792" />
      <stop
         style="stop-color:#ffffff;stop-opacity:0;"
         offset="1"
         id="stop9794" />
    </linearGradient>
    <linearGradient
       inkscape:collect="always"
       xlink:href="#linearGradient9790"
       id="linearGradient10459"
       gradientUnits="userSpaceOnUse"
       gradientTransform="translate(20,0)"
       x1="721.5"
       y1="96.112701"
       x2="721.5"
       y2="66.731041" />
    <filter
       inkscape:collect="always"
       id="filter10204"
       x="-0.0288"
       width="1.0576"
       y="-0.14399999"
       height="1.288">
      <feGaussianBlur
         inkscape:collect="always"
         stdDeviation="0.3"
         id="feGaussianBlur10206" />
    </filter>
    <linearGradient
       id="linearGradient10208">
      <stop
         style="stop-color:#ffffff;stop-opacity:1;"
         offset="0"
         id="stop10210" />
      <stop
         id="stop10216"
         offset="0.56999999"
         style="stop-color:#ffffff;stop-opacity:1;" />
      <stop
         style="stop-color:#ffffff;stop-opacity:0;"
         offset="1"
         id="stop10212" />
    </linearGradient>
    <radialGradient
       inkscape:collect="always"
       xlink:href="#linearGradient10208"
       id="radialGradient10457"
       gradientUnits="userSpaceOnUse"
       gradientTransform="matrix(1,0,0,0.44,0,25.48)"
       cx="150.375"
       cy="70.5"
       fx="150.375"
       fy="70.5"
       r="12.5" />
    <filter
       inkscape:collect="always"
       id="filter8764"
       x="-0.085186221"
       width="1.1703724"
       y="-0.22538856"
       height="1.4507771">
      <feGaussianBlur
         inkscape:collect="always"
         stdDeviation="2.2538855"
         id="feGaussianBlur8766" />
    </filter>
    <linearGradient
       id="linearGradient10232"
       inkscape:collect="always">
      <stop
         id="stop10234"
         offset="0"
         style="stop-color:#888a85;stop-opacity:1;" />
      <stop
         id="stop10236"
         offset="1"
         style="stop-color:#ffffff;stop-opacity:1" />
    </linearGradient>
    <linearGradient
       inkscape:collect="always"
       xlink:href="#linearGradient10232"
       id="linearGradient10455"
       gradientUnits="userSpaceOnUse"
       x1="-96.27787"
       y1="44.305157"
       x2="-145.78146"
       y2="58.799995" />
    <linearGradient
       id="linearGradient10220">
      <stop
         style="stop-color:#d3d7cf;stop-opacity:1"
         offset="0"
         id="stop10222" />
      <stop
         id="stop10224"
         offset="0.234375"
         style="stop-color:#babdb6;stop-opacity:1" />
      <stop
         style="stop-color:#ffffff;stop-opacity:1"
         offset="0.65625"
         id="stop10226" />
      <stop
         id="stop10228"
         offset="0.90625"
         style="stop-color:#888a85;stop-opacity:1" />
      <stop
         style="stop-color:#babdb6;stop-opacity:1"
         offset="1"
         id="stop10230" />
    </linearGradient>
    <linearGradient
       inkscape:collect="always"
       xlink:href="#linearGradient10220"
       id="linearGradient10453"
       gradientUnits="userSpaceOnUse"
       x1="136"
       y1="57.5"
       x2="160"
       y2="57.5" />
    <clipPath
       clipPathUnits="userSpaceOnUse"
       id="clipPath10121">
      <path
         style="fill:#000000;fill-opacity:1;stroke:none;stroke-width:1;stroke-linecap:round;stroke-linejoin:round;stroke-miterlimit:4;stroke-dasharray:none;stroke-opacity:1;display:inline;enable-background:new"
         d="M 148,50 C 141.37599,50 136.00001,51.791999 136,54 L 136,61 C 136,63.208002 141.376,64.999999 148,65 C 154.62401,65 160,63.208004 160,61 L 160,54 C 160,51.791998 154.62401,50.000001 148,50 z"
         id="path10123"
         sodipodi:nodetypes="cccsccc" />
    </clipPath>
    <linearGradient
       inkscape:collect="always"
       id="linearGradient3461">
      <stop
         style="stop-color:#555753;stop-opacity:1;"
         offset="0"
         id="stop3463" />
      <stop
         style="stop-color:#555753;stop-opacity:0;"
         offset="1"
         id="stop3465" />
    </linearGradient>
    <linearGradient
       inkscape:collect="always"
       xlink:href="#linearGradient3461"
       id="linearGradient10451"
       gradientUnits="userSpaceOnUse"
       gradientTransform="matrix(0.2083335,0,0,0.2117117,690.66667,30.414422)"
       x1="133.44987"
       y1="57.5"
       x2="133.44987"
       y2="62.989326" />
    <linearGradient
       inkscape:collect="always"
       id="linearGradient10003">
      <stop
         style="stop-color:#000000;stop-opacity:1;"
         offset="0"
         id="stop10005" />
      <stop
         style="stop-color:#000000;stop-opacity:0;"
         offset="1"
         id="stop10007" />
    </linearGradient>
    <radialGradient
       inkscape:collect="always"
       xlink:href="#linearGradient10003"
       id="radialGradient10449"
       gradientUnits="userSpaceOnUse"
       gradientTransform="matrix(2.3577576,0,0,0.3294684,-200.94813,41.471706)"
       cx="145.72029"
       cy="45.234367"
       fx="145.72029"
       fy="45.234367"
       r="22.5" />
    <linearGradient
       inkscape:collect="always"
       id="linearGradient10070">
      <stop
         style="stop-color:#ffffff;stop-opacity:1;"
         offset="0"
         id="stop10072" />
      <stop
         style="stop-color:#ffffff;stop-opacity:0;"
         offset="1"
         id="stop10074" />
    </linearGradient>
    <radialGradient
       inkscape:collect="always"
       xlink:href="#linearGradient10070"
       id="radialGradient10447"
       gradientUnits="userSpaceOnUse"
       gradientTransform="matrix(2.1898728,3.2492379,-0.8655477,0.6307923,217.35307,464.89796)"
       cx="-135.75"
       cy="64.5"
       fx="-135.75"
       fy="64.5"
       r="31.75" />
    <linearGradient
       id="linearGradient10046">
      <stop
         id="stop10048"
         offset="0"
         style="stop-color:#ffffff;stop-opacity:1" />
      <stop
         style="stop-color:#646662;stop-opacity:1"
         offset="0.48955241"
         id="stop10052" />
      <stop
         id="stop10050"
         offset="1"
         style="stop-color:#888a85;stop-opacity:1" />
    </linearGradient>
    <radialGradient
       inkscape:collect="always"
       xlink:href="#linearGradient10046"
       id="radialGradient10445"
       gradientUnits="userSpaceOnUse"
       gradientTransform="matrix(3.0690681,3.4161504,-1.5731131,2.0179088,365.94499,414.4111)"
       cx="-137.21773"
       cy="54.817501"
       fx="-137.21773"
       fy="54.817501"
       r="31.75" />
    <linearGradient
       inkscape:collect="always"
       xlink:href="#linearGradient9411"
       id="linearGradient10442"
       gradientUnits="userSpaceOnUse"
       x1="-153.21251"
       y1="69.813828"
       x2="-132.57498"
       y2="40.292553" />
    <linearGradient
       inkscape:collect="always"
       id="linearGradient9383">
      <stop
         style="stop-color:#ffffff;stop-opacity:1;"
         offset="0"
         id="stop9385" />
      <stop
         style="stop-color:#ffffff;stop-opacity:0;"
         offset="1"
         id="stop9387" />
    </linearGradient>
    <linearGradient
       inkscape:collect="always"
       xlink:href="#linearGradient9383"
       id="linearGradient10440"
       gradientUnits="userSpaceOnUse"
       x1="713.25"
       y1="56"
       x2="730.76965"
       y2="112.625" />
    <linearGradient
       id="linearGradient9851">
      <stop
         id="stop9853"
         offset="0"
         style="stop-color:#000000;stop-opacity:0.8" />
      <stop
         style="stop-color:#000000;stop-opacity:0"
         offset="0.16671717"
         id="stop9855" />
      <stop
         id="stop9857"
         offset="0.64166665"
         style="stop-color:#000000;stop-opacity:0" />
      <stop
         id="stop9859"
         offset="1"
         style="stop-color:#000000;stop-opacity:1" />
    </linearGradient>
    <linearGradient
       inkscape:collect="always"
       xlink:href="#linearGradient9851"
       id="linearGradient10438"
       gradientUnits="userSpaceOnUse"
       gradientTransform="translate(20,0)"
       x1="713.987"
       y1="74.984375"
       x2="729"
       y2="74.984375" />
    <linearGradient
       id="linearGradient9044"
       inkscape:collect="always">
      <stop
         id="stop9047"
         offset="0"
         style="stop-color:#729fcf;stop-opacity:1" />
      <stop
         id="stop9049"
         offset="1"
         style="stop-color:#ffffff;stop-opacity:1" />
    </linearGradient>
    <linearGradient
       inkscape:collect="always"
       xlink:href="#linearGradient9044"
       id="linearGradient9041"
       gradientUnits="userSpaceOnUse"
       x1="-139.07216"
       y1="56.361523"
       x2="-142.95009"
       y2="76.418114" />
    <linearGradient
       id="linearGradient9024"
       inkscape:collect="always">
      <stop
         id="stop9026"
         offset="0"
         style="stop-color:#204a87;stop-opacity:1" />
      <stop
         id="stop9028"
         offset="1"
         style="stop-color:#3465a4;stop-opacity:1" />
    </linearGradient>
    <linearGradient
       inkscape:collect="always"
       xlink:href="#linearGradient9024"
       id="linearGradient9039"
       gradientUnits="userSpaceOnUse"
       x1="721.5"
       y1="79.594841"
       x2="721.5"
       y2="56.550957" />
    <linearGradient
       id="linearGradient9051">
      <stop
         style="stop-color:#3465a4;stop-opacity:1"
         offset="0"
         id="stop9053" />
      <stop
         id="stop9055"
         offset="0.37205976"
         style="stop-color:#729fcf;stop-opacity:1" />
      <stop
         id="stop9057"
         offset="0.74411952"
         style="stop-color:#204a87;stop-opacity:1" />
      <stop
         style="stop-color:#729fcf;stop-opacity:1"
         offset="1"
         id="stop9059" />
    </linearGradient>
    <linearGradient
       inkscape:collect="always"
       xlink:href="#linearGradient9051"
       id="linearGradient9037"
       gradientUnits="userSpaceOnUse"
       x1="715.53229"
       y1="87"
       x2="727.46771"
       y2="87" />
    <filter
       inkscape:collect="always"
       id="filter9867"
       x="-0.2025"
       width="1.405"
       y="-0.162"
       height="1.324">
      <feGaussianBlur
         inkscape:collect="always"
         stdDeviation="1.0125"
         id="feGaussianBlur9869" />
    </filter>
    <linearGradient
       inkscape:collect="always"
       id="linearGradient9411">
      <stop
         style="stop-color:#ffffff;stop-opacity:1;"
         offset="0"
         id="stop9413" />
      <stop
         style="stop-color:#ffffff;stop-opacity:0;"
         offset="1"
         id="stop9415" />
    </linearGradient>
    <linearGradient
       inkscape:collect="always"
       xlink:href="#linearGradient9411"
       id="linearGradient10484"
       gradientUnits="userSpaceOnUse"
       x1="-153.21251"
       y1="69.813828"
       x2="-132.57498"
       y2="40.292553" />
    <filter
       inkscape:collect="always"
       id="filter9752"
       x="-0.82964343"
       width="2.6592867"
       y="-0.064677492"
       height="1.129355">
      <feGaussianBlur
         inkscape:collect="always"
         stdDeviation="1.0370543"
         id="feGaussianBlur9754" />
    </filter>
    <linearGradient
       inkscape:collect="always"
       id="linearGradient9421">
      <stop
         style="stop-color:#ffffff;stop-opacity:1;"
         offset="0"
         id="stop9423" />
      <stop
         style="stop-color:#ffffff;stop-opacity:0;"
         offset="1"
         id="stop9425" />
    </linearGradient>
    <linearGradient
       inkscape:collect="always"
       xlink:href="#linearGradient9421"
       id="linearGradient10482"
       gradientUnits="userSpaceOnUse"
       gradientTransform="translate(5,-1)"
       x1="718.5"
       y1="56.875"
       x2="718.5"
       y2="110.92456" />
    <linearGradient
       id="linearGradient9736">
      <stop
         style="stop-color:#000000;stop-opacity:0.498"
         offset="0"
         id="stop9738" />
      <stop
         id="stop9740"
         offset="0.65400881"
         style="stop-color:#000000;stop-opacity:0" />
      <stop
         style="stop-color:#000000;stop-opacity:0.498"
         offset="1"
         id="stop9742" />
    </linearGradient>
    <linearGradient
       inkscape:collect="always"
       xlink:href="#linearGradient9736"
       id="linearGradient10479"
       gradientUnits="userSpaceOnUse"
       x1="716.02728"
       y1="73.75"
       x2="726.97272"
       y2="73.75" />
    <linearGradient
       id="linearGradient9116">
      <stop
         style="stop-color:#000000;stop-opacity:1;"
         offset="0"
         id="stop9118" />
      <stop
         id="stop9124"
         offset="0.7857551"
         style="stop-color:#000000;stop-opacity:0.49803922;" />
      <stop
         style="stop-color:#000000;stop-opacity:0;"
         offset="1"
         id="stop9120" />
    </linearGradient>
    <radialGradient
       inkscape:collect="always"
       xlink:href="#linearGradient9116"
       id="radialGradient10477"
       gradientUnits="userSpaceOnUse"
       gradientTransform="matrix(1,0,0,0.3779528,0,40.122047)"
       cx="-135.75"
       cy="64.5"
       fx="-135.75"
       fy="64.5"
       r="31.75" />
    <filter
       inkscape:collect="always"
       id="filter8839"
       x="-0.04259311"
       width="1.0851862"
       y="-0.11269427"
       height="1.2253885">
      <feGaussianBlur
         inkscape:collect="always"
         stdDeviation="1.1269427"
         id="feGaussianBlur8841" />
    </filter>
    <linearGradient
       id="linearGradient9457"
       inkscape:collect="always">
      <stop
         id="stop9459"
         offset="0"
         style="stop-color:#000000;stop-opacity:1" />
      <stop
         id="stop9461"
         offset="1"
         style="stop-color:#000000;stop-opacity:0" />
    </linearGradient>
    <linearGradient
       inkscape:collect="always"
       xlink:href="#linearGradient9457"
       id="linearGradient10475"
       gradientUnits="userSpaceOnUse"
       x1="-153.21251"
       y1="69.813828"
       x2="-132.57498"
       y2="40.292553" />
    <inkscape:perspective
       sodipodi:type="inkscape:persp3d"
       inkscape:vp_x="0 : 24 : 1"
       inkscape:vp_y="0 : 1000 : 0"
       inkscape:vp_z="48 : 24 : 1"
       inkscape:persp3d-origin="24 : 16 : 1"
       id="perspective10027" />
  </defs>
  <sodipodi:namedview
     id="base"
     pagecolor="#ffffff"
     bordercolor="#666666"
     borderopacity="1.0"
     inkscape:pageopacity="0.0"
     inkscape:pageshadow="2"
     inkscape:zoom="9.8994949"
     inkscape:cx="17.992777"
     inkscape:cy="24.418419"
     inkscape:current-layer="layer1"
     showgrid="true"
     inkscape:grid-bbox="true"
     inkscape:document-units="px">
    <inkscape:grid
       type="xygrid"
       id="grid10650" />
  </sodipodi:namedview>
  <metadata
     id="metadata10024">
    <rdf:RDF>
      <cc:Work
         rdf:about="">
        <dc:format>image/svg+xml</dc:format>
        <dc:type
           rdf:resource="http://purl.org/dc/dcmitype/StillImage" />
      </cc:Work>
    </rdf:RDF>
  </metadata>
  <g
     id="layer1"
     inkscape:label="Layer 1"
     inkscape:groupmode="layer">
    <g
       style="display:inline;enable-background:new"
       id="g10486"
       transform="translate(-698.02179,-349.97217)">
      <g
         transform="translate(0,300)"
         id="use8978">
        <path
           sodipodi:type="arc"
           style="opacity:0.1;fill:url(#linearGradient10475);fill-opacity:1;stroke:none;stroke-width:1;stroke-linecap:round;stroke-linejoin:round;stroke-miterlimit:4;stroke-dasharray:none;stroke-opacity:1;display:inline;filter:url(#filter8839);enable-background:new"
           id="path10465"
           sodipodi:cx="-135.75"
           sodipodi:cy="64.5"
           sodipodi:rx="31.75"
           sodipodi:ry="12"
           d="M -104,64.5 A 31.75,12 0 1 1 -167.5,64.5 A 31.75,12 0 1 1 -104,64.5 z"
           transform="matrix(0.2362206,0,0,0.2117117,753.56695,79.885136)" />
        <path
           sodipodi:type="arc"
           style="opacity:0.3;fill:url(#radialGradient10477);fill-opacity:1;stroke:none;stroke-width:1;stroke-linecap:round;stroke-linejoin:round;stroke-miterlimit:4;stroke-dasharray:none;stroke-opacity:1;display:inline;enable-background:new"
           id="path10467"
           sodipodi:cx="-135.75"
           sodipodi:cy="64.5"
           sodipodi:rx="31.75"
           sodipodi:ry="12"
           d="M -104,64.5 A 31.75,12 0 1 1 -167.5,64.5 A 31.75,12 0 1 1 -104,64.5 z"
           transform="matrix(0.331235,0,0,0.2921309,766.48186,75.596315)" />
        <path
           sodipodi:nodetypes="cccsccc"
           id="path10469"
           d="M 721.5,51 C 717.08402,51 713.50001,52.345248 713.5,54 L 713.5,93.5 C 713.5,95.154753 717.08405,96.499998 721.5,96.5 C 725.91598,96.5 729.49999,95.154752 729.5,93.5 L 729.5,54 C 729.5,52.345247 725.91596,51.000002 721.5,51 z"
           style="opacity:0.45;fill:url(#linearGradient10479);fill-opacity:1;stroke:#000000;stroke-width:1.00000024;stroke-linecap:round;stroke-linejoin:round;stroke-miterlimit:4;stroke-dasharray:none;stroke-opacity:1;display:inline;enable-background:new" />
        <rect
           transform="matrix(1,0,0,-1,1,147.51783)"
           ry="0.92807764"
           rx="1.5"
           y="54.51783"
           x="722"
           height="38.48217"
           width="3"
           id="rect10471"
           style="opacity:0.4;fill:url(#linearGradient10482);fill-opacity:1;stroke:none;stroke-width:1;stroke-linecap:round;stroke-linejoin:miter;stroke-miterlimit:4;stroke-dasharray:none;stroke-opacity:1;display:inline;filter:url(#filter9752);enable-background:new" />
        <path
           transform="matrix(-0.2362206,0,0,-0.2117117,689.43306,107.11486)"
           d="M -104,64.5 A 31.75,12 0 1 1 -167.5,64.5 A 31.75,12 0 1 1 -104,64.5 z"
           sodipodi:ry="12"
           sodipodi:rx="31.75"
           sodipodi:cy="64.5"
           sodipodi:cx="-135.75"
           id="path10473"
           style="opacity:0.73469388;fill:url(#linearGradient10484);fill-opacity:1;stroke:none;stroke-width:1;stroke-linecap:round;stroke-linejoin:round;stroke-miterlimit:4;stroke-dasharray:none;stroke-opacity:1;display:inline;filter:url(#filter8839);enable-background:new"
           sodipodi:type="arc" />
      </g>
      <path
         sodipodi:nodetypes="cssccsssssccssc"
         id="path9006"
         d="M 721.5,53.5 C 719.74789,53.5 718.17027,53.721646 717.0625,54.0625 C 716.50861,54.232927 716.07106,54.437008 715.8125,54.625 C 715.55394,54.812992 715.5,54.945256 715.5,55 L 715.5,93 C 715.5,93.054745 715.55394,93.187008 715.8125,93.375 C 716.07106,93.562992 716.50861,93.767073 717.0625,93.9375 C 718.17027,94.278354 719.74789,94.500001 721.5,94.5 C 723.25211,94.5 724.82973,94.278353 725.9375,93.9375 C 726.49139,93.767073 726.92894,93.562992 727.1875,93.375 C 727.44606,93.187008 727.5,93.054745 727.5,93 L 727.5,55 C 727.5,54.945255 727.44606,54.812992 727.1875,54.625 C 726.92894,54.437008 726.49139,54.232927 725.9375,54.0625 C 724.82973,53.721647 723.25211,53.5 721.5,53.5 z"
         style="fill:#729fcf;fill-opacity:1;stroke:none;stroke-width:1;stroke-linecap:round;stroke-linejoin:round;stroke-miterlimit:4;stroke-opacity:1;display:inline;filter:url(#filter9867);enable-background:new"
         transform="translate(0,300)" />
      <g
         id="g9008"
         style="opacity:0.8"
         transform="translate(0,300)">
        <path
           style="fill:url(#linearGradient9037);fill-opacity:1;stroke:url(#linearGradient9039);stroke-width:1;stroke-linecap:round;stroke-linejoin:round;stroke-miterlimit:4;stroke-opacity:1;display:inline;enable-background:new"
           d="M 721.5,53.5 C 719.74789,53.5 718.17027,53.721646 717.0625,54.0625 C 716.50861,54.232927 716.07106,54.437008 715.8125,54.625 C 715.55394,54.812992 715.5,54.945256 715.5,55 L 715.5,93 C 715.5,93.054745 715.55394,93.187008 715.8125,93.375 C 716.07106,93.562992 716.50861,93.767073 717.0625,93.9375 C 718.17027,94.278354 719.74789,94.500001 721.5,94.5 C 723.25211,94.5 724.82973,94.278353 725.9375,93.9375 C 726.49139,93.767073 726.92894,93.562992 727.1875,93.375 C 727.44606,93.187008 727.5,93.054745 727.5,93 L 727.5,55 C 727.5,54.945255 727.44606,54.812992 727.1875,54.625 C 726.92894,54.437008 726.49139,54.232927 725.9375,54.0625 C 724.82973,53.721647 723.25211,53.5 721.5,53.5 z"
           id="path9010"
           sodipodi:nodetypes="cssccsssssccssc" />
        <path
           sodipodi:type="arc"
           style="opacity:1;fill:url(#linearGradient9041);fill-opacity:1;stroke:none;stroke-width:1;stroke-linecap:round;stroke-linejoin:round;stroke-miterlimit:4;stroke-dasharray:none;stroke-opacity:1;display:inline;enable-background:new"
           id="path9012"
           sodipodi:cx="-135.75"
           sodipodi:cy="64.5"
           sodipodi:rx="31.75"
           sodipodi:ry="12"
           d="M -104,64.5 A 31.75,12 0 1 1 -167.5,64.5 A 31.75,12 0 1 1 -104,64.5 z"
           transform="matrix(0.1732286,0,0,0.1250001,745.01579,47.437497)" />
      </g>
      <g
         id="use8982"
         transform="translate(-20,300)">
        <path
           id="path10396"
           d="M 734,53.96875 L 734,93.46875 C 734,94.871128 737.35999,96 741.5,96 C 745.64,96 749,94.871131 749,93.46875 L 749,53.96875 C 748.99998,55.371128 745.64,56.5 741.5,56.5 C 737.35997,56.500001 734,55.371128 734,53.96875 z"
           style="opacity:0.2;fill:url(#linearGradient10438);fill-opacity:1;stroke:none;stroke-width:1;stroke-linecap:round;stroke-linejoin:round;stroke-miterlimit:4;stroke-dasharray:none;stroke-opacity:1;display:inline;enable-background:new" />
        <path
           transform="translate(20,0)"
           d="M 721.5,52 C 719.39272,52 717.48036,52.327537 716.1875,52.8125 C 715.54107,53.054982 715.05214,53.3225 714.78125,53.5625 C 714.51036,53.8025 714.5,53.944344 714.5,54 L 714.5,93.5 C 714.5,93.555652 714.51036,93.6975 714.78125,93.9375 C 715.05214,94.1775 715.54106,94.445018 716.1875,94.6875 C 717.48037,95.172463 719.39274,95.499999 721.5,95.5 C 723.60728,95.5 725.51964,95.172463 726.8125,94.6875 C 727.45893,94.445018 727.94786,94.1775 728.21875,93.9375 C 728.48964,93.6975 728.5,93.555656 728.5,93.5 L 728.5,54 C 728.5,53.944347 728.48964,53.8025 728.21875,53.5625 C 727.94786,53.3225 727.45893,53.054982 726.8125,52.8125 C 725.51963,52.327537 723.60727,52.000001 721.5,52 z"
           id="path10398"
           style="opacity:0.4;fill:none;fill-opacity:1;stroke:url(#linearGradient10440);stroke-width:1.00000024;stroke-linecap:round;stroke-linejoin:round;stroke-miterlimit:4;stroke-dasharray:none;stroke-opacity:1;display:inline;enable-background:new"
           inkscape:original="M 721.5 51 C 717.08402 51 713.50001 52.345248 713.5 54 L 713.5 93.5 C 713.5 95.154753 717.08405 96.499998 721.5 96.5 C 725.91598 96.5 729.49999 95.154752 729.5 93.5 L 729.5 54 C 729.5 52.345247 725.91596 51.000002 721.5 51 z "
           inkscape:radius="-0.99183118"
           sodipodi:type="inkscape:offset" />
        <path
           sodipodi:type="arc"
           style="opacity:0.73469388;fill:url(#linearGradient10442);fill-opacity:1;stroke:none;stroke-width:1;stroke-linecap:round;stroke-linejoin:round;stroke-miterlimit:4;stroke-dasharray:none;stroke-opacity:1;display:inline;filter:url(#filter8839);enable-background:new"
           id="path10400"
           sodipodi:cx="-135.75"
           sodipodi:cy="64.5"
           sodipodi:rx="31.75"
           sodipodi:ry="12"
           d="M -104,64.5 A 31.75,12 0 1 1 -167.5,64.5 A 31.75,12 0 1 1 -104,64.5 z"
           transform="matrix(0.2362206,0,0,0.2117117,773.56698,40.308565)" />
        <g
           transform="translate(20,10)"
           id="g10402">
          <g
             style="display:inline;enable-background:new"
             id="g10404"
             transform="matrix(0.2083335,0,0,0.1996138,690.66667,31.067704)">
            <path
               sodipodi:type="arc"
               style="fill:url(#radialGradient10445);fill-opacity:1;stroke:none;stroke-width:1;stroke-linecap:round;stroke-linejoin:round;stroke-miterlimit:4;stroke-dasharray:none;stroke-opacity:1;display:inline;enable-background:new"
               id="path10406"
               sodipodi:cx="-135.75"
               sodipodi:cy="64.5"
               sodipodi:rx="31.75"
               sodipodi:ry="12"
               d="M -104,64.5 A 31.75,12 0 1 1 -167.5,64.5 A 31.75,12 0 1 1 -104,64.5 z"
               transform="matrix(0.8818896,0,0,0.7291666,267.7165,15.718754)" />
            <path
               transform="matrix(0.8818896,0,0,0.7291666,267.7165,15.718754)"
               d="M -104,64.5 A 31.75,12 0 1 1 -167.5,64.5 A 31.75,12 0 1 1 -104,64.5 z"
               sodipodi:ry="12"
               sodipodi:rx="31.75"
               sodipodi:cy="64.5"
               sodipodi:cx="-135.75"
               id="path10408"
               style="fill:url(#radialGradient10447);fill-opacity:1;stroke:none;stroke-width:1;stroke-linecap:round;stroke-linejoin:round;stroke-miterlimit:4;stroke-dasharray:none;stroke-opacity:1;display:inline;enable-background:new"
               sodipodi:type="arc" />
            <path
               transform="matrix(1.244444,0,0,1.1666664,-36.177728,-10.16665)"
               id="path10410"
               d="M 148,55 C 135.58,55 125.5,58.36 125.5,62.5 C 125.5,62.66935 125.5293,62.833436 125.5625,63 C 126.34101,59.094694 136.08805,56 148,56 C 159.91195,55.999999 169.65899,59.094693 170.4375,63 C 170.4707,62.833436 170.5,62.66935 170.5,62.5 C 170.5,58.359999 160.42,54.999999 148,55 z"
               style="opacity:0.55102036;fill:url(#radialGradient10449);fill-opacity:1;stroke:none;stroke-width:1;stroke-linecap:round;stroke-linejoin:round;stroke-miterlimit:4;stroke-dasharray:none;stroke-opacity:1;display:inline;enable-background:new" />
          </g>
          <path
             style="opacity:1;fill:none;fill-opacity:1;stroke:url(#linearGradient10451);stroke-width:2.00000095;stroke-linecap:round;stroke-linejoin:round;stroke-miterlimit:4;stroke-dasharray:none;stroke-opacity:1;display:inline;enable-background:new"
             d="M 721.50003,41.000007 C 720.12002,41.000007 719.00003,41.379394 719.00003,41.846854 L 719.00003,43.328836 C 719.00003,43.796296 720.12003,44.175682 721.50003,44.175683 C 722.88003,44.175683 724.00003,43.796296 724.00003,43.328836 L 724.00003,41.846854 C 724.00003,41.379394 722.88003,41.000007 721.50003,41.000007 z"
             id="path10412"
             sodipodi:nodetypes="cccsccc" />
          <g
             style="display:inline;enable-background:new"
             id="g10414"
             clip-path="url(#clipPath10121)"
             transform="matrix(0.2083335,0,0,0.2117117,690.66667,30.414422)">
            <path
               sodipodi:nodetypes="cccsccc"
               id="path10416"
               d="M 148,50 C 141.37599,50 136.00001,51.791999 136,54 L 136,61 C 136,63.208002 141.376,64.999999 148,65 C 154.62401,65 160,63.208004 160,61 L 160,54 C 160,51.791998 154.62401,50.000001 148,50 z"
               style="fill:url(#linearGradient10453);fill-opacity:1;stroke:none;stroke-width:1;stroke-linecap:round;stroke-linejoin:round;stroke-miterlimit:4;stroke-dasharray:none;stroke-opacity:1;display:inline;enable-background:new" />
            <path
               sodipodi:type="arc"
               style="fill:url(#linearGradient10455);fill-opacity:1;stroke:none;stroke-width:1;stroke-linecap:round;stroke-linejoin:round;stroke-miterlimit:4;stroke-dasharray:none;stroke-opacity:1;display:inline;filter:url(#filter8764);enable-background:new"
               id="path10418"
               sodipodi:cx="-135.75"
               sodipodi:cy="64.5"
               sodipodi:rx="31.75"
               sodipodi:ry="12"
               d="M -104,64.5 A 31.75,12 0 1 1 -167.5,64.5 A 31.75,12 0 1 1 -104,64.5 z"
               transform="matrix(0.4724413,0,0,0.416667,212.13392,26.124982)" />
          </g>
          <path
             sodipodi:nodetypes="csc"
             id="path10420"
             d="M 136,53 C 136,55.208002 141.376,56.999999 148,57 C 154.62401,57 160,55.208004 160,53"
             style="fill:none;fill-opacity:1;stroke:url(#radialGradient10457);stroke-width:4.76154852;stroke-linecap:round;stroke-linejoin:round;stroke-miterlimit:4;stroke-dasharray:none;stroke-opacity:1;display:inline;filter:url(#filter10204);enable-background:new"
             transform="matrix(0.2083335,0,0,0.2117117,690.66667,32.108115)" />
          <path
             sodipodi:type="arc"
             style="fill:#ffffff;fill-opacity:1;stroke:none;stroke-width:1;stroke-linecap:round;stroke-linejoin:round;stroke-miterlimit:4;stroke-dasharray:none;stroke-opacity:1;display:inline;enable-background:new"
             id="path10422"
             sodipodi:cx="152.0625"
             sodipodi:cy="50.6875"
             sodipodi:rx="1.5625"
             sodipodi:ry="1.5625"
             d="M 153.625,50.6875 A 1.5625,1.5625 0 1 1 150.5,50.6875 A 1.5625,1.5625 0 1 1 153.625,50.6875 z"
             transform="matrix(0.2083335,0,0,0.2117117,690.58854,32.134579)" />
        </g>
        <path
           id="path10424"
           d="M 734,53.96875 L 734,93.46875 C 734,94.871128 737.35999,96 741.5,96 C 745.64,96 749,94.871131 749,93.46875 L 749,53.96875 C 748.99998,55.371128 745.64,56.5 741.5,56.5 C 737.35997,56.500001 734,55.371128 734,53.96875 z"
           style="opacity:0.2;fill:url(#linearGradient10459);fill-opacity:1;stroke:none;stroke-width:1;stroke-linecap:round;stroke-linejoin:round;stroke-miterlimit:4;stroke-dasharray:none;stroke-opacity:1;display:inline;enable-background:new" />
        <g
           transform="translate(20,0)"
           id="g10426">
          <text
             xml:space="preserve"
             style="font-size:4.26873779px;font-style:normal;font-variant:normal;font-weight:bold;font-stretch:normal;opacity:0.1;fill:#000000;fill-opacity:1;stroke:none;stroke-width:1px;stroke-linecap:butt;stroke-linejoin:miter;stroke-opacity:1;display:inline;enable-background:new;font-family:Arial Black;-inkscape-font-specification:'Arial Black, Bold'"
             x="71.93763"
             y="-718.50244"
             id="text10428"
             transform="matrix(0,0.9978492,-1.0021554,0,0,0)"
             inkscape:transform-center-x="-31.883226"
             inkscape:transform-center-y="-35.012361"><tspan
               sodipodi:role="line"
               id="tspan10430"
               x="71.93763"
               y="-718.50244">POWER </tspan></text>
          <rect
             style="opacity:0.1;fill:#000000;fill-opacity:1;stroke:none;stroke-width:2;stroke-linecap:round;stroke-linejoin:round;stroke-miterlimit:4;stroke-dasharray:none;stroke-opacity:1;display:inline;enable-background:new"
             id="rect10432"
             width="1"
             height="2"
             x="721"
             y="92" />
          <path
             style="opacity:0.1;fill:#000000;fill-opacity:1;stroke:none;stroke-width:2;stroke-linecap:round;stroke-linejoin:round;stroke-miterlimit:4;stroke-dasharray:none;stroke-opacity:1;display:inline;enable-background:new"
             d="M 721,58 L 721,59 L 720,59 L 720,60 L 721,60 L 721,61 L 722,61 L 722,60 L 723,60 L 723,59 L 722,59 L 722,58 L 721,58 z"
             id="path10434" />
        </g>
        <rect
           ry="0.92807764"
           rx="1.5"
           y="54.51783"
           x="737"
           height="38.48217"
           width="3"
           id="rect10436"
           style="fill:url(#linearGradient10461);fill-opacity:1;stroke:none;stroke-width:1;stroke-linecap:round;stroke-linejoin:miter;stroke-miterlimit:4;stroke-dasharray:none;stroke-opacity:1;filter:url(#filter9752)" />
      </g>
    </g>
  </g>
</svg>
