<?xml version="1.0" encoding="UTF-8" standalone="no"?>
<!-- Created with Inkscape (http://www.inkscape.org/) -->
<svg
   xmlns:dc="http://purl.org/dc/elements/1.1/"
   xmlns:cc="http://creativecommons.org/ns#"
   xmlns:rdf="http://www.w3.org/1999/02/22-rdf-syntax-ns#"
   xmlns:svg="http://www.w3.org/2000/svg"
   xmlns="http://www.w3.org/2000/svg"
   xmlns:xlink="http://www.w3.org/1999/xlink"
   xmlns:sodipodi="http://sodipodi.sourceforge.net/DTD/sodipodi-0.dtd"
   xmlns:inkscape="http://www.inkscape.org/namespaces/inkscape"
   width="48px"
   height="48px"
   id="svg8225"
   sodipodi:version="0.32"
   inkscape:version="0.46"
   sodipodi:docname="security-high.svg"
   inkscape:output_extension="org.inkscape.output.svg.inkscape">
  <defs
     id="defs8227">
    <filter
       inkscape:collect="always"
       id="filter8320">
      <feBlend
         inkscape:collect="always"
         mode="multiply"
         in2="BackgroundImage"
         id="feBlend8322" />
    </filter>
    <linearGradient
       inkscape:collect="always"
       id="linearGradient8308">
      <stop
         id="stop8312"
         offset="0"
         style="stop-color:#78ee08;stop-opacity:1" />
      <stop
         id="stop8310"
         offset="1"
         style="stop-color:#4e9a06;stop-opacity:1;" />
    </linearGradient>
    <radialGradient
       inkscape:collect="always"
       xlink:href="#linearGradient8308"
       id="radialGradient9286"
       gradientUnits="userSpaceOnUse"
       gradientTransform="matrix(1.0024194,-8.1944442e-7,2.7181865e-6,3.3251346,-0.1888934,-148.95387)"
       cx="78"
       cy="64.0625"
       fx="78"
       fy="64.0625"
       r="6" />
    <linearGradient
       inkscape:collect="always"
       xlink:href="#linearGradient8671"
       id="linearGradient8705"
       gradientUnits="userSpaceOnUse"
       x1="92.90625"
       y1="59"
       x2="88.8125"
       y2="66.296875"
       gradientTransform="matrix(-1,0,0,1,157.81495,0)" />
    <linearGradient
       inkscape:collect="always"
       id="linearGradient8671">
      <stop
         style="stop-color:#000000;stop-opacity:1;"
         offset="0"
         id="stop8673" />
      <stop
         style="stop-color:#000000;stop-opacity:0;"
         offset="1"
         id="stop8675" />
    </linearGradient>
    <linearGradient
       inkscape:collect="always"
       xlink:href="#linearGradient8671"
       id="linearGradient8677"
       x1="92.90625"
       y1="59"
       x2="88.8125"
       y2="66.296875"
       gradientUnits="userSpaceOnUse" />
    <linearGradient
       inkscape:collect="always"
       id="linearGradient8661">
      <stop
         style="stop-color:#ffffff;stop-opacity:1;"
         offset="0"
         id="stop8663" />
      <stop
         style="stop-color:#ffffff;stop-opacity:0;"
         offset="1"
         id="stop8665" />
    </linearGradient>
    <radialGradient
       inkscape:collect="always"
       xlink:href="#linearGradient8661"
       id="radialGradient8667"
       cx="77.817436"
       cy="71.097458"
       fx="77.817436"
       fy="71.097458"
       r="9.4218616"
       gradientTransform="matrix(2.277786,0,0,1.273996,-99.434033,-18.766432)"
       gradientUnits="userSpaceOnUse" />
    <filter
       inkscape:collect="always"
       id="filter9622"
       x="-0.06145129"
       width="1.1229026"
       y="-0.24869026"
       height="1.4973805">
      <feGaussianBlur
         inkscape:collect="always"
         stdDeviation="0.47048644"
         id="feGaussianBlur9624" />
    </filter>
    <radialGradient
       inkscape:collect="always"
       xlink:href="#linearGradient8331"
       id="radialGradient8341"
       gradientUnits="userSpaceOnUse"
       gradientTransform="matrix(-3.3557031,-0.5351203,-1.079587,6.7700161,393.42051,-373.12877)"
       cx="67.617584"
       cy="69.926872"
       fx="67.617584"
       fy="69.926872"
       r="1.21875" />
    <linearGradient
       inkscape:collect="always"
       id="linearGradient8331">
      <stop
         style="stop-color:#ffffff;stop-opacity:1;"
         offset="0"
         id="stop8333" />
      <stop
         style="stop-color:#ffffff;stop-opacity:0;"
         offset="1"
         id="stop8335" />
    </linearGradient>
    <radialGradient
       inkscape:collect="always"
       xlink:href="#linearGradient8331"
       id="radialGradient8337"
       cx="67.645164"
       cy="70.59375"
       fx="67.645164"
       fy="70.59375"
       r="1.21875"
       gradientTransform="matrix(3.3557031,-0.5351203,1.079587,6.7700161,-237.08418,-373.12877)"
       gradientUnits="userSpaceOnUse" />
    <radialGradient
       inkscape:collect="always"
       xlink:href="#linearGradient8272"
       id="radialGradient8282"
       gradientUnits="userSpaceOnUse"
       gradientTransform="matrix(-0.8554227,0.1044445,0.5969822,4.889407,111.50846,-238.378)"
       cx="61.4375"
       cy="59.125"
       fx="61.4375"
       fy="59.125"
       r="4" />
    <linearGradient
       inkscape:collect="always"
       id="linearGradient8272">
      <stop
         style="stop-color:#ffffff;stop-opacity:1;"
         offset="0"
         id="stop8274" />
      <stop
         style="stop-color:#ffffff;stop-opacity:0;"
         offset="1"
         id="stop8276" />
    </linearGradient>
    <radialGradient
       inkscape:collect="always"
       xlink:href="#linearGradient8272"
       id="radialGradient8278"
       cx="61.4375"
       cy="59.125"
       fx="61.4375"
       fy="59.125"
       r="4"
       gradientTransform="matrix(0.8554227,0.1044445,-0.5969822,4.889407,44.179036,-238.378)"
       gradientUnits="userSpaceOnUse" />
    <linearGradient
       inkscape:collect="always"
       id="linearGradient8230">
      <stop
         style="stop-color:#000000;stop-opacity:1;"
         offset="0"
         id="stop8232" />
      <stop
         style="stop-color:#000000;stop-opacity:0;"
         offset="1"
         id="stop8234" />
    </linearGradient>
    <linearGradient
       inkscape:collect="always"
       xlink:href="#linearGradient8230"
       id="linearGradient8236"
       x1="78.270576"
       y1="79.757523"
       x2="78.270576"
       y2="71.625252"
       gradientUnits="userSpaceOnUse"
       gradientTransform="matrix(1.2255393,0,0,1,-17.55089,-2)" />
    <radialGradient
       inkscape:collect="always"
       xlink:href="#linearGradient7818"
       id="radialGradient8200"
       gradientUnits="userSpaceOnUse"
       gradientTransform="matrix(1.6494961,0,0,1.0852162,-59.84772,-3.5762374)"
       cx="92.144852"
       cy="52.21386"
       fx="92.144852"
       fy="52.21386"
       r="5.0381355" />
    <filter
       inkscape:collect="always"
       id="filter8302"
       x="-0.059925616"
       width="1.1198512"
       y="-0.1584122"
       height="1.3168244">
      <feGaussianBlur
         inkscape:collect="always"
         stdDeviation="0.48689561"
         id="feGaussianBlur8304" />
    </filter>
    <linearGradient
       inkscape:collect="always"
       xlink:href="#linearGradient8170"
       id="linearGradient8180"
       gradientUnits="userSpaceOnUse"
       x1="75"
       y1="62.125"
       x2="73.6875"
       y2="56.6875" />
    <filter
       inkscape:collect="always"
       id="filter8094"
       x="-0.093397744"
       width="1.1867955"
       y="-0.15283267"
       height="1.3056653">
      <feGaussianBlur
         inkscape:collect="always"
         stdDeviation="0.35024155"
         id="feGaussianBlur8096" />
    </filter>
    <linearGradient
       id="linearGradient8170"
       inkscape:collect="always">
      <stop
         id="stop8172"
         offset="0"
         style="stop-color:#ffffff;stop-opacity:0.02173913" />
      <stop
         style="stop-color:#ffffff;stop-opacity:0.6;"
         offset="0.39901078"
         id="stop8176" />
      <stop
         id="stop8174"
         offset="1"
         style="stop-color:#ffffff;stop-opacity:0;" />
    </linearGradient>
    <linearGradient
       inkscape:collect="always"
       xlink:href="#linearGradient8170"
       id="linearGradient8056"
       x1="75"
       y1="62.125"
       x2="73.6875"
       y2="56.6875"
       gradientUnits="userSpaceOnUse"
       gradientTransform="translate(0,-2)" />
    <filter
       inkscape:collect="always"
       id="filter9654"
       x="-0.11120755"
       width="1.2224151"
       y="-0.86590331"
       height="2.7318066">
      <feGaussianBlur
         inkscape:collect="always"
         stdDeviation="0.9498978"
         id="feGaussianBlur9656" />
    </filter>
    <linearGradient
       inkscape:collect="always"
       id="linearGradient8040">
      <stop
         style="stop-color:#000000;stop-opacity:1;"
         offset="0"
         id="stop8042" />
      <stop
         style="stop-color:#000000;stop-opacity:0;"
         offset="1"
         id="stop8044" />
    </linearGradient>
    <radialGradient
       inkscape:collect="always"
       xlink:href="#linearGradient8040"
       id="radialGradient8046"
       cx="77.999687"
       cy="66.844177"
       fx="77.999687"
       fy="66.844177"
       r="9.875"
       gradientTransform="matrix(1.2141847,0,0,1.0039147,-17.456029,-3.6995988)"
       gradientUnits="userSpaceOnUse" />
    <filter
       inkscape:collect="always"
       id="filter8002"
       x="-0.34936175"
       width="1.6987236"
       y="-0.10085306"
       height="1.2017061">
      <feGaussianBlur
         inkscape:collect="always"
         stdDeviation="0.75639797"
         id="feGaussianBlur8004" />
    </filter>
    <radialGradient
       inkscape:collect="always"
       xlink:href="#linearGradient7910"
       id="radialGradient7916"
       cx="67.696205"
       cy="68.625"
       fx="67.696205"
       fy="68.625"
       r="2.5981021"
       gradientTransform="matrix(2.4433613,-3.8970755e-7,5.5250652e-7,3.4640669,-98.063673,-171.09656)"
       gradientUnits="userSpaceOnUse" />
    <filter
       inkscape:collect="always"
       id="filter7904"
       x="-0.090866059"
       width="1.1817321"
       y="-0.10765528"
       height="1.2153106">
      <feGaussianBlur
         inkscape:collect="always"
         stdDeviation="0.51585419"
         id="feGaussianBlur7906" />
    </filter>
    <linearGradient
       inkscape:collect="always"
       id="linearGradient7848">
      <stop
         style="stop-color:#ffffff;stop-opacity:1;"
         offset="0"
         id="stop7850" />
      <stop
         style="stop-color:#ffffff;stop-opacity:0;"
         offset="1"
         id="stop7852" />
    </linearGradient>
    <radialGradient
       inkscape:collect="always"
       xlink:href="#linearGradient7848"
       id="radialGradient7854"
       cx="77.9375"
       cy="70.149429"
       fx="77.9375"
       fy="70.149429"
       r="6.8125"
       gradientTransform="matrix(1.9645242,0,0,1.6581498,-75.172604,-47.56833)"
       gradientUnits="userSpaceOnUse" />
    <linearGradient
       inkscape:collect="always"
       id="linearGradient7818">
      <stop
         style="stop-color:#f3f3f3;stop-opacity:1;"
         offset="0"
         id="stop7820" />
      <stop
         style="stop-color:#f3f3f3;stop-opacity:0;"
         offset="1"
         id="stop7822" />
    </linearGradient>
    <radialGradient
       inkscape:collect="always"
       xlink:href="#linearGradient7818"
       id="radialGradient8631"
       gradientUnits="userSpaceOnUse"
       gradientTransform="matrix(1.6494961,0,0,1.0852162,-59.84772,-3.5762374)"
       cx="92.144852"
       cy="52.21386"
       fx="92.144852"
       fy="52.21386"
       r="5.0381355" />
    <linearGradient
       inkscape:collect="always"
       id="linearGradient8643">
      <stop
         style="stop-color:#cccdcb;stop-opacity:1"
         offset="0"
         id="stop8645" />
      <stop
         style="stop-color:#4c4e4a;stop-opacity:1"
         offset="1"
         id="stop8647" />
    </linearGradient>
    <radialGradient
       inkscape:collect="always"
       xlink:href="#linearGradient8643"
       id="radialGradient8649"
       cx="92.25341"
       cy="53.701672"
       fx="94.62841"
       fy="50.87405"
       r="7.0789666"
       gradientTransform="matrix(1,0,0,0.8399287,0,8.8938737)"
       gradientUnits="userSpaceOnUse" />
    <linearGradient
       inkscape:collect="always"
       id="linearGradient7826">
      <stop
         style="stop-color:#d3d7cf;stop-opacity:1;"
         offset="0"
         id="stop7828" />
      <stop
         style="stop-color:#949494;stop-opacity:1"
         offset="1"
         id="stop7830" />
    </linearGradient>
    <radialGradient
       inkscape:collect="always"
       xlink:href="#linearGradient7826"
       id="radialGradient8629"
       gradientUnits="userSpaceOnUse"
       gradientTransform="matrix(1.5385926,0,0,1.2923081,-49.88898,-14.995713)"
       cx="93.847061"
       cy="52.905464"
       fx="93.928299"
       fy="51.5513"
       r="7.0789666" />
    <filter
       inkscape:collect="always"
       id="filter8026"
       x="-0.2587865"
       width="1.517573"
       y="-0.074705973"
       height="1.1494119">
      <feGaussianBlur
         inkscape:collect="always"
         stdDeviation="0.56029479"
         id="feGaussianBlur8028" />
    </filter>
    <linearGradient
       inkscape:collect="always"
       id="linearGradient7910">
      <stop
         style="stop-color:#4d4d4d;stop-opacity:1;"
         offset="0"
         id="stop7912" />
      <stop
         style="stop-color:#4d4d4d;stop-opacity:0;"
         offset="1"
         id="stop7914" />
    </linearGradient>
    <radialGradient
       inkscape:collect="always"
       xlink:href="#linearGradient7910"
       id="radialGradient8008"
       gradientUnits="userSpaceOnUse"
       gradientTransform="matrix(2.4433613,-3.8970755e-7,5.5250652e-7,3.4640669,-97.71012,-169.09656)"
       cx="67.696205"
       cy="68.625"
       fx="67.696205"
       fy="68.625"
       r="2.5981021" />
    <linearGradient
       inkscape:collect="always"
       id="linearGradient7808">
      <stop
         style="stop-color:#888a85;stop-opacity:1;"
         offset="0"
         id="stop7810" />
      <stop
         style="stop-color:#565854;stop-opacity:1"
         offset="1"
         id="stop7812" />
    </linearGradient>
    <linearGradient
       inkscape:collect="always"
       xlink:href="#linearGradient7808"
       id="linearGradient7814"
       x1="76.405617"
       y1="60.0835"
       x2="77.9375"
       y2="82.887695"
       gradientUnits="userSpaceOnUse"
       gradientTransform="translate(0,-2)" />
    <linearGradient
       inkscape:collect="always"
       id="linearGradient7790">
      <stop
         style="stop-color:#cdcdcd;stop-opacity:1"
         offset="0"
         id="stop7792" />
      <stop
         id="stop7802"
         offset="0.15734266"
         style="stop-color:#a1a1a1;stop-opacity:1" />
      <stop
         id="stop7800"
         offset="0.31167072"
         style="stop-color:#d3d3d3;stop-opacity:1" />
      <stop
         style="stop-color:#f3f3f3;stop-opacity:1"
         offset="0.49036145"
         id="stop7806" />
      <stop
         id="stop7798"
         offset="0.7449438"
         style="stop-color:#d3d3d3;stop-opacity:1" />
      <stop
         style="stop-color:#979797;stop-opacity:1;"
         offset="0.88554221"
         id="stop7804" />
      <stop
         style="stop-color:#d3d3d3;stop-opacity:1"
         offset="1"
         id="stop7794" />
    </linearGradient>
    <linearGradient
       inkscape:collect="always"
       xlink:href="#linearGradient7790"
       id="linearGradient7796"
       x1="64.90625"
       y1="65.91713"
       x2="90.84375"
       y2="65.91713"
       gradientUnits="userSpaceOnUse"
       gradientTransform="translate(0,-2)" />
    <linearGradient
       inkscape:collect="always"
       id="linearGradient8218">
      <stop
         style="stop-color:#ffffff;stop-opacity:1;"
         offset="0"
         id="stop8220" />
      <stop
         style="stop-color:#ffffff;stop-opacity:0;"
         offset="1"
         id="stop8222" />
    </linearGradient>
    <radialGradient
       inkscape:collect="always"
       xlink:href="#linearGradient8218"
       id="radialGradient8224"
       cx="77.953125"
       cy="50.208992"
       fx="77.953125"
       fy="50.208992"
       r="7.703125"
       gradientTransform="matrix(1,0,0,0.5882353,0,22.994485)"
       gradientUnits="userSpaceOnUse" />
    <linearGradient
       inkscape:collect="always"
       id="linearGradient8651">
      <stop
         style="stop-color:#888a85;stop-opacity:1;"
         offset="0"
         id="stop8653" />
      <stop
         style="stop-color:#2f302e;stop-opacity:1"
         offset="1"
         id="stop8655" />
    </linearGradient>
    <radialGradient
       inkscape:collect="always"
       xlink:href="#linearGradient8651"
       id="radialGradient8657"
       cx="77.91433"
       cy="46.876553"
       fx="77.91433"
       fy="46.876553"
       r="8.6759224"
       gradientTransform="matrix(1,0,0,0.6230862,0,20.288324)"
       gradientUnits="userSpaceOnUse" />
    <linearGradient
       inkscape:collect="always"
       id="linearGradient8206">
      <stop
         style="stop-color:#707070;stop-opacity:1"
         offset="0"
         id="stop8208" />
      <stop
         style="stop-color:#ababab;stop-opacity:1"
         offset="1"
         id="stop8210" />
    </linearGradient>
    <linearGradient
       inkscape:collect="always"
       xlink:href="#linearGradient8206"
       id="linearGradient8216"
       gradientUnits="userSpaceOnUse"
       x1="69.238403"
       y1="55.827484"
       x2="86.590256"
       y2="51.496456"
       gradientTransform="translate(0,-2)" />
    <filter
       inkscape:collect="always"
       id="filter9233"
       x="-0.17688774"
       width="1.3537755"
       y="-1.1860327"
       height="3.3720653">
      <feGaussianBlur
         inkscape:collect="always"
         stdDeviation="1.4853074"
         id="feGaussianBlur9235" />
    </filter>
    <filter
       inkscape:collect="always"
       id="filter9277"
       x="-0.084086426"
       width="1.168173"
       y="-0.56383455"
       height="2.1276691">
      <feGaussianBlur
         inkscape:collect="always"
         stdDeviation="0.70606478"
         id="feGaussianBlur9279" />
    </filter>
    <inkscape:perspective
       sodipodi:type="inkscape:persp3d"
       inkscape:vp_x="0 : 24 : 1"
       inkscape:vp_y="0 : 1000 : 0"
       inkscape:vp_z="48 : 24 : 1"
       inkscape:persp3d-origin="24 : 16 : 1"
       id="perspective8233" />
    <radialGradient
       inkscape:collect="always"
       xlink:href="#linearGradient7826"
       id="radialGradient8373"
       gradientUnits="userSpaceOnUse"
       gradientTransform="matrix(1.5385926,0,0,1.2923081,-49.88898,-14.995713)"
       cx="93.847061"
       cy="52.905464"
       fx="93.928299"
       fy="51.5513"
       r="7.0789666" />
    <radialGradient
       inkscape:collect="always"
       xlink:href="#linearGradient8643"
       id="radialGradient8375"
       gradientUnits="userSpaceOnUse"
       gradientTransform="matrix(1,0,0,0.8399287,0,8.8938737)"
       cx="92.25341"
       cy="53.701672"
       fx="94.62841"
       fy="50.87405"
       r="7.0789666" />
  </defs>
  <sodipodi:namedview
     id="base"
     pagecolor="#ffffff"
     bordercolor="#666666"
     borderopacity="1.0"
     inkscape:pageopacity="0.0"
     inkscape:pageshadow="2"
     inkscape:zoom="19.79899"
     inkscape:cx="20.971579"
     inkscape:cy="27.146764"
     inkscape:current-layer="layer1"
     showgrid="true"
     inkscape:grid-bbox="true"
     inkscape:document-units="px">
    <inkscape:grid
       type="xygrid"
       id="grid8377" />
  </sodipodi:namedview>
  <metadata
     id="metadata8230">
    <rdf:RDF>
      <cc:Work
         rdf:about="">
        <dc:format>image/svg+xml</dc:format>
        <dc:type
           rdf:resource="http://purl.org/dc/dcmitype/StillImage" />
      </cc:Work>
    </rdf:RDF>
  </metadata>
  <g
     id="layer1"
     inkscape:label="Layer 1"
     inkscape:groupmode="layer">
    <g
       style="display:inline;enable-background:new"
       id="g8190"
       transform="translate(-53.75341,-39.978208)">
      <g
         id="g8707">
        <g
           id="g8525"
           transform="matrix(1.1058823,0,0,1.1058823,-8.2918669,-10.807795)"
           style="opacity:0.62068942">
          <path
             transform="matrix(1.0265801,0,0,1,-1.6294164,-1.5620749)"
             sodipodi:nodetypes="csssscc"
             id="path8345"
             d="M 68.235804,82.034334 C 68.235804,82.034334 71.005006,84.524293 72.478445,84.509208 C 73.597119,84.497755 74.583509,82.867671 75.660426,82.564664 C 76.987745,82.191202 78.924959,82.206992 80.25662,82.564664 C 81.38108,82.866684 82.451264,84.53082 83.615377,84.509208 C 85.307163,84.4778 88.388348,81.504004 88.388348,81.504004 L 68.235804,82.034334 z"
             style="opacity:0.6256158;fill:#000000;fill-opacity:1;fill-rule:evenodd;stroke:none;stroke-width:1px;stroke-linecap:butt;stroke-linejoin:miter;stroke-opacity:1;filter:url(#filter9277)" />
          <path
             style="opacity:0.85714285;fill:#000000;fill-opacity:1;fill-rule:evenodd;stroke:none;stroke-width:1px;stroke-linecap:butt;stroke-linejoin:miter;stroke-opacity:1;filter:url(#filter9233)"
             d="M 68.235804,82.034334 C 68.235804,82.034334 71.005006,84.524293 72.478445,84.509208 C 73.597119,84.497755 74.583509,83.658894 75.660426,83.355887 C 76.987745,82.982425 78.924959,82.998215 80.25662,83.355887 C 81.38108,83.657907 82.451264,84.53082 83.615377,84.509208 C 85.307163,84.4778 88.388348,81.504004 88.388348,81.504004 L 68.235804,82.034334 z"
             id="path8447"
             sodipodi:nodetypes="csssscc"
             transform="matrix(1.4463576,0,0,1,-35.407311,-0.8838835)" />
        </g>
        <path
           style="fill:url(#linearGradient8216);fill-opacity:1;fill-rule:evenodd;stroke:url(#radialGradient8657);stroke-width:1px;stroke-linecap:butt;stroke-linejoin:miter;stroke-opacity:1"
           d="M 69.738406,48.921636 C 75.090098,49.564637 80.50408,49.80275 86.090251,48.921636 C 86.090251,48.921636 85.162173,58.821131 84.764426,58.732742 C 84.366678,58.644354 71.329397,58.732742 71.329397,58.732742 L 69.738406,48.921636 z"
           id="path8204"
           sodipodi:nodetypes="ccscc" />
        <path
           sodipodi:type="inkscape:offset"
           inkscape:radius="-0.84147024"
           inkscape:original="M 69.75 48.90625 L 71.34375 58.71875 C 71.34375 58.71875 84.352251 58.630362 84.75 58.71875 C 85.147747 58.807139 86.093753 48.906251 86.09375 48.90625 C 80.507579 49.787364 75.101695 49.549252 69.75 48.90625 z "
           xlink:href="#path8204"
           style="fill:none;fill-opacity:1;fill-rule:evenodd;stroke:url(#radialGradient8224);stroke-width:1px;stroke-linecap:butt;stroke-linejoin:miter;stroke-opacity:1"
           id="path8214"
           inkscape:href="#path8204"
           d="M 70.75,49.8125 L 72.0625,57.875 C 72.662824,57.871042 74.964332,57.853594 77.90625,57.84375 C 79.558125,57.838223 81.220928,57.839595 82.5,57.84375 C 83.139536,57.845827 83.662324,57.83761 84.0625,57.84375 C 84.09987,57.844323 84.121408,57.843136 84.15625,57.84375 C 84.200178,57.630088 84.230106,57.417609 84.28125,57.09375 C 84.422273,56.200757 84.607551,54.976397 84.75,53.75 C 84.97724,51.793601 85.086167,50.528555 85.15625,49.8125 C 80.227176,50.470367 75.453408,50.326401 70.75,49.8125 z" />
        <path
           style="fill:url(#linearGradient7796);fill-opacity:1;fill-rule:evenodd;stroke:url(#linearGradient7814);stroke-width:1px;stroke-linecap:butt;stroke-linejoin:miter;stroke-opacity:1"
           d="M 70,48.625 L 63.47059,58.703585 C 66.858653,60.497693 66.782048,69.497393 66.59191,76.46875 C 66.59191,76.468754 69.203814,80.311114 72.373699,78.896447 C 73.874861,78.226503 75.277882,76.559766 78.114277,76.524049 C 80.420108,76.575054 82.442083,77.34262 83.501301,78.366117 C 85.997564,80.778196 89.459867,76.46875 89.459867,76.46875 C 89.522665,69.53126 89.811844,61.204799 92.669575,58.791973 L 86,48.75 C 84.13872,53.148129 82.269794,53.53125 77.816942,53.53125 C 72.155927,53.428792 71.6607,51.921284 70,48.625 z"
           id="path7780"
           sodipodi:nodetypes="ccsscsscccc" />
        <path
           sodipodi:nodetypes="cscc"
           id="path8006"
           d="M 68.5,77.625 C 69.25,75 71.937745,69.128125 71,65.375 C 70.402186,62.982376 66,59.625 66,59.625 C 68.8491,65.28018 68.914256,71.317149 68.5,77.625 z"
           style="opacity:0.37931034;fill:url(#radialGradient8008);fill-opacity:1;fill-rule:evenodd;stroke:none;stroke-width:1px;stroke-linecap:butt;stroke-linejoin:miter;stroke-opacity:1;filter:url(#filter8026)"
           transform="matrix(-1,0,0,1,155.8212,-2)" />
        <g
           id="g8182"
           transform="translate(0,-2)">
          <path
             style="fill:url(#radialGradient8373);fill-opacity:1;fill-rule:evenodd;stroke:url(#radialGradient8375);stroke-width:1.00000012px;stroke-linecap:round;stroke-linejoin:round;stroke-opacity:1"
             d="M 85.236941,49.491118 C 87.536639,51.869698 89.207352,56.661594 90.361382,61.007772 L 98.832374,59.464585 C 97.884755,52.250476 90.827977,49.577525 85.236941,49.491118 z"
             id="path7786"
             sodipodi:nodetypes="cccc" />
          <path
             sodipodi:nodetypes="cccc"
             id="path7816"
             d="M 87.327688,51.451966 L 89.316426,55.031694 C 90.718842,53.788449 96.011187,56.28544 97.403959,58.081092 C 95.658945,52.761482 89.647007,51.436697 87.327688,51.451966 z"
             style="fill:url(#radialGradient8631);fill-opacity:1;fill-rule:evenodd;stroke:none;stroke-width:1px;stroke-linecap:butt;stroke-linejoin:miter;stroke-opacity:1" />
          <path
             sodipodi:nodetypes="cccsc"
             id="path7844"
             d="M 90.75,60.374999 C 89.558122,56.600316 88.288136,52.255295 86.125,49.937499 C 90.694205,50.541021 95.188237,51.998695 97.625,56.374999 C 97.686188,55.028857 88.66564,49.918421 88.6875,52.437499 C 88.689925,52.716997 90.75,60.437499 90.75,60.374999 z"
             style="fill:#ffffff;fill-opacity:1;fill-rule:evenodd;stroke:none;stroke-width:1px;stroke-linecap:butt;stroke-linejoin:miter;stroke-opacity:1" />
        </g>
        <path
           style="fill:url(#radialGradient7854);fill-opacity:1;fill-rule:evenodd;stroke:none;stroke-width:1px;stroke-linecap:butt;stroke-linejoin:miter;stroke-opacity:1;filter:url(#filter7904)"
           d="M 71.125,77.75 C 71.25,77.25 73.874868,66.295523 77.875,66.25 C 81.798113,66.205353 84.75,77.375 84.75,77.375 C 80.910453,76.025548 78.089857,72.536299 71.125,77.75 z"
           id="path7846"
           sodipodi:nodetypes="cscc" />
        <path
           style="opacity:0.39901476;fill:url(#radialGradient7916);fill-opacity:1;fill-rule:evenodd;stroke:none;stroke-width:1px;stroke-linecap:butt;stroke-linejoin:miter;stroke-opacity:1;filter:url(#filter8002)"
           d="M 68.146447,75.625 C 68.896447,73 71.584192,67.128125 70.646447,63.375 C 70.048633,60.982376 65.646447,57.625 65.646447,57.625 C 68.495547,63.28018 68.560703,69.317149 68.146447,75.625 z"
           id="path7908"
           sodipodi:nodetypes="cscc" />
        <path
           style="opacity:0.96059116;fill:url(#radialGradient8046);fill-opacity:1;fill-rule:evenodd;stroke:none;stroke-width:1px;stroke-linecap:butt;stroke-linejoin:miter;stroke-opacity:1;filter:url(#filter9654)"
           d="M 67.8125,60.0625 C 67.8125,60.0625 69.191378,61.361285 69.625,61.5625 C 71.445577,62.40731 76.3125,61.75 76.3125,61.75 L 77.8125,60.75 L 78.8125,61.75 C 78.8125,61.75 83.95001,62.662525 85.9375,61.875 C 86.862024,61.508665 88.3125,59.562499 88.3125,59.562499 C 88.3125,59.562499 86.228086,60.66887 85.25,60.875 C 83.50694,61.242347 79.3125,60.9375 79.3125,60.9375 L 77.375,59.812499 L 76,60.875 C 76,60.875 71.774848,61.174859 70,60.875 C 69.549788,60.798937 67.8125,60.0625 67.8125,60.0625 z"
           id="path8030"
           sodipodi:nodetypes="cscccscscccsc" />
        <path
           style="fill:url(#linearGradient8056);fill-opacity:1;fill-rule:evenodd;stroke:none;stroke-width:1px;stroke-linecap:butt;stroke-linejoin:miter;stroke-opacity:1;filter:url(#filter8094)"
           d="M 77.3125,55.624999 C 77.3125,56.249999 77.1875,59.562499 77.1875,59.562499 L 75.6875,60.812499 L 68.3125,59.999999 L 69.375,55.312499 L 77.3125,55.624999 z"
           id="path8048" />
        <path
           id="path8178"
           d="M 77.3125,57.624999 C 77.3125,58.249999 77.1875,61.562499 77.1875,61.562499 L 75.6875,62.812499 L 68.3125,61.999999 L 69.375,57.312499 L 77.3125,57.624999 z"
           style="fill:url(#linearGradient8180);fill-opacity:1;fill-rule:evenodd;stroke:none;stroke-width:1px;stroke-linecap:butt;stroke-linejoin:miter;stroke-opacity:1;filter:url(#filter8094)"
           transform="matrix(-1,0,0,1,155.25,-2)" />
        <path
           style="opacity:0.49261086;fill:#888a85;fill-opacity:1;fill-rule:evenodd;stroke:none;stroke-width:1px;stroke-linecap:butt;stroke-linejoin:miter;stroke-opacity:1;filter:url(#filter8302)"
           d="M 69.625,50 L 68,52.875 C 68,52.875 71.716744,57.026331 77.875,57.125 C 84.34651,57.228688 87.5,52.375 87.5,52.375 L 86.125,49.75 C 86.125,49.75 83.454268,54.656168 78,54.6875 C 73.733187,54.712011 69.625,50 69.625,50 z"
           id="path8284"
           sodipodi:nodetypes="cczcczc" />
        <g
           id="g8188"
           transform="matrix(-1,0,0,1,155.50682,-2)">
          <path
             sodipodi:nodetypes="cccc"
             id="path8190"
             d="M 85.236941,49.616118 C 86.786155,52.300803 88.652594,57.206069 90.361382,61.007772 L 98.832374,59.464585 C 97.884755,52.250476 90.827977,49.702525 85.236941,49.616118 z"
             style="opacity:1;fill:url(#radialGradient8629);fill-opacity:1;fill-rule:evenodd;stroke:url(#radialGradient8649);stroke-width:1.00000012px;stroke-linecap:round;stroke-linejoin:round;marker:none;marker-start:none;marker-mid:none;marker-end:none;stroke-miterlimit:4;stroke-dasharray:none;stroke-dashoffset:0;stroke-opacity:1;visibility:visible;display:inline;overflow:visible;enable-background:accumulate" />
          <path
             style="fill:url(#radialGradient8200);fill-opacity:1;fill-rule:evenodd;stroke:none;stroke-width:1px;stroke-linecap:butt;stroke-linejoin:miter;stroke-opacity:1"
             d="M 87.327688,51.451966 L 89.316426,55.031694 C 90.718842,53.788449 96.011187,56.28544 97.403959,58.081092 C 95.658945,52.761482 89.647007,51.436697 87.327688,51.451966 z"
             id="path8192"
             sodipodi:nodetypes="cccc" />
          <path
             style="fill:#ffffff;fill-opacity:1;fill-rule:evenodd;stroke:none;stroke-width:1px;stroke-linecap:butt;stroke-linejoin:miter;stroke-opacity:1"
             d="M 90.75,60.374999 L 86,49.999999 C 90.569205,50.603521 95.188237,51.998695 97.625,56.374999 C 97.686188,55.028857 86.415815,49.728887 88,52.624999 C 88.889236,54.250647 91.414996,60.846727 90.75,60.374999 z"
             id="path8196"
             sodipodi:nodetypes="cccsc" />
        </g>
        <path
           style="fill:#ffffff;fill-opacity:1;fill-rule:evenodd;stroke:none;stroke-width:1px;stroke-linecap:butt;stroke-linejoin:miter;stroke-opacity:1"
           d="M 69.875,49.812499 C 69.875,49.812499 70.517726,53.934981 77.75,54.124999 C 84.980364,54.314967 85.9375,49.999999 85.9375,49.999999 C 85.9375,49.999999 84.865757,55.47682 77.8125,55.437499 C 70.758617,55.398175 69.875,49.812499 69.875,49.812499 z"
           id="path8226"
           sodipodi:nodetypes="czczc" />
        <path
           style="opacity:0.2857143;fill:url(#linearGradient8236);fill-opacity:1;fill-rule:evenodd;stroke:none;stroke-width:1px;stroke-linecap:butt;stroke-linejoin:miter;stroke-opacity:1"
           d="M 66.270576,75.884524 C 66.270576,75.884524 67.885714,77.743695 69.137297,77.932621 C 71.937843,78.355361 72.465264,75.453305 78.328455,75.453305 C 84.038453,75.453305 84.387189,78.330832 87.157472,77.891567 C 88.084423,77.744587 89.364299,76.4988 89.364299,76.4988 C 89.364299,76.4988 87.845356,77.353323 87.10331,77.323325 C 84.057461,77.200194 81.480863,73.034642 78.431335,73.019485 C 75.289827,73.003871 72.264457,77.429482 69.124155,77.356796 C 68.111712,77.333362 66.270576,75.884524 66.270576,75.884524 z"
           id="path8228"
           sodipodi:nodetypes="cszscsssc" />
        <path
           style="fill:url(#radialGradient8278);fill-opacity:1;fill-rule:evenodd;stroke:none;stroke-width:1px;stroke-linecap:butt;stroke-linejoin:miter;stroke-opacity:1"
           d="M 57.4375,56.874999 L 64.6875,58.437499 L 65.4375,56.499999 L 57.8125,55.812499 L 57.4375,56.874999 z"
           id="path8262" />
        <path
           id="path8280"
           d="M 98.25,56.874999 L 91,58.437499 L 90.25,56.499999 L 97.875,55.812499 L 98.25,56.874999 z"
           style="fill:url(#radialGradient8282);fill-opacity:1;fill-rule:evenodd;stroke:none;stroke-width:1px;stroke-linecap:butt;stroke-linejoin:miter;stroke-opacity:1" />
        <path
           style="fill:url(#radialGradient8337);fill-opacity:1;fill-rule:evenodd;stroke:none;stroke-width:1px;stroke-linecap:butt;stroke-linejoin:miter;stroke-opacity:1"
           d="M 66.125,61.1875 C 67.29735,63.651128 66.994199,69.211866 67.125,75 C 67.125,75 69.937992,67.390229 68.9375,64.0625 C 68.586596,62.895359 66.125,61.1875 66.125,61.1875 z"
           id="path8329"
           sodipodi:nodetypes="ccsc" />
        <path
           sodipodi:nodetypes="ccsc"
           id="path8339"
           d="M 90.211333,61.1875 C 89.038983,63.651128 88.842134,70.211866 88.461333,76 C 88.461333,76 86.398341,67.390229 87.398833,64.0625 C 87.749737,62.895359 90.211333,61.1875 90.211333,61.1875 z"
           style="fill:url(#radialGradient8341);fill-opacity:1;fill-rule:evenodd;stroke:none;stroke-width:1px;stroke-linecap:butt;stroke-linejoin:miter;stroke-opacity:1" />
        <path
           style="fill:#ffffff;fill-opacity:1;fill-rule:evenodd;stroke:none;stroke-width:1px;stroke-linecap:butt;stroke-linejoin:miter;stroke-opacity:1;filter:url(#filter9622)"
           d="M 69.125,58.875 C 69.125,58.875 73.195561,61.308205 75.125,60.9375 C 76.024048,60.764765 78,59.25 78,59.25 C 78,59.25 80.331931,60.999044 81.3125,61.1875 C 83.349616,61.579014 87.5,59 87.5,59 C 87.5,59 82.801648,60.147819 80.875,59.625 C 79.760101,59.322459 77.875,56.6875 77.875,56.6875 C 77.875,56.6875 76.168518,59.094243 75.25,59.375 C 73.486912,59.913912 69.125,58.875 69.125,58.875 z"
           id="path8343"
           sodipodi:nodetypes="cscscscsc" />
        <path
           sodipodi:nodetypes="cszscsssc"
           id="path8659"
           d="M 66.895576,75.572024 C 66.895576,75.572024 68.06104,75.743695 69.244878,75.932621 C 71.893838,76.355361 74.13154,71.3897 78.300795,71.453305 C 82.397622,71.515805 84.104037,76.393332 86.724371,75.954067 C 87.601149,75.807087 88.739299,76.1863 88.739299,76.1863 C 88.739299,76.1863 87.302572,77.040823 86.600691,77.010825 C 83.719706,76.887694 81.282572,72.722142 78.398107,72.706985 C 75.42664,72.691371 72.565025,77.116982 69.594698,77.044296 C 68.637057,77.020862 66.895576,75.572024 66.895576,75.572024 z"
           style="opacity:1;fill:url(#radialGradient8667);fill-opacity:1;fill-rule:evenodd;stroke:none;stroke-width:1px;stroke-linecap:butt;stroke-linejoin:miter;stroke-opacity:1" />
        <path
           style="opacity:0.67487685;fill:url(#linearGradient8677);fill-opacity:1;fill-rule:evenodd;stroke:none;stroke-width:1px;stroke-linecap:butt;stroke-linejoin:miter;stroke-opacity:1"
           d="M 93.3125,58.999999 L 89.638483,59.634802 C 87.909548,61.71954 89.530729,63.556214 88.96875,65.718749 C 90.2256,63.383632 90.983735,60.799158 93.3125,58.999999 z"
           id="path8669"
           sodipodi:nodetypes="cccc" />
        <path
           sodipodi:nodetypes="cccc"
           id="path8703"
           d="M 64.502449,58.999999 L 68.176466,59.634802 C 69.905401,61.71954 68.28422,63.556214 68.846199,65.718749 C 67.589349,63.383632 66.831214,60.799158 64.502449,58.999999 z"
           style="opacity:0.67487685;fill:url(#linearGradient8705);fill-opacity:1;fill-rule:evenodd;stroke:none;stroke-width:1px;stroke-linecap:butt;stroke-linejoin:miter;stroke-opacity:1" />
      </g>
      <path
         transform="matrix(0.7192311,0,0,0.7192311,21.899977,15.305858)"
         sodipodi:nodetypes="cccc"
         id="path8306"
         d="M 70,59.979166 L 86,59.979166 L 77.833334,71.327815 L 70,59.979166 z"
         style="fill:url(#radialGradient9286);fill-opacity:1;fill-rule:evenodd;stroke:none;stroke-width:1px;stroke-linecap:butt;stroke-linejoin:miter;stroke-opacity:1;display:inline;filter:url(#filter8320);enable-background:new" />
    </g>
  </g>
</svg>
