<?xml version="1.0" encoding="UTF-8" standalone="no"?>
<!-- Created with Inkscape (http://www.inkscape.org/) -->
<svg
   xmlns:dc="http://purl.org/dc/elements/1.1/"
   xmlns:cc="http://creativecommons.org/ns#"
   xmlns:rdf="http://www.w3.org/1999/02/22-rdf-syntax-ns#"
   xmlns:svg="http://www.w3.org/2000/svg"
   xmlns="http://www.w3.org/2000/svg"
   xmlns:xlink="http://www.w3.org/1999/xlink"
   xmlns:sodipodi="http://sodipodi.sourceforge.net/DTD/sodipodi-0.dtd"
   xmlns:inkscape="http://www.inkscape.org/namespaces/inkscape"
   width="48px"
   height="48px"
   id="svg10497"
   sodipodi:version="0.32"
   inkscape:version="0.46"
   sodipodi:docname="user-busy.svg"
   inkscape:output_extension="org.inkscape.output.svg.inkscape">
  <defs
     id="defs10499">
    <linearGradient
       inkscape:collect="always"
       xlink:href="#linearGradient11581"
       id="linearGradient11591"
       gradientUnits="userSpaceOnUse"
       x1="662.69165"
       y1="90.948685"
       x2="662.69165"
       y2="86.968384" />
    <linearGradient
       inkscape:collect="always"
       xlink:href="#linearGradient11581"
       id="linearGradient11589"
       gradientUnits="userSpaceOnUse"
       x1="662.69165"
       y1="92.309509"
       x2="662.69165"
       y2="86.968384" />
    <linearGradient
       inkscape:collect="always"
       id="linearGradient11581">
      <stop
         style="stop-color:#2e3436;stop-opacity:1"
         offset="0"
         id="stop11583" />
      <stop
         style="stop-color:#555753;stop-opacity:0;"
         offset="1"
         id="stop11585" />
    </linearGradient>
    <linearGradient
       inkscape:collect="always"
       xlink:href="#linearGradient11581"
       id="linearGradient11587"
       x1="662.69165"
       y1="89.635735"
       x2="662.69165"
       y2="86.968384"
       gradientUnits="userSpaceOnUse" />
    <linearGradient
       inkscape:collect="always"
       id="linearGradient11561">
      <stop
         style="stop-color:#ffffff;stop-opacity:1;"
         offset="0"
         id="stop11563" />
      <stop
         style="stop-color:#ffffff;stop-opacity:0;"
         offset="1"
         id="stop11565" />
    </linearGradient>
    <linearGradient
       inkscape:collect="always"
       xlink:href="#linearGradient11561"
       id="linearGradient11567"
       x1="662.6875"
       y1="86.3125"
       x2="672.1875"
       y2="96.815544"
       gradientUnits="userSpaceOnUse" />
    <linearGradient
       inkscape:collect="always"
       id="linearGradient11551">
      <stop
         style="stop-color:#555753;stop-opacity:1"
         offset="0"
         id="stop11553" />
      <stop
         style="stop-color:#888a85;stop-opacity:1"
         offset="1"
         id="stop11555" />
    </linearGradient>
    <linearGradient
       inkscape:collect="always"
       xlink:href="#linearGradient11551"
       id="linearGradient11557"
       x1="665.6875"
       y1="86.8125"
       x2="665.6875"
       y2="94.943504"
       gradientUnits="userSpaceOnUse" />
    <linearGradient
       inkscape:collect="always"
       id="linearGradient11534">
      <stop
         style="stop-color:#ffffff;stop-opacity:1"
         offset="0"
         id="stop11536" />
      <stop
         style="stop-color:#eeeeec;stop-opacity:1"
         offset="1"
         id="stop11538" />
    </linearGradient>
    <radialGradient
       inkscape:collect="always"
       xlink:href="#linearGradient11534"
       id="radialGradient11540"
       cx="698.13196"
       cy="71.821526"
       fx="698.13196"
       fy="71.821526"
       r="4"
       gradientTransform="matrix(1.3063792,0,0,0.7812529,-215.02506,17.014235)"
       gradientUnits="userSpaceOnUse" />
    <linearGradient
       inkscape:collect="always"
       xlink:href="#linearGradient2844"
       id="linearGradient11760"
       gradientUnits="userSpaceOnUse"
       gradientTransform="translate(-118,2)"
       x1="72.375"
       y1="28.301006"
       x2="72.375"
       y2="31.375868" />
    <linearGradient
       id="linearGradient2844"
       inkscape:collect="always">
      <stop
         id="stop2846"
         offset="0"
         style="stop-color:white;stop-opacity:1;" />
      <stop
         id="stop2848"
         offset="1"
         style="stop-color:white;stop-opacity:0;" />
    </linearGradient>
    <linearGradient
       inkscape:collect="always"
       xlink:href="#linearGradient2844"
       id="linearGradient11758"
       gradientUnits="userSpaceOnUse"
       gradientTransform="translate(-118,2)"
       x1="92.586792"
       y1="6.5408134"
       x2="92.586792"
       y2="10.352213" />
    <linearGradient
       id="linearGradient2894">
      <stop
         id="stop2896"
         offset="0"
         style="stop-color:white;stop-opacity:1;" />
      <stop
         id="stop2898"
         offset="1"
         style="stop-color:white;stop-opacity:0.43629342" />
    </linearGradient>
    <linearGradient
       inkscape:collect="always"
       xlink:href="#linearGradient2894"
       id="linearGradient11756"
       gradientUnits="userSpaceOnUse"
       x1="22.547333"
       y1="14.127917"
       x2="22.174427"
       y2="12.955575" />
    <linearGradient
       id="linearGradient11768">
      <stop
         style="stop-color:#ef2929;stop-opacity:1"
         offset="0"
         id="stop11770" />
      <stop
         style="stop-color:#cc0000;stop-opacity:1"
         offset="1"
         id="stop11772" />
    </linearGradient>
    <radialGradient
       inkscape:collect="always"
       xlink:href="#linearGradient11768"
       id="radialGradient11754"
       gradientUnits="userSpaceOnUse"
       gradientTransform="matrix(1.065299,0,0,1.069873,-2.349853,-1.383156)"
       cx="35.407703"
       cy="21.517693"
       fx="35.407703"
       fy="21.517693"
       r="5.4555612" />
    <linearGradient
       id="linearGradient11774">
      <stop
         id="stop11776"
         offset="0"
         style="stop-color:#ef2929;stop-opacity:1" />
      <stop
         id="stop11778"
         offset="1"
         style="stop-color:#cc0000;stop-opacity:1" />
    </linearGradient>
    <radialGradient
       inkscape:collect="always"
       xlink:href="#linearGradient11774"
       id="radialGradient11752"
       gradientUnits="userSpaceOnUse"
       gradientTransform="matrix(1.3852938,0,0,1.1828585,-2.1985396,-3.7252664)"
       cx="7.0907202"
       cy="22.561522"
       fx="7.0907202"
       fy="22.561522"
       r="5.4701443" />
    <linearGradient
       id="linearGradient11762">
      <stop
         style="stop-color:#ef2929;stop-opacity:1"
         offset="0"
         id="stop11764" />
      <stop
         style="stop-color:#cc0000;stop-opacity:1"
         offset="1"
         id="stop11766" />
    </linearGradient>
    <radialGradient
       inkscape:collect="always"
       xlink:href="#linearGradient11762"
       id="radialGradient11750"
       gradientUnits="userSpaceOnUse"
       gradientTransform="matrix(0.7779357,-0.5099058,0.2249132,0.3431361,8.710057,35.620936)"
       cx="17.315821"
       cy="-18.43367"
       fx="17.315821"
       fy="-18.43367"
       r="20.988943" />
    <linearGradient
       id="linearGradient3183"
       inkscape:collect="always">
      <stop
         id="stop3185"
         offset="0"
         style="stop-color:#ffffff;stop-opacity:1;" />
      <stop
         id="stop3187"
         offset="1"
         style="stop-color:#ffffff;stop-opacity:0;" />
    </linearGradient>
    <linearGradient
       inkscape:collect="always"
       xlink:href="#linearGradient3183"
       id="linearGradient11198"
       gradientUnits="userSpaceOnUse"
       x1="73.414131"
       y1="53.407055"
       x2="76.044403"
       y2="66.279846" />
    <linearGradient
       id="linearGradient3211"
       inkscape:collect="always">
      <stop
         id="stop3213"
         offset="0"
         style="stop-color:#ffffff;stop-opacity:1;" />
      <stop
         id="stop3215"
         offset="1"
         style="stop-color:#ffffff;stop-opacity:0;" />
    </linearGradient>
    <linearGradient
       inkscape:collect="always"
       xlink:href="#linearGradient3211"
       id="linearGradient11196"
       gradientUnits="userSpaceOnUse"
       x1="77.114586"
       y1="54.003254"
       x2="77.114586"
       y2="56.299889" />
    <linearGradient
       id="linearGradient2401"
       inkscape:collect="always">
      <stop
         id="stop2403"
         offset="0"
         style="stop-color:#888a85;stop-opacity:1;" />
      <stop
         id="stop2405"
         offset="1"
         style="stop-color:#555753;stop-opacity:1" />
    </linearGradient>
    <linearGradient
       inkscape:collect="always"
       xlink:href="#linearGradient2401"
       id="linearGradient11194"
       gradientUnits="userSpaceOnUse"
       x1="74.809799"
       y1="55.235325"
       x2="75.192665"
       y2="59.013077" />
    <linearGradient
       id="linearGradient7088"
       inkscape:collect="always">
      <stop
         id="stop7090"
         offset="0"
         style="stop-color:#ffffff;stop-opacity:1" />
      <stop
         style="stop-color:#c8c8c1;stop-opacity:1"
         offset="0.63414639"
         id="stop7096" />
      <stop
         id="stop7092"
         offset="1"
         style="stop-color:#d9d9d4;stop-opacity:1" />
    </linearGradient>
    <radialGradient
       inkscape:collect="always"
       xlink:href="#linearGradient7088"
       id="radialGradient11192"
       gradientUnits="userSpaceOnUse"
       gradientTransform="matrix(1.194803,0,0,1.194803,-15.048532,-10.475418)"
       cx="77.25"
       cy="53.774418"
       fx="77.25"
       fy="53.774418"
       r="5.0104723" />
    <linearGradient
       inkscape:collect="always"
       id="linearGradient8918">
      <stop
         style="stop-color:#ffffff;stop-opacity:1;"
         offset="0"
         id="stop8920" />
      <stop
         style="stop-color:#ffffff;stop-opacity:0;"
         offset="1"
         id="stop8922" />
    </linearGradient>
    <radialGradient
       inkscape:collect="always"
       xlink:href="#linearGradient8918"
       id="radialGradient11214"
       gradientUnits="userSpaceOnUse"
       gradientTransform="matrix(1.2990853,0,0,0.4592381,264.43756,43.391158)"
       cx="319.51566"
       cy="112.44332"
       fx="319.51566"
       fy="112.44332"
       r="18.484375" />
    <linearGradient
       inkscape:collect="always"
       id="linearGradient8889">
      <stop
         style="stop-color:#ffffff;stop-opacity:1;"
         offset="0"
         id="stop8891" />
      <stop
         style="stop-color:#ffffff;stop-opacity:0;"
         offset="1"
         id="stop8893" />
    </linearGradient>
    <radialGradient
       inkscape:collect="always"
       xlink:href="#linearGradient8889"
       id="radialGradient11221"
       gradientUnits="userSpaceOnUse"
       gradientTransform="matrix(2.7113513,0,0,1.0203501,-176.96321,4.2348013)"
       cx="313.76562"
       cy="67.761253"
       fx="313.76562"
       fy="67.761253"
       r="18.453125" />
    <linearGradient
       inkscape:collect="always"
       id="linearGradient3695">
      <stop
         style="stop-color:#000000;stop-opacity:1;"
         offset="0"
         id="stop3697" />
      <stop
         style="stop-color:#000000;stop-opacity:0;"
         offset="1"
         id="stop3699" />
    </linearGradient>
    <linearGradient
       inkscape:collect="always"
       xlink:href="#linearGradient3695"
       id="linearGradient11188"
       gradientUnits="userSpaceOnUse"
       x1="393.9375"
       y1="85.4375"
       x2="393.9375"
       y2="89.814285" />
    <linearGradient
       inkscape:collect="always"
       id="linearGradient3665">
      <stop
         style="stop-color:#ffffff;stop-opacity:1;"
         offset="0"
         id="stop3667" />
      <stop
         style="stop-color:#ffffff;stop-opacity:0;"
         offset="1"
         id="stop3669" />
    </linearGradient>
    <linearGradient
       inkscape:collect="always"
       xlink:href="#linearGradient3665"
       id="linearGradient11186"
       gradientUnits="userSpaceOnUse"
       gradientTransform="matrix(2.4999995,0,0,2.1192332,-404.24982,-323.92933)"
       x1="309.80115"
       y1="197"
       x2="309.80115"
       y2="193.31165" />
    <linearGradient
       inkscape:collect="always"
       id="linearGradient3685">
      <stop
         style="stop-color:#000000;stop-opacity:1;"
         offset="0"
         id="stop3687" />
      <stop
         style="stop-color:#000000;stop-opacity:0;"
         offset="1"
         id="stop3689" />
    </linearGradient>
    <linearGradient
       inkscape:collect="always"
       xlink:href="#linearGradient3685"
       id="linearGradient11184"
       gradientUnits="userSpaceOnUse"
       x1="363.98322"
       y1="92.558792"
       x2="363.98322"
       y2="84.044449"
       gradientTransform="translate(300,-1)" />
    <linearGradient
       id="linearGradient3831">
      <stop
         id="stop3833"
         offset="0"
         style="stop-color:#000000;stop-opacity:1;" />
      <stop
         style="stop-color:#000000;stop-opacity:0.49803922;"
         offset="0.66581178"
         id="stop3835" />
      <stop
         id="stop3837"
         offset="1"
         style="stop-color:#000000;stop-opacity:0;" />
    </linearGradient>
    <radialGradient
       inkscape:collect="always"
       xlink:href="#linearGradient3831"
       id="radialGradient11182"
       gradientUnits="userSpaceOnUse"
       gradientTransform="matrix(0.651993,0,0,0.4554508,132.06865,43.291342)"
       cx="379.50003"
       cy="61.2845"
       fx="379.50003"
       fy="61.2845"
       r="18.5" />
    <linearGradient
       id="linearGradient3597">
      <stop
         style="stop-color:#ffffff;stop-opacity:0"
         offset="0"
         id="stop3599" />
      <stop
         id="stop3654"
         offset="0.40612376"
         style="stop-color:#ffffff;stop-opacity:0" />
      <stop
         style="stop-color:#ffffff;stop-opacity:1"
         offset="1"
         id="stop3601" />
    </linearGradient>
    <radialGradient
       inkscape:collect="always"
       xlink:href="#linearGradient3597"
       id="radialGradient11232"
       gradientUnits="userSpaceOnUse"
       gradientTransform="matrix(1.7506789,0,0,0.4317528,15.1173,50.325111)"
       cx="379.5"
       cy="76.229538"
       fx="379.5"
       fy="76.229538"
       r="18.5" />
    <filter
       inkscape:collect="always"
       id="filter3970"
       x="-0.084656589"
       width="1.1693132"
       y="-0.84697956"
       height="2.693959">
      <feGaussianBlur
         inkscape:collect="always"
         stdDeviation="1.058738"
         id="feGaussianBlur3972" />
    </filter>
    <linearGradient
       id="linearGradient11307"
       inkscape:collect="always">
      <stop
         id="stop11309"
         offset="0"
         style="stop-color:#888a85;stop-opacity:1;" />
      <stop
         id="stop11311"
         offset="1"
         style="stop-color:#3d3f3c;stop-opacity:1" />
    </linearGradient>
    <linearGradient
       inkscape:collect="always"
       xlink:href="#linearGradient11307"
       id="linearGradient11207"
       gradientUnits="userSpaceOnUse"
       gradientTransform="matrix(3.454002,0,0,2.9465769,600.09398,17.45314)"
       x1="22.405174"
       y1="19.230879"
       x2="22.405174"
       y2="25.107412" />
    <linearGradient
       id="linearGradient7134">
      <stop
         id="stop7136"
         offset="0"
         style="stop-color:#f0f0ee;stop-opacity:1" />
      <stop
         id="stop7138"
         offset="1"
         style="stop-color:#a1a196;stop-opacity:1" />
    </linearGradient>
    <radialGradient
       inkscape:collect="always"
       xlink:href="#linearGradient7134"
       id="radialGradient11205"
       gradientUnits="userSpaceOnUse"
       gradientTransform="matrix(5.07848,0,0,2.2621725,562.74746,33.092146)"
       cx="22.989853"
       cy="19.626234"
       fx="22.989853"
       fy="19.626234"
       r="5.8947372" />
    <radialGradient
       inkscape:collect="always"
       xlink:href="#linearGradient8930"
       id="radialGradient11174"
       gradientUnits="userSpaceOnUse"
       gradientTransform="matrix(1,0,0,0.3313609,0,60.010355)"
       cx="319.375"
       cy="89.75"
       fx="319.375"
       fy="89.75"
       r="21.125" />
    <linearGradient
       inkscape:collect="always"
       id="linearGradient8930">
      <stop
         style="stop-color:#000000;stop-opacity:1;"
         offset="0"
         id="stop8932" />
      <stop
         style="stop-color:#000000;stop-opacity:0;"
         offset="1"
         id="stop8934" />
    </linearGradient>
    <radialGradient
       inkscape:collect="always"
       xlink:href="#linearGradient8930"
       id="radialGradient11172"
       gradientUnits="userSpaceOnUse"
       gradientTransform="matrix(1,0,0,0.3313609,0,60.010355)"
       cx="319.375"
       cy="89.75"
       fx="319.375"
       fy="89.75"
       r="21.125" />
    <filter
       inkscape:collect="always"
       id="filter11599"
       x="-0.06666667"
       width="1.1333333"
       y="-0.60000002"
       height="2.2">
      <feGaussianBlur
         inkscape:collect="always"
         stdDeviation="0.5"
         id="feGaussianBlur11601" />
    </filter>
    <inkscape:perspective
       sodipodi:type="inkscape:persp3d"
       inkscape:vp_x="0 : 24 : 1"
       inkscape:vp_y="0 : 1000 : 0"
       inkscape:vp_z="48 : 24 : 1"
       inkscape:persp3d-origin="24 : 16 : 1"
       id="perspective10505" />
  </defs>
  <sodipodi:namedview
     id="base"
     pagecolor="#ffffff"
     bordercolor="#666666"
     borderopacity="1.0"
     inkscape:pageopacity="0.0"
     inkscape:pageshadow="2"
     inkscape:zoom="13.9167"
     inkscape:cx="14.721737"
     inkscape:cy="24.445659"
     inkscape:current-layer="layer1"
     showgrid="true"
     inkscape:grid-bbox="true"
     inkscape:document-units="px">
    <inkscape:grid
       type="xygrid"
       id="grid10654" />
  </sodipodi:namedview>
  <metadata
     id="metadata10502">
    <rdf:RDF>
      <cc:Work
         rdf:about="">
        <dc:format>image/svg+xml</dc:format>
        <dc:type
           rdf:resource="http://purl.org/dc/dcmitype/StillImage" />
      </cc:Work>
    </rdf:RDF>
  </metadata>
  <g
     id="layer1"
     inkscape:label="Layer 1"
     inkscape:groupmode="layer">
    <g
       style="display:inline;enable-background:new"
       id="g10452"
       transform="translate(-656.00302,-49.945425)">
      <rect
         ry="0.93333328"
         rx="1.0176679"
         y="95"
         x="657"
         height="2"
         width="18"
         id="rect11597"
         style="opacity:1;fill:#000000;fill-opacity:1;stroke:none;stroke-width:1;stroke-linecap:round;stroke-linejoin:round;stroke-miterlimit:4;stroke-dasharray:none;stroke-opacity:1;filter:url(#filter11599)" />
      <g
         transform="translate(363,0)"
         style="display:inline;enable-background:new"
         id="use11136">
        <path
           transform="matrix(0.9576164,0,0,0.5755102,11.661263,41.347962)"
           d="M 340.5,89.75 A 21.125,7 0 1 1 298.25,89.75 A 21.125,7 0 1 1 340.5,89.75 z"
           sodipodi:ry="7"
           sodipodi:rx="21.125"
           sodipodi:cy="89.75"
           sodipodi:cx="319.375"
           id="path11140"
           style="opacity:0.35;fill:url(#radialGradient11172);fill-opacity:1;stroke:none;stroke-width:1;stroke-linejoin:round;stroke-miterlimit:4;stroke-dasharray:none;display:inline;enable-background:new"
           sodipodi:type="arc" />
        <path
           transform="matrix(0.8284027,0,0,0.4285713,52.928892,54.535726)"
           d="M 340.5,89.75 A 21.125,7 0 1 1 298.25,89.75 A 21.125,7 0 1 1 340.5,89.75 z"
           sodipodi:ry="7"
           sodipodi:rx="21.125"
           sodipodi:cy="89.75"
           sodipodi:cx="319.375"
           id="path11142"
           style="opacity:1;fill:url(#radialGradient11174);fill-opacity:1;stroke:none;stroke-width:1;stroke-linejoin:round;stroke-miterlimit:4;stroke-dasharray:none"
           sodipodi:type="arc" />
        <g
           transform="translate(-62,-1)"
           id="g11144">
          <path
             sodipodi:nodetypes="csscsscccsc"
             id="path11146"
             transform="translate(-300,1)"
             d="M 679.5,71.5 C 668.99304,71.499998 660.5,76.414904 660.5,83.9375 C 660.50001,86.640955 661.61784,91.209778 665.5,92.25 C 665.50001,92.250001 665.5625,93.34375 665.5625,93.34375 C 666.81952,93.54547 668.54253,94.5 679.5,94.5 C 679.51113,94.5 679.52013,94.500004 679.53125,94.5 C 690.48872,94.5 692.21173,93.545466 693.46875,93.34375 C 693.46875,93.34375 693.53124,92.249997 693.53125,92.25 L 695.375,76.8125 C 691.97865,73.470015 686.17018,71.499996 679.53125,71.5 C 679.52067,71.49999 679.51058,71.5 679.5,71.5 z"
             style="fill:url(#radialGradient11205);fill-opacity:1;fill-rule:evenodd;stroke:url(#linearGradient11207);stroke-width:0.99999988;stroke-linecap:butt;stroke-linejoin:round;marker:none;stroke-miterlimit:4;stroke-dasharray:none;stroke-dashoffset:0;stroke-opacity:1;visibility:visible;display:inline;overflow:visible;enable-background:accumulate" />
          <path
             style="fill:none;fill-rule:evenodd;stroke:#ffffff;stroke-width:1.94869423;stroke-linecap:round;stroke-linejoin:miter;stroke-miterlimit:4;stroke-dasharray:none;stroke-opacity:1;display:inline;filter:url(#filter3970);enable-background:new"
             d="M 305.38366,80.5 C 314.83663,79.206308 324.21367,79.127505 333.5,80.5"
             id="path11148"
             sodipodi:nodetypes="cc"
             transform="matrix(1.0533498,0,0,1,42.957855,-1)" />
          <path
             id="path11150"
             transform="translate(-300,1)"
             d="M 679.5,72 C 674.32318,71.999999 669.65108,73.174086 666.3125,75.28125 C 662.97984,77.384679 661,80.364135 661,83.9375 C 661,84.490504 661.06488,85.101486 661.15625,85.71875 C 661.65886,83.857235 663.49218,82.282047 666.3125,81.125 C 669.65108,79.755334 674.32318,78.999997 679.5,79 C 684.6768,79 689.34892,79.755331 692.6875,81.125 C 693.25156,81.35641 693.76765,81.611194 694.25,81.875 L 694.8125,76.9375 C 694.18485,76.347097 693.47415,75.777747 692.6875,75.28125 C 689.34892,73.174086 684.6768,72 679.5,72 z"
             style="opacity:0.80365295;fill:url(#radialGradient11232);fill-opacity:1;fill-rule:evenodd;stroke:none;stroke-width:1;stroke-linecap:butt;stroke-linejoin:miter;marker:none;stroke-miterlimit:4;stroke-dasharray:none;stroke-dashoffset:0;stroke-opacity:1;visibility:visible;display:inline;overflow:visible;enable-background:accumulate" />
          <path
             style="opacity:0.65753425;fill:url(#radialGradient11182);fill-opacity:1;fill-rule:evenodd;stroke:none;stroke-width:1;stroke-linecap:butt;stroke-linejoin:miter;marker:none;stroke-miterlimit:4;stroke-dasharray:none;stroke-dashoffset:0;stroke-opacity:1;visibility:visible;display:inline;overflow:visible;enable-background:accumulate"
             d="M 379.5,73 C 374.32318,72.999999 369.65108,74.174086 366.3125,76.28125 C 364.71015,77.292584 363.43844,78.521249 362.53125,79.90625 L 396.46875,79.90625 C 395.56156,78.521248 394.28985,77.292584 392.6875,76.28125 C 389.34892,74.174086 384.6768,73 379.5,73 z"
             id="path11152" />
          <path
             id="path11154"
             transform="translate(-300,1)"
             d="M 664.3125,76.8125 C 662.20233,78.742853 661.00785,81.151244 661,83.9375 C 660.9922,86.731894 662.15154,89.502284 663.46875,90.59375 C 664.14075,91.150581 664.71615,91.546875 665.9375,91.875 L 664.3125,76.8125 z M 694.6875,76.8125 L 693.0625,91.90625 C 693.09166,91.899136 693.12667,91.882968 693.15625,91.875 L 694.8125,76.9375 C 694.76933,76.89687 694.73146,76.852716 694.6875,76.8125 z"
             style="opacity:0.1;fill:url(#linearGradient11184);fill-opacity:1;fill-rule:evenodd;stroke:none;stroke-width:1;stroke-linecap:butt;stroke-linejoin:miter;marker:none;stroke-miterlimit:4;stroke-dasharray:none;stroke-dashoffset:0;stroke-opacity:1;visibility:visible;display:inline;overflow:visible;enable-background:accumulate" />
          <path
             id="path11156"
             d="M 364.50001,75.546138 L 366.53125,93.500003 C 366.53125,93.500003 370.83595,94.500003 379.49999,94.500003 C 388.20823,94.500003 392.46874,93.500003 392.46874,93.500003 L 394.5,75.546138 C 394.5,75.546138 364.50001,75.546138 364.50001,75.546138 z"
             style="opacity:0.4;fill:none;fill-opacity:1;stroke:url(#linearGradient11186);stroke-width:1;stroke-linecap:round;stroke-linejoin:miter;stroke-miterlimit:4;stroke-opacity:1;display:inline;enable-background:new"
             sodipodi:nodetypes="cczccc" />
          <path
             style="opacity:0.23744291;fill:url(#linearGradient11188);fill-opacity:1;fill-rule:evenodd;stroke:none;stroke-width:1;stroke-linecap:butt;stroke-linejoin:miter;marker:none;stroke-miterlimit:4;stroke-dasharray:none;stroke-dashoffset:0;stroke-opacity:1;visibility:visible;display:inline;overflow:visible;enable-background:accumulate"
             d="M 365,83.8125 C 365,83.8125 363.96875,93 363.96875,93 L 366.125,93 L 365,83.8125 z"
             id="path11158"
             sodipodi:nodetypes="cccc" />
        </g>
        <path
           id="path11160"
           transform="translate(-362,0)"
           d="M 679.5,72.5625 C 674.41215,72.562499 669.84115,73.751354 666.625,75.78125 C 663.40885,77.811146 661.5625,80.575957 661.5625,83.9375 C 661.5625,85.142825 661.82518,86.829145 662.5,88.25 C 663.17482,89.670855 664.19109,90.792669 665.78125,91.21875 C 666.22335,91.339363 666.53829,91.729879 666.5625,92.1875 C 666.5625,92.1875 666.55749,92.349826 666.5625,92.4375 C 667.16068,92.578694 667.62063,92.747372 669.03125,92.9375 C 670.92239,93.192394 674.05211,93.4375 679.5,93.4375 C 679.51138,93.4375 679.52059,93.437504 679.53125,93.4375 C 684.97914,93.4375 688.10886,93.192395 690,92.9375 C 691.41062,92.747371 691.87057,92.578693 692.46875,92.4375 C 692.47376,92.349826 692.46875,92.1875 692.46875,92.1875 C 692.47965,91.981571 692.54252,91.785272 692.65625,91.625 L 694.28125,77.1875 C 693.72194,76.685555 693.09644,76.216869 692.40625,75.78125 C 689.1901,73.751354 684.6191,72.562497 679.53125,72.5625 C 679.52198,72.562491 679.51125,72.5625 679.5,72.5625 z"
           style="fill:none;fill-opacity:1;fill-rule:evenodd;stroke:url(#radialGradient11221);stroke-width:0.99999988;stroke-linecap:butt;stroke-linejoin:round;marker:none;stroke-miterlimit:4;stroke-dasharray:none;stroke-dashoffset:0;stroke-opacity:1;visibility:visible;display:inline;overflow:visible;enable-background:accumulate" />
        <path
           sodipodi:nodetypes="cssscccsssscccssc"
           id="path11170"
           transform="translate(-362,0)"
           d="M 679.5,72.03125 C 674.32962,72.031249 669.66976,73.244517 666.34375,75.34375 C 663.01774,77.442983 661.03125,80.376769 661.03125,83.9375 C 661.03125,85.215774 661.31163,86.984816 662.03125,88.5 C 662.75087,90.015184 663.85999,91.277066 665.625,91.75 C 665.84675,91.803248 666.01006,91.991679 666.03125,92.21875 C 666.03125,92.21875 666.04416,92.585297 666.0625,92.90625 C 666.70128,93.040116 667.28197,93.2414 668.96875,93.46875 C 670.89299,93.728106 674.03674,93.96875 679.5,93.96875 C 679.51126,93.96875 679.52036,93.968754 679.53125,93.96875 C 684.99451,93.96875 688.13826,93.728106 690.0625,93.46875 C 691.74928,93.2414 692.32996,93.040115 692.96875,92.90625 C 692.98709,92.585297 693,92.21875 693,92.21875 L 694.90625,77.0625 C 694.2523,76.436616 693.519,75.868559 692.6875,75.34375 C 689.36149,73.244516 684.70163,72.031247 679.53125,72.03125 C 679.52133,72.031241 679.51092,72.03125 679.5,72.03125 z"
           style="opacity:0.8;fill:url(#radialGradient11214);fill-opacity:1;fill-rule:evenodd;stroke:none;stroke-width:0.99999988;stroke-linecap:butt;stroke-linejoin:round;marker:none;stroke-miterlimit:4;stroke-dashoffset:0;stroke-opacity:1;visibility:visible;display:inline;overflow:visible;enable-background:accumulate" />
        <g
           transform="matrix(0.925842,0,0,1,-33.84187,-1)"
           id="g11162">
          <path
             sodipodi:type="arc"
             style="fill:url(#radialGradient11192);fill-opacity:1;fill-rule:evenodd;stroke:url(#linearGradient11194);stroke-width:0.37023371;stroke-linecap:butt;stroke-linejoin:round;marker:none;stroke-miterlimit:4;stroke-dasharray:none;stroke-dashoffset:0;stroke-opacity:1;visibility:visible;display:inline;overflow:visible;enable-background:accumulate"
             id="path11164"
             sodipodi:cx="77.25"
             sodipodi:cy="56.125"
             sodipodi:rx="4.625"
             sodipodi:ry="4.625"
             d="M 81.875,56.125 A 4.625,4.625 0 1 1 72.625,56.125 A 4.625,4.625 0 1 1 81.875,56.125 z"
             transform="matrix(2.8074965,0,0,2.8066741,162.60557,-93.043712)" />
          <path
             sodipodi:type="arc"
             style="opacity:0.9;fill:url(#linearGradient11196);fill-opacity:1;fill-rule:evenodd;stroke:none;stroke-width:1;marker:none;visibility:visible;display:inline;overflow:visible;enable-background:accumulate"
             id="path11166"
             sodipodi:cx="77.0625"
             sodipodi:cy="54.5"
             sodipodi:rx="2.25"
             sodipodi:ry="1.1875"
             d="M 79.3125,54.5 A 2.25,1.1875 0 1 1 74.8125,54.5 A 2.25,1.1875 0 1 1 79.3125,54.5 z"
             transform="matrix(3.3401453,0,0,3.7894749,122.08472,-148.02638)" />
          <path
             sodipodi:type="arc"
             style="opacity:0.5142857;fill:none;fill-opacity:1;fill-rule:evenodd;stroke:url(#linearGradient11198);stroke-width:0.36060861;stroke-linecap:butt;stroke-linejoin:round;marker:none;stroke-miterlimit:4;stroke-dasharray:none;stroke-dashoffset:0;stroke-opacity:1;visibility:visible;display:inline;overflow:visible;enable-background:accumulate"
             id="path11168"
             sodipodi:cx="77.25"
             sodipodi:cy="56.125"
             sodipodi:rx="4.625"
             sodipodi:ry="4.625"
             d="M 81.875,56.125 A 4.625,4.625 0 1 1 72.625,56.125 A 4.625,4.625 0 1 1 81.875,56.125 z"
             transform="matrix(2.6015083,0,0,2.6009934,178.51814,-81.499871)" />
        </g>
      </g>
      <g
         transform="matrix(0.8021768,-0.463137,0.463137,0.8021768,672.50467,69.381386)"
         style="display:inline"
         id="g11689"
         inkscape:label="Livello 1">
        <g
           transform="matrix(0.6671139,0,0,0.6671139,40.723871,-0.732604)"
           id="g6165"
           style="display:inline">
          <g
             id="g6169"
             transform="matrix(-0.707107,0.707107,-0.707107,-0.707107,-0.7216,24.39662)">
            <rect
               inkscape:transform-center-x="-0.26691096"
               transform="matrix(0.9659258,-0.258819,0.258819,0.9659258,0,0)"
               inkscape:transform-center-y="0.99612571"
               ry="2.0000005"
               rx="2.0000005"
               y="28.78261"
               x="-3.9303646"
               height="4.000001"
               width="12.03427"
               id="rect6171"
               style="fill:#ef2929;fill-opacity:1;stroke:#a40000;stroke-width:1.61830771;stroke-linecap:round;stroke-linejoin:miter;stroke-miterlimit:4;stroke-dasharray:none;stroke-dashoffset:0;stroke-opacity:1" />
            <rect
               inkscape:transform-center-x="-0.26691096"
               transform="matrix(-0.9659258,-0.258819,-0.258819,0.9659258,0,0)"
               inkscape:transform-center-y="0.99612571"
               ry="2.0000005"
               rx="2.0000005"
               y="16.252417"
               x="-50.685425"
               height="4.000001"
               width="12.03427"
               id="rect6173"
               style="fill:#ef2929;fill-opacity:1;stroke:#a40000;stroke-width:1.61830747;stroke-linecap:round;stroke-linejoin:miter;stroke-miterlimit:4;stroke-dasharray:none;stroke-dashoffset:0;stroke-opacity:1" />
            <path
               id="path6175"
               d="M 24,14.5 C 13.540342,14.5 4.9369948,19.115197 4.0625,25 C 3.4945247,26.229253 3.3411412,27.653245 3.71875,29.0625 C 3.8062083,29.388899 3.9270339,29.702183 4.0625,30 L 15.46875,26.9375 C 15.437158,26.61185 15.399959,26.263899 15.3125,25.9375 C 15.104309,25.160519 14.74048,24.477891 14.28125,23.875 C 15.658933,21.324703 19.487863,19.5 24,19.5 C 28.512138,19.5 32.341068,21.324703 33.71875,23.875 C 33.261083,24.476943 32.926458,25.162323 32.71875,25.9375 C 32.631291,26.263899 32.562841,26.611851 32.53125,26.9375 L 43.9375,30 C 44.072966,29.702183 44.193789,29.388898 44.28125,29.0625 C 44.666771,27.623715 44.503631,26.15269 43.90625,24.90625 C 42.954722,19.066284 34.403892,14.5 24,14.5 z"
               style="opacity:1;fill:url(#radialGradient11750);fill-opacity:1;stroke:#a40000;stroke-width:1.61830556;stroke-linecap:round;stroke-linejoin:miter;stroke-miterlimit:4;stroke-dasharray:none;stroke-dashoffset:0;stroke-opacity:1" />
            <path
               transform="translate(0,4)"
               d="M 10.28125,18.03125 C 9.5736169,17.93258 8.8345396,17.989006 8.09375,18.1875 C 5.1417658,18.978483 3.3968235,21.986655 4.1875,24.9375 C 4.2294144,25.093927 4.2860071,25.253209 4.34375,25.40625 L 14.9375,22.59375 C 14.913297,22.408905 14.887368,22.225284 14.84375,22.0625 C 14.250695,19.849188 12.415004,18.328774 10.28125,18.03125 z"
               id="path6177"
               style="fill:url(#radialGradient11752);fill-opacity:1;stroke:none;stroke-width:1.00000012;stroke-linecap:round;stroke-linejoin:miter;stroke-miterlimit:4;stroke-dasharray:none;stroke-dashoffset:0;stroke-opacity:1"
               inkscape:original="M 10.34375 17.5625 C 9.5718404 17.454867 8.7685364 17.504448 7.96875 17.71875 C 4.769604 18.57596 2.8615416 21.863355 3.71875 25.0625 C 3.8062083 25.388899 3.9270339 25.702183 4.0625 26 L 15.46875 22.9375 C 15.437158 22.61185 15.399959 22.263899 15.3125 21.9375 C 14.669594 19.538141 12.659479 17.885398 10.34375 17.5625 z "
               inkscape:radius="-0.47406253"
               sodipodi:type="inkscape:offset" />
            <path
               transform="translate(0,4)"
               d="M 37.75,18.03125 C 35.617916,18.328542 33.780097,19.850896 33.1875,22.0625 C 33.139948,22.239965 33.125627,22.41277 33.09375,22.59375 L 43.65625,25.40625 C 43.713949,25.253325 43.770626,25.093772 43.8125,24.9375 C 44.603318,21.986127 42.886463,18.977673 39.9375,18.1875 C 39.197252,17.989151 38.457043,17.932662 37.75,18.03125 z"
               id="path6179"
               style="fill:url(#radialGradient11754);fill-opacity:1;stroke:none;stroke-width:1.00000012;stroke-linecap:round;stroke-linejoin:miter;stroke-miterlimit:4;stroke-dasharray:none;stroke-dashoffset:0;stroke-opacity:1"
               inkscape:original="M 37.6875 17.5625 C 35.371771 17.885399 33.361656 19.538141 32.71875 21.9375 C 32.631291 22.263899 32.562841 22.611851 32.53125 22.9375 L 43.9375 26 C 44.072966 25.702183 44.193789 25.388898 44.28125 25.0625 C 45.138458 21.863355 43.261646 18.575959 40.0625 17.71875 C 39.262714 17.504448 38.45941 17.454867 37.6875 17.5625 z "
               inkscape:radius="-0.47841442"
               sodipodi:type="inkscape:offset" />
            <path
               sodipodi:nodetypes="cssssssssccccsccsssssssssssccsccccsssssssc"
               id="path6181"
               d="M 24,11.96875 C 18.985528,11.96875 14.433876,13.091373 11.125,14.84375 C 7.8161239,16.596127 5.842811,18.911847 5.5,21.21875 C 5.4882861,21.357945 5.4567163,21.494748 5.40625,21.625 C 4.9767687,22.554514 4.8368692,23.612181 5.125,24.6875 C 5.0598845,24.444485 5.0898477,24.461033 5.1875,24.78125 C 5.1938418,24.802046 5.1820997,24.792797 5.1875,24.8125 C 5.2196399,24.914083 5.2405973,25.01887 5.25,25.125 C 5.2369949,24.963148 5.2158929,25.028961 5.25,25.15625 C 5.2501112,25.166666 5.2501112,25.177084 5.25,25.1875 L 5.6405307,26.796466 C 5.6483951,26.825816 5.6210321,26.778814 5.6717807,26.765216 L 14.453031,24.421466 C 14.482381,24.413602 14.466629,24.440966 14.453031,24.390216 C 14.45292,24.3798 14.312389,23.760416 14.3125,23.75 L 14.0625,22.75 C 14.10568,22.911153 14.105229,22.929577 14.03125,22.78125 C 13.97538,22.672341 13.933386,22.556857 13.90625,22.4375 C 13.856579,22.202065 13.862859,22.150565 13.90625,22.3125 C 13.752947,21.740363 13.487289,21.225624 13.125,20.75 C 12.784621,20.297186 12.735939,19.688669 13,19.1875 C 14.778079,15.89601 19.09311,14.03125 24,14.03125 C 28.906891,14.03125 33.221922,15.896009 35,19.1875 C 35.264061,19.688669 35.215379,20.297186 34.875,20.75 C 34.533316,21.199397 34.286797,21.708664 34.125,22.3125 C 34.122168,22.323071 34.107532,22.350846 34.09375,22.40625 C 34.069223,22.536325 34.027174,22.662474 33.96875,22.78125 C 33.9107,22.8851 33.905936,22.899048 33.9375,22.78125 L 33.781187,24.312123 C 33.781298,24.322539 33.781298,24.332957 33.781187,24.343373 C 33.767589,24.394122 33.751838,24.366759 33.781187,24.374623 L 42.562437,26.718373 C 42.562437,26.718373 42.492135,26.185602 42.5,26.15625 L 42.75,25.1875 C 42.749889,25.177084 42.749889,25.166666 42.75,25.15625 C 42.784106,25.028965 42.763005,24.963147 42.75,25.125 C 42.75704,25.008333 42.778023,24.892929 42.8125,24.78125 C 42.910149,24.461049 42.940112,24.444508 42.875,24.6875 C 43.169216,23.589469 43.04198,22.466484 42.59375,21.53125 C 42.535326,21.412474 42.493277,21.286325 42.46875,21.15625 C 42.095196,18.863576 40.112545,16.548801 36.8125,14.8125 C 33.512455,13.076199 28.987729,11.96875 24,11.96875 z"
               style="opacity:0.3;fill:none;fill-opacity:1;stroke:url(#linearGradient11756);stroke-width:1.61830521;stroke-linecap:round;stroke-linejoin:round;stroke-miterlimit:4;stroke-dashoffset:0;stroke-opacity:1"
               transform="translate(-1.7626838e-7,4.0000004)" />
          </g>
          <path
             style="opacity:1;fill:url(#linearGradient11758);fill-opacity:1;stroke:none;stroke-width:1.29538584;stroke-linecap:round;stroke-linejoin:miter;stroke-miterlimit:4;stroke-dasharray:none;stroke-dashoffset:0;stroke-opacity:1;display:inline"
             d="M -25.40625,8.0625 L -27.78125,12.1875 C -27.323953,12.688682 -26.668901,13 -25.9375,13 C -24.557501,13 -23.437503,11.88 -23.4375,10.5 C -23.4375,9.303237 -24.282515,8.307286 -25.40625,8.0625 z"
             id="path6183" />
          <path
             style="opacity:1;fill:url(#linearGradient11760);fill-opacity:1;stroke:none;stroke-width:1.29538584;stroke-linecap:round;stroke-linejoin:miter;stroke-miterlimit:4;stroke-dasharray:none;stroke-dashoffset:0;stroke-opacity:1;display:inline"
             d="M -44.1875,29.6875 L -48.34375,32.125 C -48.063569,33.199325 -47.099192,34 -45.9375,34 C -44.557501,34 -43.437503,32.88 -43.4375,31.5 C -43.4375,30.7939 -43.716264,30.142261 -44.1875,29.6875 z"
             id="path6185" />
          <path
             sodipodi:type="arc"
             style="fill:#ecfbdd;fill-opacity:1;stroke:none;stroke-width:1;stroke-linecap:round;stroke-linejoin:miter;stroke-miterlimit:4;stroke-dasharray:none;stroke-dashoffset:0;stroke-opacity:1"
             id="path6187"
             sodipodi:cx="91.234375"
             sodipodi:cy="6.578125"
             sodipodi:rx="0.734375"
             sodipodi:ry="0.734375"
             d="M 91.96875,6.578125 A 0.734375,0.734375 0 1 1 90.5,6.578125 A 0.734375,0.734375 0 1 1 91.96875,6.578125 z"
             transform="translate(-118.5,1.1875)" />
          <path
             sodipodi:type="arc"
             style="fill:#ecfbdd;fill-opacity:1;stroke:none;stroke-width:1;stroke-linecap:round;stroke-linejoin:miter;stroke-miterlimit:4;stroke-dasharray:none;stroke-dashoffset:0;stroke-opacity:1;display:inline"
             id="path6189"
             sodipodi:cx="91.234375"
             sodipodi:cy="6.578125"
             sodipodi:rx="0.734375"
             sodipodi:ry="0.734375"
             d="M 91.96875,6.578125 A 0.734375,0.734375 0 1 1 90.5,6.578125 A 0.734375,0.734375 0 1 1 91.96875,6.578125 z"
             transform="translate(-136.96875,22.15625)" />
        </g>
      </g>
      <path
         sodipodi:nodetypes="ccccccccsc"
         id="rect11528"
         d="M 698.53856,72.5 L 696.5,72.5 C 695.392,72.5 694.5,73.392 694.5,74.5 L 694.5,76.5 C 694.5,77.608 695.392,78.5 696.5,78.5 L 699.5,78.5 C 700.608,78.5 701.5,77.608 701.5,76.5 L 701.5,72.5 C 701.5,71.015691 701.22659,70.5 699.96404,70.5 C 698.78272,70.5 698.53856,71.028072 698.53856,72.5 z"
         style="opacity:1;fill:url(#radialGradient11540);fill-opacity:1;stroke:#2e3436;stroke-width:1;stroke-linecap:round;stroke-linejoin:round;stroke-miterlimit:4;stroke-dasharray:none;stroke-opacity:1" />
      <path
         sodipodi:nodetypes="csccccccccs"
         id="path11544"
         d="M 700.03033,71.5 C 699.53165,71.5 699.60485,71.929055 699.60485,72.5 C 699.60443,73.052112 699.15696,73.499583 698.60485,73.5 L 696.5,73.5 C 695.92905,73.5 695.5,73.929055 695.5,74.5 L 695.5,76.5 C 695.5,77.070945 695.92905,77.5 696.5,77.5 L 699.5,77.5 C 700.07095,77.5 700.5,77.070945 700.5,76.5 L 700.5,72.5 C 700.5,72.022173 700.53472,71.5 700.03033,71.5 z"
         style="fill:none;fill-opacity:1;stroke:#ffffff;stroke-width:1;stroke-linecap:round;stroke-linejoin:round;stroke-miterlimit:4;stroke-opacity:1;display:inline;enable-background:new" />
      <rect
         ry="1.0089285"
         rx="1.0089285"
         y="85.5"
         x="657.5"
         height="11"
         width="17"
         id="rect11547"
         style="opacity:1;fill:url(#linearGradient11557);fill-opacity:1;stroke:#2e3436;stroke-width:1;stroke-linecap:round;stroke-linejoin:round;stroke-miterlimit:4;stroke-dasharray:none;stroke-opacity:1" />
      <rect
         ry="0.54220778"
         rx="0.54220778"
         y="86"
         x="672"
         height="10"
         width="2"
         id="rect11549"
         style="opacity:1;fill:#555753;fill-opacity:1;stroke:none;stroke-width:1;stroke-linecap:round;stroke-linejoin:round;stroke-miterlimit:4;stroke-dasharray:none;stroke-opacity:1;display:inline;enable-background:new" />
      <rect
         ry="0"
         rx="0"
         y="86.5"
         x="658.5"
         height="9"
         width="14.999999"
         id="rect11559"
         style="opacity:0.2;fill:none;fill-opacity:1;stroke:url(#linearGradient11567);stroke-width:0.99999994;stroke-linecap:round;stroke-linejoin:round;stroke-miterlimit:4;stroke-dasharray:none;stroke-opacity:1;display:inline;enable-background:new" />
      <rect
         transform="matrix(0,1,-1,0,0,0)"
         ry="2.032932"
         rx="2.032932"
         y="-668.5"
         x="81.5"
         height="7"
         width="5.0277281"
         id="rect11569"
         style="opacity:1;fill:#eeeeec;fill-opacity:1;stroke:#2e3436;stroke-width:0.99999988;stroke-linecap:round;stroke-linejoin:round;stroke-miterlimit:4;stroke-dasharray:none;stroke-opacity:1" />
      <g
         style="fill-opacity:1;stroke:url(#linearGradient11587)"
         id="g11577">
        <path
           sodipodi:nodetypes="cc"
           style="fill:none;fill-opacity:1;fill-rule:evenodd;stroke:url(#linearGradient11589);stroke-width:1px;stroke-linecap:round;stroke-linejoin:miter;stroke-opacity:1"
           d="M 659.40625,87.468749 L 664.46875,90.406249"
           id="path11573" />
        <path
           sodipodi:nodetypes="cc"
           style="fill:none;fill-opacity:1;fill-rule:evenodd;stroke:url(#linearGradient11591);stroke-width:1px;stroke-linecap:round;stroke-linejoin:miter;stroke-opacity:1"
           d="M 666.5,90.437499 L 671.5,87.468749"
           id="path11575" />
      </g>
      <rect
         y="89.5"
         x="663.5"
         height="2"
         width="4"
         id="rect11593"
         style="opacity:0.15;fill:#000000;fill-opacity:1;stroke:#000000;stroke-width:0.99999994;stroke-linecap:round;stroke-linejoin:round;stroke-miterlimit:4;stroke-dasharray:none;stroke-opacity:1;display:inline;enable-background:new" />
      <rect
         y="88.5"
         x="663.5"
         height="2"
         width="4"
         id="rect11571"
         style="opacity:1;fill:#eeeeec;fill-opacity:1;stroke:#4b4d49;stroke-width:0.99999994;stroke-linecap:round;stroke-linejoin:round;stroke-miterlimit:4;stroke-dasharray:none;stroke-opacity:1" />
      <rect
         ry="1.05"
         rx="1"
         y="83.5"
         x="667.5"
         height="3"
         width="2"
         id="rect11595"
         style="opacity:1;fill:#d3d7cf;fill-opacity:1;stroke:#888a85;stroke-width:1;stroke-linecap:round;stroke-linejoin:round;stroke-miterlimit:4;stroke-dasharray:none;stroke-opacity:1" />
    </g>
  </g>
</svg>
