<?xml version="1.0" encoding="UTF-8" standalone="no"?>
<!-- Created with Inkscape (http://www.inkscape.org/) -->
<svg
   xmlns:dc="http://purl.org/dc/elements/1.1/"
   xmlns:cc="http://creativecommons.org/ns#"
   xmlns:rdf="http://www.w3.org/1999/02/22-rdf-syntax-ns#"
   xmlns:svg="http://www.w3.org/2000/svg"
   xmlns="http://www.w3.org/2000/svg"
   xmlns:xlink="http://www.w3.org/1999/xlink"
   xmlns:sodipodi="http://sodipodi.sourceforge.net/DTD/sodipodi-0.dtd"
   xmlns:inkscape="http://www.inkscape.org/namespaces/inkscape"
   width="48px"
   height="48px"
   id="svg7977"
   sodipodi:version="0.32"
   inkscape:version="0.46"
   sodipodi:docname="weather-fog.svg"
   inkscape:output_extension="org.inkscape.output.svg.inkscape">
  <defs
     id="defs7979">
    <linearGradient
       inkscape:collect="always"
       id="linearGradient4968">
      <stop
         style="stop-color:#ffffff;stop-opacity:1;"
         offset="0"
         id="stop4970" />
      <stop
         style="stop-color:#ffffff;stop-opacity:0;"
         offset="1"
         id="stop4972" />
    </linearGradient>
    <radialGradient
       inkscape:collect="always"
       xlink:href="#linearGradient4968"
       id="radialGradient4974"
       cx="319.5"
       cy="74"
       fx="319.5"
       fy="74"
       r="18.5"
       gradientTransform="matrix(3.1280542,0,0,4.021021,-679.91334,-223.55555)"
       gradientUnits="userSpaceOnUse" />
    <linearGradient
       inkscape:collect="always"
       id="linearGradient4800">
      <stop
         style="stop-color:#eeeeec;stop-opacity:1"
         offset="0"
         id="stop4802" />
      <stop
         style="stop-color:#babdb6;stop-opacity:1"
         offset="1"
         id="stop4804" />
    </linearGradient>
    <radialGradient
       inkscape:collect="always"
       xlink:href="#linearGradient4800"
       id="radialGradient4923"
       cx="319.5"
       cy="75"
       fx="319.5"
       fy="75"
       r="19.5"
       gradientTransform="matrix(2.029255,0,0,1.0406436,-328.84699,-3.0482701)"
       gradientUnits="userSpaceOnUse" />
    <linearGradient
       inkscape:collect="always"
       xlink:href="#linearGradient4373"
       id="linearGradient4392"
       gradientUnits="userSpaceOnUse"
       x1="313.94745"
       y1="50.545589"
       x2="324.21982"
       y2="88.882561"
       gradientTransform="translate(-1,-4)" />
    <linearGradient
       inkscape:collect="always"
       xlink:href="#linearGradient4373"
       id="linearGradient4395"
       gradientUnits="userSpaceOnUse"
       x1="313.94745"
       y1="50.545589"
       x2="324.21982"
       y2="88.882561"
       gradientTransform="translate(-1,0)" />
    <linearGradient
       id="linearGradient4373"
       inkscape:collect="always">
      <stop
         id="stop4375"
         offset="0"
         style="stop-color:#888a85;stop-opacity:1" />
      <stop
         id="stop4377"
         offset="1"
         style="stop-color:#babdb6;stop-opacity:1" />
    </linearGradient>
    <linearGradient
       inkscape:collect="always"
       xlink:href="#linearGradient4373"
       id="linearGradient4505"
       gradientUnits="userSpaceOnUse"
       gradientTransform="translate(-1,4)"
       x1="313.94745"
       y1="50.545589"
       x2="324.21982"
       y2="88.882561" />
    <inkscape:perspective
       sodipodi:type="inkscape:persp3d"
       inkscape:vp_x="0 : 24 : 1"
       inkscape:vp_y="0 : 1000 : 0"
       inkscape:vp_z="48 : 24 : 1"
       inkscape:persp3d-origin="24 : 16 : 1"
       id="perspective7985" />
    <radialGradient
       inkscape:collect="always"
       xlink:href="#linearGradient4800"
       id="radialGradient8013"
       gradientUnits="userSpaceOnUse"
       gradientTransform="matrix(2.029255,0,0,1.0406436,-328.84699,-3.0482701)"
       cx="319.5"
       cy="75"
       fx="319.5"
       fy="75"
       r="19.5" />
    <radialGradient
       inkscape:collect="always"
       xlink:href="#linearGradient4800"
       id="radialGradient8015"
       gradientUnits="userSpaceOnUse"
       gradientTransform="matrix(2.029255,0,0,1.0406436,-328.84699,-3.0482701)"
       cx="319.5"
       cy="75"
       fx="319.5"
       fy="75"
       r="19.5" />
    <radialGradient
       inkscape:collect="always"
       xlink:href="#linearGradient4800"
       id="radialGradient8017"
       gradientUnits="userSpaceOnUse"
       gradientTransform="matrix(2.029255,0,0,1.0406436,-328.84699,-3.0482701)"
       cx="319.5"
       cy="75"
       fx="319.5"
       fy="75"
       r="19.5" />
    <radialGradient
       inkscape:collect="always"
       xlink:href="#linearGradient4968"
       id="radialGradient8019"
       gradientUnits="userSpaceOnUse"
       gradientTransform="matrix(3.1280542,0,0,4.021021,-679.91334,-223.55555)"
       cx="319.5"
       cy="74"
       fx="319.5"
       fy="74"
       r="18.5" />
    <radialGradient
       inkscape:collect="always"
       xlink:href="#linearGradient4968"
       id="radialGradient8021"
       gradientUnits="userSpaceOnUse"
       gradientTransform="matrix(3.1280542,0,0,4.021021,-679.91334,-223.55555)"
       cx="319.5"
       cy="74"
       fx="319.5"
       fy="74"
       r="18.5" />
    <radialGradient
       inkscape:collect="always"
       xlink:href="#linearGradient4968"
       id="radialGradient8023"
       gradientUnits="userSpaceOnUse"
       gradientTransform="matrix(3.1280542,0,0,4.021021,-679.91334,-223.55555)"
       cx="319.5"
       cy="74"
       fx="319.5"
       fy="74"
       r="18.5" />
  </defs>
  <sodipodi:namedview
     id="base"
     pagecolor="#ffffff"
     bordercolor="#666666"
     borderopacity="1.0"
     inkscape:pageopacity="0.0"
     inkscape:pageshadow="2"
     inkscape:zoom="14"
     inkscape:cx="19.012044"
     inkscape:cy="20.859184"
     inkscape:current-layer="layer1"
     showgrid="true"
     inkscape:grid-bbox="true"
     inkscape:document-units="px"
     inkscape:window-width="640"
     inkscape:window-height="711"
     inkscape:window-x="455"
     inkscape:window-y="32">
    <inkscape:grid
       type="xygrid"
       id="grid8025" />
  </sodipodi:namedview>
  <metadata
     id="metadata7982">
    <rdf:RDF>
      <cc:Work
         rdf:about="">
        <dc:format>image/svg+xml</dc:format>
        <dc:type
           rdf:resource="http://purl.org/dc/dcmitype/StillImage" />
      </cc:Work>
    </rdf:RDF>
  </metadata>
  <g
     id="layer1"
     inkscape:label="Layer 1"
     inkscape:groupmode="layer">
    <g
       style="display:inline;enable-background:new"
       id="g7964"
       transform="translate(-295.87382,-51)">
      <path
         id="path4121-6"
         d="M 307.5,64 C 305.1669,64 304.13218,65.175463 303,65.9375 C 302.43391,66.318518 301.91725,66.643693 301.5625,66.84375 C 301.39849,66.93624 301.30176,66.985605 301.25,67 C 301.246,67.0012 301.2217,66.999127 301.2187,67 C 299.8378,67.077438 298.78121,68.259786 298.8589,69.640676 C 298.93658,71.021565 300.11912,72.07794 301.5,72 C 302.7359,72 303.38854,71.581193 304.03125,71.21875 C 304.67396,70.856307 305.26429,70.431482 305.8125,70.0625 C 306.90892,69.324537 308.16585,69 307.5,69 C 306.83415,69 307.83904,69.262809 308.90625,70.03125 C 309.97346,70.799691 311.25,72 313.5,72 C 315.75,72 317,70.75 318,70 C 319,69.25 319.75,69 319.5,69 C 319.25,69 320,69.25 321,70 C 322,70.75 323.25,72 325.5,72 C 327.75,72 329,70.75 330,70 C 331,69.25 331.75,69 331.5,69 C 331.25,69 331.99949,69.250674 333,70 C 334.00051,70.749326 335.24855,72 337.5,72 C 338.40159,72.012751 339.2402,71.539062 339.69472,70.760318 C 340.14924,69.981574 340.14924,69.018426 339.69472,68.239682 C 339.2402,67.460938 338.40159,66.987249 337.5,67 C 337.76271,67 337.00231,66.750674 336,66 C 334.99769,65.249326 333.75,64 331.5,64 C 329.25,64 328,65.25 327,66 C 326,66.75 325.25,67 325.5,67 C 325.75,67 325,66.75 324,66 C 323,65.25 321.75,64 319.5,64 C 317.25,64 316,65.25 315,66 C 314,66.75 313.25,67 313.5,67 C 313.75,67 312.85973,66.700309 311.84375,65.96875 C 310.82777,65.237191 309.8331,64 307.5,64 z"
         style="font-size:medium;font-style:normal;font-variant:normal;font-weight:normal;font-stretch:normal;text-indent:0;text-align:start;text-decoration:none;line-height:normal;letter-spacing:normal;word-spacing:normal;text-transform:none;direction:ltr;block-progression:tb;writing-mode:lr-tb;text-anchor:start;fill:url(#linearGradient4505);fill-opacity:1;stroke:none;stroke-width:5;marker:none;visibility:visible;display:inline;overflow:visible;enable-background:new;font-family:Bitstream Vera Sans;-inkscape-font-specification:Bitstream Vera Sans" />
      <path
         sodipodi:nodetypes="czzzzzz"
         id="path4121-7-8"
         d="M 301.5,76.5 C 302.91834,76.5 305.83275,73.5 307.5,73.5 C 309.16725,73.5 311.5,76.5 313.5,76.5 C 315.5,76.5 317.5,73.5 319.5,73.5 C 321.5,73.5 323.5,76.5 325.5,76.5 C 327.5,76.5 329.5,73.5 331.5,73.5 C 333.5,73.5 335.51126,76.5 337.5,76.5"
         style="fill:none;stroke:url(#linearGradient4395);stroke-width:5;stroke-linecap:round;stroke-linejoin:miter;stroke-miterlimit:4;stroke-dasharray:none;stroke-opacity:1;display:inline;enable-background:new" />
      <path
         sodipodi:nodetypes="czzzzzz"
         id="path4121-7-5-4"
         d="M 301.5,83.5 C 302.91834,83.5 305.83275,80.5 307.5,80.5 C 309.16725,80.5 311.5,83.5 313.5,83.5 C 315.5,83.5 317.5,80.5 319.5,80.5 C 321.5,80.5 323.5,83.5 325.5,83.5 C 327.5,83.5 329.5,80.5 331.5,80.5 C 333.5,80.5 335.51126,83.5 337.5,83.5"
         style="fill:none;stroke:url(#linearGradient4392);stroke-width:5;stroke-linecap:round;stroke-linejoin:miter;stroke-miterlimit:4;stroke-dasharray:none;stroke-opacity:1;display:inline;enable-background:new" />
      <g
         style="stroke:url(#radialGradient4923)"
         id="g4912">
        <path
           sodipodi:nodetypes="czzzzzz"
           id="path4121-7"
           d="M 301.5,76.5 C 302.91834,76.5 305.83275,73.5 307.5,73.5 C 309.16725,73.5 311.5,76.5 313.5,76.5 C 315.5,76.5 317.5,73.5 319.5,73.5 C 321.5,73.5 323.5,76.5 325.5,76.5 C 327.5,76.5 329.5,73.5 331.5,73.5 C 333.5,73.5 335.51126,76.5 337.5,76.5"
           style="fill:none;stroke:url(#radialGradient8013);stroke-width:3;stroke-linecap:round;stroke-linejoin:miter;stroke-miterlimit:4;stroke-dasharray:none;stroke-opacity:1;display:inline;enable-background:new" />
        <path
           sodipodi:nodetypes="czzzzzz"
           id="path4121-7-5"
           d="M 301.5,83.5 C 302.91834,83.5 305.83275,80.5 307.5,80.5 C 309.16725,80.5 311.5,83.5 313.5,83.5 C 315.5,83.5 317.5,80.5 319.5,80.5 C 321.5,80.5 323.5,83.5 325.5,83.5 C 327.5,83.5 329.5,80.5 331.5,80.5 C 333.5,80.5 335.51126,83.5 337.5,83.5"
           style="fill:none;stroke:url(#radialGradient8015);stroke-width:3;stroke-linecap:round;stroke-linejoin:miter;stroke-miterlimit:4;stroke-dasharray:none;stroke-opacity:1;display:inline;enable-background:new" />
        <path
           sodipodi:nodetypes="czzzzzz"
           id="path4121-7-0"
           d="M 301.5,69.5 C 302.91834,69.5 305.83275,66.5 307.5,66.5 C 309.16725,66.5 311.5,69.5 313.5,69.5 C 315.5,69.5 317.5,66.5 319.5,66.5 C 321.5,66.5 323.5,69.5 325.5,69.5 C 327.5,69.5 329.5,66.5 331.5,66.5 C 333.5,66.5 335.51126,69.5 337.5,69.5"
           style="fill:none;stroke:url(#radialGradient8017);stroke-width:3;stroke-linecap:round;stroke-linejoin:miter;stroke-miterlimit:4;stroke-dasharray:none;stroke-opacity:1;display:inline;enable-background:new" />
      </g>
      <g
         style="stroke:url(#radialGradient4974);stroke-linecap:round"
         id="g4963">
        <path
           style="fill:none;stroke:url(#radialGradient8019);stroke-linecap:round;display:inline;enable-background:new"
           d="M 301.5,75.5 C 302.91834,75.5 305.83275,72.5 307.5,72.5 C 309.16725,72.5 311.5,75.5 313.5,75.5 C 315.5,75.5 317.5,72.5 319.5,72.5 C 321.5,72.5 323.5,75.5 325.5,75.5 C 327.5,75.5 329.5,72.5 331.5,72.5 C 333.5,72.5 335.51126,75.5 337.5,75.5"
           id="path4121-1-6"
           sodipodi:nodetypes="czzzzzz" />
        <path
           style="fill:none;stroke:url(#radialGradient8021);stroke-linecap:round;display:inline;enable-background:new"
           d="M 301.5,82.5 C 302.91834,82.5 305.83275,79.5 307.5,79.5 C 309.16725,79.5 311.5,82.5 313.5,82.5 C 315.5,82.5 317.5,79.5 319.5,79.5 C 321.5,79.5 323.5,82.5 325.5,82.5 C 327.5,82.5 329.5,79.5 331.5,79.5 C 333.5,79.5 335.51126,82.5 337.5,82.5"
           id="path4121-1-6-3"
           sodipodi:nodetypes="czzzzzz" />
        <path
           style="fill:none;stroke:url(#radialGradient8023);stroke-linecap:round;display:inline;enable-background:new"
           d="M 301.5,68.5 C 302.91834,68.5 305.83275,65.5 307.5,65.5 C 309.16725,65.5 311.5,68.5 313.5,68.5 C 315.5,68.5 317.5,65.5 319.5,65.5 C 321.5,65.5 323.5,68.5 325.5,68.5 C 327.5,68.5 329.5,65.5 331.5,65.5 C 333.5,65.5 335.51126,68.5 337.5,68.5"
           id="path4121-1-6-6"
           sodipodi:nodetypes="czzzzzz" />
      </g>
    </g>
  </g>
</svg>
