<?xml version="1.0" encoding="UTF-8" standalone="no"?>
<!-- Created with Inkscape (http://www.inkscape.org/) -->
<svg
   xmlns:dc="http://purl.org/dc/elements/1.1/"
   xmlns:cc="http://creativecommons.org/ns#"
   xmlns:rdf="http://www.w3.org/1999/02/22-rdf-syntax-ns#"
   xmlns:svg="http://www.w3.org/2000/svg"
   xmlns="http://www.w3.org/2000/svg"
   xmlns:xlink="http://www.w3.org/1999/xlink"
   xmlns:sodipodi="http://sodipodi.sourceforge.net/DTD/sodipodi-0.dtd"
   xmlns:inkscape="http://www.inkscape.org/namespaces/inkscape"
   inkscape:export-ydpi="240.00000"
   inkscape:export-xdpi="240.00000"
   inkscape:export-filename="/home/lapo/text.png"
   sodipodi:docname="application-x-glade.svg"
   sodipodi:docbase="/home/dobey/Projects/gnome-icon-theme/scalable/mimetypes"
   inkscape:version="0.46"
   sodipodi:version="0.32"
   id="svg249"
   height="48.000000px"
   width="48.000000px"
   inkscape:output_extension="org.inkscape.output.svg.inkscape">
  <defs
     id="defs3">
    <linearGradient
       inkscape:collect="always"
       id="linearGradient39171">
      <stop
         style="stop-color:white;stop-opacity:1;"
         offset="0"
         id="stop39173" />
      <stop
         style="stop-color:white;stop-opacity:0;"
         offset="1"
         id="stop39175" />
    </linearGradient>
    <radialGradient
       inkscape:collect="always"
       xlink:href="#linearGradient39171"
       id="radialGradient10063"
       gradientUnits="userSpaceOnUse"
       gradientTransform="matrix(1.034353,0,0,0.794876,-5.2673143,6.44078)"
       cx="26.109201"
       cy="19.668886"
       fx="26.109201"
       fy="19.668886"
       r="20.278975" />
    <linearGradient
       inkscape:collect="always"
       id="linearGradient3564">
      <stop
         style="stop-color:white;stop-opacity:1;"
         offset="0"
         id="stop3566" />
      <stop
         style="stop-color:white;stop-opacity:0;"
         offset="1"
         id="stop3568" />
    </linearGradient>
    <linearGradient
       inkscape:collect="always"
       xlink:href="#linearGradient3564"
       id="linearGradient10065"
       gradientUnits="userSpaceOnUse"
       gradientTransform="matrix(4.454064e-2,7.407134e-4,-7.396764e-4,4.445763e-2,18.516358,27.238145)"
       x1="213.58719"
       y1="195.85153"
       x2="183.16304"
       y2="-404.09323" />
    <linearGradient
       id="linearGradient39155">
      <stop
         style="stop-color:white;stop-opacity:1;"
         offset="0"
         id="stop39157" />
      <stop
         style="stop-color:#dadada;stop-opacity:1;"
         offset="1"
         id="stop39159" />
    </linearGradient>
    <linearGradient
       inkscape:collect="always"
       xlink:href="#linearGradient39155"
       id="linearGradient10067"
       gradientUnits="userSpaceOnUse"
       x1="31.1875"
       y1="18.875"
       x2="29.875"
       y2="34.375" />
    <linearGradient
       inkscape:collect="always"
       id="linearGradient35488">
      <stop
         style="stop-color:black;stop-opacity:1;"
         offset="0"
         id="stop35490" />
      <stop
         style="stop-color:black;stop-opacity:0;"
         offset="1"
         id="stop35492" />
    </linearGradient>
    <radialGradient
       inkscape:collect="always"
       xlink:href="#linearGradient35488"
       id="radialGradient10069"
       gradientUnits="userSpaceOnUse"
       gradientTransform="matrix(1,0,0,0.342857,0,25.61831)"
       cx="28.019106"
       cy="38.98439"
       fx="28.019106"
       fy="38.98439"
       r="15.467961" />
    <inkscape:perspective
       sodipodi:type="inkscape:persp3d"
       inkscape:vp_x="0 : 24 : 1"
       inkscape:vp_y="0 : 1000 : 0"
       inkscape:vp_z="48 : 24 : 1"
       inkscape:persp3d-origin="24 : 16 : 1"
       id="perspective80" />
    <linearGradient
       inkscape:collect="always"
       xlink:href="#linearGradient3656"
       id="linearGradient5816"
       gradientUnits="userSpaceOnUse"
       x1="-26.753757"
       y1="11.566258"
       x2="-24.75"
       y2="9.687501" />
    <linearGradient
       inkscape:collect="always"
       xlink:href="#linearGradient3520"
       id="linearGradient5836"
       gradientUnits="userSpaceOnUse"
       gradientTransform="matrix(0.9223058,0,0,0.9185751,-92.447368,61.3257)"
       x1="-18.588562"
       y1="11.052948"
       x2="-28.789402"
       y2="14.069944" />
    <radialGradient
       inkscape:collect="always"
       xlink:href="#linearGradient3671"
       id="radialGradient5839"
       gradientUnits="userSpaceOnUse"
       gradientTransform="matrix(0.4073362,-0.2798276,0.7510293,1.0932492,-115.18484,51.56213)"
       cx="-26.305403"
       cy="10.108011"
       fx="-26.305403"
       fy="10.108011"
       r="7.0421038" />
    <linearGradient
       inkscape:collect="always"
       id="linearGradient6469">
      <stop
         style="stop-color:#000000;stop-opacity:1;"
         offset="0"
         id="stop6471" />
      <stop
         style="stop-color:#000000;stop-opacity:0;"
         offset="1"
         id="stop6473" />
    </linearGradient>
    <linearGradient
       inkscape:collect="always"
       xlink:href="#linearGradient6469"
       id="linearGradient6475"
       x1="58.282169"
       y1="70.751839"
       x2="61.181217"
       y2="67.799171"
       gradientUnits="userSpaceOnUse"
       gradientTransform="translate(-180,0)" />
    <radialGradient
       inkscape:collect="always"
       xlink:href="#linearGradient3741"
       id="radialGradient5810"
       gradientUnits="userSpaceOnUse"
       gradientTransform="matrix(1.8860258,0,0,1.1764706,-3.5441033,-4.2352941)"
       cx="4"
       cy="5.2999997"
       fx="4"
       fy="5.2999997"
       r="17" />
    <linearGradient
       inkscape:collect="always"
       xlink:href="#linearGradient3613"
       id="linearGradient5845"
       gradientUnits="userSpaceOnUse"
       gradientTransform="translate(-90,60)"
       x1="-47.5"
       y1="49.020683"
       x2="-62.75"
       y2="-22.502075" />
    <radialGradient
       inkscape:collect="always"
       xlink:href="#linearGradient3683"
       id="radialGradient5843"
       gradientUnits="userSpaceOnUse"
       gradientTransform="matrix(3.9957492,0,0,1.9350367,0.62141,28.832578)"
       cx="-30.249996"
       cy="35.357208"
       fx="-30.249996"
       fy="35.357208"
       r="18.000002" />
    <linearGradient
       inkscape:collect="always"
       xlink:href="#linearGradient3702"
       id="linearGradient5804"
       gradientUnits="userSpaceOnUse"
       x1="25.058096"
       y1="47.027729"
       x2="25.058096"
       y2="39.999443" />
    <radialGradient
       inkscape:collect="always"
       xlink:href="#linearGradient3688"
       id="radialGradient5802"
       gradientUnits="userSpaceOnUse"
       gradientTransform="matrix(2.003784,0,0,1.4,-20.01187,-104.4)"
       cx="4.9929786"
       cy="43.5"
       fx="4.9929786"
       fy="43.5"
       r="2.5" />
    <radialGradient
       inkscape:collect="always"
       xlink:href="#linearGradient3688"
       id="radialGradient5800"
       gradientUnits="userSpaceOnUse"
       gradientTransform="matrix(2.003784,0,0,1.4,27.98813,-17.4)"
       cx="4.9929786"
       cy="43.5"
       fx="4.9929786"
       fy="43.5"
       r="2.5" />
    <linearGradient
       inkscape:collect="always"
       xlink:href="#linearGradient3702"
       id="linearGradient5798"
       gradientUnits="userSpaceOnUse"
       x1="25.058096"
       y1="47.027729"
       x2="25.058096"
       y2="39.999443" />
    <radialGradient
       inkscape:collect="always"
       xlink:href="#linearGradient3688"
       id="radialGradient5796"
       gradientUnits="userSpaceOnUse"
       gradientTransform="matrix(2.003784,0,0,1.4,-20.01187,-104.4)"
       cx="4.9929786"
       cy="43.5"
       fx="4.9929786"
       fy="43.5"
       r="2.5" />
    <radialGradient
       inkscape:collect="always"
       xlink:href="#linearGradient3688"
       id="radialGradient5794"
       gradientUnits="userSpaceOnUse"
       gradientTransform="matrix(2.003784,0,0,1.4,27.98813,-17.4)"
       cx="4.9929786"
       cy="43.5"
       fx="4.9929786"
       fy="43.5"
       r="2.5" />
    <linearGradient
       inkscape:collect="always"
       id="linearGradient3656">
      <stop
         style="stop-color:#ffffff;stop-opacity:1;"
         offset="0"
         id="stop3658" />
      <stop
         style="stop-color:#ffffff;stop-opacity:0;"
         offset="1"
         id="stop3660" />
    </linearGradient>
    <linearGradient
       inkscape:collect="always"
       id="linearGradient3520">
      <stop
         style="stop-color:#000000;stop-opacity:0.41295547"
         offset="0"
         id="stop3522" />
      <stop
         style="stop-color:#000000;stop-opacity:0;"
         offset="1"
         id="stop3524" />
    </linearGradient>
    <linearGradient
       id="linearGradient3671">
      <stop
         style="stop-color:#ffffff;stop-opacity:1;"
         offset="0"
         id="stop3673" />
      <stop
         id="stop3691"
         offset="0.47533694"
         style="stop-color:#ffffff;stop-opacity:1;" />
      <stop
         style="stop-color:#ffffff;stop-opacity:0;"
         offset="1"
         id="stop3675" />
    </linearGradient>
    <linearGradient
       inkscape:collect="always"
       id="linearGradient3741">
      <stop
         style="stop-color:#ffffff;stop-opacity:1;"
         offset="0"
         id="stop3743" />
      <stop
         style="stop-color:#ffffff;stop-opacity:0;"
         offset="1"
         id="stop3745" />
    </linearGradient>
    <linearGradient
       inkscape:collect="always"
       id="linearGradient3613">
      <stop
         style="stop-color:#888a85;stop-opacity:1"
         offset="0"
         id="stop3615" />
      <stop
         style="stop-color:#babdb6;stop-opacity:1"
         offset="1"
         id="stop3617" />
    </linearGradient>
    <linearGradient
       id="linearGradient3683">
      <stop
         id="stop3685"
         offset="0"
         style="stop-color:#f6f6f5;stop-opacity:1;" />
      <stop
         id="stop3689"
         offset="1"
         style="stop-color:#d3d7cf;stop-opacity:1" />
    </linearGradient>
    <linearGradient
       id="linearGradient3688"
       inkscape:collect="always">
      <stop
         id="stop3690"
         offset="0"
         style="stop-color:black;stop-opacity:1;" />
      <stop
         id="stop3692"
         offset="1"
         style="stop-color:black;stop-opacity:0;" />
    </linearGradient>
    <linearGradient
       id="linearGradient3702">
      <stop
         id="stop3704"
         offset="0"
         style="stop-color:black;stop-opacity:0;" />
      <stop
         style="stop-color:black;stop-opacity:1;"
         offset="0.5"
         id="stop3710" />
      <stop
         id="stop3706"
         offset="1"
         style="stop-color:black;stop-opacity:0;" />
    </linearGradient>
    <linearGradient
       inkscape:collect="always"
       xlink:href="#linearGradient3520"
       id="linearGradient2787"
       gradientUnits="userSpaceOnUse"
       gradientTransform="matrix(0.9223058,0,0,0.9185751,57.552632,1.3257)"
       x1="-18.588562"
       y1="11.052948"
       x2="-28.789402"
       y2="14.069944" />
    <radialGradient
       inkscape:collect="always"
       xlink:href="#linearGradient3671"
       id="radialGradient2790"
       gradientUnits="userSpaceOnUse"
       gradientTransform="matrix(0.4073362,-0.2798276,0.7510293,1.0932492,34.81516,-8.43787)"
       cx="-26.305403"
       cy="10.108011"
       fx="-26.305403"
       fy="10.108011"
       r="7.0421038" />
    <linearGradient
       inkscape:collect="always"
       xlink:href="#linearGradient6469"
       id="linearGradient2793"
       gradientUnits="userSpaceOnUse"
       gradientTransform="translate(-30,-60)"
       x1="58.282169"
       y1="70.751839"
       x2="61.181217"
       y2="67.799171" />
    <radialGradient
       inkscape:collect="always"
       xlink:href="#linearGradient3683"
       id="radialGradient2797"
       gradientUnits="userSpaceOnUse"
       gradientTransform="matrix(3.9957492,0,0,1.9350367,150.62141,-31.167422)"
       cx="-30.249996"
       cy="35.357208"
       fx="-30.249996"
       fy="35.357208"
       r="18.000002" />
    <linearGradient
       inkscape:collect="always"
       xlink:href="#linearGradient3613"
       id="linearGradient2799"
       gradientUnits="userSpaceOnUse"
       gradientTransform="translate(60,0)"
       x1="-47.5"
       y1="49.020683"
       x2="-62.75"
       y2="-22.502075" />
    <radialGradient
       inkscape:collect="always"
       xlink:href="#linearGradient35488"
       id="radialGradient3150"
       gradientUnits="userSpaceOnUse"
       gradientTransform="matrix(1,0,0,0.342857,0,25.61831)"
       cx="28.019106"
       cy="38.98439"
       fx="28.019106"
       fy="38.98439"
       r="15.467961" />
    <linearGradient
       inkscape:collect="always"
       xlink:href="#linearGradient39155"
       id="linearGradient3152"
       gradientUnits="userSpaceOnUse"
       x1="31.1875"
       y1="18.875"
       x2="29.875"
       y2="34.375" />
    <linearGradient
       inkscape:collect="always"
       xlink:href="#linearGradient3564"
       id="linearGradient3154"
       gradientUnits="userSpaceOnUse"
       gradientTransform="matrix(4.454064e-2,7.407134e-4,-7.396764e-4,4.445763e-2,18.516358,27.238145)"
       x1="213.58719"
       y1="195.85153"
       x2="183.16304"
       y2="-404.09323" />
    <radialGradient
       inkscape:collect="always"
       xlink:href="#linearGradient39171"
       id="radialGradient3156"
       gradientUnits="userSpaceOnUse"
       gradientTransform="matrix(1.034353,0,0,0.794876,-5.2673143,6.44078)"
       cx="26.109201"
       cy="19.668886"
       fx="26.109201"
       fy="19.668886"
       r="20.278975" />
  </defs>
  <sodipodi:namedview
     inkscape:window-y="146"
     inkscape:window-x="270"
     inkscape:window-height="872"
     inkscape:window-width="1048"
     inkscape:document-units="px"
     inkscape:grid-bbox="true"
     showgrid="false"
     inkscape:current-layer="layer6"
     inkscape:cy="21.065382"
     inkscape:cx="14.880656"
     inkscape:zoom="8"
     inkscape:pageshadow="2"
     inkscape:pageopacity="0.0"
     borderopacity="0.25490196"
     bordercolor="#666666"
     pagecolor="#ffffff"
     id="base"
     inkscape:showpageshadow="false" />
  <metadata
     id="metadata4">
    <rdf:RDF>
      <cc:Work
         rdf:about="">
        <dc:format>image/svg+xml</dc:format>
        <dc:type
           rdf:resource="http://purl.org/dc/dcmitype/StillImage" />
        <dc:title>Generic Text</dc:title>
        <dc:subject>
          <rdf:Bag>
            <rdf:li>text</rdf:li>
            <rdf:li>plaintext</rdf:li>
            <rdf:li>regular</rdf:li>
            <rdf:li>document</rdf:li>
          </rdf:Bag>
        </dc:subject>
        <cc:license
           rdf:resource="http://creativecommons.org/licenses/GPL/2.0/" />
        <dc:creator>
          <cc:Agent>
            <dc:title>Lapo Calamandrei</dc:title>
          </cc:Agent>
        </dc:creator>
        <dc:source />
        <dc:date />
        <dc:rights>
          <cc:Agent>
            <dc:title />
          </cc:Agent>
        </dc:rights>
        <dc:publisher>
          <cc:Agent>
            <dc:title />
          </cc:Agent>
        </dc:publisher>
        <dc:identifier />
        <dc:relation />
        <dc:language />
        <dc:coverage />
        <dc:description />
        <dc:contributor>
          <cc:Agent>
            <dc:title />
          </cc:Agent>
        </dc:contributor>
      </cc:Work>
      <cc:License
         rdf:about="http://creativecommons.org/licenses/GPL/2.0/">
        <cc:permits
           rdf:resource="http://web.resource.org/cc/Reproduction" />
        <cc:permits
           rdf:resource="http://web.resource.org/cc/Distribution" />
        <cc:requires
           rdf:resource="http://web.resource.org/cc/Notice" />
        <cc:permits
           rdf:resource="http://web.resource.org/cc/DerivativeWorks" />
        <cc:requires
           rdf:resource="http://web.resource.org/cc/ShareAlike" />
        <cc:requires
           rdf:resource="http://web.resource.org/cc/SourceCode" />
      </cc:License>
    </rdf:RDF>
  </metadata>
  <g
     inkscape:groupmode="layer"
     id="layer6"
     inkscape:label="Shadow">
    <rect
       style="opacity:0;fill:#000000;fill-opacity:1;stroke:none;stroke-width:1;stroke-miterlimit:4;stroke-dasharray:none;display:inline"
       id="rect5504"
       width="48"
       height="48"
       x="0"
       y="0" />
    <g
       style="opacity:0.65587045;display:inline"
       id="g5508"
       inkscape:label="Shadow"
       transform="matrix(1.0464281,0,0,0.8888889,-1.18572,5.72224)">
      <g
         id="g5511"
         style="opacity:0.4"
         transform="matrix(1.052632,0,0,1.285713,-1.263158,-13.42854)">
        <rect
           y="40"
           x="38"
           height="7"
           width="5"
           id="rect5513"
           style="opacity:1;fill:url(#radialGradient5794);fill-opacity:1;stroke:none;stroke-width:1;stroke-linecap:round;stroke-linejoin:miter;stroke-miterlimit:4;stroke-dasharray:none;stroke-opacity:1" />
        <rect
           transform="scale(-1,-1)"
           y="-47"
           x="-10"
           height="7"
           width="5"
           id="rect5515"
           style="opacity:1;fill:url(#radialGradient5796);fill-opacity:1;stroke:none;stroke-width:1;stroke-linecap:round;stroke-linejoin:miter;stroke-miterlimit:4;stroke-dasharray:none;stroke-opacity:1" />
        <rect
           y="40"
           x="10"
           height="7.0000005"
           width="28"
           id="rect5517"
           style="opacity:1;fill:url(#linearGradient5798);fill-opacity:1;stroke:none;stroke-width:1;stroke-linecap:round;stroke-linejoin:miter;stroke-miterlimit:4;stroke-dasharray:none;stroke-opacity:1" />
      </g>
    </g>
    <g
       style="display:inline"
       id="g5519"
       inkscape:label="Shadow"
       transform="matrix(0.9548466,0,0,0.5555562,1.01224,19.888875)">
      <g
         id="g5521"
         style="opacity:0.4"
         transform="matrix(1.052632,0,0,1.285713,-1.263158,-13.42854)">
        <rect
           y="40"
           x="38"
           height="7"
           width="5"
           id="rect5523"
           style="opacity:1;fill:url(#radialGradient5800);fill-opacity:1;stroke:none;stroke-width:1;stroke-linecap:round;stroke-linejoin:miter;stroke-miterlimit:4;stroke-dasharray:none;stroke-opacity:1" />
        <rect
           transform="scale(-1,-1)"
           y="-47"
           x="-10"
           height="7"
           width="5"
           id="rect5525"
           style="opacity:1;fill:url(#radialGradient5802);fill-opacity:1;stroke:none;stroke-width:1;stroke-linecap:round;stroke-linejoin:miter;stroke-miterlimit:4;stroke-dasharray:none;stroke-opacity:1" />
        <rect
           y="40"
           x="10"
           height="7.0000005"
           width="28"
           id="rect5527"
           style="opacity:1;fill:url(#linearGradient5804);fill-opacity:1;stroke:none;stroke-width:1;stroke-linecap:round;stroke-linejoin:miter;stroke-miterlimit:4;stroke-dasharray:none;stroke-opacity:1" />
      </g>
    </g>
    <path
       style="fill:url(#radialGradient2797);fill-opacity:1;stroke:url(#linearGradient2799);stroke-width:1;stroke-miterlimit:4;display:inline"
       d="M 8.52386,3.5 C 8.52386,3.5 26,3.5 27.5,3.5 C 31.37705,3.572942 34,6 36.5,8.5 C 39,11 41.10768,13.752625 41.5,17.5 C 41.5,19 41.5,42.47614 41.5,42.47614 C 41.5,43.59736 40.59736,44.5 39.47615,44.5 L 8.52386,44.5 C 7.40264,44.5 6.5,43.59736 6.5,42.47614 L 6.5,5.523858 C 6.5,4.402641 7.40264,3.5 8.52386,3.5 z"
       id="path5529"
       sodipodi:nodetypes="ccsccccccc" />
    <path
       sodipodi:type="inkscape:offset"
       inkscape:radius="-0.4861359"
       inkscape:original="M 8.53125 3.5 C 7.410033 3.5 6.5 4.4100329 6.5 5.53125 L 6.5 42.46875 C 6.5 43.589967 7.4100329 44.5 8.53125 44.5 L 39.46875 44.5 C 40.589967 44.5 41.5 43.589966 41.5 42.46875 C 41.5 42.46875 41.5 19 41.5 17.5 C 41.5 16 41 13 39 11 C 37 9 36 8 34 6 C 32 4 29 3.5 27.5 3.5 C 26 3.5 8.5312499 3.5 8.53125 3.5 z "
       style="opacity:0.68016196;fill:url(#radialGradient5810);fill-opacity:1;stroke:none;stroke-width:1;stroke-miterlimit:4;display:inline"
       id="path5531"
       d="M 8.53125,4 C 7.6730803,4 7,4.6730802 7,5.53125 L 7,42.46875 C 7,43.32692 7.6730802,44 8.53125,44 L 39.46875,44 C 40.326919,44 41,43.326918 41,42.46875 C 41,42.46875 41,19 41,17.5 C 41,16.10803 40.513021,13.200521 38.65625,11.34375 C 36.65625,9.34375 35.65625,8.34375 33.65625,6.34375 C 31.799479,4.4869792 28.89197,4 27.5,4 C 26,4 8.53125,4 8.53125,4 z" />
    <path
       style="fill:url(#radialGradient2790);fill-opacity:1;stroke:none;stroke-width:1;stroke-miterlimit:4;display:inline"
       d="M 27.5,4 C 26.11111,4 27.45793,4.497088 28.84375,5.125 C 30.22957,5.752912 33.81663,8.340052 33,12 C 37.32331,11.569417 39.67913,15.122378 40,16.28125 C 40.32087,17.440122 41,18.888889 41,17.5 C 41.02833,13.694419 38.15457,11.068299 36.15625,8.84375 C 34.15793,6.619201 31.15379,4.476761 27.5,4 z"
       id="path5533"
       sodipodi:nodetypes="ccccczc" />
    <path
       style="opacity:0.87854249;fill:url(#linearGradient2787);fill-opacity:1;stroke:none;stroke-width:1;stroke-miterlimit:4;display:inline"
       d="M 28.60088,5.014353 C 29.52318,5.014353 31.60932,11.210015 30.68702,15.343603 C 34.98198,14.915844 39.5404,15.43178 40,16.28125 C 39.67913,15.122378 37.32331,11.569417 33,12 C 33.86466,8.124761 29.81343,5.382702 28.60088,5.014353 z"
       id="path5535"
       sodipodi:nodetypes="ccccc" />
    <path
       sodipodi:type="inkscape:offset"
       inkscape:radius="-0.99436891"
       inkscape:original="M -51.46875 3.5 C -52.589967 3.5 -53.5 4.4100329 -53.5 5.53125 L -53.5 42.46875 C -53.5 43.589967 -52.589966 44.5 -51.46875 44.5 L -20.53125 44.5 C -19.410033 44.5 -18.5 43.589966 -18.5 42.46875 C -18.5 42.46875 -18.5 19 -18.5 17.5 C -18.5 16 -19 13 -21 11 C -23 9 -24 8 -26 6 C -28 4 -31 3.5 -32.5 3.5 C -34 3.5 -51.468749 3.5 -51.46875 3.5 z "
       style="fill:none;fill-opacity:1;stroke:url(#linearGradient5816);stroke-width:1;stroke-miterlimit:4;display:inline"
       id="path5537"
       d="M -51.46875,4.5 C -52.051916,4.5 -52.5,4.9480842 -52.5,5.53125 L -52.5,42.46875 C -52.5,43.051915 -52.051914,43.5 -51.46875,43.5 L -20.53125,43.5 C -19.948085,43.5 -19.5,43.051914 -19.5,42.46875 C -19.5,42.46875 -19.5,19 -19.5,17.5 C -19.5,16.220971 -19.980469,13.394531 -21.6875,11.6875 C -23.6875,9.6875 -24.6875,8.6875 -26.6875,6.6875 C -28.394531,4.9804687 -31.220971,4.5 -32.5,4.5 C -34,4.5 -51.46875,4.5 -51.46875,4.5 z"
       transform="translate(60,0)" />
    <g
       id="g3096"
       transform="translate(-0.3584972,1.0643219)">
      <path
         transform="matrix(0.8404469,0,0,0.8485281,-0.5485735,0.42065)"
         d="M 43.487067,38.98439 A 15.467961,5.3033009 0 1 1 12.551145,38.98439 A 15.467961,5.3033009 0 1 1 43.487067,38.98439 z"
         sodipodi:ry="5.3033009"
         sodipodi:rx="15.467961"
         sodipodi:cy="38.98439"
         sodipodi:cx="28.019106"
         id="path35486"
         style="opacity:0.54857142;fill:url(#radialGradient3150);fill-opacity:1;fill-rule:nonzero;stroke:none;stroke-width:1;stroke-linecap:square;stroke-linejoin:miter;marker:none;marker-start:none;marker-mid:none;marker-end:none;stroke-miterlimit:4;stroke-dasharray:none;stroke-dashoffset:0;stroke-opacity:1;visibility:visible;display:inline;overflow:visible;enable-background:accumulate"
         sodipodi:type="arc" />
      <path
         sodipodi:nodetypes="csssssssssscccssccczsccsccc"
         d="M 14.187804,28.047973 C 14.194369,28.434345 14.319655,29.185552 14.503963,29.774825 C 14.894245,31.017081 15.555449,32.168474 16.476371,33.182733 C 17.420917,34.223308 18.582588,35.06087 19.925294,35.654839 C 21.338171,36.278985 22.86787,36.597844 24.455217,36.595333 C 26.042564,36.591979 27.572145,36.267918 28.984351,35.639244 C 30.326537,35.03941 31.488203,34.199842 32.432084,33.156581 C 33.350941,32.138299 34.010865,30.985063 34.401111,29.742134 C 34.598586,29.113445 34.721166,28.476257 34.772381,27.835802 C 34.821581,27.206475 34.800591,26.573866 34.710756,25.943886 C 34.536287,24.714052 34.109266,23.56083 33.454045,22.508453 C 32.85306,21.542527 32.07979,20.696435 31.160764,19.984613 C 31.160764,19.984613 31.162103,19.983285 31.162103,19.983285 C 31.162103,19.983285 21.882015,12.868167 21.882015,12.868167 C 21.87412,12.861617 21.8669,12.855067 21.858335,12.849176 C 21.248316,12.382912 20.22439,12.163248 19.555349,12.631478 C 18.877102,13.104292 18.822643,14.064638 19.424134,14.55973 C 20.699046,15.564558 21.88055,16.526901 23.162527,17.531606 C 23.162527,17.531606 10.411562,17.54586 10.411562,17.54586 C 9.072956,17.54586 8.496691,18.568263 8.473091,19.529252 C 8.450041,20.467862 9.262274,21.473304 10.424662,21.47426 C 10.424662,21.47426 14.390233,21.491761 16.381416,21.487837 C 12.957913,23.963267 9.533874,26.437969 6.1106047,28.913714 C 5.1057067,29.683125 4.9672096,30.963433 5.6001877,31.7735 C 6.2443177,32.597314 7.4244467,32.597983 8.44246,31.777523 C 8.44246,31.777523 14.265874,27.01918 14.265874,27.01918 C 14.265874,27.01918 14.181915,27.662254 14.187804,28.047973 z"
         id="path2482"
         style="fill:#f57900;fill-rule:evenodd;stroke:#ce5c00;stroke-width:0.99999976;stroke-linecap:butt;stroke-linejoin:miter;stroke-miterlimit:4;stroke-dasharray:none;display:inline" />
      <path
         transform="matrix(0.551379,0,0,0.562462,7.3609787,11.827002)"
         d="M 42.75,25.75 A 11.5625,10.125 0 1 1 19.625,25.75 A 11.5625,10.125 0 1 1 42.75,25.75 z"
         sodipodi:ry="10.125"
         sodipodi:rx="11.5625"
         sodipodi:cy="25.75"
         sodipodi:cx="31.1875"
         id="path39153"
         style="opacity:1;fill:url(#linearGradient3152);fill-opacity:1;fill-rule:nonzero;stroke:none;stroke-width:1;stroke-linecap:square;stroke-linejoin:miter;marker:none;marker-start:none;marker-mid:none;marker-end:none;stroke-miterlimit:4;stroke-dasharray:none;stroke-dashoffset:0;stroke-opacity:1;visibility:visible;display:inline;overflow:visible;enable-background:accumulate"
         sodipodi:type="arc" />
      <path
         sodipodi:nodetypes="ccczcccscsccsss"
         id="path3562"
         d="M 20.184006,13.930053 C 20.184006,13.930053 26.025307,18.497035 26.025307,18.497035 C 26.025307,18.497035 10.939261,18.541911 10.939261,18.541911 C 10.316776,18.531975 9.556663,18.645327 9.533015,19.466554 C 9.507577,20.349949 10.267413,20.457944 10.798123,20.465211 C 10.798123,20.465211 19.347571,20.518769 19.347571,20.518769 C 19.347571,20.518769 7.0800817,29.266859 7.0800817,29.266859 C 5.4744377,30.469133 5.9794667,32.058404 7.890883,30.968946 C 7.890883,30.968946 15.342681,25.000473 15.342681,25.000473 C 15.056812,27.352445 14.954877,29.925779 16.988003,32.28097 C 18.813162,34.39525 21.412597,35.450991 24.149608,35.603222 C 26.895755,35.620236 29.602979,34.67456 31.502412,32.687151 C 34.980678,28.580373 34.310507,23.928558 30.644632,20.848521 C 27.747283,18.414193 24.584495,16.071001 21.555224,13.796201 C 20.684104,13.142042 19.681024,13.437056 20.184006,13.930053 z"
         style="opacity:0.4857143;fill:none;fill-opacity:1;fill-rule:evenodd;stroke:url(#linearGradient3154);stroke-width:0.99999857;stroke-linecap:butt;stroke-linejoin:miter;stroke-miterlimit:4;stroke-dasharray:none;stroke-opacity:1;display:inline" />
      <path
         d="M 20.870889,25.8106 C 20.920861,24.898637 21.367019,24.093644 22.037712,23.523739 C 22.697737,22.963504 23.584039,22.621431 24.55219,22.621431 C 25.519725,22.621431 26.406028,22.963504 27.0659,23.523739 C 27.737332,24.093644 28.18295,24.898033 28.233506,25.809997 C 28.285299,26.748555 27.909507,27.620028 27.250867,28.265479 C 26.579435,28.923015 25.622073,29.335792 24.55219,29.335792 C 23.481692,29.335792 22.524329,28.923015 21.852928,28.265479 C 21.193611,27.620028 20.819114,26.748555 20.870889,25.8106 z"
         id="path2478"
         style="fill:#3465a4;fill-rule:evenodd;stroke:none;stroke-width:1.0074476;stroke-linecap:butt;stroke-linejoin:miter;stroke-miterlimit:4;stroke-dasharray:none;display:inline" />
      <path
         sodipodi:nodetypes="ccczcccccscscc"
         id="path39166"
         d="M 19.942001,14.385157 C 21.160442,15.349174 23.447631,17.115719 24.655028,18.097211 C 24.655028,18.097211 13.074166,18.077238 10.165577,18.074876 C 9.567173,18.075276 9.063637,18.538582 9.065561,19.471766 C 9.067485,20.40495 9.802527,20.947478 10.222588,20.947478 C 10.222588,20.947478 17.891971,20.972715 17.891971,20.972715 C 17.891971,20.972715 7.0884507,28.695961 7.0884507,28.695961 C 5.1065087,30.340063 7.0179677,32.144051 8.863951,30.782836 C 8.863951,30.782836 14.862045,25.991919 14.862045,25.991919 C 14.862045,25.991919 14.271355,28.153269 15.144494,30.090496 C 16.499842,33.097596 22.793947,21.835474 33.102513,22.862606 C 32.570116,21.930029 31.713407,20.967953 30.774619,20.205286 C 30.774619,20.205286 24.820242,15.674683 21.926914,13.455945 C 20.15686,12.170414 18.822289,13.35829 19.942001,14.385157 z"
         style="opacity:0.51999996;fill:url(#radialGradient3156);fill-opacity:1;fill-rule:evenodd;stroke:none;stroke-width:1;stroke-linecap:butt;stroke-linejoin:miter;stroke-miterlimit:4;stroke-dasharray:none;stroke-opacity:1;display:inline" />
    </g>
  </g>
  <g
     style="display:inline"
     inkscape:groupmode="layer"
     inkscape:label="Base"
     id="layer1" />
  <g
     inkscape:groupmode="layer"
     id="layer5"
     inkscape:label="Text"
     style="display:inline" />
</svg>
