<?xml version="1.0" encoding="UTF-8" standalone="no"?>
<!-- Created with Inkscape (http://www.inkscape.org/) -->
<svg
   xmlns:dc="http://purl.org/dc/elements/1.1/"
   xmlns:cc="http://creativecommons.org/ns#"
   xmlns:rdf="http://www.w3.org/1999/02/22-rdf-syntax-ns#"
   xmlns:svg="http://www.w3.org/2000/svg"
   xmlns="http://www.w3.org/2000/svg"
   xmlns:xlink="http://www.w3.org/1999/xlink"
   xmlns:sodipodi="http://sodipodi.sourceforge.net/DTD/sodipodi-0.dtd"
   xmlns:inkscape="http://www.inkscape.org/namespaces/inkscape"
   width="48px"
   height="48px"
   id="svg1306"
   sodipodi:version="0.32"
   inkscape:version="0.46"
   sodipodi:docbase="/home/dobey/Projects/gnome-icon-theme/scalable/status"
   sodipodi:docname="image-x-xcf.svg"
   inkscape:output_extension="org.inkscape.output.svg.inkscape">
  <defs
     id="defs1308">
    <linearGradient
       id="linearGradient8534">
      <stop
         style="stop-color:black;stop-opacity:1"
         offset="0"
         id="stop8536" />
      <stop
         style="stop-color:black;stop-opacity:0"
         offset="1"
         id="stop8538" />
    </linearGradient>
    <linearGradient
       x1="26.162951"
       y1="30.543303"
       x2="24.328892"
       y2="30.985245"
       id="linearGradient4330"
       xlink:href="#linearGradient8534"
       gradientUnits="userSpaceOnUse" />
    <linearGradient
       id="linearGradient2446">
      <stop
         style="stop-color:white;stop-opacity:1"
         offset="0"
         id="stop2448" />
      <stop
         style="stop-color:white;stop-opacity:0"
         offset="1"
         id="stop2450" />
    </linearGradient>
    <linearGradient
       x1="13.236155"
       y1="37.752247"
       x2="7.7521091"
       y2="42.282146"
       id="linearGradient2452"
       xlink:href="#linearGradient2446"
       gradientUnits="userSpaceOnUse"
       gradientTransform="matrix(0.755165,0.395143,-0.395143,0.755165,-25.91245,6.532586)" />
    <linearGradient
       id="linearGradient6963">
      <stop
         style="stop-color:#696969;stop-opacity:1"
         offset="0"
         id="stop6965" />
      <stop
         style="stop-color:black;stop-opacity:1"
         offset="1"
         id="stop6967" />
    </linearGradient>
    <radialGradient
       cx="15.415101"
       cy="35.356506"
       r="7.5791559"
       fx="15.415101"
       fy="35.356506"
       id="radialGradient6969"
       xlink:href="#linearGradient6963"
       gradientUnits="userSpaceOnUse"
       gradientTransform="matrix(1.572694,0,0,1.532639,-55.36682,-21.35823)" />
    <linearGradient
       id="linearGradient6939">
      <stop
         style="stop-color:#bdbdbd;stop-opacity:1"
         offset="0"
         id="stop6941" />
      <stop
         style="stop-color:#e2e2e2;stop-opacity:1"
         offset="0.33333334"
         id="stop6947" />
      <stop
         style="stop-color:#a3a3a3;stop-opacity:1"
         offset="0.66666669"
         id="stop6949" />
      <stop
         style="stop-color:#ddd;stop-opacity:1"
         offset="1"
         id="stop6943" />
    </linearGradient>
    <linearGradient
       x1="19.394735"
       y1="30.001331"
       x2="23.109331"
       y2="33.438831"
       id="linearGradient6945"
       xlink:href="#linearGradient6939"
       gradientUnits="userSpaceOnUse"
       gradientTransform="translate(-46.40695,-1.802856)" />
    <linearGradient
       id="linearGradient6951">
      <stop
         style="stop-color:#6e3d09;stop-opacity:1"
         offset="0"
         id="stop6953" />
      <stop
         style="stop-color:#ea8113;stop-opacity:1"
         offset="0.24242425"
         id="stop6959" />
      <stop
         style="stop-color:#5c3307;stop-opacity:1"
         offset="0.62121212"
         id="stop6961" />
      <stop
         style="stop-color:#e07c12;stop-opacity:1"
         offset="1"
         id="stop6955" />
    </linearGradient>
    <linearGradient
       x1="37.017639"
       y1="19.239889"
       x2="27.753893"
       y2="11.182488"
       id="linearGradient6957"
       xlink:href="#linearGradient6951"
       gradientUnits="userSpaceOnUse"
       gradientTransform="translate(-49.30496,1.877723)" />
    <radialGradient
       cx="69.473244"
       cy="19.597878"
       r="3.5153139"
       fx="69.473244"
       fy="19.597878"
       id="radialGradient6474"
       xlink:href="#linearGradient6468"
       gradientUnits="userSpaceOnUse"
       gradientTransform="matrix(1.318488,0,0,1.318488,-22.1264,-6.241691)" />
    <linearGradient
       id="linearGradient6452">
      <stop
         style="stop-color:white;stop-opacity:1"
         offset="0"
         id="stop6454" />
      <stop
         style="stop-color:white;stop-opacity:0"
         offset="1"
         id="stop6456" />
    </linearGradient>
    <linearGradient
       x1="6.3051529"
       y1="23.362427"
       x2="5.9846287"
       y2="31.57"
       id="linearGradient6458"
       xlink:href="#linearGradient6452"
       gradientUnits="userSpaceOnUse" />
    <linearGradient
       id="linearGradient8542">
      <stop
         style="stop-color:#5b676b;stop-opacity:1"
         offset="0"
         id="stop8544" />
      <stop
         style="stop-color:#141718;stop-opacity:1"
         offset="1"
         id="stop8546" />
    </linearGradient>
    <radialGradient
       cx="6.0242186"
       cy="25.271027"
       r="4.8310289"
       fx="6.0242186"
       fy="25.271027"
       id="radialGradient8548"
       xlink:href="#linearGradient8542"
       gradientUnits="userSpaceOnUse"
       gradientTransform="matrix(0.916159,9.318684e-2,-0.108765,1.069309,3.253668,-3.029272)" />
    <linearGradient
       id="linearGradient6468">
      <stop
         style="stop-color:white;stop-opacity:1"
         offset="0"
         id="stop6470" />
      <stop
         style="stop-color:#b9b9b0;stop-opacity:1"
         offset="1"
         id="stop6472" />
    </linearGradient>
    <radialGradient
       cx="69.473244"
       cy="19.597878"
       r="3.5153139"
       fx="69.473244"
       fy="19.597878"
       id="radialGradient4363"
       xlink:href="#linearGradient6468"
       gradientUnits="userSpaceOnUse"
       gradientTransform="matrix(1.318488,0,0,1.318488,-22.1264,-6.241691)" />
    <linearGradient
       id="linearGradient8524">
      <stop
         style="stop-color:white;stop-opacity:1"
         offset="0"
         id="stop8526" />
      <stop
         style="stop-color:white;stop-opacity:0"
         offset="1"
         id="stop8528" />
    </linearGradient>
    <linearGradient
       x1="14.96875"
       y1="19.110678"
       x2="39.524544"
       y2="46.98568"
       id="linearGradient8530"
       xlink:href="#linearGradient8524"
       gradientUnits="userSpaceOnUse" />
    <linearGradient
       id="linearGradient6482">
      <stop
         style="stop-color:black;stop-opacity:1"
         offset="0"
         id="stop6484" />
      <stop
         style="stop-color:black;stop-opacity:0"
         offset="1"
         id="stop6486" />
    </linearGradient>
    <linearGradient
       x1="32.350136"
       y1="28.083355"
       x2="21.213203"
       y2="30.293064"
       id="linearGradient4351"
       xlink:href="#linearGradient6482"
       gradientUnits="userSpaceOnUse"
       gradientTransform="translate(-3.836549,0.345971)" />
    <linearGradient
       id="linearGradient6500">
      <stop
         style="stop-color:#857c63;stop-opacity:1"
         offset="0"
         id="stop6502" />
      <stop
         style="stop-color:#221f19;stop-opacity:1"
         offset="1"
         id="stop6504" />
    </linearGradient>
    <radialGradient
       cx="18.557627"
       cy="22.300018"
       r="19.2292"
       fx="18.557627"
       fy="22.300018"
       id="radialGradient4354"
       xlink:href="#linearGradient6500"
       gradientUnits="userSpaceOnUse"
       gradientTransform="matrix(1.77275,0,0,1.29668,-16.3404,-6.615959)" />
    <linearGradient
       id="linearGradient6492">
      <stop
         style="stop-color:black;stop-opacity:1"
         offset="0"
         id="stop6494" />
      <stop
         style="stop-color:black;stop-opacity:0"
         offset="1"
         id="stop6496" />
    </linearGradient>
    <radialGradient
       cx="23"
       cy="33.9375"
       r="18.25"
       fx="23"
       fy="33.9375"
       id="radialGradient6498"
       xlink:href="#linearGradient6492"
       gradientUnits="userSpaceOnUse"
       gradientTransform="matrix(1,0,0,0.284247,0,24.29088)" />
    <inkscape:perspective
       sodipodi:type="inkscape:persp3d"
       inkscape:vp_x="0 : 24 : 1"
       inkscape:vp_y="0 : 1000 : 0"
       inkscape:vp_z="48 : 24 : 1"
       inkscape:persp3d-origin="24 : 16 : 1"
       id="perspective54" />
    <linearGradient
       inkscape:collect="always"
       id="linearGradient6346">
      <stop
         style="stop-color:#555753;stop-opacity:1"
         offset="0"
         id="stop6348" />
      <stop
         style="stop-color:#2e3436;stop-opacity:1"
         offset="1"
         id="stop6350" />
    </linearGradient>
    <linearGradient
       inkscape:collect="always"
       id="linearGradient5060">
      <stop
         style="stop-color:black;stop-opacity:1;"
         offset="0"
         id="stop5062" />
      <stop
         style="stop-color:black;stop-opacity:0;"
         offset="1"
         id="stop5064" />
    </linearGradient>
    <linearGradient
       id="linearGradient5048">
      <stop
         style="stop-color:black;stop-opacity:0;"
         offset="0"
         id="stop5050" />
      <stop
         id="stop5056"
         offset="0.5"
         style="stop-color:black;stop-opacity:1;" />
      <stop
         style="stop-color:black;stop-opacity:0;"
         offset="1"
         id="stop5052" />
    </linearGradient>
    <linearGradient
       inkscape:collect="always"
       id="linearGradient6431">
      <stop
         style="stop-color:#ffffff;stop-opacity:1;"
         offset="0"
         id="stop6433" />
      <stop
         style="stop-color:#ffffff;stop-opacity:0;"
         offset="1"
         id="stop6435" />
    </linearGradient>
    <linearGradient
       inkscape:collect="always"
       id="linearGradient6390">
      <stop
         style="stop-color:#ffffff;stop-opacity:1"
         offset="0"
         id="stop6392" />
      <stop
         style="stop-color:#ffffff;stop-opacity:0;"
         offset="1"
         id="stop6394" />
    </linearGradient>
    <linearGradient
       id="linearGradient6374">
      <stop
         style="stop-color:#555753;stop-opacity:1;"
         offset="0"
         id="stop6376" />
      <stop
         style="stop-color:#888a85;stop-opacity:1"
         offset="1"
         id="stop6378" />
    </linearGradient>
    <linearGradient
       id="linearGradient6366">
      <stop
         style="stop-color:#ffffff;stop-opacity:1;"
         offset="0"
         id="stop6368" />
      <stop
         style="stop-color:#ffffff;stop-opacity:0;"
         offset="1"
         id="stop6370" />
    </linearGradient>
    <linearGradient
       id="linearGradient6327">
      <stop
         style="stop-color:#888a85;stop-opacity:1"
         offset="0"
         id="stop6329" />
      <stop
         style="stop-color:#eeeeec;stop-opacity:1"
         offset="1"
         id="stop6331" />
    </linearGradient>
    <linearGradient
       inkscape:collect="always"
       xlink:href="#linearGradient6327"
       id="linearGradient6333"
       x1="42.999424"
       y1="36.811924"
       x2="40.621296"
       y2="34.433796"
       gradientUnits="userSpaceOnUse" />
    <linearGradient
       inkscape:collect="always"
       xlink:href="#linearGradient6327"
       id="linearGradient6360"
       x1="61.18124"
       y1="137.97644"
       x2="20.420683"
       y2="2.6749926"
       gradientUnits="userSpaceOnUse" />
    <linearGradient
       inkscape:collect="always"
       xlink:href="#linearGradient6366"
       id="linearGradient6372"
       x1="38.908649"
       y1="35.960426"
       x2="35.032925"
       y2="30.679369"
       gradientUnits="userSpaceOnUse" />
    <radialGradient
       inkscape:collect="always"
       xlink:href="#linearGradient6374"
       id="radialGradient6382"
       cx="39.437065"
       cy="34.33852"
       fx="39.437065"
       fy="34.33852"
       r="6"
       gradientTransform="matrix(0.1875,-1.053432,0.7180811,0.127811,7.8227088,71.030427)"
       gradientUnits="userSpaceOnUse" />
    <radialGradient
       inkscape:collect="always"
       xlink:href="#linearGradient6390"
       id="radialGradient6396"
       cx="20.236877"
       cy="25.043303"
       fx="20.236877"
       fy="25.043303"
       r="22"
       gradientTransform="matrix(0.9409062,-0.2066504,0.109821,0.5000295,-1.5544064,13.219564)"
       gradientUnits="userSpaceOnUse" />
    <radialGradient
       inkscape:collect="always"
       xlink:href="#linearGradient6431"
       id="radialGradient6437"
       cx="40.179535"
       cy="34.080399"
       fx="40.179535"
       fy="34.080399"
       r="4.125"
       gradientTransform="matrix(1,0,0,0.9356061,0,2.3071141)"
       gradientUnits="userSpaceOnUse" />
    <radialGradient
       inkscape:collect="always"
       xlink:href="#linearGradient5060"
       id="radialGradient6909"
       gradientUnits="userSpaceOnUse"
       gradientTransform="matrix(-1.6064769e-2,0,0,7.4117646e-2,11.681601,-1.1750779)"
       cx="605.71429"
       cy="486.64789"
       fx="605.71429"
       fy="486.64789"
       r="117.14286" />
    <radialGradient
       inkscape:collect="always"
       xlink:href="#linearGradient5060"
       id="radialGradient6912"
       gradientUnits="userSpaceOnUse"
       gradientTransform="matrix(0.1044211,0,0,7.4117646e-2,-27.930451,-1.1750779)"
       cx="605.71429"
       cy="486.64789"
       fx="605.71429"
       fy="486.64789"
       r="117.14286" />
    <linearGradient
       inkscape:collect="always"
       xlink:href="#linearGradient5048"
       id="linearGradient6915"
       gradientUnits="userSpaceOnUse"
       gradientTransform="matrix(6.8343196e-2,0,0,7.4117646e-2,-6.2011835,-1.1750779)"
       x1="302.85715"
       y1="366.64789"
       x2="302.85715"
       y2="609.50507" />
    <radialGradient
       inkscape:collect="always"
       xlink:href="#linearGradient6346"
       id="radialGradient6352"
       cx="24.013514"
       cy="39.717846"
       fx="24.013514"
       fy="39.717846"
       r="20.013513"
       gradientTransform="matrix(2.0032233,0,0,1.4513563,-24.090916,-22.394745)"
       gradientUnits="userSpaceOnUse" />
    <linearGradient
       inkscape:collect="always"
       xlink:href="#linearGradient8534"
       id="linearGradient8963"
       gradientUnits="userSpaceOnUse"
       x1="26.162951"
       y1="30.543303"
       x2="24.328892"
       y2="30.985245"
       gradientTransform="matrix(0.7881984,0,0,0.7881984,5.6272217,3.5381215)" />
    <radialGradient
       inkscape:collect="always"
       xlink:href="#linearGradient6468"
       id="radialGradient8976"
       gradientUnits="userSpaceOnUse"
       gradientTransform="matrix(1.5588452,0,0,1.5588452,-85.29762,-12.447375)"
       cx="69.473244"
       cy="19.597878"
       fx="69.473244"
       fy="19.597878"
       r="3.5153139" />
    <linearGradient
       inkscape:collect="always"
       xlink:href="#linearGradient6452"
       id="linearGradient8981"
       gradientUnits="userSpaceOnUse"
       x1="6.3051529"
       y1="23.362427"
       x2="5.9846287"
       y2="31.57"
       gradientTransform="matrix(0.6308653,-0.47251,0.47251,0.6308653,-6.4120359,9.3139133)" />
    <radialGradient
       inkscape:collect="always"
       xlink:href="#linearGradient8542"
       id="radialGradient8985"
       gradientUnits="userSpaceOnUse"
       gradientTransform="matrix(0.6285969,-0.3629205,0.4235879,0.7336768,-5.3378557,5.5770409)"
       cx="6.0242186"
       cy="25.271027"
       fx="6.0242186"
       fy="25.271027"
       r="4.8310289" />
    <radialGradient
       inkscape:collect="always"
       xlink:href="#linearGradient6468"
       id="radialGradient8988"
       gradientUnits="userSpaceOnUse"
       gradientTransform="matrix(1.3279054,0,0,1.3279054,-75.871892,-7.8775763)"
       cx="69.473244"
       cy="19.597878"
       fx="69.473244"
       fy="19.597878"
       r="3.5153139" />
    <linearGradient
       inkscape:collect="always"
       xlink:href="#linearGradient8524"
       id="linearGradient8991"
       gradientUnits="userSpaceOnUse"
       x1="14.96875"
       y1="19.110678"
       x2="39.524544"
       y2="46.98568"
       gradientTransform="matrix(0.7881984,0,0,0.7881984,5.6272217,3.5381215)" />
    <linearGradient
       inkscape:collect="always"
       xlink:href="#linearGradient6482"
       id="linearGradient8994"
       gradientUnits="userSpaceOnUse"
       gradientTransform="matrix(0.7881984,0,0,0.7881984,2.6032599,3.8108153)"
       x1="32.350136"
       y1="28.083355"
       x2="21.213203"
       y2="30.293064" />
    <radialGradient
       inkscape:collect="always"
       xlink:href="#linearGradient6500"
       id="radialGradient8997"
       gradientUnits="userSpaceOnUse"
       gradientTransform="matrix(1.3972787,0,0,1.0220411,-7.2522554,-1.6765668)"
       cx="18.557627"
       cy="22.300018"
       fx="18.557627"
       fy="22.300018"
       r="19.2292" />
    <radialGradient
       inkscape:collect="always"
       xlink:href="#linearGradient6492"
       id="radialGradient9000"
       gradientUnits="userSpaceOnUse"
       gradientTransform="matrix(0.7881984,0,0,0.3428127,5.7257465,17.077006)"
       cx="23"
       cy="33.9375"
       fx="23"
       fy="33.9375"
       r="18.25" />
  </defs>
  <sodipodi:namedview
     id="base"
     pagecolor="#ffffff"
     bordercolor="#666666"
     borderopacity="1"
     inkscape:pageopacity="0.0"
     inkscape:pageshadow="2"
     inkscape:zoom="11.079848"
     inkscape:cx="17.18269"
     inkscape:cy="19.972342"
     inkscape:current-layer="layer1"
     showgrid="true"
     inkscape:grid-bbox="true"
     inkscape:document-units="px"
     fill="#fcaf3e"
     stroke="#555753"
     showguides="true"
     inkscape:guide-bbox="false"
     inkscape:window-width="895"
     inkscape:window-height="760"
     inkscape:window-x="208"
     inkscape:window-y="229"
     inkscape:showpageshadow="false"
     showborder="false"
     inkscape:grid-points="false"
     gridtolerance="50"
     inkscape:object-paths="false">
    <inkscape:grid
       id="GridFromPre046Settings"
       type="xygrid"
       originx="0px"
       originy="0px"
       spacingx="0.5px"
       spacingy="0.5px"
       color="#0000ff"
       empcolor="#0000ff"
       opacity="0.2"
       empopacity="0.4"
       empspacing="2" />
  </sodipodi:namedview>
  <metadata
     id="metadata1311">
    <rdf:RDF>
      <cc:Work
         rdf:about="">
        <dc:format>image/svg+xml</dc:format>
        <dc:type
           rdf:resource="http://purl.org/dc/dcmitype/StillImage" />
        <dc:title>Generic Image</dc:title>
        <dc:creator>
          <cc:Agent>
            <dc:title>Lapo Calamandrei</dc:title>
          </cc:Agent>
        </dc:creator>
        <dc:source>http://www.gnome.org</dc:source>
        <dc:contributor>
          <cc:Agent>
            <dc:title>Jakub Steiner, Andreas Nilsson</dc:title>
          </cc:Agent>
        </dc:contributor>
        <cc:license
           rdf:resource="http://creativecommons.org/licenses/GPL/2.0/" />
      </cc:Work>
      <cc:License
         rdf:about="http://creativecommons.org/licenses/GPL/2.0/">
        <cc:permits
           rdf:resource="http://web.resource.org/cc/Reproduction" />
        <cc:permits
           rdf:resource="http://web.resource.org/cc/Distribution" />
        <cc:requires
           rdf:resource="http://web.resource.org/cc/Notice" />
        <cc:permits
           rdf:resource="http://web.resource.org/cc/DerivativeWorks" />
        <cc:requires
           rdf:resource="http://web.resource.org/cc/ShareAlike" />
        <cc:requires
           rdf:resource="http://web.resource.org/cc/SourceCode" />
      </cc:License>
    </rdf:RDF>
  </metadata>
  <g
     id="layer1"
     inkscape:label="Layer 1"
     inkscape:groupmode="layer">
    <g
       id="g6917">
      <rect
         y="26"
         x="2"
         height="18"
         width="33"
         id="rect6057"
         style="opacity:0.39195981;color:#000000;fill:url(#linearGradient6915);fill-opacity:1;fill-rule:nonzero;stroke:none;stroke-width:1;stroke-linecap:round;stroke-linejoin:miter;marker:none;marker-start:none;marker-mid:none;marker-end:none;stroke-miterlimit:4;stroke-dasharray:none;stroke-dashoffset:0;stroke-opacity:1;visibility:visible;display:inline;overflow:visible" />
      <path
         sodipodi:nodetypes="ccscc"
         id="path6059"
         d="M 35,26.00062 C 35,26.00062 35,43.999627 35,43.999627 C 37.30962,44.01418 40.033409,43.272315 42.389531,42.027493 C 45.519106,40.37403 48.000002,37.833194 48,34.998965 C 48,30.030967 41.999197,26.000621 35,26.00062 z "
         style="opacity:0.40206185;color:#000000;fill:url(#radialGradient6912);fill-opacity:1;fill-rule:nonzero;stroke:none;stroke-width:1;stroke-linecap:round;stroke-linejoin:miter;marker:none;marker-start:none;marker-mid:none;marker-end:none;stroke-miterlimit:4;stroke-dasharray:none;stroke-dashoffset:0;stroke-opacity:1;visibility:visible;display:inline;overflow:visible" />
      <path
         style="opacity:0.40206185;color:#000000;fill:url(#radialGradient6909);fill-opacity:1;fill-rule:nonzero;stroke:none;stroke-width:1;stroke-linecap:round;stroke-linejoin:miter;marker:none;marker-start:none;marker-mid:none;marker-end:none;stroke-miterlimit:4;stroke-dasharray:none;stroke-dashoffset:0;stroke-opacity:1;visibility:visible;display:inline;overflow:visible"
         d="M 2,26.00062 C 2,26.00062 2,43.999627 2,43.999627 C 1.172704,44.03351 1.3577825e-06,39.966963 1.3577825e-06,34.998965 C 1.3577825e-06,30.030967 0.92320113,26.000621 2,26.00062 z "
         id="path6061"
         sodipodi:nodetypes="cccc" />
    </g>
    <path
       style="fill:url(#linearGradient6360);fill-opacity:1.0;stroke:#888a85;stroke-width:0.99999994;stroke-linecap:round;stroke-linejoin:round;stroke-miterlimit:4;stroke-dashoffset:0;stroke-opacity:1"
       d="M 2.767767,6.5 L 45.232237,6.5 C 45.93458,6.5 46.500004,7.0654241 46.500004,7.767767 L 46.5,30.5 C 46.5,31.202343 36.202343,40.5 35.5,40.5 L 2.767767,40.5 C 2.0654241,40.5 1.5,39.934576 1.5,39.232233 L 1.5,7.767767 C 1.5,7.0654241 2.0654241,6.5 2.767767,6.5 z "
       id="rect5350"
       sodipodi:nodetypes="ccccccccc" />
    <path
       style="fill:url(#radialGradient6352);fill-opacity:1;stroke:#888a85;stroke-width:1;stroke-linecap:round;stroke-linejoin:round;stroke-miterlimit:4;stroke-dashoffset:0;stroke-opacity:1;stroke-dasharray:none;opacity:1"
       d="M 4.9874617,9.5 L 43.039565,9.5 C 43.309619,9.5 43.527027,9.7276458 43.527027,10.010417 L 43.527027,33.989583 L 40.039565,37.5 L 4.9874617,37.5 C 4.7174079,37.5 4.5,37.272354 4.5,36.989583 L 4.5,10.010417 C 4.5,9.7276458 4.7174079,9.5 4.9874617,9.5 z "
       id="rect2063"
       sodipodi:nodetypes="ccccccccc" />
    <path
       style="opacity:0.17241379;fill:url(#linearGradient6372);fill-opacity:1;stroke:none;stroke-width:0.99999994;stroke-linecap:round;stroke-linejoin:round;stroke-miterlimit:4;stroke-dashoffset:0;stroke-opacity:1"
       d="M 14.78125,40 L 35.40625,40 C 35.41645,39.995518 35.423208,39.996022 35.46875,39.96875 C 35.559833,39.914206 35.707858,39.809986 35.875,39.6875 C 36.209283,39.442528 36.659837,39.093896 37.1875,38.65625 C 38.242827,37.780957 39.61066,36.608491 40.9375,35.40625 C 42.26434,34.204009 43.563777,32.96157 44.53125,32 C 45.014987,31.519215 45.417906,31.118778 45.6875,30.8125 C 45.822297,30.659361 45.910802,30.519277 45.96875,30.4375 C 45.983237,30.417056 45.991685,30.419536 46,30.40625 L 46,13.78125 L 14.78125,40 z "
       id="path6364"
       sodipodi:nodetypes="ccsssssssccc" />
    <path
       style="fill:none;fill-opacity:1;stroke:#ffffff;stroke-width:0.99999994;stroke-linecap:round;stroke-linejoin:round;stroke-miterlimit:4;stroke-dashoffset:0;stroke-opacity:1"
       d="M 2.78125,7.5 C 2.6253137,7.5 2.5,7.6253137 2.5,7.78125 L 2.5,39.21875 C 2.5,39.374686 2.6253136,39.5 2.78125,39.5 L 37.28125,39.5 C 40.921301,36.704635 42.365769,35.606734 45.5,32.25 L 45.5,7.78125 C 45.5,7.6253155 45.374683,7.5 45.21875,7.5 L 2.78125,7.5 z "
       id="path6351"
       sodipodi:nodetypes="ccccccccc" />
    <path
       sodipodi:type="inkscape:offset"
       inkscape:radius="-1"
       inkscape:original="M 2.78125 6.5 C 2.0789071 6.5 1.5 7.0789071 1.5 7.78125 L 1.5 39.21875 C 1.5 39.921093 2.0789071 40.5 2.78125 40.5 L 35.5 40.5 C 40.5 40.5 46.5 35.5 46.5 30.5 L 46.5 7.78125 C 46.5 7.0789071 45.921091 6.5 45.21875 6.5 L 2.78125 6.5 z "
       style="fill:none;fill-opacity:1;stroke:#ffffff;stroke-width:0.99999994;stroke-linecap:round;stroke-linejoin:round;stroke-miterlimit:4;stroke-dashoffset:0;stroke-opacity:1;opacity:0.41810345"
       id="path6427"
       d="M 2.78125,7.5 C 2.628408,7.5 2.5,7.628408 2.5,7.78125 L 2.5,39.21875 C 2.5,39.371592 2.6284079,39.5 2.78125,39.5 L 35.5,39.5 C 37.666667,39.5 40.249358,38.362698 42.21875,36.625 C 44.188142,34.887302 45.5,32.6 45.5,30.5 L 45.5,7.78125 C 45.5,7.6284098 45.371589,7.5 45.21875,7.5 L 2.78125,7.5 z " />
    <path
       id="path4323"
       style="fill:url(#radialGradient8997);fill-opacity:1;fill-rule:evenodd;stroke:#2e3436;stroke-width:0.9999997;stroke-linecap:butt;stroke-linejoin:miter;marker:none;marker-start:none;marker-mid:none;marker-end:none;stroke-miterlimit:10;stroke-dasharray:none;stroke-dashoffset:0;stroke-opacity:1;visibility:visible;display:inline;overflow:visible"
       d="M 13.804283,13.365288 C 13.804283,13.365288 16.069966,18.037439 21.37039,17.905631 C 32.478088,17.626961 34.425879,11.832602 34.704549,10.996591 C 34.983219,10.16058 35.409619,10.287214 35.508201,11.059857 C 39.130914,43.942943 10.367091,29.834093 9.345559,24.233427 C 15.058299,22.561406 13.664947,19.356697 13.664947,19.356697 L 13.804283,13.365288 z" />
    <path
       id="path6480"
       style="fill:url(#linearGradient8994);fill-opacity:1;fill-rule:evenodd;stroke:none;stroke-width:0.9999997;stroke-linecap:butt;stroke-linejoin:miter;marker:none;marker-start:none;marker-mid:none;marker-end:none;stroke-miterlimit:10;stroke-dasharray:none;stroke-dashoffset:0;stroke-opacity:1;visibility:visible;display:inline;overflow:visible"
       d="M 18.031723,27.236133 C 23.343313,28.298496 26.048245,27.31345 27.631329,26.091057 C 27.213324,25.551134 26.499232,24.958959 26.499232,24.958959 C 26.499232,24.958959 28.354112,25.474396 29.007263,26.317477 C 29.658544,27.158144 29.249089,27.6761 29.078643,28.751725 C 28.699196,27.806991 27.990944,27.452702 27.895058,27.07733 C 26.47136,29.045404 22.92433,28.963647 18.031723,27.236133 z" />
    <path
       id="path8520"
       style="opacity:0.18539327;fill:none;fill-opacity:1;fill-rule:evenodd;stroke:url(#linearGradient8991);stroke-width:0.9999997;stroke-linecap:butt;stroke-linejoin:miter;marker:none;marker-start:none;marker-mid:none;marker-end:none;stroke-miterlimit:10;stroke-dasharray:none;stroke-dashoffset:0;stroke-opacity:1;visibility:visible;display:inline;overflow:visible"
       d="M 34.765931,12.873346 C 34.322981,13.603923 33.657337,14.475884 32.647648,15.311835 C 30.573175,17.029353 27.090406,18.59259 21.39119,18.735572 C 18.061546,18.818371 15.91105,17.211079 14.592979,15.779828 L 14.494454,19.30209 C 14.601733,19.632189 14.821915,20.398078 14.445191,21.445004 C 14.03981,22.571573 12.747007,23.723972 10.52883,24.597797 C 10.726141,25.009263 10.919371,25.420377 11.514079,26.001776 C 12.324307,26.793872 13.450708,27.647573 14.790028,28.415633 C 17.468668,29.951755 20.939223,31.168978 24.174515,31.22359 C 27.409807,31.278203 30.367489,30.25052 32.401336,27.282598 C 34.276258,24.54659 35.303855,19.914565 34.765931,12.873346 z" />
    <path
       id="path4357"
       style="fill:url(#radialGradient8988);fill-opacity:1;fill-rule:evenodd;stroke:#888a85;stroke-width:0.99999988;stroke-linecap:butt;stroke-linejoin:miter;marker:none;marker-start:none;marker-mid:none;marker-end:none;stroke-miterlimit:10;stroke-dasharray:none;stroke-dashoffset:0;stroke-opacity:1;visibility:visible;display:inline;overflow:visible"
       d="M 19.586719,20.401719 C 19.587163,22.171944 18.152236,23.60723 16.382012,23.60723 C 14.611786,23.60723 13.176859,22.171944 13.177303,20.401719 C 13.176859,18.631494 14.611786,17.196208 16.382012,17.196208 C 18.152236,17.196208 19.587163,18.631494 19.586719,20.401719 z" />
    <path
       id="path5198"
       style="fill:url(#radialGradient8985);fill-opacity:1;fill-rule:evenodd;stroke:#000000;stroke-width:1.00000012;stroke-linecap:butt;stroke-linejoin:miter;marker:none;marker-start:none;marker-mid:none;marker-end:none;stroke-miterlimit:10;stroke-dasharray:none;stroke-dashoffset:0;stroke-opacity:1;visibility:visible;display:inline;overflow:visible"
       d="M 13.202755,21.609167 C 14.756035,23.762221 14.775733,26.401819 13.246753,27.504873 C 11.717772,28.607927 9.219106,27.756733 7.6658261,25.603679 C 6.1125461,23.450624 6.0928475,20.811027 7.6218282,19.707973 C 9.1508088,18.604919 11.649475,19.456113 13.202755,21.609167 z" />
    <path
       id="path4359"
       style="fill:#2e3436;fill-opacity:1;fill-rule:evenodd;stroke:#000000;stroke-width:0.99999994;stroke-linecap:butt;stroke-linejoin:miter;marker:none;marker-start:none;marker-mid:none;marker-end:none;stroke-miterlimit:10;stroke-dasharray:none;stroke-dashoffset:0;stroke-opacity:1;visibility:visible;display:inline;overflow:visible"
       d="M 18.67439,20.876486 C 18.674642,21.728844 17.98374,22.419949 17.131383,22.419949 C 16.279025,22.419949 15.588123,21.728844 15.588375,20.876486 C 15.588123,20.024129 16.279025,19.333023 17.131383,19.333023 C 17.98374,19.333023 18.674642,20.024129 18.67439,20.876486 L 18.67439,20.876486 z" />
    <path
       id="path6450"
       style="opacity:0.28089887;fill:none;fill-opacity:1;fill-rule:evenodd;stroke:url(#linearGradient8981);stroke-width:1.00000012;stroke-linecap:butt;stroke-linejoin:miter;marker:none;marker-start:none;marker-mid:none;marker-end:none;stroke-miterlimit:10;stroke-dasharray:none;stroke-dashoffset:0;stroke-opacity:1;visibility:visible;display:inline;overflow:visible"
       d="M 7.9013492,20.412165 C 7.3977615,20.789346 7.1323534,21.427508 7.1562667,22.293506 C 7.18018,23.159503 7.5219415,24.219795 8.2234043,25.156344 C 8.9248671,26.092892 9.846243,26.719061 10.67056,26.985566 C 11.494877,27.252072 12.181925,27.176857 12.685513,26.799676 C 13.189101,26.422495 13.455468,25.753856 13.435544,24.883855 C 13.41562,24.013853 13.083108,22.975241 12.383172,22.040731 C 11.683237,21.106221 10.780064,20.495026 9.9507828,20.231223 C 9.1215014,19.96742 8.4049367,20.034984 7.9013492,20.412165 z" />
    <path
       id="path6446"
       style="fill:#ffffff;fill-opacity:1;fill-rule:evenodd;stroke:none;stroke-width:0.9999997;stroke-linecap:butt;stroke-linejoin:miter;marker:none;marker-start:none;marker-mid:none;marker-end:none;stroke-miterlimit:10;stroke-dasharray:none;stroke-dashoffset:0;stroke-opacity:1;visibility:visible;display:inline;overflow:visible"
       d="M 10.22528,21.86473 C 10.225463,22.788317 9.6015852,23.537149 8.8319293,23.537149 C 8.0622732,23.537149 7.4383951,22.788317 7.4385782,21.86473 C 7.4383951,20.941143 8.0622732,20.192311 8.8319293,20.192311 C 9.6015852,20.192311 10.225463,20.941143 10.22528,21.86473 z" />
    <path
       id="path4361"
       style="fill:#ffffff;fill-opacity:1;fill-rule:evenodd;stroke:none;stroke-width:0.9999997;stroke-linecap:butt;stroke-linejoin:miter;marker:none;marker-start:none;marker-mid:none;marker-end:none;stroke-miterlimit:10;stroke-dasharray:none;stroke-dashoffset:0;stroke-opacity:1;visibility:visible;display:inline;overflow:visible"
       d="M 17.606137,20.164315 C 17.606137,20.754285 17.127872,21.23255 16.537902,21.23255 C 15.947932,21.23255 15.469667,20.754285 15.469667,20.164315 C 15.469667,19.574345 15.947932,19.09608 16.537902,19.09608 C 17.127872,19.09608 17.606137,19.574345 17.606137,20.164315 z" />
    <path
       id="path6462"
       style="fill:url(#radialGradient8976);fill-opacity:1;fill-rule:evenodd;stroke:#888a85;stroke-width:0.99999964;stroke-linecap:butt;stroke-linejoin:miter;marker:none;marker-start:none;marker-mid:none;marker-end:none;stroke-miterlimit:10;stroke-dasharray:none;stroke-dashoffset:0;stroke-opacity:1;visibility:visible;display:inline;overflow:visible"
       d="M 26.762467,20.750052 C 26.762988,22.828142 25.078509,24.513043 23.00042,24.513043 C 20.922329,24.513043 19.23785,22.828142 19.238371,20.750052 C 19.23785,18.671962 20.922329,16.987061 23.00042,16.987061 C 25.078509,16.987061 26.762988,18.671962 26.762467,20.750052 z" />
    <path
       id="path6464"
       style="fill:#2e3436;fill-opacity:1;fill-rule:evenodd;stroke:#000000;stroke-width:0.9999997;stroke-linecap:butt;stroke-linejoin:miter;marker:none;marker-start:none;marker-mid:none;marker-end:none;stroke-miterlimit:10;stroke-dasharray:none;stroke-dashoffset:0;stroke-opacity:1;visibility:visible;display:inline;overflow:visible"
       d="M 25.69148,21.30739 C 25.691775,22.307983 24.880717,23.119281 23.880123,23.119281 C 22.87953,23.119281 22.068471,22.307983 22.068767,21.30739 C 22.068471,20.306797 22.87953,19.495499 23.880123,19.495499 C 24.880717,19.495499 25.691775,20.306797 25.69148,21.30739 L 25.69148,21.30739 z" />
    <path
       id="path6466"
       style="fill:#ffffff;fill-opacity:1;fill-rule:evenodd;stroke:none;stroke-width:0.9999997;stroke-linecap:butt;stroke-linejoin:miter;marker:none;marker-start:none;marker-mid:none;marker-end:none;stroke-miterlimit:10;stroke-dasharray:none;stroke-dashoffset:0;stroke-opacity:1;visibility:visible;display:inline;overflow:visible"
       d="M 24.437463,20.47138 C 24.437463,21.163954 23.876021,21.725396 23.183447,21.725396 C 22.490873,21.725396 21.929431,21.163954 21.929431,20.47138 C 21.929431,19.778806 22.490873,19.217364 23.183447,19.217364 C 23.876021,19.217364 24.437463,19.778806 24.437463,20.47138 z" />
    <g
       id="g8463"
       transform="matrix(-9.0526163e-2,-0.3072902,0.3072902,-9.0526163e-2,25.1076,26.939275)">
      <path
         id="path6937"
         style="opacity:1;fill:url(#linearGradient6957);fill-opacity:1;fill-rule:nonzero;stroke:#673907;stroke-width:3.12161636;stroke-linecap:round;stroke-linejoin:miter;marker:none;marker-start:none;marker-mid:none;marker-end:none;stroke-miterlimit:4;stroke-dasharray:none;stroke-dashoffset:0;stroke-opacity:1;visibility:visible;display:inline;overflow:visible"
         d="M -23.364209,23.568336 L -19.654111,27.037511 C -11.307128,20.656664 -2.5600338,6.9381374 -2.5600338,6.9381374 C -0.58371893,4.6957251 -2.6769537,3.1876548 -4.7249404,4.5402186 C -4.7249404,4.5402186 -17.695303,14.655085 -23.364209,23.568336 z" />
      <path
         id="path6935"
         style="opacity:1;fill:url(#linearGradient6945);fill-opacity:1;fill-rule:nonzero;stroke:#888a85;stroke-width:3.12161636;stroke-linecap:round;stroke-linejoin:miter;marker:none;marker-start:none;marker-mid:none;marker-end:none;stroke-miterlimit:4;stroke-dasharray:none;stroke-dashoffset:0;stroke-opacity:1;visibility:visible;display:inline;overflow:visible"
         d="M -30.449715,32.813894 L -28.203395,34.747714 L -19.710629,27.380683 L -19.435568,26.674855 L -18.341163,26.65704 C -18.778663,25.09454 -21.282677,22.273585 -23.157677,22.273585 L -23.075658,23.36366 L -23.745649,23.743687 L -30.449715,32.813894 z" />
      <path
         id="path6985"
         style="opacity:1;fill:none;fill-opacity:1;fill-rule:nonzero;stroke:#ffffff;stroke-width:3.1216166;stroke-linecap:round;stroke-linejoin:round;marker:none;marker-start:none;marker-mid:none;marker-end:none;stroke-miterlimit:4;stroke-dasharray:none;stroke-dashoffset:0;stroke-opacity:1;visibility:visible;display:inline;overflow:visible"
         d="M -23.801371,28.376767 L -28.166304,33.643238" />
      <path
         id="path6933"
         style="opacity:1;fill:url(#radialGradient6969);fill-opacity:1;fill-rule:nonzero;stroke:none;stroke-width:0.2;stroke-linecap:round;stroke-linejoin:miter;marker:none;marker-start:none;marker-mid:none;marker-end:none;stroke-miterlimit:4;stroke-dasharray:none;stroke-dashoffset:0;stroke-opacity:1;visibility:visible;display:inline;overflow:visible"
         d="M -45.341208,42.769835 C -34.89725,42.769835 -26.971169,44.013565 -25.470603,36.415097 C -24.261354,30.291783 -32.681137,27.357729 -36.853473,32.824236 C -40.87275,38.090207 -45.341208,42.769835 -45.341208,42.769835 z" />
      <path
         id="path6971"
         style="opacity:0.52777782;fill:#ffffff;fill-opacity:1;fill-rule:nonzero;stroke:none;stroke-width:1;stroke-linecap:round;stroke-linejoin:miter;marker:none;marker-start:none;marker-mid:none;marker-end:none;stroke-miterlimit:4;stroke-dasharray:none;stroke-dashoffset:0;stroke-opacity:1;visibility:visible;display:inline;overflow:visible"
         transform="matrix(2.069903,0,0,2.069903,-44.75012,-41.50978)"
         d="M 8.8749989,37.75 C 8.8751942,38.440494 8.315493,39.000353 7.624999,39.000353 C 6.9345051,39.000353 6.3748039,38.440494 6.3749992,37.75 C 6.3748039,37.059506 6.9345051,36.499647 7.624999,36.499647 C 8.315493,36.499647 8.8751942,37.059506 8.8749989,37.75 z" />
      <path
         id="path6983"
         style="opacity:1;fill:#ffffff;fill-opacity:1;fill-rule:nonzero;stroke:none;stroke-width:1;stroke-linecap:round;stroke-linejoin:miter;marker:none;marker-start:none;marker-mid:none;marker-end:none;stroke-miterlimit:4;stroke-dasharray:none;stroke-dashoffset:0;stroke-opacity:1;visibility:visible;display:inline;overflow:visible"
         transform="matrix(1.396669,0,0,1.396669,-32.05526,-25.87664)"
         d="M 8.8749989,37.75 C 8.8751942,38.440494 8.315493,39.000353 7.624999,39.000353 C 6.9345051,39.000353 6.3748039,38.440494 6.3749992,37.75 C 6.3748039,37.059506 6.9345051,36.499647 7.624999,36.499647 C 8.315493,36.499647 8.8751942,37.059506 8.8749989,37.75 z" />
      <path
         id="path1571"
         style="opacity:0.42777776;fill:url(#linearGradient2452);fill-opacity:1;fill-rule:nonzero;stroke:none;stroke-width:1;stroke-linecap:round;stroke-linejoin:miter;marker:none;marker-start:none;marker-mid:none;marker-end:none;stroke-miterlimit:4;stroke-dasharray:none;stroke-dashoffset:0;stroke-opacity:1;visibility:visible;display:inline;overflow:visible"
         d="M -38.543723,40.909242 C -38.543723,40.909242 -34.822203,41.003542 -32.427185,39.497247 C -31.579834,38.964324 -30.911411,40.147232 -31.933366,40.584614 C -34.14076,41.529346 -38.543723,40.909242 -38.543723,40.909242 z" />
    </g>
    <path
       id="path8532"
       style="fill:url(#linearGradient8963);fill-opacity:1;fill-rule:evenodd;stroke:none;stroke-width:0.9999997;stroke-linecap:butt;stroke-linejoin:miter;marker:none;marker-start:none;marker-mid:none;marker-end:none;stroke-miterlimit:10;stroke-dasharray:none;stroke-dashoffset:0;stroke-opacity:1;visibility:visible;display:inline;overflow:visible"
       d="M 23.758202,28.552815 C 24.938429,28.6656 26.004275,28.338257 26.447451,28.179172 C 26.524872,27.741417 26.87036,26.901299 28.060174,26.845959 L 27.642169,26.11445 C 27.642169,26.11445 26.092066,27.17688 24.437461,27.490384 L 23.758202,28.552815 z" />
    <path
       style="fill:url(#linearGradient6333);fill-rule:evenodd;stroke:url(#radialGradient6382);stroke-width:1px;stroke-linecap:butt;stroke-linejoin:round;stroke-opacity:1;fill-opacity:1.0"
       d="M 46.5,30.5 C 46.5,35.5 40.5,40.5 35.5,40.5 C 35.5,40.5 39.932134,38.33738 39.5,33.5 C 43.879686,33.916135 46.5,30.5 46.5,30.5 z "
       id="path6322"
       sodipodi:nodetypes="cccc" />
    <path
       style="fill:url(#radialGradient6396);fill-opacity:1.0;stroke:none;stroke-width:0.99999994;stroke-linecap:round;stroke-linejoin:round;stroke-miterlimit:4;stroke-dashoffset:0;stroke-opacity:1;opacity:0.34482759"
       d="M 2.78125,7 C 2.3536576,7 2,7.3536576 2,7.78125 L 2,31.09375 C 14.714701,22.184679 34.055102,15.625228 46,19.3125 L 46,7.78125 C 46,7.3536585 45.64634,7 45.21875,7 L 2.78125,7 z "
       id="path6384"
       sodipodi:nodetypes="ccccccc" />
    <path
       style="fill:url(#radialGradient6437);fill-opacity:1.0;fill-rule:evenodd;stroke:none;stroke-width:1px;stroke-linecap:butt;stroke-linejoin:round;stroke-opacity:1;opacity:0.73275862"
       d="M 45.71875 31.96875 C 44.577589 32.932531 42.679856 34.08934 40.03125 34.03125 C 40.059733 36.774444 38.699098 38.58751 37.46875 39.6875 C 38.953141 38.706251 40.825166 37.371805 41.03125 35.03125 C 43.192381 35.027997 44.619214 33.310655 45.6875 32.03125 C 45.693038 32.009581 45.713422 31.990426 45.71875 31.96875 z "
       id="path6339" />
  </g>
</svg>
