<?xml version="1.0" encoding="UTF-8" standalone="no"?>
<!-- Created with Inkscape (http://www.inkscape.org/) -->
<svg
   xmlns:dc="http://purl.org/dc/elements/1.1/"
   xmlns:cc="http://creativecommons.org/ns#"
   xmlns:rdf="http://www.w3.org/1999/02/22-rdf-syntax-ns#"
   xmlns:svg="http://www.w3.org/2000/svg"
   xmlns="http://www.w3.org/2000/svg"
   xmlns:xlink="http://www.w3.org/1999/xlink"
   xmlns:sodipodi="http://sodipodi.sourceforge.net/DTD/sodipodi-0.dtd"
   xmlns:inkscape="http://www.inkscape.org/namespaces/inkscape"
   width="48px"
   height="48px"
   id="svg1306"
   sodipodi:version="0.32"
   inkscape:version="0.46"
   sodipodi:docbase="/home/dobey/Projects/gnome-icon-theme/scalable/status"
   sodipodi:docname="image-svg+xml.svg"
   inkscape:output_extension="org.inkscape.output.svg.inkscape">
  <defs
     id="defs1308">
    <linearGradient
       inkscape:collect="always"
       xlink:href="#linearGradient9127"
       id="linearGradient11798"
       gradientUnits="userSpaceOnUse"
       gradientTransform="translate(-3.017005,5.017005)"
       x1="19.041761"
       y1="12.125002"
       x2="16.92841"
       y2="32.487438" />
    <linearGradient
       inkscape:collect="always"
       id="linearGradient9127">
      <stop
         style="stop-color:white;stop-opacity:1;"
         offset="0"
         id="stop9129" />
      <stop
         style="stop-color:white;stop-opacity:0;"
         offset="1"
         id="stop9131" />
    </linearGradient>
    <linearGradient
       inkscape:collect="always"
       xlink:href="#linearGradient9127"
       id="linearGradient9133"
       x1="19.041761"
       y1="12.125002"
       x2="16.92841"
       y2="32.487438"
       gradientUnits="userSpaceOnUse"
       gradientTransform="translate(0.795495,-1.795495)" />
    <linearGradient
       inkscape:collect="always"
       id="linearGradient7347">
      <stop
         style="stop-color:white;stop-opacity:1;"
         offset="0"
         id="stop7349" />
      <stop
         style="stop-color:white;stop-opacity:0;"
         offset="1"
         id="stop7351" />
    </linearGradient>
    <linearGradient
       inkscape:collect="always"
       xlink:href="#linearGradient7347"
       id="linearGradient7353"
       x1="22.709799"
       y1="5.6856713"
       x2="25.333866"
       y2="18.941343"
       gradientUnits="userSpaceOnUse" />
    <linearGradient
       id="linearGradient3780">
      <stop
         id="stop3782"
         offset="0"
         style="stop-color:#2e3436;stop-opacity:1;" />
      <stop
         id="stop3784"
         offset="1"
         style="stop-color:#0a1113;stop-opacity:1;" />
    </linearGradient>
    <radialGradient
       inkscape:collect="always"
       xlink:href="#linearGradient3780"
       id="radialGradient3799"
       gradientUnits="userSpaceOnUse"
       gradientTransform="matrix(0.961241,-0.27571,0.418832,1.460222,-13.5563,-9.336676)"
       cx="25.714857"
       cy="34.84972"
       fx="25.714857"
       fy="34.84972"
       r="22.369741" />
    <radialGradient
       inkscape:collect="always"
       xlink:href="#linearGradient3041"
       id="radialGradient14489"
       gradientUnits="userSpaceOnUse"
       gradientTransform="matrix(1,0,0,0.285124,0,20.10589)"
       cx="23.499998"
       cy="28.125"
       fx="23.499998"
       fy="28.125"
       r="30.249998" />
    <radialGradient
       inkscape:collect="always"
       xlink:href="#linearGradient3041"
       id="radialGradient14493"
       gradientUnits="userSpaceOnUse"
       gradientTransform="matrix(1,0,0,0.193482,0,22.68333)"
       cx="23.499998"
       cy="28.12499"
       fx="23.499998"
       fy="28.12499"
       r="30.249998" />
    <radialGradient
       inkscape:collect="always"
       xlink:href="#linearGradient3041"
       id="radialGradient14485"
       gradientUnits="userSpaceOnUse"
       gradientTransform="matrix(1,0,0,0.285124,0,20.10589)"
       cx="23.499998"
       cy="28.125"
       fx="23.499998"
       fy="28.125"
       r="30.249998" />
    <radialGradient
       inkscape:collect="always"
       xlink:href="#linearGradient3041"
       id="radialGradient14481"
       gradientUnits="userSpaceOnUse"
       gradientTransform="matrix(1,0,0,0.285124,0,20.10589)"
       cx="23.499998"
       cy="28.125"
       fx="23.499998"
       fy="28.125"
       r="30.249998" />
    <radialGradient
       inkscape:collect="always"
       xlink:href="#linearGradient3041"
       id="radialGradient14497"
       gradientUnits="userSpaceOnUse"
       gradientTransform="matrix(1,0,0,0.285124,0,20.10589)"
       cx="23.499998"
       cy="28.125"
       fx="23.499998"
       fy="28.125"
       r="30.249998" />
    <linearGradient
       id="linearGradient3041"
       inkscape:collect="always">
      <stop
         id="stop3043"
         offset="0"
         style="stop-color:#000000;stop-opacity:1;" />
      <stop
         id="stop3045"
         offset="1"
         style="stop-color:#000000;stop-opacity:0;" />
    </linearGradient>
    <radialGradient
       inkscape:collect="always"
       xlink:href="#linearGradient3041"
       id="radialGradient14477"
       cx="23.499998"
       cy="28.125"
       fx="23.499998"
       fy="28.125"
       r="30.249998"
       gradientTransform="matrix(1,0,0,0.285124,0,20.10589)"
       gradientUnits="userSpaceOnUse" />
    <inkscape:perspective
       sodipodi:type="inkscape:persp3d"
       inkscape:vp_x="0 : 24 : 1"
       inkscape:vp_y="0 : 1000 : 0"
       inkscape:vp_z="48 : 24 : 1"
       inkscape:persp3d-origin="24 : 16 : 1"
       id="perspective54" />
    <linearGradient
       inkscape:collect="always"
       id="linearGradient6346">
      <stop
         style="stop-color:#555753;stop-opacity:1"
         offset="0"
         id="stop6348" />
      <stop
         style="stop-color:#2e3436;stop-opacity:1"
         offset="1"
         id="stop6350" />
    </linearGradient>
    <linearGradient
       inkscape:collect="always"
       id="linearGradient5060">
      <stop
         style="stop-color:black;stop-opacity:1;"
         offset="0"
         id="stop5062" />
      <stop
         style="stop-color:black;stop-opacity:0;"
         offset="1"
         id="stop5064" />
    </linearGradient>
    <linearGradient
       id="linearGradient5048">
      <stop
         style="stop-color:black;stop-opacity:0;"
         offset="0"
         id="stop5050" />
      <stop
         id="stop5056"
         offset="0.5"
         style="stop-color:black;stop-opacity:1;" />
      <stop
         style="stop-color:black;stop-opacity:0;"
         offset="1"
         id="stop5052" />
    </linearGradient>
    <linearGradient
       inkscape:collect="always"
       id="linearGradient6431">
      <stop
         style="stop-color:#ffffff;stop-opacity:1;"
         offset="0"
         id="stop6433" />
      <stop
         style="stop-color:#ffffff;stop-opacity:0;"
         offset="1"
         id="stop6435" />
    </linearGradient>
    <linearGradient
       inkscape:collect="always"
       id="linearGradient6390">
      <stop
         style="stop-color:#ffffff;stop-opacity:1"
         offset="0"
         id="stop6392" />
      <stop
         style="stop-color:#ffffff;stop-opacity:0;"
         offset="1"
         id="stop6394" />
    </linearGradient>
    <linearGradient
       id="linearGradient6374">
      <stop
         style="stop-color:#555753;stop-opacity:1;"
         offset="0"
         id="stop6376" />
      <stop
         style="stop-color:#888a85;stop-opacity:1"
         offset="1"
         id="stop6378" />
    </linearGradient>
    <linearGradient
       id="linearGradient6366">
      <stop
         style="stop-color:#ffffff;stop-opacity:1;"
         offset="0"
         id="stop6368" />
      <stop
         style="stop-color:#ffffff;stop-opacity:0;"
         offset="1"
         id="stop6370" />
    </linearGradient>
    <linearGradient
       id="linearGradient6327">
      <stop
         style="stop-color:#888a85;stop-opacity:1"
         offset="0"
         id="stop6329" />
      <stop
         style="stop-color:#eeeeec;stop-opacity:1"
         offset="1"
         id="stop6331" />
    </linearGradient>
    <linearGradient
       inkscape:collect="always"
       xlink:href="#linearGradient6327"
       id="linearGradient6333"
       x1="42.999424"
       y1="36.811924"
       x2="40.621296"
       y2="34.433796"
       gradientUnits="userSpaceOnUse" />
    <linearGradient
       inkscape:collect="always"
       xlink:href="#linearGradient6327"
       id="linearGradient6360"
       x1="61.18124"
       y1="137.97644"
       x2="20.420683"
       y2="2.6749926"
       gradientUnits="userSpaceOnUse" />
    <linearGradient
       inkscape:collect="always"
       xlink:href="#linearGradient6366"
       id="linearGradient6372"
       x1="38.908649"
       y1="35.960426"
       x2="35.032925"
       y2="30.679369"
       gradientUnits="userSpaceOnUse" />
    <radialGradient
       inkscape:collect="always"
       xlink:href="#linearGradient6374"
       id="radialGradient6382"
       cx="39.437065"
       cy="34.33852"
       fx="39.437065"
       fy="34.33852"
       r="6"
       gradientTransform="matrix(0.1875,-1.053432,0.7180811,0.127811,7.8227088,71.030427)"
       gradientUnits="userSpaceOnUse" />
    <radialGradient
       inkscape:collect="always"
       xlink:href="#linearGradient6390"
       id="radialGradient6396"
       cx="20.236877"
       cy="25.043303"
       fx="20.236877"
       fy="25.043303"
       r="22"
       gradientTransform="matrix(0.9409062,-0.2066504,0.109821,0.5000295,-1.5544064,13.219564)"
       gradientUnits="userSpaceOnUse" />
    <radialGradient
       inkscape:collect="always"
       xlink:href="#linearGradient6431"
       id="radialGradient6437"
       cx="40.179535"
       cy="34.080399"
       fx="40.179535"
       fy="34.080399"
       r="4.125"
       gradientTransform="matrix(1,0,0,0.9356061,0,2.3071141)"
       gradientUnits="userSpaceOnUse" />
    <radialGradient
       inkscape:collect="always"
       xlink:href="#linearGradient5060"
       id="radialGradient6909"
       gradientUnits="userSpaceOnUse"
       gradientTransform="matrix(-1.6064769e-2,0,0,7.4117646e-2,11.681601,-1.1750779)"
       cx="605.71429"
       cy="486.64789"
       fx="605.71429"
       fy="486.64789"
       r="117.14286" />
    <radialGradient
       inkscape:collect="always"
       xlink:href="#linearGradient5060"
       id="radialGradient6912"
       gradientUnits="userSpaceOnUse"
       gradientTransform="matrix(0.1044211,0,0,7.4117646e-2,-27.930451,-1.1750779)"
       cx="605.71429"
       cy="486.64789"
       fx="605.71429"
       fy="486.64789"
       r="117.14286" />
    <linearGradient
       inkscape:collect="always"
       xlink:href="#linearGradient5048"
       id="linearGradient6915"
       gradientUnits="userSpaceOnUse"
       gradientTransform="matrix(6.8343196e-2,0,0,7.4117646e-2,-6.2011835,-1.1750779)"
       x1="302.85715"
       y1="366.64789"
       x2="302.85715"
       y2="609.50507" />
    <radialGradient
       inkscape:collect="always"
       xlink:href="#linearGradient6346"
       id="radialGradient6352"
       cx="24.013514"
       cy="39.717846"
       fx="24.013514"
       fy="39.717846"
       r="20.013513"
       gradientTransform="matrix(2.0032233,0,0,1.4513563,-24.090916,-22.394745)"
       gradientUnits="userSpaceOnUse" />
    <radialGradient
       inkscape:collect="always"
       xlink:href="#linearGradient3041"
       id="radialGradient9498"
       gradientUnits="userSpaceOnUse"
       gradientTransform="matrix(1,0,0,0.285124,0,20.10589)"
       cx="23.499998"
       cy="28.125"
       fx="23.499998"
       fy="28.125"
       r="30.249998" />
    <radialGradient
       inkscape:collect="always"
       xlink:href="#linearGradient3041"
       id="radialGradient9500"
       gradientUnits="userSpaceOnUse"
       gradientTransform="matrix(1,0,0,0.285124,0,20.10589)"
       cx="23.499998"
       cy="28.125"
       fx="23.499998"
       fy="28.125"
       r="30.249998" />
    <radialGradient
       inkscape:collect="always"
       xlink:href="#linearGradient3041"
       id="radialGradient9502"
       gradientUnits="userSpaceOnUse"
       gradientTransform="matrix(1,0,0,0.285124,0,20.10589)"
       cx="23.499998"
       cy="28.125"
       fx="23.499998"
       fy="28.125"
       r="30.249998" />
    <radialGradient
       inkscape:collect="always"
       xlink:href="#linearGradient3041"
       id="radialGradient9504"
       gradientUnits="userSpaceOnUse"
       gradientTransform="matrix(1,0,0,0.285124,0,20.10589)"
       cx="23.499998"
       cy="28.125"
       fx="23.499998"
       fy="28.125"
       r="30.249998" />
    <radialGradient
       inkscape:collect="always"
       xlink:href="#linearGradient3041"
       id="radialGradient9506"
       gradientUnits="userSpaceOnUse"
       gradientTransform="matrix(1,0,0,0.193482,0,22.68333)"
       cx="23.499998"
       cy="28.12499"
       fx="23.499998"
       fy="28.12499"
       r="30.249998" />
    <radialGradient
       inkscape:collect="always"
       xlink:href="#linearGradient3041"
       id="radialGradient9508"
       gradientUnits="userSpaceOnUse"
       gradientTransform="matrix(1,0,0,0.285124,0,20.10589)"
       cx="23.499998"
       cy="28.125"
       fx="23.499998"
       fy="28.125"
       r="30.249998" />
    <radialGradient
       inkscape:collect="always"
       xlink:href="#linearGradient3780"
       id="radialGradient9510"
       gradientUnits="userSpaceOnUse"
       gradientTransform="matrix(0.961241,-0.27571,0.418832,1.460222,-13.5563,-9.336676)"
       cx="25.714857"
       cy="34.84972"
       fx="25.714857"
       fy="34.84972"
       r="22.369741" />
    <linearGradient
       inkscape:collect="always"
       xlink:href="#linearGradient7347"
       id="linearGradient9512"
       gradientUnits="userSpaceOnUse"
       x1="22.709799"
       y1="5.6856713"
       x2="25.333866"
       y2="18.941343" />
    <linearGradient
       inkscape:collect="always"
       xlink:href="#linearGradient9127"
       id="linearGradient9514"
       gradientUnits="userSpaceOnUse"
       gradientTransform="translate(0.795495,-1.795495)"
       x1="19.041761"
       y1="12.125002"
       x2="16.92841"
       y2="32.487438" />
    <linearGradient
       inkscape:collect="always"
       xlink:href="#linearGradient9127"
       id="linearGradient9516"
       gradientUnits="userSpaceOnUse"
       gradientTransform="translate(-3.017005,5.017005)"
       x1="19.041761"
       y1="12.125002"
       x2="16.92841"
       y2="32.487438" />
    <linearGradient
       inkscape:collect="always"
       xlink:href="#linearGradient9127"
       id="linearGradient9519"
       gradientUnits="userSpaceOnUse"
       gradientTransform="matrix(0.6008093,0,0,0.6008093,7.598961,12.575517)"
       x1="19.041761"
       y1="12.125002"
       x2="16.92841"
       y2="32.487438" />
    <linearGradient
       inkscape:collect="always"
       xlink:href="#linearGradient9127"
       id="linearGradient9524"
       gradientUnits="userSpaceOnUse"
       gradientTransform="matrix(0.6008093,0,0,0.6008093,9.8895465,8.482504)"
       x1="19.041761"
       y1="12.125002"
       x2="16.92841"
       y2="32.487438" />
    <linearGradient
       inkscape:collect="always"
       xlink:href="#linearGradient7347"
       id="linearGradient9527"
       gradientUnits="userSpaceOnUse"
       x1="22.709799"
       y1="5.6856713"
       x2="25.333866"
       y2="18.941343"
       gradientTransform="matrix(0.6008093,0,0,0.6008093,9.4116057,9.5612541)" />
    <radialGradient
       inkscape:collect="always"
       xlink:href="#linearGradient3780"
       id="radialGradient9531"
       gradientUnits="userSpaceOnUse"
       gradientTransform="matrix(0.5775225,-0.1656491,0.2516382,0.877315,1.2668546,3.9516923)"
       cx="25.714857"
       cy="34.84972"
       fx="25.714857"
       fy="34.84972"
       r="22.369741" />
  </defs>
  <sodipodi:namedview
     id="base"
     pagecolor="#ffffff"
     bordercolor="#666666"
     borderopacity="1"
     inkscape:pageopacity="0.0"
     inkscape:pageshadow="2"
     inkscape:zoom="11.079848"
     inkscape:cx="17.18269"
     inkscape:cy="19.972342"
     inkscape:current-layer="layer1"
     showgrid="true"
     inkscape:grid-bbox="true"
     inkscape:document-units="px"
     fill="#fcaf3e"
     stroke="#555753"
     showguides="true"
     inkscape:guide-bbox="false"
     inkscape:window-width="895"
     inkscape:window-height="760"
     inkscape:window-x="208"
     inkscape:window-y="229"
     inkscape:showpageshadow="false"
     showborder="false"
     inkscape:grid-points="false"
     gridtolerance="50"
     inkscape:object-paths="false">
    <inkscape:grid
       id="GridFromPre046Settings"
       type="xygrid"
       originx="0px"
       originy="0px"
       spacingx="0.5px"
       spacingy="0.5px"
       color="#0000ff"
       empcolor="#0000ff"
       opacity="0.2"
       empopacity="0.4"
       empspacing="2" />
  </sodipodi:namedview>
  <metadata
     id="metadata1311">
    <rdf:RDF>
      <cc:Work
         rdf:about="">
        <dc:format>image/svg+xml</dc:format>
        <dc:type
           rdf:resource="http://purl.org/dc/dcmitype/StillImage" />
        <dc:title>Generic Image</dc:title>
        <dc:creator>
          <cc:Agent>
            <dc:title>Lapo Calamandrei</dc:title>
          </cc:Agent>
        </dc:creator>
        <dc:source>http://www.gnome.org</dc:source>
        <dc:contributor>
          <cc:Agent>
            <dc:title>Jakub Steiner, Andreas Nilsson</dc:title>
          </cc:Agent>
        </dc:contributor>
        <cc:license
           rdf:resource="http://creativecommons.org/licenses/GPL/2.0/" />
      </cc:Work>
      <cc:License
         rdf:about="http://creativecommons.org/licenses/GPL/2.0/">
        <cc:permits
           rdf:resource="http://web.resource.org/cc/Reproduction" />
        <cc:permits
           rdf:resource="http://web.resource.org/cc/Distribution" />
        <cc:requires
           rdf:resource="http://web.resource.org/cc/Notice" />
        <cc:permits
           rdf:resource="http://web.resource.org/cc/DerivativeWorks" />
        <cc:requires
           rdf:resource="http://web.resource.org/cc/ShareAlike" />
        <cc:requires
           rdf:resource="http://web.resource.org/cc/SourceCode" />
      </cc:License>
    </rdf:RDF>
  </metadata>
  <g
     id="layer1"
     inkscape:label="Layer 1"
     inkscape:groupmode="layer">
    <g
       id="g6917">
      <rect
         y="26"
         x="2"
         height="18"
         width="33"
         id="rect6057"
         style="opacity:0.39195981;color:#000000;fill:url(#linearGradient6915);fill-opacity:1;fill-rule:nonzero;stroke:none;stroke-width:1;stroke-linecap:round;stroke-linejoin:miter;marker:none;marker-start:none;marker-mid:none;marker-end:none;stroke-miterlimit:4;stroke-dasharray:none;stroke-dashoffset:0;stroke-opacity:1;visibility:visible;display:inline;overflow:visible" />
      <path
         sodipodi:nodetypes="ccscc"
         id="path6059"
         d="M 35,26.00062 C 35,26.00062 35,43.999627 35,43.999627 C 37.30962,44.01418 40.033409,43.272315 42.389531,42.027493 C 45.519106,40.37403 48.000002,37.833194 48,34.998965 C 48,30.030967 41.999197,26.000621 35,26.00062 z "
         style="opacity:0.40206185;color:#000000;fill:url(#radialGradient6912);fill-opacity:1;fill-rule:nonzero;stroke:none;stroke-width:1;stroke-linecap:round;stroke-linejoin:miter;marker:none;marker-start:none;marker-mid:none;marker-end:none;stroke-miterlimit:4;stroke-dasharray:none;stroke-dashoffset:0;stroke-opacity:1;visibility:visible;display:inline;overflow:visible" />
      <path
         style="opacity:0.40206185;color:#000000;fill:url(#radialGradient6909);fill-opacity:1;fill-rule:nonzero;stroke:none;stroke-width:1;stroke-linecap:round;stroke-linejoin:miter;marker:none;marker-start:none;marker-mid:none;marker-end:none;stroke-miterlimit:4;stroke-dasharray:none;stroke-dashoffset:0;stroke-opacity:1;visibility:visible;display:inline;overflow:visible"
         d="M 2,26.00062 C 2,26.00062 2,43.999627 2,43.999627 C 1.172704,44.03351 1.3577825e-06,39.966963 1.3577825e-06,34.998965 C 1.3577825e-06,30.030967 0.92320113,26.000621 2,26.00062 z "
         id="path6061"
         sodipodi:nodetypes="cccc" />
    </g>
    <path
       style="fill:url(#linearGradient6360);fill-opacity:1.0;stroke:#888a85;stroke-width:0.99999994;stroke-linecap:round;stroke-linejoin:round;stroke-miterlimit:4;stroke-dashoffset:0;stroke-opacity:1"
       d="M 2.767767,6.5 L 45.232237,6.5 C 45.93458,6.5 46.500004,7.0654241 46.500004,7.767767 L 46.5,30.5 C 46.5,31.202343 36.202343,40.5 35.5,40.5 L 2.767767,40.5 C 2.0654241,40.5 1.5,39.934576 1.5,39.232233 L 1.5,7.767767 C 1.5,7.0654241 2.0654241,6.5 2.767767,6.5 z "
       id="rect5350"
       sodipodi:nodetypes="ccccccccc" />
    <path
       style="fill:url(#radialGradient6352);fill-opacity:1.0;stroke:#888a85;stroke-width:0.99999994;stroke-linecap:round;stroke-linejoin:round;stroke-miterlimit:4;stroke-dashoffset:0;stroke-opacity:1"
       d="M 4.9874617,9.5 L 43.039565,9.5 C 43.309619,9.5 43.527027,9.7276458 43.527027,10.010417 L 43.527027,33.989583 L 40.039565,37.5 L 4.9874617,37.5 C 4.7174079,37.5 4.5,37.272354 4.5,36.989583 L 4.5,10.010417 C 4.5,9.7276458 4.7174079,9.5 4.9874617,9.5 z "
       id="rect2063"
       sodipodi:nodetypes="ccccccccc" />
    <path
       style="opacity:0.17241379;fill:url(#linearGradient6372);fill-opacity:1;stroke:none;stroke-width:0.99999994;stroke-linecap:round;stroke-linejoin:round;stroke-miterlimit:4;stroke-dashoffset:0;stroke-opacity:1"
       d="M 14.78125,40 L 35.40625,40 C 35.41645,39.995518 35.423208,39.996022 35.46875,39.96875 C 35.559833,39.914206 35.707858,39.809986 35.875,39.6875 C 36.209283,39.442528 36.659837,39.093896 37.1875,38.65625 C 38.242827,37.780957 39.61066,36.608491 40.9375,35.40625 C 42.26434,34.204009 43.563777,32.96157 44.53125,32 C 45.014987,31.519215 45.417906,31.118778 45.6875,30.8125 C 45.822297,30.659361 45.910802,30.519277 45.96875,30.4375 C 45.983237,30.417056 45.991685,30.419536 46,30.40625 L 46,13.78125 L 14.78125,40 z "
       id="path6364"
       sodipodi:nodetypes="ccsssssssccc" />
    <path
       style="fill:none;fill-opacity:1;stroke:#ffffff;stroke-width:0.99999994;stroke-linecap:round;stroke-linejoin:round;stroke-miterlimit:4;stroke-dashoffset:0;stroke-opacity:1"
       d="M 2.78125,7.5 C 2.6253137,7.5 2.5,7.6253137 2.5,7.78125 L 2.5,39.21875 C 2.5,39.374686 2.6253136,39.5 2.78125,39.5 L 37.28125,39.5 C 40.921301,36.704635 42.365769,35.606734 45.5,32.25 L 45.5,7.78125 C 45.5,7.6253155 45.374683,7.5 45.21875,7.5 L 2.78125,7.5 z "
       id="path6351"
       sodipodi:nodetypes="ccccccccc" />
    <path
       style="fill:url(#linearGradient6333);fill-rule:evenodd;stroke:url(#radialGradient6382);stroke-width:1px;stroke-linecap:butt;stroke-linejoin:round;stroke-opacity:1;fill-opacity:1.0"
       d="M 46.5,30.5 C 46.5,35.5 40.5,40.5 35.5,40.5 C 35.5,40.5 39.932134,38.33738 39.5,33.5 C 43.879686,33.916135 46.5,30.5 46.5,30.5 z "
       id="path6322"
       sodipodi:nodetypes="cccc" />
    <path
       style="fill:url(#radialGradient6437);fill-opacity:1.0;fill-rule:evenodd;stroke:none;stroke-width:1px;stroke-linecap:butt;stroke-linejoin:round;stroke-opacity:1;opacity:0.73275862"
       d="M 45.71875 31.96875 C 44.577589 32.932531 42.679856 34.08934 40.03125 34.03125 C 40.059733 36.774444 38.699098 38.58751 37.46875 39.6875 C 38.953141 38.706251 40.825166 37.371805 41.03125 35.03125 C 43.192381 35.027997 44.619214 33.310655 45.6875 32.03125 C 45.693038 32.009581 45.713422 31.990426 45.71875 31.96875 z "
       id="path6339" />
    <path
       sodipodi:type="inkscape:offset"
       inkscape:radius="-1"
       inkscape:original="M 2.78125 6.5 C 2.0789071 6.5 1.5 7.0789071 1.5 7.78125 L 1.5 39.21875 C 1.5 39.921093 2.0789071 40.5 2.78125 40.5 L 35.5 40.5 C 40.5 40.5 46.5 35.5 46.5 30.5 L 46.5 7.78125 C 46.5 7.0789071 45.921091 6.5 45.21875 6.5 L 2.78125 6.5 z "
       style="fill:none;fill-opacity:1;stroke:#ffffff;stroke-width:0.99999994;stroke-linecap:round;stroke-linejoin:round;stroke-miterlimit:4;stroke-dashoffset:0;stroke-opacity:1;opacity:0.41810345"
       id="path6427"
       d="M 2.78125,7.5 C 2.628408,7.5 2.5,7.628408 2.5,7.78125 L 2.5,39.21875 C 2.5,39.371592 2.6284079,39.5 2.78125,39.5 L 35.5,39.5 C 37.666667,39.5 40.249358,38.362698 42.21875,36.625 C 44.188142,34.887302 45.5,32.6 45.5,30.5 L 45.5,7.78125 C 45.5,7.6284098 45.371589,7.5 45.21875,7.5 L 2.78125,7.5 z " />
    <path
       sodipodi:type="arc"
       style="fill:url(#radialGradient9498);fill-opacity:1;stroke:none;stroke-width:0.472;stroke-linecap:round;stroke-linejoin:miter;stroke-miterlimit:4;stroke-dasharray:none;stroke-dashoffset:0;stroke-opacity:0.38135591"
       id="path13584"
       sodipodi:cx="23.499998"
       sodipodi:cy="28.125"
       sodipodi:rx="30.249998"
       sodipodi:ry="8.625"
       d="M 53.749996,28.125 A 30.249998,8.625 0 1 1 -6.75,28.125 A 30.249998,8.625 0 1 1 53.749996,28.125 z"
       transform="matrix(0.4890882,0,0,0.6878834,12.712954,5.4600775)" />
    <path
       sodipodi:type="arc"
       style="fill:url(#radialGradient9500);fill-opacity:1;stroke:none;stroke-width:0.472;stroke-linecap:round;stroke-linejoin:miter;stroke-miterlimit:4;stroke-dasharray:none;stroke-dashoffset:0;stroke-opacity:0.38135591"
       id="path14495"
       sodipodi:cx="23.499998"
       sodipodi:cy="28.125"
       sodipodi:rx="30.249998"
       sodipodi:ry="8.625"
       d="M 53.749996,28.125 A 30.249998,8.625 0 1 1 -6.75,28.125 A 30.249998,8.625 0 1 1 53.749996,28.125 z"
       transform="matrix(0.3823322,0,0,0.4027165,13.193974,17.554631)" />
    <path
       transform="matrix(0.3823322,0,0,0.5921018,11.579299,7.1776081)"
       d="M 53.749996,28.125 A 30.249998,8.625 0 1 1 -6.75,28.125 A 30.249998,8.625 0 1 1 53.749996,28.125 z"
       sodipodi:ry="8.625"
       sodipodi:rx="30.249998"
       sodipodi:cy="28.125"
       sodipodi:cx="23.499998"
       id="path14479"
       style="fill:url(#radialGradient9502);fill-opacity:1;stroke:none;stroke-width:0.472;stroke-linecap:round;stroke-linejoin:miter;stroke-miterlimit:4;stroke-dasharray:none;stroke-dashoffset:0;stroke-opacity:0.38135591"
       sodipodi:type="arc" />
    <path
       sodipodi:type="arc"
       style="fill:url(#radialGradient9504);fill-opacity:1;stroke:none;stroke-width:0.472;stroke-linecap:round;stroke-linejoin:miter;stroke-miterlimit:4;stroke-dasharray:none;stroke-dashoffset:0;stroke-opacity:0.38135591"
       id="path14483"
       sodipodi:cx="23.499998"
       sodipodi:cy="28.125"
       sodipodi:rx="30.249998"
       sodipodi:ry="8.625"
       d="M 53.749996,28.125 A 30.249998,8.625 0 1 1 -6.75,28.125 A 30.249998,8.625 0 1 1 53.749996,28.125 z"
       transform="matrix(0.2904727,0,0,0.3570027,19.670989,21.374991)" />
    <path
       sodipodi:type="arc"
       style="fill:url(#radialGradient9506);fill-opacity:1;stroke:none;stroke-width:0.472;stroke-linecap:round;stroke-linejoin:miter;stroke-miterlimit:4;stroke-dasharray:none;stroke-dashoffset:0;stroke-opacity:0.38135591"
       id="path14491"
       sodipodi:cx="23.499998"
       sodipodi:cy="28.125"
       sodipodi:rx="30.249998"
       sodipodi:ry="8.625"
       d="M 53.749996,28.125 A 30.249998,8.625 0 1 1 -6.75,28.125 A 30.249998,8.625 0 1 1 53.749996,28.125 z"
       transform="matrix(0.1986131,0,0,0.3352342,17.646016,23.216184)" />
    <flowRoot
       xml:space="preserve"
       id="flowRoot12974"
       transform="matrix(0.6008093,0,0,0.6008093,-29.706253,-12.373014)"><flowRegion
         id="flowRegion12976"><rect
           id="rect12978"
           width="40.055775"
           height="16.02231"
           x="86.787514"
           y="412.80496" /></flowRegion><flowPara
         id="flowPara12980" /></flowRoot>    <path
       style="fill:url(#radialGradient9531);fill-opacity:1;fill-rule:evenodd;stroke:#000000;stroke-width:1pt;stroke-opacity:1"
       d="M 23.821513,11.016417 C 22.368815,10.942355 21.546182,12.263939 19.337801,14.27695 C 16.501879,17.107793 13.608715,19.882064 10.837251,22.776889 C 9.4376868,24.322576 12.523551,25.20618 13.790902,25.585766 C 14.661957,25.843296 16.659188,25.643332 16.597268,26.805583 C 15.859844,27.304166 13.390491,27.82714 14.922135,28.930467 C 16.500451,29.804179 19.20741,30.215579 20.954158,30.830379 C 22.770677,31.195355 17.333131,32.798108 19.494941,32.881894 C 21.493522,33.197665 24.552582,34.065132 22.65931,35.077974 C 20.878358,36.716039 32.088574,35.403004 28.909455,34.586833 C 26.842594,34.137323 25.7568,32.809873 26.81715,32.283001 C 27.028993,32.17774 27.326497,32.104433 27.718954,32.076465 C 30.318974,32.109774 33.585038,30.456943 31.048358,29.852378 C 28.780637,29.361145 28.399174,28.222143 30.107448,27.665147 C 32.153177,27.043377 34.430911,26.842938 36.185854,25.511487 C 37.708,24.29498 36.451276,22.430749 35.215214,21.220984 C 31.942338,18.009423 29.423382,15.367995 26.098627,12.208054 C 25.193445,11.298435 24.40182,11.01472 23.821513,11.016417 z"
       id="path1997"
       sodipodi:nodetypes="ccccccccccsccccccc" />
    <path
       sodipodi:nodetypes="ccccccccccccccccc"
       id="path3801"
       d="M 23.867624,11.94909 C 21.933703,12.028123 20.791642,14.105728 19.451172,15.18421 C 16.758555,17.808565 14.701949,19.955637 12.070533,22.639306 C 9.9451247,24.390875 13.884039,24.678981 15.087347,25.030881 C 15.914386,25.269625 17.43896,25.668397 17.380169,26.74587 C 17.476578,27.924996 13.698184,28.197406 16.055208,28.60955 C 18.03815,29.401309 21.846061,29.741377 22.079048,30.870817 C 22.051325,31.076408 22.247553,31.690584 20.848327,32.405512 C 22.958333,32.671698 24.80072,33.900726 23.640374,35.105212 C 24.65775,35.269627 26.884417,35.034802 27.477055,34.862314 C 25.866039,34.441995 24.374486,31.734881 27.408804,31.366759 C 29.877439,31.397638 30.376339,30.874354 30.808935,30.579411 C 27.514061,29.77883 27.895337,27.581162 29.517289,27.064795 C 31.459641,26.488378 33.67538,26.249454 35.341642,25.015123 C 36.78687,23.887351 35.69986,22.902565 34.52626,21.781044 C 31.41877,18.803741 29.908979,16.777074 26.752231,13.847626 C 25.737232,12.822016 24.854935,12.056599 23.867624,11.94909 z"
       style="fill:none;fill-opacity:1;fill-rule:evenodd;stroke:#ffffff;stroke-width:0.93819571pt;stroke-opacity:0.38135591" />
    <path
       style="fill:url(#linearGradient9527);fill-opacity:1;fill-rule:evenodd;stroke:none;stroke-width:1px;stroke-linecap:butt;stroke-linejoin:miter;stroke-opacity:1"
       d="M 17.297228,18.723597 C 19.60033,16.570697 22.579342,12.540268 23.755927,13.015909 C 25.132782,12.715504 27.260648,15.494247 29.463615,17.822383 C 30.740335,20.300722 27.210581,17.897484 26.459569,17.747282 C 26.509636,18.798698 27.536019,20.22562 26.609771,20.90153 C 25.45822,21.252003 25.207883,19.199237 24.506939,18.348091 C 24.131433,18.873799 24.206534,19.925215 23.380421,19.925215 C 22.454173,20.200586 21.903432,17.997619 21.35269,17.822383 C 20.868615,19.492728 15.75926,20.474419 17.297228,18.723597 z"
       id="path5575"
       sodipodi:nodetypes="ccccccccc" />
    <path
       style="fill:url(#linearGradient9524);fill-opacity:1;fill-rule:evenodd;stroke:none;stroke-width:1px;stroke-linecap:butt;stroke-linejoin:miter;stroke-opacity:1"
       d="M 18.150674,26.018626 C 19.515011,26.707053 26.056584,27.273718 29.176364,26.473007 C 27.667485,27.272936 26.521874,28.456835 28.950145,30.021442 C 22.428861,27.067463 18.404328,28.256933 16.727068,28.156798 C 17.728417,27.881427 18.989303,27.270312 18.150674,26.018626 z"
       id="path7355"
       sodipodi:nodetypes="ccccc" />
    <path
       style="fill:#ffffff;fill-opacity:1;fill-rule:evenodd;stroke:none;stroke-width:1px;stroke-linecap:butt;stroke-linejoin:miter;stroke-opacity:1"
       d="M 23.442637,13.669823 C 22.278569,13.932677 20.363489,15.847756 20.889197,16.223262 C 21.414906,16.598768 24.90711,15.810206 25.545469,15.171846 C 26.183829,14.533486 24.606705,13.406968 23.442637,13.669823 z"
       id="path9135"
       sodipodi:nodetypes="csss" />
    <path
       style="fill:#ffffff;fill-opacity:1;fill-rule:evenodd;stroke:none;stroke-width:1px;stroke-linecap:butt;stroke-linejoin:miter;stroke-opacity:1"
       d="M 20.513753,16.465221 C 20.319625,16.385355 19.181307,17.26533 18.995995,17.638521 C 18.810683,18.011712 19.393064,18.251309 19.772504,17.957984 C 20.151943,17.664659 20.70788,16.545087 20.513753,16.465221 z"
       id="path10022"
       sodipodi:nodetypes="csss" />
    <path
       sodipodi:nodetypes="ccccc"
       id="path11796"
       d="M 22.694293,31.012853 C 23.270069,31.250674 24.540894,31.488494 25.867681,31.200606 C 24.728647,31.864 24.193738,32.812702 25.533042,34.41486 C 24.005985,33.000455 23.361004,32.725452 22.209453,32.17471 C 22.572442,32.162194 22.744361,31.626179 22.694293,31.012853 z"
       style="fill:url(#linearGradient9519);fill-opacity:1;fill-rule:evenodd;stroke:none;stroke-width:1px;stroke-linecap:butt;stroke-linejoin:miter;stroke-opacity:1" />
    <path
       style="fill:url(#radialGradient6396);fill-opacity:1.0;stroke:none;stroke-width:0.99999994;stroke-linecap:round;stroke-linejoin:round;stroke-miterlimit:4;stroke-dashoffset:0;stroke-opacity:1;opacity:0.34482759"
       d="M 2.78125,7 C 2.3536576,7 2,7.3536576 2,7.78125 L 2,31.09375 C 14.714701,22.184679 34.055102,15.625228 46,19.3125 L 46,7.78125 C 46,7.3536585 45.64634,7 45.21875,7 L 2.78125,7 z "
       id="path6384"
       sodipodi:nodetypes="ccccccc" />
  </g>
</svg>
