<?xml version="1.0" encoding="UTF-8" standalone="no"?>
<!-- Created with Inkscape (http://www.inkscape.org/) -->
<svg
   xmlns:dc="http://purl.org/dc/elements/1.1/"
   xmlns:cc="http://creativecommons.org/ns#"
   xmlns:rdf="http://www.w3.org/1999/02/22-rdf-syntax-ns#"
   xmlns:svg="http://www.w3.org/2000/svg"
   xmlns="http://www.w3.org/2000/svg"
   xmlns:xlink="http://www.w3.org/1999/xlink"
   xmlns:sodipodi="http://sodipodi.sourceforge.net/DTD/sodipodi-0.dtd"
   xmlns:inkscape="http://www.inkscape.org/namespaces/inkscape"
   inkscape:export-ydpi="240.00000"
   inkscape:export-xdpi="240.00000"
   inkscape:export-filename="/home/lapo/text.png"
   sodipodi:docname="text-x-tex.svg"
   sodipodi:docbase="/home/dobey/Projects/gnome-icon-theme/scalable/mimetypes"
   inkscape:version="0.46"
   sodipodi:version="0.32"
   id="svg249"
   height="48.000000px"
   width="48.000000px"
   inkscape:output_extension="org.inkscape.output.svg.inkscape">
  <defs
     id="defs3">
    <inkscape:perspective
       sodipodi:type="inkscape:persp3d"
       inkscape:vp_x="0 : 24 : 1"
       inkscape:vp_y="0 : 1000 : 0"
       inkscape:vp_z="48 : 24 : 1"
       inkscape:persp3d-origin="24 : 16 : 1"
       id="perspective80" />
    <linearGradient
       inkscape:collect="always"
       xlink:href="#linearGradient3656"
       id="linearGradient5816"
       gradientUnits="userSpaceOnUse"
       x1="-26.753757"
       y1="11.566258"
       x2="-24.75"
       y2="9.687501" />
    <linearGradient
       inkscape:collect="always"
       xlink:href="#linearGradient3520"
       id="linearGradient5836"
       gradientUnits="userSpaceOnUse"
       gradientTransform="matrix(0.9223058,0,0,0.9185751,-92.447368,61.3257)"
       x1="-18.588562"
       y1="11.052948"
       x2="-28.789402"
       y2="14.069944" />
    <radialGradient
       inkscape:collect="always"
       xlink:href="#linearGradient3671"
       id="radialGradient5839"
       gradientUnits="userSpaceOnUse"
       gradientTransform="matrix(0.4073362,-0.2798276,0.7510293,1.0932492,-115.18484,51.56213)"
       cx="-26.305403"
       cy="10.108011"
       fx="-26.305403"
       fy="10.108011"
       r="7.0421038" />
    <linearGradient
       inkscape:collect="always"
       id="linearGradient6469">
      <stop
         style="stop-color:#000000;stop-opacity:1;"
         offset="0"
         id="stop6471" />
      <stop
         style="stop-color:#000000;stop-opacity:0;"
         offset="1"
         id="stop6473" />
    </linearGradient>
    <linearGradient
       inkscape:collect="always"
       xlink:href="#linearGradient6469"
       id="linearGradient6475"
       x1="58.282169"
       y1="70.751839"
       x2="61.181217"
       y2="67.799171"
       gradientUnits="userSpaceOnUse"
       gradientTransform="translate(-180,0)" />
    <radialGradient
       inkscape:collect="always"
       xlink:href="#linearGradient3741"
       id="radialGradient5810"
       gradientUnits="userSpaceOnUse"
       gradientTransform="matrix(1.8860258,0,0,1.1764706,-3.5441033,-4.2352941)"
       cx="4"
       cy="5.2999997"
       fx="4"
       fy="5.2999997"
       r="17" />
    <linearGradient
       inkscape:collect="always"
       xlink:href="#linearGradient3613"
       id="linearGradient5845"
       gradientUnits="userSpaceOnUse"
       gradientTransform="translate(-90,60)"
       x1="-47.5"
       y1="49.020683"
       x2="-62.75"
       y2="-22.502075" />
    <radialGradient
       inkscape:collect="always"
       xlink:href="#linearGradient3683"
       id="radialGradient5843"
       gradientUnits="userSpaceOnUse"
       gradientTransform="matrix(3.9957492,0,0,1.9350367,0.62141,28.832578)"
       cx="-30.249996"
       cy="35.357208"
       fx="-30.249996"
       fy="35.357208"
       r="18.000002" />
    <linearGradient
       inkscape:collect="always"
       xlink:href="#linearGradient3702"
       id="linearGradient5804"
       gradientUnits="userSpaceOnUse"
       x1="25.058096"
       y1="47.027729"
       x2="25.058096"
       y2="39.999443" />
    <radialGradient
       inkscape:collect="always"
       xlink:href="#linearGradient3688"
       id="radialGradient5802"
       gradientUnits="userSpaceOnUse"
       gradientTransform="matrix(2.003784,0,0,1.4,-20.01187,-104.4)"
       cx="4.9929786"
       cy="43.5"
       fx="4.9929786"
       fy="43.5"
       r="2.5" />
    <radialGradient
       inkscape:collect="always"
       xlink:href="#linearGradient3688"
       id="radialGradient5800"
       gradientUnits="userSpaceOnUse"
       gradientTransform="matrix(2.003784,0,0,1.4,27.98813,-17.4)"
       cx="4.9929786"
       cy="43.5"
       fx="4.9929786"
       fy="43.5"
       r="2.5" />
    <linearGradient
       inkscape:collect="always"
       xlink:href="#linearGradient3702"
       id="linearGradient5798"
       gradientUnits="userSpaceOnUse"
       x1="25.058096"
       y1="47.027729"
       x2="25.058096"
       y2="39.999443" />
    <radialGradient
       inkscape:collect="always"
       xlink:href="#linearGradient3688"
       id="radialGradient5796"
       gradientUnits="userSpaceOnUse"
       gradientTransform="matrix(2.003784,0,0,1.4,-20.01187,-104.4)"
       cx="4.9929786"
       cy="43.5"
       fx="4.9929786"
       fy="43.5"
       r="2.5" />
    <radialGradient
       inkscape:collect="always"
       xlink:href="#linearGradient3688"
       id="radialGradient5794"
       gradientUnits="userSpaceOnUse"
       gradientTransform="matrix(2.003784,0,0,1.4,27.98813,-17.4)"
       cx="4.9929786"
       cy="43.5"
       fx="4.9929786"
       fy="43.5"
       r="2.5" />
    <linearGradient
       inkscape:collect="always"
       id="linearGradient3656">
      <stop
         style="stop-color:#ffffff;stop-opacity:1;"
         offset="0"
         id="stop3658" />
      <stop
         style="stop-color:#ffffff;stop-opacity:0;"
         offset="1"
         id="stop3660" />
    </linearGradient>
    <linearGradient
       inkscape:collect="always"
       id="linearGradient3520">
      <stop
         style="stop-color:#000000;stop-opacity:0.41295547"
         offset="0"
         id="stop3522" />
      <stop
         style="stop-color:#000000;stop-opacity:0;"
         offset="1"
         id="stop3524" />
    </linearGradient>
    <linearGradient
       id="linearGradient3671">
      <stop
         style="stop-color:#ffffff;stop-opacity:1;"
         offset="0"
         id="stop3673" />
      <stop
         id="stop3691"
         offset="0.47533694"
         style="stop-color:#ffffff;stop-opacity:1;" />
      <stop
         style="stop-color:#ffffff;stop-opacity:0;"
         offset="1"
         id="stop3675" />
    </linearGradient>
    <linearGradient
       inkscape:collect="always"
       id="linearGradient3741">
      <stop
         style="stop-color:#ffffff;stop-opacity:1;"
         offset="0"
         id="stop3743" />
      <stop
         style="stop-color:#ffffff;stop-opacity:0;"
         offset="1"
         id="stop3745" />
    </linearGradient>
    <linearGradient
       inkscape:collect="always"
       id="linearGradient3613">
      <stop
         style="stop-color:#888a85;stop-opacity:1"
         offset="0"
         id="stop3615" />
      <stop
         style="stop-color:#babdb6;stop-opacity:1"
         offset="1"
         id="stop3617" />
    </linearGradient>
    <linearGradient
       id="linearGradient3683">
      <stop
         id="stop3685"
         offset="0"
         style="stop-color:#f6f6f5;stop-opacity:1;" />
      <stop
         id="stop3689"
         offset="1"
         style="stop-color:#d3d7cf;stop-opacity:1" />
    </linearGradient>
    <linearGradient
       id="linearGradient3688"
       inkscape:collect="always">
      <stop
         id="stop3690"
         offset="0"
         style="stop-color:black;stop-opacity:1;" />
      <stop
         id="stop3692"
         offset="1"
         style="stop-color:black;stop-opacity:0;" />
    </linearGradient>
    <linearGradient
       id="linearGradient3702">
      <stop
         id="stop3704"
         offset="0"
         style="stop-color:black;stop-opacity:0;" />
      <stop
         style="stop-color:black;stop-opacity:1;"
         offset="0.5"
         id="stop3710" />
      <stop
         id="stop3706"
         offset="1"
         style="stop-color:black;stop-opacity:0;" />
    </linearGradient>
    <linearGradient
       inkscape:collect="always"
       xlink:href="#linearGradient3520"
       id="linearGradient2787"
       gradientUnits="userSpaceOnUse"
       gradientTransform="matrix(0.9223058,0,0,0.9185751,57.552632,1.3257)"
       x1="-18.588562"
       y1="11.052948"
       x2="-28.789402"
       y2="14.069944" />
    <radialGradient
       inkscape:collect="always"
       xlink:href="#linearGradient3671"
       id="radialGradient2790"
       gradientUnits="userSpaceOnUse"
       gradientTransform="matrix(0.4073362,-0.2798276,0.7510293,1.0932492,34.81516,-8.43787)"
       cx="-26.305403"
       cy="10.108011"
       fx="-26.305403"
       fy="10.108011"
       r="7.0421038" />
    <linearGradient
       inkscape:collect="always"
       xlink:href="#linearGradient6469"
       id="linearGradient2793"
       gradientUnits="userSpaceOnUse"
       gradientTransform="translate(-30,-60)"
       x1="58.282169"
       y1="70.751839"
       x2="61.181217"
       y2="67.799171" />
    <radialGradient
       inkscape:collect="always"
       xlink:href="#linearGradient3683"
       id="radialGradient2797"
       gradientUnits="userSpaceOnUse"
       gradientTransform="matrix(3.9957492,0,0,1.9350367,150.62141,-31.167422)"
       cx="-30.249996"
       cy="35.357208"
       fx="-30.249996"
       fy="35.357208"
       r="18.000002" />
    <linearGradient
       inkscape:collect="always"
       xlink:href="#linearGradient3613"
       id="linearGradient2799"
       gradientUnits="userSpaceOnUse"
       gradientTransform="translate(60,0)"
       x1="-47.5"
       y1="49.020683"
       x2="-62.75"
       y2="-22.502075" />
  </defs>
  <sodipodi:namedview
     inkscape:window-y="146"
     inkscape:window-x="270"
     inkscape:window-height="872"
     inkscape:window-width="1048"
     inkscape:document-units="px"
     inkscape:grid-bbox="true"
     showgrid="true"
     inkscape:current-layer="layer6"
     inkscape:cy="16.916179"
     inkscape:cx="13.092449"
     inkscape:zoom="11.28"
     inkscape:pageshadow="2"
     inkscape:pageopacity="0.0"
     borderopacity="0.25490196"
     bordercolor="#666666"
     pagecolor="#ffffff"
     id="base"
     inkscape:showpageshadow="false">
    <inkscape:grid
       type="xygrid"
       id="grid8011" />
  </sodipodi:namedview>
  <metadata
     id="metadata4">
    <rdf:RDF>
      <cc:Work
         rdf:about="">
        <dc:format>image/svg+xml</dc:format>
        <dc:type
           rdf:resource="http://purl.org/dc/dcmitype/StillImage" />
        <dc:title>Generic Text</dc:title>
        <dc:subject>
          <rdf:Bag>
            <rdf:li>text</rdf:li>
            <rdf:li>plaintext</rdf:li>
            <rdf:li>regular</rdf:li>
            <rdf:li>document</rdf:li>
          </rdf:Bag>
        </dc:subject>
        <cc:license
           rdf:resource="http://creativecommons.org/licenses/GPL/2.0/" />
        <dc:creator>
          <cc:Agent>
            <dc:title>Lapo Calamandrei</dc:title>
          </cc:Agent>
        </dc:creator>
        <dc:source />
        <dc:date />
        <dc:rights>
          <cc:Agent>
            <dc:title />
          </cc:Agent>
        </dc:rights>
        <dc:publisher>
          <cc:Agent>
            <dc:title />
          </cc:Agent>
        </dc:publisher>
        <dc:identifier />
        <dc:relation />
        <dc:language />
        <dc:coverage />
        <dc:description />
        <dc:contributor>
          <cc:Agent>
            <dc:title />
          </cc:Agent>
        </dc:contributor>
      </cc:Work>
      <cc:License
         rdf:about="http://creativecommons.org/licenses/GPL/2.0/">
        <cc:permits
           rdf:resource="http://web.resource.org/cc/Reproduction" />
        <cc:permits
           rdf:resource="http://web.resource.org/cc/Distribution" />
        <cc:requires
           rdf:resource="http://web.resource.org/cc/Notice" />
        <cc:permits
           rdf:resource="http://web.resource.org/cc/DerivativeWorks" />
        <cc:requires
           rdf:resource="http://web.resource.org/cc/ShareAlike" />
        <cc:requires
           rdf:resource="http://web.resource.org/cc/SourceCode" />
      </cc:License>
    </rdf:RDF>
  </metadata>
  <g
     inkscape:groupmode="layer"
     id="layer6"
     inkscape:label="Shadow">
    <g
       id="g2733">
      <rect
         y="0"
         x="0"
         height="48"
         width="48"
         id="rect5504"
         style="opacity:0;fill:#000000;fill-opacity:1;stroke:none;stroke-width:1;stroke-miterlimit:4;stroke-dasharray:none;display:inline" />
      <g
         transform="matrix(1.0464281,0,0,0.8888889,-1.18572,5.72224)"
         inkscape:label="Shadow"
         id="g5508"
         style="opacity:0.65587045;display:inline">
        <g
           transform="matrix(1.052632,0,0,1.285713,-1.263158,-13.42854)"
           style="opacity:0.4"
           id="g5511">
          <rect
             style="opacity:1;fill:url(#radialGradient5794);fill-opacity:1;stroke:none;stroke-width:1;stroke-linecap:round;stroke-linejoin:miter;stroke-miterlimit:4;stroke-dasharray:none;stroke-opacity:1"
             id="rect5513"
             width="5"
             height="7"
             x="38"
             y="40" />
          <rect
             style="opacity:1;fill:url(#radialGradient5796);fill-opacity:1;stroke:none;stroke-width:1;stroke-linecap:round;stroke-linejoin:miter;stroke-miterlimit:4;stroke-dasharray:none;stroke-opacity:1"
             id="rect5515"
             width="5"
             height="7"
             x="-10"
             y="-47"
             transform="scale(-1,-1)" />
          <rect
             style="opacity:1;fill:url(#linearGradient5798);fill-opacity:1;stroke:none;stroke-width:1;stroke-linecap:round;stroke-linejoin:miter;stroke-miterlimit:4;stroke-dasharray:none;stroke-opacity:1"
             id="rect5517"
             width="28"
             height="7.0000005"
             x="10"
             y="40" />
        </g>
      </g>
      <g
         transform="matrix(0.9548466,0,0,0.5555562,1.01224,19.888875)"
         inkscape:label="Shadow"
         id="g5519"
         style="display:inline">
        <g
           transform="matrix(1.052632,0,0,1.285713,-1.263158,-13.42854)"
           style="opacity:0.4"
           id="g5521">
          <rect
             style="opacity:1;fill:url(#radialGradient5800);fill-opacity:1;stroke:none;stroke-width:1;stroke-linecap:round;stroke-linejoin:miter;stroke-miterlimit:4;stroke-dasharray:none;stroke-opacity:1"
             id="rect5523"
             width="5"
             height="7"
             x="38"
             y="40" />
          <rect
             style="opacity:1;fill:url(#radialGradient5802);fill-opacity:1;stroke:none;stroke-width:1;stroke-linecap:round;stroke-linejoin:miter;stroke-miterlimit:4;stroke-dasharray:none;stroke-opacity:1"
             id="rect5525"
             width="5"
             height="7"
             x="-10"
             y="-47"
             transform="scale(-1,-1)" />
          <rect
             style="opacity:1;fill:url(#linearGradient5804);fill-opacity:1;stroke:none;stroke-width:1;stroke-linecap:round;stroke-linejoin:miter;stroke-miterlimit:4;stroke-dasharray:none;stroke-opacity:1"
             id="rect5527"
             width="28"
             height="7.0000005"
             x="10"
             y="40" />
        </g>
      </g>
      <path
         sodipodi:nodetypes="ccsccccccc"
         id="path5529"
         d="M 8.52386,3.5 C 8.52386,3.5 26,3.5 27.5,3.5 C 31.37705,3.572942 34,6 36.5,8.5 C 39,11 41.10768,13.752625 41.5,17.5 C 41.5,19 41.5,42.47614 41.5,42.47614 C 41.5,43.59736 40.59736,44.5 39.47615,44.5 L 8.52386,44.5 C 7.40264,44.5 6.5,43.59736 6.5,42.47614 L 6.5,5.523858 C 6.5,4.402641 7.40264,3.5 8.52386,3.5 z"
         style="fill:url(#radialGradient2797);fill-opacity:1;stroke:url(#linearGradient2799);stroke-width:1;stroke-miterlimit:4;display:inline" />
      <path
         d="M 8.53125,4 C 7.6730803,4 7,4.6730802 7,5.53125 L 7,42.46875 C 7,43.32692 7.6730802,44 8.53125,44 L 39.46875,44 C 40.326919,44 41,43.326918 41,42.46875 C 41,42.46875 41,19 41,17.5 C 41,16.10803 40.513021,13.200521 38.65625,11.34375 C 36.65625,9.34375 35.65625,8.34375 33.65625,6.34375 C 31.799479,4.4869792 28.89197,4 27.5,4 C 26,4 8.53125,4 8.53125,4 z"
         id="path5531"
         style="opacity:0.68016196;fill:url(#radialGradient5810);fill-opacity:1;stroke:none;stroke-width:1;stroke-miterlimit:4;display:inline"
         inkscape:original="M 8.53125 3.5 C 7.410033 3.5 6.5 4.4100329 6.5 5.53125 L 6.5 42.46875 C 6.5 43.589967 7.4100329 44.5 8.53125 44.5 L 39.46875 44.5 C 40.589967 44.5 41.5 43.589966 41.5 42.46875 C 41.5 42.46875 41.5 19 41.5 17.5 C 41.5 16 41 13 39 11 C 37 9 36 8 34 6 C 32 4 29 3.5 27.5 3.5 C 26 3.5 8.5312499 3.5 8.53125 3.5 z "
         inkscape:radius="-0.4861359"
         sodipodi:type="inkscape:offset" />
      <path
         sodipodi:nodetypes="ccccczc"
         id="path5533"
         d="M 27.5,4 C 26.11111,4 27.45793,4.497088 28.84375,5.125 C 30.22957,5.752912 33.81663,8.340052 33,12 C 37.32331,11.569417 39.67913,15.122378 40,16.28125 C 40.32087,17.440122 41,18.888889 41,17.5 C 41.02833,13.694419 38.15457,11.068299 36.15625,8.84375 C 34.15793,6.619201 31.15379,4.476761 27.5,4 z"
         style="fill:url(#radialGradient2790);fill-opacity:1;stroke:none;stroke-width:1;stroke-miterlimit:4;display:inline" />
      <path
         sodipodi:nodetypes="ccccc"
         id="path5535"
         d="M 28.60088,5.014353 C 29.52318,5.014353 31.60932,11.210015 30.68702,15.343603 C 34.98198,14.915844 39.5404,15.43178 40,16.28125 C 39.67913,15.122378 37.32331,11.569417 33,12 C 33.86466,8.124761 29.81343,5.382702 28.60088,5.014353 z"
         style="opacity:0.87854249;fill:url(#linearGradient2787);fill-opacity:1;stroke:none;stroke-width:1;stroke-miterlimit:4;display:inline" />
      <path
         transform="translate(60,0)"
         d="M -51.46875,4.5 C -52.051916,4.5 -52.5,4.9480842 -52.5,5.53125 L -52.5,42.46875 C -52.5,43.051915 -52.051914,43.5 -51.46875,43.5 L -20.53125,43.5 C -19.948085,43.5 -19.5,43.051914 -19.5,42.46875 C -19.5,42.46875 -19.5,19 -19.5,17.5 C -19.5,16.220971 -19.980469,13.394531 -21.6875,11.6875 C -23.6875,9.6875 -24.6875,8.6875 -26.6875,6.6875 C -28.394531,4.9804687 -31.220971,4.5 -32.5,4.5 C -34,4.5 -51.46875,4.5 -51.46875,4.5 z"
         id="path5537"
         style="fill:none;fill-opacity:1;stroke:url(#linearGradient5816);stroke-width:1;stroke-miterlimit:4;display:inline"
         inkscape:original="M -51.46875 3.5 C -52.589967 3.5 -53.5 4.4100329 -53.5 5.53125 L -53.5 42.46875 C -53.5 43.589967 -52.589966 44.5 -51.46875 44.5 L -20.53125 44.5 C -19.410033 44.5 -18.5 43.589966 -18.5 42.46875 C -18.5 42.46875 -18.5 19 -18.5 17.5 C -18.5 16 -19 13 -21 11 C -23 9 -24 8 -26 6 C -28 4 -31 3.5 -32.5 3.5 C -34 3.5 -51.468749 3.5 -51.46875 3.5 z "
         inkscape:radius="-0.99436891"
         sodipodi:type="inkscape:offset" />
    </g>
    <path
       style="fill:#000000"
       id="path7984"
       d="M 19.404801,18.079393 C 19.404801,18.079393 9.423801,18.079393 9.423801,18.079393 C 9.423801,18.079393 9.1287961,21.708793 9.1287961,21.708793 C 9.1287961,21.708793 9.522136,21.708793 9.522136,21.708793 C 9.7515843,19.100162 9.9974217,18.565474 12.472185,18.565474 C 12.767191,18.565474 13.193308,18.565474 13.357201,18.597879 C 13.701373,18.662689 13.701373,18.840919 13.701373,19.21358 C 13.701373,19.21358 13.701373,27.719988 13.701373,27.719988 C 13.701373,28.27088 13.701373,28.497717 11.980511,28.497717 C 11.980511,28.497717 11.324944,28.497717 11.324944,28.497717 C 11.324944,28.497717 11.324944,29 11.324944,29 C 11.9969,28.951392 13.652205,28.951392 14.406107,28.951392 C 15.160008,28.951392 16.848092,28.951392 17.520047,29 C 17.520047,29 17.520047,28.497717 17.520047,28.497717 C 17.520047,28.497717 16.864481,28.497717 16.864481,28.497717 C 15.143619,28.497717 15.143619,28.27088 15.143619,27.719988 C 15.143619,27.719988 15.143619,19.21358 15.143619,19.21358 C 15.143619,18.889527 15.143619,18.662689 15.438625,18.597879 C 15.618905,18.565474 16.061412,18.565474 16.372807,18.565474 C 18.83118,18.565474 19.077018,19.100162 19.306467,21.708793 C 19.306467,21.708793 19.716196,21.708793 19.716196,21.708793 C 19.716196,21.708793 19.404801,18.079393 19.404801,18.079393 z" />
    <path
       style="fill:#000000"
       id="path7986"
       d="M 28.410454,28.828548 C 28.410454,28.828548 28,28.828548 28,28.828548 C 27.589546,31.311942 27.211929,32.496828 24.404427,32.496828 C 24.404427,32.496828 22.237231,32.496828 22.237231,32.496828 C 21.46558,32.496828 21.432743,32.383209 21.432743,31.847576 C 21.432743,31.847576 21.432743,27.530042 21.432743,27.530042 C 21.432743,27.530042 22.893958,27.530042 22.893958,27.530042 C 24.486518,27.530042 24.667117,28.049445 24.667117,29.429107 C 24.667117,29.429107 25.07757,29.429107 25.07757,29.429107 C 25.07757,29.429107 25.07757,25.144036 25.07757,25.144036 C 25.07757,25.144036 24.667117,25.144036 24.667117,25.144036 C 24.667117,26.5237 24.486518,27.02687 22.893958,27.02687 C 22.893958,27.02687 21.432743,27.02687 21.432743,27.02687 C 21.432743,27.02687 21.432743,23.147583 21.432743,23.147583 C 21.432743,22.611948 21.46558,22.498329 22.237231,22.498329 C 22.237231,22.498329 24.338754,22.498329 24.338754,22.498329 C 26.85073,22.498329 27.277602,23.391052 27.540292,25.647207 C 27.540292,25.647207 27.950745,25.647207 27.950745,25.647207 C 27.950745,25.647207 27.491038,22.011389 27.491038,22.011389 C 27.491038,22.011389 18.296877,22.011389 18.296877,22.011389 C 18.296877,22.011389 18.296877,22.498329 18.296877,22.498329 C 18.296877,22.498329 18.674495,22.498329 18.674495,22.498329 C 19.938692,22.498329 19.971528,22.676874 19.971528,23.261202 C 19.971528,23.261202 19.971528,31.733956 19.971528,31.733956 C 19.971528,32.318284 19.938692,32.496828 18.674495,32.496828 C 18.674495,32.496828 18.296877,32.496828 18.296877,32.496828 C 18.296877,32.496828 18.296877,33 18.296877,33 C 18.296877,33 27.720891,33 27.720891,33 C 27.720891,33 28.410454,28.828548 28.410454,28.828548 z" />
    <path
       style="fill:#000000"
       id="path7988"
       d="M 33.563536,22.810821 C 33.563536,22.810821 35.791268,19.595663 35.791268,19.595663 C 36.132745,19.081238 36.685612,18.566813 38.132824,18.550737 C 38.132824,18.550737 38.132824,18.068464 38.132824,18.068464 C 38.132824,18.068464 34.262751,18.068464 34.262751,18.068464 C 34.262751,18.068464 34.262751,18.550737 34.262751,18.550737 C 34.913183,18.566813 35.270921,18.92048 35.270921,19.290223 C 35.270921,19.450981 35.238399,19.483133 35.124574,19.659967 C 35.124574,19.659967 33.270842,22.360699 33.270842,22.360699 C 33.270842,22.360699 31.189458,19.274148 31.189458,19.274148 C 31.156936,19.22592 31.075632,19.097314 31.075632,19.033011 C 31.075632,18.840101 31.43337,18.566813 32.116324,18.550737 C 32.116324,18.550737 32.116324,18.068464 32.116324,18.068464 C 31.563456,18.116691 30.376418,18.116691 29.758507,18.116691 C 29.254422,18.116691 28.246251,18.100615 27.644601,18.068464 C 27.644601,18.068464 27.644601,18.550737 27.644601,18.550737 C 27.644601,18.550737 27.953557,18.550737 27.953557,18.550737 C 28.847901,18.550737 29.156856,18.663268 29.465812,19.11339 C 29.465812,19.11339 32.44154,23.566383 32.44154,23.566383 C 32.44154,23.566383 29.791028,27.440648 29.791028,27.440648 C 29.563377,27.762164 29.075553,28.50165 27.449471,28.50165 C 27.449471,28.50165 27.449471,29 27.449471,29 C 27.449471,29 31.319544,29 31.319544,29 C 31.319544,29 31.319544,28.50165 31.319544,28.50165 C 30.571548,28.485574 30.295113,28.051528 30.295113,27.762164 C 30.295113,27.617482 30.343896,27.553179 30.457721,27.376346 C 30.457721,27.376346 32.750496,24.016505 32.750496,24.016505 C 32.750496,24.016505 35.319704,27.842544 35.319704,27.842544 C 35.352226,27.906846 35.401008,27.97115 35.401008,28.019377 C 35.401008,28.212286 35.04327,28.485574 34.344055,28.50165 C 34.344055,28.50165 34.344055,29 34.344055,29 C 34.913183,28.951772 36.100223,28.951772 36.701873,28.951772 C 37.384827,28.951772 38.132824,28.967848 38.815778,29 C 38.815778,29 38.815778,28.50165 38.815778,28.50165 C 38.815778,28.50165 38.506823,28.50165 38.506823,28.50165 C 37.661261,28.50165 37.319783,28.421272 36.978306,27.922922 C 36.978306,27.922922 33.563536,22.810821 33.563536,22.810821 z" />
  </g>
  <g
     style="display:inline"
     inkscape:groupmode="layer"
     inkscape:label="Base"
     id="layer1" />
  <g
     inkscape:groupmode="layer"
     id="layer5"
     inkscape:label="Text"
     style="display:inline" />
</svg>
