<?xml version="1.0" encoding="UTF-8" standalone="no"?>
<!-- Created with Inkscape (http://www.inkscape.org/) -->
<svg
   xmlns:dc="http://purl.org/dc/elements/1.1/"
   xmlns:cc="http://creativecommons.org/ns#"
   xmlns:rdf="http://www.w3.org/1999/02/22-rdf-syntax-ns#"
   xmlns:svg="http://www.w3.org/2000/svg"
   xmlns="http://www.w3.org/2000/svg"
   xmlns:xlink="http://www.w3.org/1999/xlink"
   xmlns:sodipodi="http://sodipodi.sourceforge.net/DTD/sodipodi-0.dtd"
   xmlns:inkscape="http://www.inkscape.org/namespaces/inkscape"
   width="48px"
   height="48px"
   id="svg8447"
   sodipodi:version="0.32"
   inkscape:version="0.46"
   sodipodi:docname="video-x-generic.svg"
   inkscape:output_extension="org.inkscape.output.svg.inkscape">
  <defs
     id="defs8449">
    <linearGradient
       inkscape:collect="always"
       xlink:href="#linearGradient2998"
       id="linearGradient3998"
       gradientUnits="userSpaceOnUse"
       gradientTransform="matrix(0.696565,0,0,0.678339,575.86188,49.991528)"
       x1="35.076958"
       y1="44.546959"
       x2="48.789547"
       y2="43.475887"
       spreadMethod="reflect" />
    <filter
       inkscape:collect="always"
       id="filter3881"
       x="-0.065352585"
       width="1.1307052"
       y="-0.10782887"
       height="1.2156577">
      <feGaussianBlur
         inkscape:collect="always"
         stdDeviation="0.1496555"
         id="feGaussianBlur3883" />
    </filter>
    <radialGradient
       inkscape:collect="always"
       xlink:href="#linearGradient3827"
       id="radialGradient3894"
       gradientUnits="userSpaceOnUse"
       gradientTransform="matrix(2.2857492,0,0,1.3853398,-207.02513,-27.729998)"
       cx="161.01517"
       cy="69.959496"
       fx="161.01517"
       fy="69.959496"
       r="2.7479649" />
    <filter
       inkscape:collect="always"
       id="filter3889"
       x="-0.064935268"
       width="1.1298705"
       y="-0.10675348"
       height="1.213507">
      <feGaussianBlur
         inkscape:collect="always"
         stdDeviation="0.1496555"
         id="feGaussianBlur3891" />
    </filter>
    <radialGradient
       inkscape:collect="always"
       xlink:href="#linearGradient3827"
       id="radialGradient3892"
       gradientUnits="userSpaceOnUse"
       gradientTransform="matrix(2.310845,0,0,0.9698559,-214.91713,1.6454818)"
       cx="164.5211"
       cy="75.951256"
       fx="164.5211"
       fy="75.951256"
       r="2.765625" />
    <filter
       inkscape:collect="always"
       id="filter3885">
      <feGaussianBlur
         inkscape:collect="always"
         stdDeviation="0.1496555"
         id="feGaussianBlur3887" />
    </filter>
    <radialGradient
       inkscape:collect="always"
       xlink:href="#linearGradient3827"
       id="radialGradient3890"
       gradientUnits="userSpaceOnUse"
       gradientTransform="matrix(2.0622452,0,0,1.1339041,-169.24396,-11.279492)"
       cx="159.06903"
       cy="75.148918"
       fx="159.06903"
       fy="75.148918"
       r="4.265729" />
    <filter
       inkscape:collect="always"
       id="filter3877"
       x="-0.065207446"
       width="1.1304149"
       y="-0.10723639"
       height="1.2144728">
      <feGaussianBlur
         inkscape:collect="always"
         stdDeviation="0.1496555"
         id="feGaussianBlur3879" />
    </filter>
    <linearGradient
       inkscape:collect="always"
       id="linearGradient3827">
      <stop
         style="stop-color:#ffffff;stop-opacity:1;"
         offset="0"
         id="stop3829" />
      <stop
         style="stop-color:#babdb6;stop-opacity:1"
         offset="1"
         id="stop3831" />
    </linearGradient>
    <radialGradient
       inkscape:collect="always"
       xlink:href="#linearGradient3827"
       id="radialGradient3888"
       gradientUnits="userSpaceOnUse"
       gradientTransform="matrix(2.0897854,0,0,1.27074,-163.98849,-20.884119)"
       cx="150.47778"
       cy="74.607712"
       fx="150.47778"
       fy="74.607712"
       r="2.7540812" />
    <linearGradient
       id="linearGradient2998">
      <stop
         id="stop3001"
         offset="0"
         style="stop-color:white;stop-opacity:0;" />
      <stop
         id="stop3007"
         offset="0.5"
         style="stop-color:white;stop-opacity:1;" />
      <stop
         id="stop3003"
         offset="1"
         style="stop-color:white;stop-opacity:0;" />
    </linearGradient>
    <linearGradient
       inkscape:collect="always"
       xlink:href="#linearGradient2998"
       id="linearGradient3135"
       gradientUnits="userSpaceOnUse"
       gradientTransform="matrix(0.696565,0,0,0.678339,565.12079,50.562781)"
       x1="44.331707"
       y1="22.49238"
       x2="46.908863"
       y2="22.693205" />
    <linearGradient
       id="linearGradient2996"
       inkscape:collect="always">
      <stop
         id="stop2998"
         offset="0"
         style="stop-color:white;stop-opacity:1;" />
      <stop
         id="stop3000"
         offset="1"
         style="stop-color:white;stop-opacity:0;" />
    </linearGradient>
    <linearGradient
       inkscape:collect="always"
       xlink:href="#linearGradient2996"
       id="linearGradient3131"
       gradientUnits="userSpaceOnUse"
       gradientTransform="matrix(0.696565,0,0,0.678339,565.58756,50.500281)"
       x1="25.5"
       y1="15.453269"
       x2="25.5"
       y2="-11.123589" />
    <linearGradient
       id="linearGradient3757">
      <stop
         style="stop-color:white;stop-opacity:1;"
         offset="0"
         id="stop3759" />
      <stop
         style="stop-color:white;stop-opacity:0"
         offset="1"
         id="stop3762" />
    </linearGradient>
    <linearGradient
       inkscape:collect="always"
       xlink:href="#linearGradient3757"
       id="linearGradient3129"
       gradientUnits="userSpaceOnUse"
       x1="82.031235"
       y1="12.556242"
       x2="82.906235"
       y2="5.2986693" />
    <linearGradient
       id="linearGradient3578">
      <stop
         id="stop3580"
         offset="0"
         style="stop-color:#babdb6;stop-opacity:1" />
      <stop
         style="stop-color:#ffffff;stop-opacity:1"
         offset="0.24543777"
         id="stop3582" />
      <stop
         id="stop3584"
         offset="0.43377894"
         style="stop-color:#babdb6;stop-opacity:1" />
      <stop
         style="stop-color:#eeeeec;stop-opacity:1"
         offset="0.54991657"
         id="stop3586" />
      <stop
         id="stop3588"
         offset="0.749084"
         style="stop-color:#888a85;stop-opacity:1" />
      <stop
         style="stop-color:#eeeeec;stop-opacity:1"
         offset="1"
         id="stop3590" />
      <stop
         id="stop3592"
         offset="1"
         style="stop-color:#babdb6;stop-opacity:1" />
    </linearGradient>
    <linearGradient
       inkscape:collect="always"
       xlink:href="#linearGradient3578"
       id="linearGradient3755"
       x1="601.25153"
       y1="70.951607"
       x2="570.57526"
       y2="40.400349"
       gradientUnits="userSpaceOnUse" />
    <linearGradient
       id="linearGradient3032"
       inkscape:collect="always">
      <stop
         id="stop3034"
         offset="0"
         style="stop-color:white;stop-opacity:1;" />
      <stop
         id="stop3036"
         offset="1"
         style="stop-color:white;stop-opacity:0;" />
    </linearGradient>
    <linearGradient
       inkscape:collect="always"
       xlink:href="#linearGradient3032"
       id="linearGradient3125"
       gradientUnits="userSpaceOnUse"
       x1="77.000015"
       y1="13.524997"
       x2="80.39064"
       y2="-5.0196266" />
    <linearGradient
       inkscape:collect="always"
       id="linearGradient3945">
      <stop
         style="stop-color:#000000;stop-opacity:1;"
         offset="0"
         id="stop3947" />
      <stop
         style="stop-color:#000000;stop-opacity:0;"
         offset="1"
         id="stop3949" />
    </linearGradient>
    <linearGradient
       inkscape:collect="always"
       xlink:href="#linearGradient3945"
       id="linearGradient3954"
       gradientUnits="userSpaceOnUse"
       x1="597.0542"
       y1="68.935089"
       x2="607.93378"
       y2="71.433823" />
    <linearGradient
       inkscape:collect="always"
       xlink:href="#linearGradient2982"
       id="linearGradient3123"
       gradientUnits="userSpaceOnUse"
       gradientTransform="matrix(0.696565,0,0,0.678339,565.58756,50.500282)"
       x1="18.738331"
       y1="15.695379"
       x2="44.680313"
       y2="22.499962" />
    <linearGradient
       inkscape:collect="always"
       xlink:href="#linearGradient2982"
       id="linearGradient3117"
       gradientUnits="userSpaceOnUse"
       gradientTransform="translate(-60,1.563613)"
       x1="61.933079"
       y1="31.25"
       x2="106.09679"
       y2="31.25" />
    <linearGradient
       id="linearGradient3116"
       inkscape:collect="always">
      <stop
         id="stop3118"
         offset="0"
         style="stop-color:white;stop-opacity:1;" />
      <stop
         id="stop3120"
         offset="1"
         style="stop-color:white;stop-opacity:0;" />
    </linearGradient>
    <linearGradient
       inkscape:collect="always"
       xlink:href="#linearGradient3116"
       id="linearGradient3121"
       gradientUnits="userSpaceOnUse"
       x1="75.875"
       y1="28.625"
       x2="77.632935"
       y2="35.888119" />
    <linearGradient
       inkscape:collect="always"
       xlink:href="#linearGradient2982"
       id="linearGradient3119"
       gradientUnits="userSpaceOnUse"
       gradientTransform="translate(-59.6776,-0.130301)"
       x1="62.3125"
       y1="40"
       x2="106.06924"
       y2="40" />
    <linearGradient
       inkscape:collect="always"
       id="linearGradient3919">
      <stop
         style="stop-color:#8bb0d8;stop-opacity:1"
         offset="0"
         id="stop3921" />
      <stop
         style="stop-color:#729fcf;stop-opacity:0;"
         offset="1"
         id="stop3923" />
    </linearGradient>
    <radialGradient
       inkscape:collect="always"
       xlink:href="#linearGradient3919"
       id="radialGradient3925"
       cx="19.694241"
       cy="33.176533"
       fx="19.694241"
       fy="33.176533"
       r="21.531441"
       gradientTransform="matrix(1.2496484,0,0,1.2727414,-4.9166362,-9.2689457)"
       gradientUnits="userSpaceOnUse" />
    <linearGradient
       id="linearGradient6250">
      <stop
         style="stop-color:#555753;stop-opacity:1;"
         offset="0"
         id="stop6252" />
      <stop
         style="stop-color:#8e9ba8;stop-opacity:1"
         offset="0.32630172"
         id="stop6254" />
      <stop
         style="stop-color:#495867;stop-opacity:1;"
         offset="0.53018188"
         id="stop6256" />
      <stop
         style="stop-color:#32495e;stop-opacity:1;"
         offset="0.8991462"
         id="stop6258" />
      <stop
         style="stop-color:#3e3f3d;stop-opacity:1;"
         offset="1"
         id="stop6260" />
    </linearGradient>
    <linearGradient
       inkscape:collect="always"
       xlink:href="#linearGradient6250"
       id="linearGradient3114"
       gradientUnits="userSpaceOnUse"
       gradientTransform="translate(-60,0)"
       x1="63.5"
       y1="29.4375"
       x2="104.79548"
       y2="29.4375" />
    <linearGradient
       id="linearGradient2992"
       inkscape:collect="always">
      <stop
         id="stop2994"
         offset="0"
         style="stop-color:black;stop-opacity:1;" />
      <stop
         id="stop2996"
         offset="1"
         style="stop-color:black;stop-opacity:0;" />
    </linearGradient>
    <radialGradient
       inkscape:collect="always"
       xlink:href="#linearGradient2992"
       id="radialGradient3112"
       gradientUnits="userSpaceOnUse"
       gradientTransform="matrix(0.696565,0,0,0.318481,565.58756,54.098861)"
       cx="25.546875"
       cy="10"
       fx="25.546875"
       fy="10"
       r="8.453125" />
    <linearGradient
       id="linearGradient2982">
      <stop
         id="stop2984"
         offset="0"
         style="stop-color:black;stop-opacity:0;" />
      <stop
         id="stop2990"
         offset="0.0547975"
         style="stop-color:black;stop-opacity:1;" />
      <stop
         id="stop2992"
         offset="0.90963858"
         style="stop-color:black;stop-opacity:1;" />
      <stop
         id="stop2986"
         offset="1"
         style="stop-color:black;stop-opacity:0;" />
    </linearGradient>
    <linearGradient
       inkscape:collect="always"
       xlink:href="#linearGradient2982"
       id="linearGradient3110"
       gradientUnits="userSpaceOnUse"
       gradientTransform="matrix(0.696565,0,0,0.678339,565.58756,48.821944)"
       x1="18.738331"
       y1="16.695379"
       x2="44.680313"
       y2="23.499962" />
    <linearGradient
       id="linearGradient6593">
      <stop
         id="stop6595"
         offset="0"
         style="stop-color:#2e3436;stop-opacity:1;" />
      <stop
         id="stop6601"
         offset="0.5"
         style="stop-color:#424a4d;stop-opacity:1;" />
      <stop
         id="stop6597"
         offset="1"
         style="stop-color:#2e3436;stop-opacity:1;" />
    </linearGradient>
    <linearGradient
       inkscape:collect="always"
       xlink:href="#linearGradient6593"
       id="linearGradient3108"
       gradientUnits="userSpaceOnUse"
       x1="26.641592"
       y1="8.5011101"
       x2="24.358414"
       y2="10.498891" />
    <linearGradient
       inkscape:collect="always"
       id="linearGradient3934">
      <stop
         style="stop-color:#000000;stop-opacity:1"
         offset="0"
         id="stop3936" />
      <stop
         style="stop-color:#2e3436;stop-opacity:1"
         offset="1"
         id="stop3938" />
    </linearGradient>
    <linearGradient
       inkscape:collect="always"
       xlink:href="#linearGradient3934"
       id="linearGradient3941"
       gradientUnits="userSpaceOnUse"
       gradientTransform="matrix(0.681637,0,0,0.678339,525.02989,50.500282)"
       x1="95.13501"
       y1="29.287407"
       x2="115.23396"
       y2="33.978249" />
    <linearGradient
       id="linearGradient3093">
      <stop
         id="stop3095"
         offset="0"
         style="stop-color:#555753;stop-opacity:1;" />
      <stop
         id="stop2022"
         offset="0.72289157"
         style="stop-color:#888a85;stop-opacity:1;" />
      <stop
         id="stop3097"
         offset="1"
         style="stop-color:#71736e;stop-opacity:1;" />
    </linearGradient>
    <linearGradient
       inkscape:collect="always"
       xlink:href="#linearGradient3093"
       id="linearGradient3104"
       gradientUnits="userSpaceOnUse"
       gradientTransform="matrix(0.681637,0,0,0.678339,525.02989,50.500282)"
       x1="91.339241"
       y1="19.333946"
       x2="105.30366"
       y2="19.333946" />
    <linearGradient
       id="linearGradient3101">
      <stop
         id="stop3103"
         offset="0"
         style="stop-color:#2e3436;stop-opacity:1;" />
      <stop
         id="stop3109"
         offset="0.12824793"
         style="stop-color:#555753;stop-opacity:1;" />
      <stop
         id="stop3111"
         offset="0.56024098"
         style="stop-color:#555753;stop-opacity:1;" />
      <stop
         id="stop3105"
         offset="1"
         style="stop-color:#2e3436;stop-opacity:1" />
    </linearGradient>
    <linearGradient
       inkscape:collect="always"
       xlink:href="#linearGradient3101"
       id="linearGradient3102"
       gradientUnits="userSpaceOnUse"
       gradientTransform="matrix(0.696565,0,0,0.678339,523.79366,50.500282)"
       x1="76.937096"
       y1="15.875"
       x2="93.063683"
       y2="15.875" />
    <linearGradient
       id="linearGradient3010">
      <stop
         id="stop3012"
         offset="0"
         style="stop-color:white;stop-opacity:1;" />
      <stop
         id="stop3014"
         offset="1"
         style="stop-color:white;stop-opacity:0.4269006;" />
    </linearGradient>
    <linearGradient
       inkscape:collect="always"
       xlink:href="#linearGradient3010"
       id="linearGradient3100"
       gradientUnits="userSpaceOnUse"
       x1="80.992172"
       y1="15.317177"
       x2="84.55397"
       y2="5.7076802" />
    <linearGradient
       id="linearGradient3002">
      <stop
         id="stop3004"
         offset="0"
         style="stop-color:#babdb6;stop-opacity:1" />
      <stop
         id="stop3006"
         offset="1"
         style="stop-color:#2e3436;stop-opacity:1" />
    </linearGradient>
    <radialGradient
       inkscape:collect="always"
       xlink:href="#linearGradient3002"
       id="radialGradient3097"
       gradientUnits="userSpaceOnUse"
       gradientTransform="matrix(2.03989,0,0,1.032958,-64.86939,-4.409191)"
       cx="13.171977"
       cy="21.697666"
       fx="13.171977"
       fy="21.697666"
       r="17.503584" />
    <filter
       inkscape:collect="always"
       id="filter3926">
      <feGaussianBlur
         inkscape:collect="always"
         stdDeviation="0.68092334"
         id="feGaussianBlur3928" />
    </filter>
    <inkscape:perspective
       sodipodi:type="inkscape:persp3d"
       inkscape:vp_x="0 : 24 : 1"
       inkscape:vp_y="0 : 1000 : 0"
       inkscape:vp_z="48 : 24 : 1"
       inkscape:persp3d-origin="24 : 16 : 1"
       id="perspective8455" />
  </defs>
  <sodipodi:namedview
     id="base"
     pagecolor="#ffffff"
     bordercolor="#666666"
     borderopacity="1.0"
     inkscape:pageopacity="0.0"
     inkscape:pageshadow="2"
     inkscape:zoom="9.87"
     inkscape:cx="10.056738"
     inkscape:cy="18.49848"
     inkscape:current-layer="layer1"
     showgrid="true"
     inkscape:grid-bbox="true"
     inkscape:document-units="px">
    <inkscape:grid
       type="xygrid"
       id="grid8602" />
  </sodipodi:namedview>
  <metadata
     id="metadata8452">
    <rdf:RDF>
      <cc:Work
         rdf:about="">
        <dc:format>image/svg+xml</dc:format>
        <dc:type
           rdf:resource="http://purl.org/dc/dcmitype/StillImage" />
      </cc:Work>
    </rdf:RDF>
  </metadata>
  <g
     id="layer1"
     inkscape:label="Layer 1"
     inkscape:groupmode="layer">
    <g
       style="display:inline;enable-background:new"
       id="g8405"
       transform="translate(-296.03127,-47.993408)">
      <path
         transform="matrix(0.976118,0,0,0.976118,345.41488,57.4418)"
         d="M -26.96875,1.1875 C -30.425552,1.4078495 -33.658798,2.0984174 -36.3125,3.15625 C -38.966202,4.2140826 -41.06358,5.6357813 -42.15625,7.5 C -42.884827,8.7430341 -43.038008,10.094297 -42.65625,11.34375 C -42.274492,12.593203 -41.40478,13.726009 -40.1875,14.6875 C -37.752939,16.610481 -33.902467,18.008542 -29.125,18.59375 C -24.347024,19.17902 -19.533301,18.8058 -15.53125,17.75 C -11.529199,16.6942 -8.3012653,14.986685 -6.84375,12.5 C -6.1151735,11.256966 -5.961992,9.9057028 -6.34375,8.65625 C -6.725508,7.4067972 -7.5952196,6.2739909 -8.8125,5.3125 C -11.247061,3.3895182 -15.097533,1.991458 -19.875,1.40625 C -22.2591,1.1142134 -24.659451,1.0402967 -26.96875,1.1875 z M -25.75,3.8125 C -25.736003,3.8127083 -25.73267,3.8122924 -25.71875,3.8125 C -24.841025,3.8255923 -24.18719,3.8485797 -23.75,3.875 L -25.3125,6.5625 C -25.317246,6.5642947 -25.338383,6.5606076 -25.34375,6.5625 C -25.417316,6.5884373 -25.580286,6.6235167 -25.75,6.65625 C -26.274307,6.6956171 -26.630384,6.6537885 -26.625,6.65625 L -31.0625,4.59375 C -30.764484,4.4989166 -30.742663,4.4656173 -30.3125,4.34375 C -30.29317,4.3397162 -30.269367,4.3477405 -30.25,4.34375 C -28.836525,4.0525085 -27.339929,3.8767138 -25.75,3.8125 z M -18.96875,4.46875 C -18.90746,4.4717785 -18.912116,4.4576174 -18.8125,4.46875 C -18.417134,4.5129363 -17.631858,4.6455183 -16.4375,4.9375 C -15.183277,5.3412504 -14.098462,5.8117745 -13.25,6.34375 C -13.222921,6.3607279 -13.182816,6.3892011 -13.15625,6.40625 C -13.08227,6.4715861 -13.125725,6.472024 -13.0625,6.53125 L -20.125,7.40625 C -20.237895,7.4200793 -20.460746,7.3494339 -20.625,7.3125 L -18.96875,4.46875 z M -35.5,6.40625 L -30.5,8.6875 L -37.9375,9.5625 C -37.95709,9.5068279 -37.989839,9.3467073 -38.03125,8.96875 C -37.97173,8.7350087 -37.89813,8.5027246 -37.75,8.25 C -37.5746,7.9507485 -37.332856,7.6730473 -37.03125,7.375 C -35.859879,6.545935 -35.325664,6.4622752 -35.5,6.4375 C -35.459991,6.4431858 -35.382358,6.4471502 -35.5,6.40625 z M -11.0625,9.5 C -11.031238,9.5952373 -11.00113,9.7662883 -10.96875,10.09375 C -11.028271,10.327495 -11.101871,10.559777 -11.25,10.8125 C -11.425399,11.111751 -11.667144,11.389452 -11.96875,11.6875 C -12.660166,12.188465 -13.136172,12.463251 -13.375,12.5625 C -13.630069,12.668498 -13.555438,12.636976 -13.5,12.65625 L -18.5,10.375 L -11.0625,9.5 z M -28.875,11.65625 C -28.803063,11.647438 -28.663471,11.628405 -28.5,11.65625 C -28.463684,11.662436 -28.390781,11.705609 -28.34375,11.71875 L -30.0625,14.625 C -30.096678,14.622954 -30.081339,14.629532 -30.125,14.625 C -30.517953,14.584211 -31.269547,14.441084 -32.5625,14.125 C -33.81672,13.721253 -34.901535,13.250726 -35.75,12.71875 C -35.77345,12.698939 -35.758707,12.706888 -35.78125,12.6875 C -35.798137,12.676821 -35.827066,12.666957 -35.84375,12.65625 C -35.91773,12.590914 -35.874276,12.590476 -35.9375,12.53125 L -28.875,11.65625 z M -23.1875,12.40625 C -22.959461,12.391114 -22.734157,12.393847 -22.59375,12.40625 C -22.372396,12.425803 -22.294666,12.442976 -22.375,12.40625 L -17.9375,14.46875 C -18.235516,14.563584 -18.257337,14.596883 -18.6875,14.71875 C -18.719897,14.727928 -18.716823,14.709426 -18.75,14.71875 C -20.163476,15.009991 -21.660074,15.185788 -23.25,15.25 C -23.267056,15.249746 -23.264364,15.250262 -23.28125,15.25 C -24.347398,15.233431 -24.788833,15.194766 -25.25,15.15625 L -23.6875,12.5 L -23.65625,12.5 C -23.566476,12.470587 -23.397613,12.442533 -23.1875,12.40625 z"
         id="path3918"
         style="opacity:0.5;fill:#000000;fill-opacity:1;fill-rule:nonzero;stroke:none;stroke-width:0.69588834;stroke-linecap:round;stroke-linejoin:round;marker:none;marker-start:none;marker-mid:none;marker-end:none;stroke-miterlimit:4;stroke-dasharray:none;stroke-dashoffset:1.20000057;stroke-opacity:1;visibility:visible;display:inline;overflow:visible;filter:url(#filter3926);enable-background:new"
         inkscape:original="M -26.90625 2.0625 C -33.660458 2.4930385 -39.531106 4.7382925 -41.40625 7.9375 C -43.906443 12.203112 -38.362091 16.575783 -29.03125 17.71875 C -19.700411 18.861716 -10.093944 16.328112 -7.59375 12.0625 C -5.0935578 7.7968891 -10.63791 3.424216 -19.96875 2.28125 C -22.30146 1.9955083 -24.654847 1.9189872 -26.90625 2.0625 z M -25.75 2.9375 C -24.769935 2.9520821 -23.982989 2.962906 -23.5 3 C -22.519465 3.075308 -22.374232 3.197501 -22.40625 3.3125 L -24.65625 7.125 C -24.768345 7.3162479 -25.136486 7.43923 -25.6875 7.53125 C -26.245858 7.5731738 -26.700928 7.574222 -27 7.4375 L -33.09375 4.625 C -33.327335 4.4845889 -33.169307 4.250171 -30.5 3.5 C -29.006903 3.1884181 -27.416185 3.003144 -25.75 2.9375 z M -18.71875 3.59375 C -18.251349 3.645987 -17.434556 3.796525 -16.21875 4.09375 C -14.847588 4.5314491 -13.639775 5.076377 -12.6875 5.6875 C -11.196294 6.9473072 -11.331637 7.181793 -11.6875 7.25 L -20.03125 8.28125 C -20.465937 8.3344978 -20.904682 8.2174 -21.375 8.03125 C -21.704454 7.8402818 -21.855089 7.679294 -21.75 7.5 L -19.5 3.65625 C -19.42156 3.5707199 -19.258651 3.533413 -18.71875 3.59375 z M -35.375 5.5625 C -35.326363 5.5694119 -35.259119 5.579715 -35.21875 5.59375 L -29.09375 8.375 C -28.790738 8.5135212 -28.778122 8.739875 -28.875 9 C -29.075608 9.2474192 -29.336079 9.418047 -29.75 9.46875 L -38.09375 10.46875 C -38.472955 10.490817 -38.844005 10.332043 -38.9375 8.9375 C -38.86349 8.5638588 -38.719599 8.187159 -38.5 7.8125 C -38.280402 7.437841 -38.000815 7.0905 -37.65625 6.75 C -36.263137 5.7210622 -35.692939 5.517317 -35.375 5.5625 z M -10.90625 8.59375 C -10.855938 8.5908221 -10.799679 8.588619 -10.75 8.59375 C -10.425238 8.6272929 -10.14359 8.915482 -10.0625 10.125 C -10.136512 10.498641 -10.280401 10.875341 -10.5 11.25 C -10.719598 11.62466 -10.999185 11.972 -11.34375 12.3125 C -12.949969 13.498838 -13.476983 13.574536 -13.78125 13.46875 L -19.90625 10.6875 C -20.19336 10.556248 -20.232698 10.334438 -20.15625 10.09375 C -20.146086 10.080302 -20.135527 10.075484 -20.125 10.0625 C -20.119915 10.048849 -20.099657 10.04522 -20.09375 10.03125 C -19.896706 9.8053339 -19.642199 9.641792 -19.25 9.59375 L -10.90625 8.59375 z M -28.96875 10.78125 C -28.764479 10.756228 -28.548848 10.777564 -28.34375 10.8125 C -28.138652 10.847437 -27.9376 10.918032 -27.71875 11 C -27.342202 11.20564 -27.137904 11.371253 -27.25 11.5625 L -29.5 15.40625 C -29.646347 15.565825 -30.161056 15.609301 -32.78125 14.96875 C -34.152411 14.531054 -35.360224 13.986122 -36.3125 13.375 C -37.803703 12.115193 -37.668362 11.880705 -37.3125 11.8125 L -28.96875 10.78125 z M -23.25 11.53125 C -22.986752 11.513777 -22.735444 11.513213 -22.53125 11.53125 C -22.327054 11.549287 -22.143554 11.559373 -22 11.625 L -15.90625 14.4375 C -15.672662 14.577908 -15.830691 14.812328 -18.5 15.5625 C -19.993096 15.874081 -21.583816 16.059358 -23.25 16.125 C -26.219743 16.080819 -26.641542 15.921647 -26.59375 15.75 L -24.34375 11.9375 C -24.227344 11.738896 -23.837226 11.624361 -23.25 11.53125 z "
         inkscape:radius="0.86836529"
         sodipodi:type="inkscape:offset" />
      <g
         transform="translate(-270,0)"
         id="g3064">
        <path
           style="fill:none;fill-opacity:1;fill-rule:nonzero;stroke:#888a85;stroke-width:2;stroke-linecap:round;stroke-linejoin:round;marker:none;marker-start:none;marker-mid:none;marker-end:none;stroke-miterlimit:4;stroke-dasharray:none;stroke-dashoffset:1.20000057;stroke-opacity:1;visibility:visible;display:inline;overflow:visible"
           sodipodi:nodetypes="cccccccccccccccccccccccccsccccscccsssccccccccccccccccccccc"
           id="path2995"
           d="M 592.51353,53.069333 C 593.49407,53.144641 593.62572,53.264127 593.5937,53.379126 L 591.3533,57.201505 C 591.2412,57.392753 590.85851,57.513819 590.30749,57.605839 C 589.74914,57.647763 589.31452,57.628665 589.01545,57.491943 L 582.89525,54.686457 C 582.66167,54.546046 582.8216,54.319954 585.49091,53.569783 C 586.98401,53.258201 588.59097,53.065644 590.25715,53 C 591.23722,53.014582 592.03054,53.032239 592.51353,53.069333 z M 597.28279,53.653536 C 597.75019,53.705773 598.57986,53.871181 599.79567,54.168406 C 601.16683,54.606105 602.34789,55.140176 603.30017,55.751299 C 604.79137,57.011106 604.68259,57.243464 604.32673,57.311671 L 595.95804,58.342364 C 595.52336,58.395612 595.11047,58.293131 594.64015,58.106981 C 594.3107,57.916013 594.14598,57.735758 594.25107,57.556464 L 596.49147,53.734084 C 596.56991,53.648554 596.74289,53.593199 597.28279,53.653536 z M 580.62413,55.635824 C 580.67276,55.642736 580.72659,55.654075 580.76696,55.66811 L 586.89525,58.459797 C 587.19826,58.598318 587.22003,58.804396 587.12315,59.064521 C 586.92254,59.31194 586.6783,59.485432 586.26438,59.536135 L 577.90378,60.553029 C 577.52457,60.575096 577.15991,60.395586 577.06641,59.001043 C 577.14042,58.627402 577.27448,58.259682 577.49408,57.885023 C 577.71367,57.510364 577.99977,57.161268 578.34433,56.820768 C 579.73744,55.79183 580.30619,55.590641 580.62413,55.635824 z M 605.25523,58.652972 C 605.58,58.686515 605.8525,58.990752 605.93359,60.20027 C 605.85958,60.573911 605.72552,60.941631 605.50592,61.31629 C 605.28633,61.69095 605.00023,62.040045 604.65567,62.380545 C 603.04945,63.566883 602.5373,63.638989 602.23304,63.533203 L 596.10475,60.741516 C 595.81764,60.610264 595.77614,60.418878 595.85259,60.17819 C 595.86275,60.164742 595.86632,60.149776 595.87685,60.136792 C 595.88193,60.123141 595.89521,60.109364 595.90112,60.095394 C 596.09816,59.869478 596.34342,59.71322 596.73562,59.665178 L 605.09622,58.648284 C 605.14653,58.645356 605.20556,58.647841 605.25523,58.652972 z M 587.64783,60.874004 C 587.85293,60.908941 588.06662,60.973673 588.28547,61.055641 C 588.66202,61.261281 588.86102,61.453602 588.74893,61.644849 L 586.50853,65.467229 C 586.36218,65.626804 585.82453,65.673458 583.20433,65.032907 C 581.83317,64.595211 580.65211,64.061136 579.69983,63.450014 C 578.20863,62.190207 578.31741,61.957847 578.67327,61.889642 L 587.04196,60.858949 C 587.24623,60.833927 587.44273,60.839068 587.64783,60.874004 z M 593.47357,61.587619 C 593.67776,61.605656 593.84099,61.643744 593.98455,61.709371 L 600.10475,64.514857 C 600.33834,64.655265 600.1784,64.881358 597.50909,65.63153 C 596.01599,65.943111 594.40903,66.135671 592.74285,66.201313 C 589.77311,66.157133 589.35851,65.993835 589.4063,65.822188 L 591.6467,61.999808 C 591.76311,61.801204 592.17374,61.68218 592.76096,61.589069 C 593.02421,61.571596 593.26937,61.569582 593.47357,61.587619 z" />
        <g
           transform="matrix(0.976118,0,0,0.976118,615.41488,56.4418)"
           id="g3901">
          <path
             style="opacity:1;fill:none;fill-opacity:1;fill-rule:nonzero;stroke:#2e3436;stroke-width:2.04893351;stroke-linecap:round;stroke-linejoin:round;marker:none;marker-start:none;marker-mid:none;marker-end:none;stroke-miterlimit:4;stroke-dasharray:none;stroke-dashoffset:1.20000057;stroke-opacity:1;visibility:visible;display:inline;overflow:visible"
             sodipodi:nodetypes="cccccccccccccccccccccccccsccccscccsssccccccccccccccccccccc"
             id="path2984"
             d="M -23.486468,3.069333 C -22.505932,3.144641 -22.374285,3.264127 -22.406303,3.379126 L -24.646705,7.201505 C -24.758801,7.392753 -25.141492,7.513819 -25.692506,7.605839 C -26.250865,7.647763 -26.685476,7.628665 -26.984548,7.491943 L -33.104747,4.686457 C -33.338333,4.546046 -33.178398,4.319954 -30.509091,3.569783 C -29.015993,3.258201 -27.409034,3.065644 -25.742849,3 C -24.762784,3.014582 -23.969457,3.032239 -23.486468,3.069333 z M -18.717209,3.653536 C -18.249808,3.705773 -17.420138,3.871181 -16.204332,4.168406 C -14.83317,4.606105 -13.652108,5.140176 -12.699833,5.751299 C -11.208627,7.011106 -11.317405,7.243464 -11.673268,7.311671 L -20.041956,8.342364 C -20.476643,8.395612 -20.889531,8.293131 -21.359849,8.106981 C -21.689304,7.916013 -21.854017,7.735758 -21.748928,7.556464 L -19.508526,3.734084 C -19.430086,3.648554 -19.25711,3.593199 -18.717209,3.653536 z M -35.375873,5.635824 C -35.327237,5.642736 -35.273405,5.654075 -35.233036,5.66811 L -29.104749,8.459797 C -28.801738,8.598318 -28.779973,8.804396 -28.876851,9.064521 C -29.077458,9.31194 -29.321699,9.485432 -29.73562,9.536135 L -38.096221,10.553029 C -38.475427,10.575096 -38.840093,10.395586 -38.933588,9.001043 C -38.859576,8.627402 -38.725523,8.259682 -38.505924,7.885023 C -38.286326,7.510364 -38.000234,7.161268 -37.655669,6.820768 C -36.262557,5.79183 -35.693812,5.590641 -35.375873,5.635824 z M -10.744765,8.652972 C -10.420003,8.686515 -10.147502,8.990752 -10.066412,10.20027 C -10.140424,10.573911 -10.274477,10.941631 -10.494076,11.31629 C -10.713674,11.69095 -10.999766,12.040045 -11.344331,12.380545 C -12.95055,13.566883 -13.462697,13.638989 -13.766964,13.533203 L -19.895251,10.741516 C -20.18236,10.610264 -20.223861,10.418878 -20.147413,10.17819 C -20.137249,10.164742 -20.133676,10.149776 -20.123149,10.136792 C -20.118065,10.123141 -20.104791,10.109364 -20.098884,10.095394 C -19.901841,9.869478 -19.656579,9.71322 -19.26438,9.665178 L -10.903779,8.648284 C -10.853467,8.645356 -10.794444,8.647841 -10.744765,8.652972 z M -28.352173,10.874004 C -28.147075,10.908941 -27.93338,10.973673 -27.71453,11.055641 C -27.337983,11.261281 -27.138976,11.453602 -27.251072,11.644849 L -29.491474,15.467229 C -29.637821,15.626804 -30.175474,15.673458 -32.795668,15.032907 C -34.166831,14.595211 -35.347891,14.061136 -36.300167,13.450014 C -37.79137,12.190207 -37.682594,11.957847 -37.326732,11.889642 L -28.958044,10.858949 C -28.753773,10.833927 -28.557271,10.839068 -28.352173,10.874004 z M -22.526433,11.587619 C -22.322238,11.605656 -22.159006,11.643744 -22.015452,11.709371 L -15.895253,14.514857 C -15.661665,14.655265 -15.8216,14.881358 -18.490909,15.63153 C -19.984006,15.943111 -21.590967,16.135671 -23.257151,16.201313 C -26.226894,16.157133 -26.641489,15.993835 -26.593697,15.822188 L -24.353295,11.999808 C -24.236888,11.801204 -23.826261,11.68218 -23.239035,11.589069 C -22.975787,11.571596 -22.730627,11.569582 -22.526433,11.587619 z" />
          <path
             style="opacity:1;fill:url(#radialGradient3097);fill-opacity:1;fill-rule:nonzero;stroke:none;stroke-width:0.69588834;stroke-linecap:round;stroke-linejoin:round;marker:none;marker-start:none;marker-mid:none;marker-end:none;stroke-miterlimit:4;stroke-dasharray:none;stroke-dashoffset:1.20000057;stroke-opacity:1;visibility:visible;display:inline;overflow:visible"
             sodipodi:nodetypes="csssccccccccccccccccccccccccccsccccscccsssccccccccccccccccccccc"
             id="path2998"
             d="M -19.970667,2.274237 C -29.301506,1.13127 -38.90351,3.665589 -41.403702,7.931199 C -43.903895,12.196811 -38.360174,16.58638 -29.029333,17.729347 C -19.698494,18.872313 -10.096492,16.337996 -7.596298,12.072384 C -5.096106,7.806773 -10.639827,3.417203 -19.970667,2.274237 z M -23.486468,3 C -22.505932,3.075308 -22.374285,3.194794 -22.406303,3.309793 L -24.646705,7.132172 C -24.758801,7.32342 -25.141492,7.444486 -25.692506,7.536506 C -26.250865,7.57843 -26.685476,7.559332 -26.984548,7.42261 L -33.104747,4.617124 C -33.338333,4.476713 -33.178398,4.250621 -30.509091,3.50045 C -29.015993,3.188868 -27.409034,2.996311 -25.742849,2.930667 C -24.762784,2.945249 -23.969457,2.962906 -23.486468,3 z M -18.717209,3.584203 C -18.249808,3.63644 -17.420138,3.801848 -16.204332,4.099073 C -14.83317,4.536772 -13.652108,5.070843 -12.699833,5.681966 C -11.208627,6.941773 -11.317405,7.174131 -11.673268,7.242338 L -20.041956,8.273031 C -20.476643,8.326279 -20.889531,8.223798 -21.359849,8.037648 C -21.689304,7.84668 -21.854017,7.666425 -21.748928,7.487131 L -19.508526,3.664751 C -19.430086,3.579221 -19.25711,3.523866 -18.717209,3.584203 z M -35.375873,5.566491 C -35.327237,5.573403 -35.273405,5.584742 -35.233036,5.598777 L -29.104749,8.390464 C -28.801738,8.528985 -28.779973,8.735063 -28.876851,8.995188 C -29.077458,9.242607 -29.321699,9.416099 -29.73562,9.466802 L -38.096221,10.483696 C -38.475427,10.505763 -38.840093,10.326253 -38.933588,8.93171 C -38.859576,8.558069 -38.725523,8.190349 -38.505924,7.81569 C -38.286326,7.441031 -38.000234,7.091935 -37.655669,6.751435 C -36.262557,5.722497 -35.693812,5.521308 -35.375873,5.566491 z M -10.744765,8.583639 C -10.420003,8.617182 -10.147502,8.921419 -10.066412,10.130937 C -10.140424,10.504578 -10.274477,10.872298 -10.494076,11.246957 C -10.713674,11.621617 -10.999766,11.970712 -11.344331,12.311212 C -12.95055,13.49755 -13.462697,13.569656 -13.766964,13.46387 L -19.895251,10.672183 C -20.18236,10.540931 -20.223861,10.349545 -20.147413,10.108857 C -20.137249,10.095409 -20.133676,10.080443 -20.123149,10.067459 C -20.118065,10.053808 -20.104791,10.040031 -20.098884,10.026061 C -19.901841,9.800145 -19.656579,9.643887 -19.26438,9.595845 L -10.903779,8.578951 C -10.853467,8.576023 -10.794444,8.578508 -10.744765,8.583639 z M -28.352173,10.804671 C -28.147075,10.839608 -27.93338,10.90434 -27.71453,10.986308 C -27.337983,11.191948 -27.138976,11.384269 -27.251072,11.575516 L -29.491474,15.397896 C -29.637821,15.557471 -30.175474,15.604125 -32.795668,14.963574 C -34.166831,14.525878 -35.347891,13.991803 -36.300167,13.380681 C -37.79137,12.120874 -37.682594,11.888514 -37.326732,11.820309 L -28.958044,10.789616 C -28.753773,10.764594 -28.557271,10.769735 -28.352173,10.804671 z M -22.526433,11.518286 C -22.322238,11.536323 -22.159006,11.574411 -22.015452,11.640038 L -15.895253,14.445524 C -15.661665,14.585932 -15.8216,14.812025 -18.490909,15.562197 C -19.984006,15.873778 -21.590967,16.066338 -23.257151,16.13198 C -26.226894,16.0878 -26.641489,15.924502 -26.593697,15.752855 L -24.353295,11.930475 C -24.236888,11.731871 -23.826261,11.612847 -23.239035,11.519736 C -22.975787,11.502263 -22.730627,11.500249 -22.526433,11.518286 z" />
          <path
             transform="matrix(1.210083,0,0,1.462367,-127.7352,-5.811834)"
             style="fill:none;fill-opacity:1;fill-rule:nonzero;stroke:#555753;stroke-width:0.77012676;stroke-linecap:round;stroke-linejoin:miter;marker:none;marker-start:none;marker-mid:none;marker-end:none;stroke-miterlimit:4;stroke-dasharray:none;stroke-dashoffset:1.20000057;stroke-opacity:1;visibility:visible;display:inline;overflow:visible"
             sodipodi:type="arc"
             sodipodi:ry="5.8125"
             sodipodi:rx="14.875"
             sodipodi:cy="10.8125"
             sodipodi:cx="85.3125"
             id="path2986"
             d="M 100.1875,10.8125 A 14.875,5.8125 0 1 1 70.4375,10.8125 A 14.875,5.8125 0 1 1 100.1875,10.8125 z" />
          <path
             transform="matrix(1.142856,0,0,1.290324,-121.9999,-3.951621)"
             style="opacity:0.5;fill:none;fill-opacity:1;fill-rule:nonzero;stroke:url(#linearGradient3100);stroke-width:0.84363157;stroke-linecap:round;stroke-linejoin:miter;marker:none;marker-start:none;marker-mid:none;marker-end:none;stroke-miterlimit:4;stroke-dasharray:none;stroke-dashoffset:1.20000057;stroke-opacity:1;visibility:visible;display:inline;overflow:visible"
             sodipodi:type="arc"
             sodipodi:ry="5.8125"
             sodipodi:rx="14.875"
             sodipodi:cy="10.8125"
             sodipodi:cx="85.3125"
             id="path2988"
             d="M 100.1875,10.8125 A 14.875,5.8125 0 1 1 70.4375,10.8125 A 14.875,5.8125 0 1 1 100.1875,10.8125 z" />
        </g>
        <path
           style="fill:url(#linearGradient3102);fill-opacity:1;fill-rule:nonzero;stroke:#000000;stroke-width:1;stroke-linecap:round;stroke-linejoin:round;marker:none;marker-start:none;marker-mid:none;marker-end:none;stroke-miterlimit:4;stroke-dasharray:none;stroke-dashoffset:1.20000057;stroke-opacity:1;visibility:visible;display:inline;overflow:visible"
           sodipodi:nodetypes="csssssc"
           id="path2003"
           d="M 591.5,55.5 C 586.53616,55.5 582.5,57.52016 582.5,60 L 582.5,66 C 582.5,68.47984 586.53616,70.5 591.5,70.5 C 596.46384,70.5 600.5,68.47984 600.5,66 L 600.5,60 C 600.5,57.52016 596.46385,55.5 591.5,55.5 z" />
        <path
           style="fill:url(#linearGradient3104);fill-opacity:1;stroke:url(#linearGradient3941);stroke-width:1.01100004;stroke-linecap:round;stroke-linejoin:miter;stroke-miterlimit:4;stroke-dasharray:none;stroke-dashoffset:0;stroke-opacity:1"
           sodipodi:nodetypes="czcczc"
           id="rect2953"
           d="M 588.81251,70.28125 L 607.60134,74.28125 C 612.85523,75.399764 612.49128,79.361359 612.49128,79.361359 L 612.49128,71.486359 C 612.49128,71.486359 612.1327,67.663667 607.60134,66.8125 L 590,63.506282" />
        <path
           transform="matrix(1,0,0,1.142857,566,49.142857)"
           style="fill:url(#linearGradient3108);fill-opacity:1;fill-rule:nonzero;stroke:none;stroke-width:2;stroke-linecap:square;stroke-linejoin:miter;marker:none;marker-start:none;marker-mid:none;marker-end:none;stroke-miterlimit:4;stroke-dasharray:none;stroke-dashoffset:1.4;stroke-opacity:1;visibility:visible;display:inline;overflow:visible"
           sodipodi:type="arc"
           sodipodi:ry="3.5"
           sodipodi:rx="8.5"
           sodipodi:cy="9.5"
           sodipodi:cx="25.5"
           id="path5706"
           d="M 34,9.5 A 8.5,3.5 0 1 1 17,9.5 A 8.5,3.5 0 1 1 34,9.5 z" />
        <path
           style="opacity:0.4;fill:none;fill-opacity:1;fill-rule:nonzero;stroke:url(#linearGradient3110);stroke-width:1;stroke-linecap:butt;stroke-linejoin:miter;marker:none;marker-start:none;marker-mid:none;marker-end:none;stroke-miterlimit:4;stroke-dasharray:1, 1;stroke-dashoffset:0.7;stroke-opacity:1;visibility:visible;display:inline;overflow:visible"
           sodipodi:nodetypes="cssccc"
           id="path3043"
           d="M 583.5625,65 C 583.5625,65.536843 583.92744,66.18169 584.875,66.8125 C 585.82256,67.44331 587.26461,67.980918 588.96875,68.25 C 588.98958,68.249384 589.01042,68.249384 589.03125,68.25 L 607.8125,72.25 C 609.42996,72.594345 610.69441,73.079834 611.5625,73.8125" />
        <path
           style="opacity:0.39849626;fill:url(#radialGradient3112);fill-opacity:1;fill-rule:nonzero;stroke:none;stroke-width:1.96992087;stroke-linecap:round;stroke-linejoin:round;marker:none;marker-start:none;marker-mid:none;marker-end:none;stroke-miterlimit:4;stroke-dasharray:none;stroke-dashoffset:1.20000057;stroke-opacity:1;visibility:visible;display:inline;overflow:visible"
           id="path3099"
           d="M 592.34375,56.03125 L 591.28125,57.84375 C 591.16915,58.034998 590.80101,58.15798 590.25,58.25 C 589.69164,58.291924 589.26782,58.292972 588.96875,58.15625 L 586.21875,56.90625 C 585.43547,57.201909 584.7392,57.530906 584.21875,57.9375 L 586.84375,59.125 C 587.14676,59.263521 587.15938,59.458625 587.0625,59.71875 C 586.86189,59.966169 586.63267,60.136797 586.21875,60.1875 L 583.09375,60.5625 C 583.23439,61.031002 583.54529,61.473239 584,61.875 L 586.96875,61.5 C 587.17302,61.474978 587.38865,61.496314 587.59375,61.53125 C 587.79885,61.566187 587.9999,61.636782 588.21875,61.71875 C 588.5953,61.92439 588.7996,62.121253 588.6875,62.3125 L 587.90625,63.625 C 588.8004,63.822195 589.78177,63.929355 590.8125,63.96875 L 591.59375,62.65625 C 591.71016,62.457646 592.10027,62.343111 592.6875,62.25 C 592.95075,62.232527 593.20206,62.231963 593.40625,62.25 C 593.61045,62.268037 593.79395,62.309373 593.9375,62.375 L 596.09375,63.34375 C 596.9318,63.088908 597.68043,62.779683 598.28125,62.40625 L 596.03125,61.40625 C 595.74414,61.274998 595.7048,61.084438 595.78125,60.84375 C 595.79141,60.830302 595.80197,60.794234 595.8125,60.78125 C 595.81759,60.767599 595.83784,60.76397 595.84375,60.75 C 596.04079,60.524084 596.2953,60.360542 596.6875,60.3125 L 600,59.90625 C 599.97667,59.434532 599.77946,58.980356 599.4375,58.5625 L 595.90625,59 C 595.47156,59.053248 595.06407,58.93615 594.59375,58.75 C 594.2643,58.559032 594.08241,58.398044 594.1875,58.21875 L 595.25,56.4375 C 594.35589,56.228955 593.3816,56.079945 592.34375,56.03125 z" />
        <path
           style="opacity:0.1;fill:none;fill-opacity:1;fill-rule:nonzero;stroke:#ffffff;stroke-width:1;stroke-linecap:round;stroke-linejoin:miter;marker:none;marker-start:none;marker-mid:none;marker-end:none;stroke-miterlimit:4;stroke-dasharray:none;stroke-dashoffset:1.20000057;stroke-opacity:1;visibility:visible;display:inline;overflow:visible"
           sodipodi:type="inkscape:offset"
           inkscape:radius="-1.0574123"
           inkscape:original="M 25.5 5.5 C 20.536155 5.5 16.5 7.52016 16.5 10 L 16.5 16 C 16.5 18.009253 19.166589 19.705564 22.8125 20.28125 L 41.59375 24.28125 C 46.847639 25.399764 46.5 29.375 46.5 29.375 L 46.5 21.5 C 46.5 21.5 46.14223 17.566861 41.59375 16.8125 L 34.5 15.625 L 34.5 10 C 34.5 7.52016 30.463848 5.5 25.5 5.5 z "
           id="path3030"
           d="M 25.5,6.5625 C 23.161524,6.5625 21.062537,7.0622517 19.625,7.78125 C 18.187463,8.5002483 17.5625,9.3337568 17.5625,10 L 17.5625,16 C 17.5625,16.536843 17.92744,17.18169 18.875,17.8125 C 19.82256,18.44331 21.26461,18.980918 22.96875,19.25 C 22.989579,19.249384 23.010421,19.249384 23.03125,19.25 L 41.8125,23.25 C 43.42996,23.594345 44.569406,24.236084 45.4375,24.96875 L 45.4375,21.59375 C 45.4375,21.59375 45.374858,20.869771 44.84375,20 C 44.312642,19.130229 43.392274,18.17313 41.40625,17.84375 L 34.3125,16.65625 C 33.810416,16.5683 33.442516,16.134704 33.4375,15.625 L 33.4375,10 C 33.4375,9.3337563 32.812537,8.5002482 31.375,7.78125 C 29.937463,7.0622518 27.838477,6.5625 25.5,6.5625 z"
           transform="translate(566,50)" />
        <path
           sodipodi:nodetypes="ccccccccccccccccccccccccccccccccccccccccccccccccccc"
           style="opacity:0.65;fill:#729fcf;fill-opacity:1;fill-rule:nonzero;stroke:none;stroke-width:2;stroke-linecap:square;stroke-linejoin:miter;marker:none;stroke-miterlimit:4;stroke-dashoffset:1.20000057;stroke-opacity:1;visibility:visible;display:inline;overflow:visible"
           id="path3071"
           d="M 584,63.5625 L 584,66.59375 L 586,67.388393 L 586,64.513393 C 585.1598,64.154063 584.46981,63.831888 584,63.5625 z M 587,64.910714 L 587,67.785714 L 589,68.580357 L 589,65.549107 C 588.44547,65.435722 587.73377,65.191765 587,64.910714 z M 590,65.790179 L 590,68.821429 L 592,69.272321 L 592,66.241071 L 590,65.790179 z M 593,66.450893 L 593,69.482143 L 595,69.933036 L 595,66.901786 L 593,66.450893 z M 596,67.142857 L 596,70.174107 L 598,70.625 L 598,67.59375 L 596,67.142857 z M 599,67.803571 L 599,70.834821 L 601,71.285714 L 601,68.285714 L 599,67.803571 z M 602,68.495536 L 602,71.526786 L 604,71.977679 L 604,68.946429 L 602,68.495536 z M 605,69.1875 L 605,72.1875 L 607,72.638393 L 607,69.638393 L 605,69.1875 z M 608,69.848214 L 608,72.910714 C 608.81726,73.14625 609.45629,73.453108 610,73.861607 L 610,70.580357 C 609.40337,70.283513 608.74774,70.024092 608,69.848214 z M 611,71.165179 L 611,74.758929 L 611.4375,75.206194 L 612,73.46875 L 612,73 C 611.6899,72.697729 611.36,71.416746 611,71.165179 z" />
        <g
           id="g3035"
           transform="translate(566,50)">
          <path
             style="opacity:1;fill:url(#linearGradient3114);fill-opacity:1;stroke:#2e3436;stroke-width:0.99999952;stroke-linecap:butt;stroke-linejoin:miter;stroke-miterlimit:4;stroke-dashoffset:0;stroke-opacity:1"
             sodipodi:nodetypes="cczcczccc"
             id="rect2949"
             d="M 1.50002,29.499973 C 1.50002,29.499973 3.532822,27.499973 8.506322,27.499973 L 31.512623,27.499973 C 44.18377,27.499973 46.50001,25.003118 46.50001,21.499973 C 46.50001,24.174151 46.50001,29.499986 46.50001,29.499986 C 46.50001,35.359796 44.22293,37.947515 31.512623,38.499986 L 8.506322,39.499986 C 3.847089,39.941928 1.50002,43.499986 1.50002,43.499986 L 1.50002,29.499973 z" />
          <path
             sodipodi:nodetypes="cccccccccccccccccccccccccccccccccccccccc"
             style="opacity:0.88127854;fill:url(#radialGradient3925);fill-opacity:1;stroke:none;stroke-width:0.99999952;stroke-linecap:butt;stroke-linejoin:miter;stroke-miterlimit:4;stroke-dashoffset:0;stroke-opacity:1"
             id="path3004"
             d="M 45.0625,27.71875 C 44.37308,28.200323 43.74836,28.777176 42,29.21875 L 42,34.4375 C 45.16645,33.177079 45.06242,31.62266 45.0625,31.59375 L 45.0625,27.71875 z M 41,29.40625 C 40.20657,29.55277 39.21189,29.683386 38,29.78125 L 38,35.46875 C 39.187273,35.27185 40.17881,35.037517 41,34.78125 L 41,29.40625 z M 37,30 L 32,30.03125 L 32,36.1875 L 37,35.721891 L 37,30 z M 31,30.03125 L 26,30.0625 L 26,36.375 L 31,36.21875 L 31,30.03125 z M 25,30.09375 L 20,30.125 L 20,36.59375 L 25,36.4375 L 25,30.09375 z M 19,30.125 L 14,30.15625 L 14,36.78125 L 19,36.625 L 19,30.125 z M 13,30.15625 L 8,30.1875 L 8,37.03125 L 13,36.8125 L 13,30.15625 z M 7,30.25 C 5.871329,30.386685 4,31 3,32.125 L 3,39.375 C 4,38 6.054189,37.456108 7,37.21875 L 7,30.25 z" />
          <path
             style="opacity:0.6;fill:none;fill-opacity:1;stroke:url(#linearGradient3119);stroke-width:1;stroke-linecap:butt;stroke-linejoin:miter;stroke-miterlimit:4;stroke-dasharray:1, 1;stroke-dashoffset:0.9;stroke-opacity:1"
             sodipodi:nodetypes="czcc"
             id="path2980"
             d="M 46.56251,25.968736 C 46.56251,31.828546 45.929768,36.304659 31.512623,36.765151 L 8.506322,37.499986 C 3.847089,37.941928 1.50002,41.499986 1.50002,41.499986" />
          <path
             transform="translate(-60,0)"
             style="opacity:0.2;fill:none;fill-opacity:1;stroke:url(#linearGradient3121);stroke-width:0.99999952;stroke-linecap:butt;stroke-linejoin:miter;stroke-miterlimit:4;stroke-dashoffset:0;stroke-opacity:1"
             sodipodi:type="inkscape:offset"
             inkscape:radius="-1"
             inkscape:original="M 106.5 21.5 C 106.5 25.003145 104.17114 27.5 91.5 27.5 L 68.5 27.5 C 63.5265 27.5 61.500001 29.5 61.5 29.5 L 61.5 43.5 C 61.5 43.5 63.840764 39.941943 68.5 39.5 L 91.5 38.5 C 104.21031 37.947529 106.5 35.359809 106.5 29.5 C 106.5 29.5 106.5 24.174178 106.5 21.5 z "
             id="path3065"
             d="M 105.5,25.8125 C 105.11869,26.131585 104.70169,26.466625 104.1875,26.71875 C 101.75082,27.913525 97.901254,28.5 91.5,28.5 L 68.5,28.5 C 66.147294,28.5 64.53517,28.961373 63.53125,29.40625 C 62.760319,29.74788 62.632868,29.916333 62.5,30.03125 L 62.5,41.03125 C 63.789632,39.926876 65.68087,38.758511 68.40625,38.5 C 68.427078,38.499349 68.447922,38.499349 68.46875,38.5 L 91.46875,37.5 C 97.758835,37.226593 101.36312,36.399909 103.21875,35.15625 C 105.07438,33.912591 105.5,32.299656 105.5,29.5 C 105.5,29.5 105.5,27.294332 105.5,25.8125 z" />
          <path
             style="opacity:0.6;fill:none;fill-opacity:1;stroke:url(#linearGradient3117);stroke-width:1;stroke-linecap:butt;stroke-linejoin:miter;stroke-miterlimit:4;stroke-dasharray:1, 1;stroke-dashoffset:0.5;stroke-opacity:1"
             sodipodi:nodetypes="cczc"
             id="path2978"
             d="M 2.12502,31.874973 C 2.12502,31.874973 3.532822,29.499973 8.506322,29.499973 L 31.512623,29.499973 C 44.18377,29.499973 46.50001,27.003118 46.50001,23.499973" />
          <rect
             y="29.53125"
             x="2.0182304"
             width="0.96354169"
             style="opacity:1;fill:#888a85;fill-opacity:1;stroke:none;stroke-width:1.01100004;stroke-linecap:round;stroke-linejoin:miter;stroke-miterlimit:4;stroke-dasharray:none;stroke-dashoffset:0.9;stroke-opacity:1"
             ry="0.47940475"
             rx="0.42824069"
             id="rect3114"
             height="12.03125" />
        </g>
        <path
           style="opacity:0.4;fill:none;fill-opacity:1;fill-rule:nonzero;stroke:url(#linearGradient3123);stroke-width:1;stroke-linecap:butt;stroke-linejoin:miter;marker:none;marker-start:none;marker-mid:none;marker-end:none;stroke-miterlimit:4;stroke-dasharray:1, 1;stroke-dashoffset:1.4;stroke-opacity:1;visibility:visible;display:inline;overflow:visible"
           sodipodi:nodetypes="cczc"
           id="path3046"
           d="M 610.84375,71 C 610.31264,70.130229 609.39227,69.17313 607.40625,68.84375 L 600.3125,67.65625 C 594.13289,66.621777 583.50089,65.478056 583.50089,61.390758" />
        <path
           style="opacity:0.42857145;fill:url(#linearGradient3954);fill-opacity:1;stroke:none;stroke-width:1.01100004;stroke-linecap:round;stroke-linejoin:miter;stroke-miterlimit:4;stroke-dasharray:none;stroke-dashoffset:0;stroke-opacity:1;display:inline;enable-background:new"
           sodipodi:nodetypes="czcczc"
           id="path3943"
           d="M 588.81251,70.28125 L 607.60134,74.28125 C 612.85523,75.399764 612.49128,79.361359 612.49128,79.361359 L 612.49128,71.486359 C 612.49128,71.486359 612.1327,67.663667 607.60134,66.8125 L 590,63.506282" />
        <path
           transform="matrix(1.142857,0,0,1.290323,493.99999,46.04839)"
           style="fill:none;fill-opacity:1;fill-rule:nonzero;stroke:url(#linearGradient3125);stroke-width:0.82348335;stroke-linecap:round;stroke-linejoin:miter;marker:none;marker-start:none;marker-mid:none;marker-end:none;stroke-miterlimit:4;stroke-dasharray:none;stroke-dashoffset:1.20000057;stroke-opacity:1;visibility:visible;display:inline;overflow:visible"
           sodipodi:type="arc"
           sodipodi:ry="5.8125"
           sodipodi:rx="14.875"
           sodipodi:cy="10.8125"
           sodipodi:cx="85.3125"
           id="path2966"
           d="M 100.1875,10.8125 A 14.875,5.8125 0 1 1 70.4375,10.8125 A 14.875,5.8125 0 1 1 100.1875,10.8125 z" />
        <path
           transform="matrix(1.210083,0,0,1.462367,488.26481,44.188166)"
           style="fill:none;fill-opacity:1;fill-rule:nonzero;stroke:#888a85;stroke-width:0.75173426;stroke-linecap:round;stroke-linejoin:miter;marker:none;marker-start:none;marker-mid:none;marker-end:none;stroke-miterlimit:4;stroke-dasharray:none;stroke-dashoffset:1.20000057;stroke-opacity:1;visibility:visible;display:inline;overflow:visible"
           sodipodi:type="arc"
           sodipodi:ry="5.8125"
           sodipodi:rx="14.875"
           sodipodi:cy="10.8125"
           sodipodi:cx="85.3125"
           id="path3165"
           d="M 100.1875,10.8125 A 14.875,5.8125 0 1 1 70.4375,10.8125 A 14.875,5.8125 0 1 1 100.1875,10.8125 z" />
        <path
           style="fill:url(#linearGradient3755);fill-opacity:1;fill-rule:nonzero;stroke:none;stroke-width:0.69588834;stroke-linecap:round;stroke-linejoin:round;marker:none;marker-start:none;marker-mid:none;marker-end:none;stroke-miterlimit:4;stroke-dasharray:none;stroke-dashoffset:1.20000057;stroke-opacity:1;visibility:visible;display:inline;overflow:visible"
           sodipodi:nodetypes="csssccccccccccccccccccccccccccsccccscccsssccccccccccccccccccccc"
           id="path2992"
           d="M 596.02933,52.274237 C 586.69849,51.13127 577.09649,53.665589 574.5963,57.931199 C 572.09611,62.196811 577.63983,66.58638 586.97067,67.729347 C 596.30151,68.872313 605.90351,66.337996 608.4037,62.072384 C 610.90389,57.806773 605.36017,53.417203 596.02933,52.274237 z M 592.51353,53 C 593.49407,53.075308 593.62572,53.194794 593.5937,53.309793 L 591.3533,57.132172 C 591.2412,57.32342 590.85851,57.444486 590.30749,57.536506 C 589.74914,57.57843 589.31452,57.559332 589.01545,57.42261 L 582.89525,54.617124 C 582.66167,54.476713 582.8216,54.250621 585.49091,53.50045 C 586.98401,53.188868 588.59097,52.996311 590.25715,52.930667 C 591.23722,52.945249 592.03054,52.962906 592.51353,53 z M 597.28279,53.584203 C 597.75019,53.63644 598.57986,53.801848 599.79567,54.099073 C 601.16683,54.536772 602.34789,55.070843 603.30017,55.681966 C 604.79137,56.941773 604.68259,57.174131 604.32673,57.242338 L 595.95804,58.273031 C 595.52336,58.326279 595.11047,58.223798 594.64015,58.037648 C 594.3107,57.84668 594.14598,57.666425 594.25107,57.487131 L 596.49147,53.664751 C 596.56991,53.579221 596.74289,53.523866 597.28279,53.584203 z M 580.62413,55.566491 C 580.67276,55.573403 580.72659,55.584742 580.76696,55.598777 L 586.89525,58.390464 C 587.19826,58.528985 587.22003,58.735063 587.12315,58.995188 C 586.92254,59.242607 586.6783,59.416099 586.26438,59.466802 L 577.90378,60.483696 C 577.52457,60.505763 577.15991,60.326253 577.06641,58.93171 C 577.14042,58.558069 577.27448,58.190349 577.49408,57.81569 C 577.71367,57.441031 577.99977,57.091935 578.34433,56.751435 C 579.73744,55.722497 580.30619,55.521308 580.62413,55.566491 z M 605.25523,58.583639 C 605.58,58.617182 605.8525,58.921419 605.93359,60.130937 C 605.85958,60.504578 605.72552,60.872298 605.50592,61.246957 C 605.28633,61.621617 605.00023,61.970712 604.65567,62.311212 C 603.04945,63.49755 602.5373,63.569656 602.23304,63.46387 L 596.10475,60.672183 C 595.81764,60.540931 595.77614,60.349545 595.85259,60.108857 C 595.86275,60.095409 595.86632,60.080443 595.87685,60.067459 C 595.88193,60.053808 595.89521,60.040031 595.90112,60.026061 C 596.09816,59.800145 596.34342,59.643887 596.73562,59.595845 L 605.09622,58.578951 C 605.14653,58.576023 605.20556,58.578508 605.25523,58.583639 z M 587.64783,60.804671 C 587.85293,60.839608 588.06662,60.90434 588.28547,60.986308 C 588.66202,61.191948 588.86102,61.384269 588.74893,61.575516 L 586.50853,65.397896 C 586.36218,65.557471 585.82453,65.604125 583.20433,64.963574 C 581.83317,64.525878 580.65211,63.991803 579.69983,63.380681 C 578.20863,62.120874 578.31741,61.888514 578.67327,61.820309 L 587.04196,60.789616 C 587.24623,60.764594 587.44273,60.769735 587.64783,60.804671 z M 593.47357,61.518286 C 593.67776,61.536323 593.84099,61.574411 593.98455,61.640038 L 600.10475,64.445524 C 600.33834,64.585932 600.1784,64.812025 597.50909,65.562197 C 596.01599,65.873778 594.40903,66.066338 592.74285,66.13198 C 589.77311,66.0878 589.35851,65.924502 589.4063,65.752855 L 591.6467,61.930475 C 591.76311,61.731871 592.17374,61.612847 592.76096,61.519736 C 593.02421,61.502263 593.26937,61.500249 593.47357,61.518286 z" />
        <path
           transform="matrix(1.142856,0,0,1.290324,494.00011,46.048379)"
           style="fill:none;fill-opacity:1;fill-rule:nonzero;stroke:url(#linearGradient3129);stroke-width:0.82348341;stroke-linecap:round;stroke-linejoin:miter;marker:none;marker-start:none;marker-mid:none;marker-end:none;stroke-miterlimit:4;stroke-dasharray:none;stroke-dashoffset:1.20000057;stroke-opacity:1;visibility:visible;display:inline;overflow:visible"
           sodipodi:type="arc"
           sodipodi:ry="5.8125"
           sodipodi:rx="14.875"
           sodipodi:cy="10.8125"
           sodipodi:cx="85.3125"
           id="path3882"
           d="M 100.1875,10.8125 A 14.875,5.8125 0 1 1 70.4375,10.8125 A 14.875,5.8125 0 1 1 100.1875,10.8125 z" />
        <path
           style="opacity:0.7;fill:url(#linearGradient3131);fill-opacity:1;fill-rule:nonzero;stroke:none;stroke-width:0.69588834;stroke-linecap:round;stroke-linejoin:round;marker:none;marker-start:none;marker-mid:none;marker-end:none;stroke-miterlimit:4;stroke-dasharray:none;stroke-dashoffset:1.20000057;stroke-opacity:1;visibility:visible;display:inline;overflow:visible"
           id="path6550"
           d="M 590.21875,52.46875 C 588.52946,52.535304 586.92835,52.713616 585.40625,53.03125 C 585.39584,53.030905 585.38541,53.030905 585.375,53.03125 C 584.03035,53.409144 583.31816,53.671511 582.90625,53.875 C 582.70029,53.976745 582.53374,54.024698 582.40625,54.3125 C 582.3425,54.456401 582.35964,54.683059 582.4375,54.8125 C 582.51536,54.941941 582.59213,54.992705 582.65625,55.03125 C 582.67628,55.043196 582.69717,55.053642 582.71875,55.0625 L 588.8125,57.875 C 589.27707,58.087382 589.76688,58.043314 590.34375,58 C 590.35416,58.000345 590.36459,58.000345 590.375,58 C 590.66736,57.951176 590.93252,57.897112 591.15625,57.8125 C 591.37998,57.727888 591.60228,57.627033 591.75,57.375 L 594,53.5625 C 594.02692,53.524165 594.04798,53.482037 594.0625,53.4375 C 594.10103,53.299111 594.0511,53.040171 593.9375,52.90625 C 593.8239,52.772329 593.71333,52.729453 593.59375,52.6875 C 593.3546,52.603594 593.03918,52.57026 592.53125,52.53125 C 592.01622,52.491695 591.22978,52.483328 590.25,52.46875 C 590.23959,52.468405 590.22916,52.468405 590.21875,52.46875 z M 590.25,52.9375 C 591.23006,52.952082 592.01701,52.962906 592.5,53 C 593.48054,53.075308 593.62577,53.197501 593.59375,53.3125 L 591.34375,57.125 C 591.23166,57.316248 590.86351,57.43923 590.3125,57.53125 C 589.75414,57.573174 589.29907,57.574222 589,57.4375 L 582.90625,54.625 C 582.67267,54.484589 582.83069,54.250171 585.5,53.5 C 586.9931,53.188418 588.58381,53.003144 590.25,52.9375 z M 596.65625,53.09375 C 596.47442,53.112971 596.28239,53.206211 596.15625,53.34375 C 596.13351,53.362583 596.11258,53.383508 596.09375,53.40625 L 593.84375,57.25 C 593.71028,57.477708 593.76632,57.846965 593.90625,58.03125 C 594.04618,58.215535 594.18749,58.328808 594.375,58.4375 C 594.39503,58.449446 594.41592,58.459892 594.4375,58.46875 C 594.93824,58.66694 595.47561,58.818064 596.03125,58.75 L 604.375,57.71875 C 604.38541,57.719095 604.39584,57.719095 604.40625,57.71875 C 604.53889,57.693327 604.70841,57.654058 604.875,57.4375 C 605.04159,57.220942 605.03081,56.912667 604.9375,56.71875 C 604.75089,56.330917 604.38701,55.956264 603.625,55.3125 C 603.60497,55.300554 603.58408,55.290108 603.5625,55.28125 C 602.56488,54.641027 601.34028,54.104044 599.9375,53.65625 C 599.92758,53.645351 599.91715,53.634923 599.90625,53.625 C 598.67878,53.324925 597.85031,53.181613 597.34375,53.125 C 597.05792,53.093057 596.83808,53.074529 596.65625,53.09375 z M 596.71875,53.5625 C 596.83929,53.545512 597.0113,53.563581 597.28125,53.59375 C 597.74865,53.645987 598.56544,53.796525 599.78125,54.09375 C 601.15241,54.531449 602.36023,55.076377 603.3125,55.6875 C 604.80371,56.947307 604.66836,57.181793 604.3125,57.25 L 595.96875,58.28125 C 595.53406,58.334498 595.09532,58.2174 594.625,58.03125 C 594.29555,57.840282 594.14491,57.679294 594.25,57.5 L 596.5,53.65625 C 596.53922,53.613485 596.59821,53.579488 596.71875,53.5625 z M 580.6875,55.09375 C 580.09602,55.009693 579.48117,55.327185 578.0625,56.375 C 578.04092,56.383858 578.02003,56.394304 578,56.40625 C 577.63208,56.769827 577.33737,57.14685 577.09375,57.5625 C 576.84984,57.978638 576.67867,58.415039 576.59375,58.84375 C 576.58821,58.885233 576.58821,58.927267 576.59375,58.96875 C 576.64321,59.706413 576.75471,60.158753 577,60.5 C 577.24529,60.841247 577.67344,60.952867 577.9375,60.9375 C 577.94791,60.937845 577.95834,60.937845 577.96875,60.9375 L 586.3125,59.9375 C 586.82956,59.874163 587.24037,59.632717 587.5,59.3125 C 587.53002,59.26458 587.55119,59.211656 587.5625,59.15625 C 587.62891,58.977942 587.693,58.781478 587.625,58.53125 C 587.557,58.281022 587.33142,58.046152 587.09375,57.9375 L 580.96875,55.15625 C 580.95834,55.155905 580.94791,55.155905 580.9375,55.15625 C 580.81124,55.112352 580.74082,55.101328 580.6875,55.09375 z M 580.625,55.5625 C 580.67364,55.569412 580.74088,55.579715 580.78125,55.59375 L 586.90625,58.375 C 587.20926,58.513521 587.22188,58.739875 587.125,59 C 586.92439,59.247419 586.66392,59.418047 586.25,59.46875 L 577.90625,60.46875 C 577.52704,60.490817 577.15599,60.332043 577.0625,58.9375 C 577.13651,58.563859 577.2804,58.187159 577.5,57.8125 C 577.7196,57.437841 577.99919,57.0905 578.34375,56.75 C 579.73686,55.721062 580.30706,55.517317 580.625,55.5625 z M 605.03125,58.125 L 596.6875,59.125 C 596.22774,59.181318 595.87978,59.392513 595.625,59.65625 C 595.62398,59.656939 595.59862,59.684777 595.59375,59.6875 C 595.58405,59.698064 595.57184,59.708045 595.5625,59.71875 C 595.5516,59.728673 595.54117,59.739101 595.53125,59.75 L 595.5,59.75 C 595.55074,59.687412 595.54103,59.716862 595.46875,59.8125 C 595.4684,59.822914 595.4684,59.833336 595.46875,59.84375 C 595.44425,59.872393 595.42327,59.903867 595.40625,59.9375 C 595.34829,60.119981 595.29272,60.361835 595.375,60.59375 C 595.45728,60.825665 595.67866,61.020959 595.90625,61.125 L 602.03125,63.90625 C 602.04166,63.906595 602.05209,63.906595 602.0625,63.90625 C 602.32747,63.998373 602.69165,63.992584 603.125,63.8125 C 603.55835,63.632416 604.1184,63.292476 604.9375,62.6875 C 604.95908,62.678642 604.97997,62.668196 605,62.65625 C 605.36792,62.292673 605.66263,61.915652 605.90625,61.5 C 606.15016,61.083863 606.32133,60.647464 606.40625,60.21875 C 606.41179,60.177268 606.41179,60.135232 606.40625,60.09375 C 606.36343,59.455094 606.27,59.018395 606.09375,58.6875 C 605.9175,58.356605 605.59843,58.154532 605.3125,58.125 C 605.21286,58.114709 605.11948,58.121684 605.0625,58.125 C 605.05209,58.124655 605.04166,58.124655 605.03125,58.125 z M 605.09375,58.59375 C 605.14406,58.590822 605.20032,58.588619 605.25,58.59375 C 605.57476,58.627293 605.85641,58.915482 605.9375,60.125 C 605.86349,60.498641 605.7196,60.875341 605.5,61.25 C 605.2804,61.62466 605.00081,61.972 604.65625,62.3125 C 603.05003,63.498838 602.52302,63.574536 602.21875,63.46875 L 596.09375,60.6875 C 595.80664,60.556248 595.7673,60.334438 595.84375,60.09375 C 595.85391,60.080302 595.86447,60.075484 595.875,60.0625 C 595.88009,60.048849 595.90034,60.04522 595.90625,60.03125 C 596.10329,59.805334 596.3578,59.641792 596.75,59.59375 L 605.09375,58.59375 z M 586.96875,60.3125 L 578.625,61.34375 C 578.61459,61.343405 578.60416,61.343405 578.59375,61.34375 C 578.46111,61.369172 578.29159,61.408441 578.125,61.625 C 577.95841,61.841559 577.96919,62.149834 578.0625,62.34375 C 578.24911,62.731583 578.61299,63.106236 579.375,63.75 C 579.39503,63.761946 579.41592,63.772392 579.4375,63.78125 C 580.43512,64.421471 581.65971,64.958459 583.0625,65.40625 C 583.07242,65.417149 583.08285,65.427577 583.09375,65.4375 C 584.41317,65.760054 585.23118,65.914896 585.75,65.96875 C 586.00941,65.995677 586.1996,65.995126 586.375,65.96875 C 586.5504,65.942374 586.72122,65.852356 586.84375,65.71875 C 586.86649,65.699917 586.88742,65.678992 586.90625,65.65625 L 589.15625,61.8125 C 589.23093,61.685081 589.28254,61.503864 589.25,61.34375 C 589.21746,61.183636 589.11091,61.054933 589.03125,60.96875 C 588.87192,60.796385 588.70354,60.704907 588.5,60.59375 C 588.47997,60.581804 588.45908,60.571358 588.4375,60.5625 C 588.21309,60.47845 588.00852,60.387788 587.75,60.34375 C 587.52227,60.30496 587.24496,60.278666 586.96875,60.3125 z M 587.03125,60.78125 C 587.23552,60.756228 587.45115,60.777564 587.65625,60.8125 C 587.86135,60.847437 588.0624,60.918032 588.28125,61 C 588.6578,61.20564 588.8621,61.371253 588.75,61.5625 L 586.5,65.40625 C 586.35365,65.565825 585.83894,65.609301 583.21875,64.96875 C 581.84759,64.531054 580.63978,63.986122 579.6875,63.375 C 578.1963,62.115193 578.33164,61.880705 578.6875,61.8125 L 587.03125,60.78125 z M 592.6875,61.0625 C 592.38029,61.111212 592.10872,61.167973 591.875,61.25 C 591.64128,61.332027 591.40451,61.423882 591.25,61.6875 L 589,65.5 C 588.97308,65.538335 588.95202,65.580463 588.9375,65.625 C 588.90494,65.741959 588.92059,65.932646 589,66.0625 C 589.07941,66.192354 589.19427,66.237608 589.28125,66.28125 C 589.45521,66.368533 589.61712,66.400918 589.875,66.4375 C 590.39075,66.510664 591.25703,66.571539 592.75,66.59375 C 592.76041,66.594095 592.77084,66.594095 592.78125,66.59375 C 594.47054,66.527198 596.07165,66.348883 597.59375,66.03125 C 597.60416,66.031595 597.61459,66.031595 597.625,66.03125 C 598.96965,65.653356 599.68184,65.39099 600.09375,65.1875 C 600.29971,65.085755 600.46626,65.037804 600.59375,64.75 C 600.6575,64.606098 600.64036,64.37944 600.5625,64.25 C 600.48464,64.12056 600.40787,64.069795 600.34375,64.03125 C 600.32372,64.019304 600.30283,64.008858 600.28125,64 L 594.1875,61.1875 C 593.92224,61.066235 593.69487,61.079713 593.5,61.0625 C 593.26113,61.0414 593.00114,61.043757 592.71875,61.0625 C 592.70834,61.062155 592.69791,61.062155 592.6875,61.0625 z M 592.75,61.53125 C 593.01325,61.513777 593.26456,61.513213 593.46875,61.53125 C 593.67295,61.549287 593.85645,61.559373 594,61.625 L 600.09375,64.4375 C 600.32734,64.577908 600.16931,64.812328 597.5,65.5625 C 596.0069,65.874081 594.41618,66.059358 592.75,66.125 C 589.78026,66.080819 589.35846,65.921647 589.40625,65.75 L 591.65625,61.9375 C 591.77266,61.738896 592.16277,61.624361 592.75,61.53125 z" />
        <path
           style="opacity:0.6;fill:url(#linearGradient3135);fill-opacity:1;fill-rule:evenodd;stroke:none;stroke-width:1px;stroke-linecap:butt;stroke-linejoin:miter;stroke-opacity:1"
           sodipodi:nodetypes="cccc"
           id="path3009"
           d="M 607.10058,73.560622 C 608.54585,73.922695 609.60187,74.362619 610.45934,74.842253 C 611.66266,73.973241 613.05474,71.640304 610.7245,68.831845 C 610.97435,69.937288 611.18243,71.455139 607.10058,73.560622 z" />
      </g>
      <path
         id="path3878"
         transform="matrix(-0.1902174,0,0,-0.183908,348.37751,72.847336)"
         d="M 149.03125,71.1875 C 148.86702,71.191983 148.73452,71.201527 148.59375,71.21875 C 147.962,71.296032 147.42794,71.478885 147,71.8125 C 146.78603,71.979307 146.5998,72.190348 146.5,72.5 C 146.4002,72.809652 146.42947,73.188856 146.59375,73.46875 C 146.91955,74.023812 147.44738,74.227629 148,74.375 C 148.55262,74.522371 149.17865,74.577539 149.8125,74.5 C 150.44514,74.422615 150.9831,74.24628 151.40625,73.90625 C 151.61782,73.736235 151.81415,73.497101 151.90625,73.1875 C 151.99835,72.877899 151.94249,72.524719 151.78125,72.25 C 151.49716,71.765988 151.06078,71.560688 150.59375,71.40625 C 150.12672,71.251812 149.57959,71.172513 149.03125,71.1875 z M 149.0625,71.84375 C 149.53407,71.830861 149.99125,71.90435 150.375,72.03125 C 150.79205,72.16916 151.01328,72.296926 151.1875,72.59375 C 151.25594,72.710362 151.28122,72.895061 151.25,73 C 151.20526,73.150382 151.13012,73.270438 151,73.375 C 150.70496,73.612084 150.27499,73.775711 149.71875,73.84375 C 149.1758,73.91017 148.65853,73.844363 148.1875,73.71875 C 147.68091,73.583653 147.38949,73.469134 147.1875,73.125 C 147.13948,73.043192 147.08599,72.839787 147.125,72.71875 C 147.17736,72.556284 147.25979,72.457924 147.40625,72.34375 C 147.71451,72.103435 148.1371,71.942331 148.6875,71.875 C 148.80756,71.860311 148.91439,71.847793 149.0625,71.84375 z"
         style="opacity:1;fill:url(#radialGradient3888);fill-opacity:1;stroke:none;stroke-width:2;stroke-linecap:square;stroke-linejoin:miter;stroke-miterlimit:4;stroke-opacity:0;display:inline;filter:url(#filter3877);enable-background:new" />
      <path
         id="path3881"
         transform="matrix(-0.1902174,0,0,-0.183908,351.33971,72.563395)"
         d="M 156.5625,69.75 C 155.90708,69.786605 155.27369,69.912505 154.71875,70.09375 C 153.97883,70.33541 153.31453,70.670149 152.9375,71.3125 C 152.72153,71.680459 152.65398,72.16444 152.78125,72.5625 C 152.90852,72.96056 153.18866,73.260556 153.5,73.5 C 154.12267,73.978889 154.97222,74.249272 156,74.375 C 157.03002,74.500997 158.05729,74.418528 158.9375,74.1875 C 159.81771,73.956472 160.60112,73.607844 161.03125,72.875 C 161.24548,72.509999 161.30904,72.054305 161.1875,71.65625 C 161.06596,71.258195 160.80834,70.960041 160.5,70.71875 C 159.88332,70.236168 159.02828,69.938285 158,69.8125 C 157.75963,69.783098 157.49565,69.757565 157.21875,69.75 C 156.99525,69.743892 156.78097,69.737798 156.5625,69.75 z M 156.59375,70.40625 C 156.77542,70.396103 156.96352,70.400129 157.1875,70.40625 C 157.43485,70.413008 157.67817,70.440852 157.90625,70.46875 C 158.85233,70.58448 159.60854,70.870302 160.09375,71.25 C 160.3337,71.437772 160.4597,71.609406 160.53125,71.84375 C 160.59197,72.0426 160.55769,72.32648 160.4375,72.53125 C 160.14033,73.037562 159.59572,73.317477 158.78125,73.53125 C 157.98708,73.739696 157.03541,73.833938 156.09375,73.71875 C 155.13679,73.601686 154.39193,73.342282 153.90625,72.96875 C 153.65539,72.775821 153.47634,72.562976 153.40625,72.34375 C 153.34797,72.161477 153.41434,71.855433 153.53125,71.65625 C 153.78567,71.22279 154.25872,70.940442 154.9375,70.71875 C 155.4364,70.555808 155.9998,70.439422 156.59375,70.40625 z"
         style="opacity:1;fill:url(#radialGradient3890);fill-opacity:1;stroke:none;stroke-width:2;stroke-linecap:square;stroke-linejoin:miter;stroke-miterlimit:4;stroke-opacity:0;display:inline;filter:url(#filter3885);enable-background:new" />
      <path
         transform="matrix(-0.1902174,0,0,-0.183908,353.99143,73.379518)"
         id="path3884"
         d="M 163.96875,72.625 C 163.35556,72.625 162.74611,72.727996 162.21875,72.96875 C 161.69058,73.209879 161.1875,73.656775 161.1875,74.3125 C 161.1875,74.968225 161.69057,75.383877 162.21875,75.625 C 163.28335,76.111017 164.62291,76.111011 165.6875,75.625 C 166.21568,75.383877 166.71875,74.968224 166.71875,74.3125 C 166.71875,73.656776 166.21568,73.209875 165.6875,72.96875 C 165.17397,72.734314 164.58194,72.625005 163.96875,72.625 z M 163.96875,73.28125 C 164.50223,73.281254 164.99823,73.407482 165.40625,73.59375 C 165.79598,73.77167 166.0625,73.999832 166.0625,74.3125 C 166.0625,74.468834 166.01194,74.568459 165.90625,74.6875 C 165.80056,74.806541 165.61107,74.906495 165.40625,75 C 164.53502,75.397736 163.37123,75.397741 162.5,75 C 162.29518,74.906495 162.10569,74.806541 162,74.6875 C 161.89431,74.568459 161.84375,74.468835 161.84375,74.3125 C 161.84375,73.999837 162.11027,73.771677 162.5,73.59375 C 162.91551,73.40406 163.43067,73.28125 163.96875,73.28125 z"
         style="opacity:1;fill:url(#radialGradient3892);fill-opacity:1;stroke:none;stroke-width:2;stroke-linecap:square;stroke-linejoin:miter;stroke-miterlimit:4;stroke-opacity:0;display:inline;filter:url(#filter3889);enable-background:new" />
      <path
         id="path3886"
         transform="matrix(-0.1902174,0,0,-0.183908,352.41007,71.059673)"
         d="M 159.46875,66.34375 C 159.00813,66.373073 158.60279,66.466395 158.21875,66.625 C 157.83471,66.783605 157.45805,66.998526 157.21875,67.40625 C 157.05929,67.67793 156.9987,68.032151 157.09375,68.34375 C 157.1888,68.655349 157.41209,68.897965 157.625,69.0625 C 158.05081,69.391571 158.56207,69.548497 159.1875,69.625 C 159.81325,69.701541 160.42239,69.669839 160.96875,69.53125 C 161.51511,69.392661 162.05171,69.175792 162.375,68.625 C 162.53624,68.350281 162.5921,67.997105 162.5,67.6875 C 162.4079,67.377895 162.21158,67.138765 162,66.96875 C 161.57685,66.62872 161.03888,66.452383 160.40625,66.375 C 160.10927,66.338669 159.78704,66.323491 159.46875,66.34375 z M 159.5,67 C 159.76846,66.982913 160.05122,66.999286 160.3125,67.03125 C 160.86872,67.099287 161.29871,67.262919 161.59375,67.5 C 161.72387,67.604555 161.79901,67.724602 161.84375,67.875 C 161.87497,67.979949 161.84969,68.164635 161.78125,68.28125 C 161.58307,68.618899 161.29867,68.751679 160.8125,68.875 C 160.35768,68.99037 159.83277,69.036212 159.28125,68.96875 C 158.72182,68.90032 158.33315,68.764564 158.03125,68.53125 C 157.89123,68.423046 157.78787,68.280388 157.75,68.15625 C 157.71955,68.056422 157.74433,67.866151 157.8125,67.75 C 157.94836,67.518516 158.13929,67.386065 158.46875,67.25 C 158.78468,67.119522 159.10453,67.025176 159.5,67 z"
         style="opacity:1;fill:url(#radialGradient3894);fill-opacity:1;stroke:none;stroke-width:2;stroke-linecap:square;stroke-linejoin:miter;stroke-miterlimit:4;stroke-opacity:0;display:inline;filter:url(#filter3881);enable-background:new" />
      <g
         transform="translate(0.265165,0.3093592)"
         style="opacity:0.97321424"
         id="g3905">
        <path
           sodipodi:type="arc"
           style="opacity:1;fill:#000000;fill-opacity:1;stroke:none;stroke-width:1;stroke-linecap:square;stroke-linejoin:round;stroke-miterlimit:4;stroke-dasharray:none;stroke-opacity:1"
           id="path3896"
           sodipodi:cx="321.27344"
           sodipodi:cy="58.929688"
           sodipodi:rx="0.6875"
           sodipodi:ry="0.2421875"
           d="M 321.96094,58.929688 A 0.6875,0.2421875 0 1 1 320.58594,58.929688 A 0.6875,0.2421875 0 1 1 321.96094,58.929688 z"
           transform="matrix(0.9034091,0,0,1.1290323,30.965687,-7.5725807)" />
        <path
           sodipodi:type="arc"
           style="opacity:1;fill:#000000;fill-opacity:1;stroke:none;stroke-width:1;stroke-linecap:square;stroke-linejoin:round;stroke-miterlimit:4;stroke-dasharray:none;stroke-opacity:1;display:inline;enable-background:new"
           id="path3898"
           sodipodi:cx="321.27344"
           sodipodi:cy="58.929688"
           sodipodi:rx="0.6875"
           sodipodi:ry="0.2421875"
           d="M 321.96094,58.929688 A 0.6875,0.2421875 0 1 1 320.58594,58.929688 A 0.6875,0.2421875 0 1 1 321.96094,58.929688 z"
           transform="matrix(0.4829546,0,0,0.6035707,166.53875,22.650518)" />
        <path
           sodipodi:type="arc"
           style="opacity:1;fill:#000000;fill-opacity:1;stroke:none;stroke-width:1;stroke-linecap:square;stroke-linejoin:round;stroke-miterlimit:4;stroke-dasharray:none;stroke-opacity:1;display:inline;enable-background:new"
           id="path3900"
           sodipodi:cx="321.27344"
           sodipodi:cy="58.929688"
           sodipodi:rx="0.6875"
           sodipodi:ry="0.2421875"
           d="M 321.96094,58.929688 A 0.6875,0.2421875 0 1 1 320.58594,58.929688 A 0.6875,0.2421875 0 1 1 321.96094,58.929688 z"
           transform="matrix(0.4829546,0,0,0.6035707,167.35125,23.838018)" />
        <path
           sodipodi:type="arc"
           style="opacity:1;fill:#000000;fill-opacity:1;stroke:none;stroke-width:1;stroke-linecap:square;stroke-linejoin:round;stroke-miterlimit:4;stroke-dasharray:none;stroke-opacity:1;display:inline;enable-background:new"
           id="path3903"
           sodipodi:cx="321.27344"
           sodipodi:cy="58.929688"
           sodipodi:rx="0.6875"
           sodipodi:ry="0.2421875"
           d="M 321.96094,58.929688 A 0.6875,0.2421875 0 1 1 320.58594,58.929688 A 0.6875,0.2421875 0 1 1 321.96094,58.929688 z"
           transform="matrix(0.4829546,0,0,0.6035707,164.53875,23.548955)" />
      </g>
      <path
         style="opacity:0.40250011;fill:url(#linearGradient3998);fill-opacity:1;fill-rule:evenodd;stroke:none;stroke-width:1px;stroke-linecap:butt;stroke-linejoin:miter;stroke-opacity:1;display:inline;enable-background:new"
         sodipodi:nodetypes="ccccc"
         id="path2111"
         d="M 600.15625,78 C 605.07445,77.854021 610.40902,77.039434 612.09375,74.59375 L 611.78125,81.9375 C 611.41011,85.784736 606.29719,87.510862 600.875,87.71875 L 600.15625,78 z"
         transform="translate(-270,0)" />
    </g>
  </g>
</svg>
